<?xml version="1.0" encoding="UTF-8"?>
<svg version="1.1" xmlns="http://www.w3.org/2000/svg" width="512" height="512">
<path d="M0 0 C1.44354273 -0.00379266 2.8870818 -0.00930044 4.33061218 -0.01637268 C8.21243584 -0.03021144 12.0938106 -0.0192447 15.97560883 -0.00266147 C20.05096202 0.01128296 24.12629165 0.00471915 28.20166016 0.00120544 C35.03376432 -0.00148685 41.86569178 0.01190249 48.69775391 0.03515625 C56.59373019 0.06184523 64.48941286 0.0634825 72.38541889 0.05176789 C79.99832728 0.04099355 87.61112959 0.04716893 95.22402954 0.06132317 C98.45840975 0.06707741 101.69271217 0.06700495 104.92709351 0.06225777 C108.72922654 0.05748847 112.53103721 0.06758722 116.3331089 0.08921242 C117.72790248 0.09477801 119.12272705 0.09524764 120.51752281 0.09025955 C122.42038047 0.08430724 124.32326945 0.09864444 126.22607422 0.11402893 C127.82320755 0.11767377 127.82320755 0.11767377 129.4526062 0.12139225 C132.60682346 0.55691022 133.96903409 1.26115664 136.20703125 3.50170898 C137.31076503 7.4751506 137.62246708 9.5917067 135.89453125 13.37670898 C134.20703125 15.50170898 134.20703125 15.50170898 132.20703125 16.50170898 C130.42005219 16.60269148 128.62930939 16.63952896 126.8394928 16.64646912 C125.13010529 16.65681686 125.13010529 16.65681686 123.38618469 16.66737366 C122.12960556 16.66998703 120.87302643 16.6726004 119.57836914 16.67529297 C117.55372475 16.6855585 115.52908036 16.69582613 113.50443637 16.70617211 C111.3229433 16.71641461 109.14145257 16.72426072 106.95994759 16.73150444 C102.40745872 16.74695894 97.85503935 16.77091232 93.30259705 16.79640198 C80.35501509 16.86758522 67.40739215 16.92720157 54.4597168 16.97851562 C47.31249099 17.00691694 40.1653332 17.04235776 33.01817888 17.08516937 C28.50192647 17.11180079 23.98575101 17.12979315 19.46943581 17.14120662 C16.64345044 17.15040374 13.81755739 17.16779937 10.99162674 17.18738556 C9.07698886 17.19829325 7.16230362 17.19960486 5.24763489 17.20051575 C-8.36619442 17.31408397 -20.8106226 19.20004123 -31.1953125 28.70092773 C-38.25460002 36.65772858 -40.73638623 45.15588715 -41.79296875 55.50170898 C-41.90439209 56.43281494 -42.01581543 57.3639209 -42.13061523 58.32324219 C-44.65652054 82.05451455 -36.76431532 100.15771788 -26.85723877 121.23178101 C-25.79272892 123.50222051 -24.74509564 125.77982528 -23.70068359 128.05957031 C-19.96711383 136.16691047 -16.03470196 144.03853985 -11.41796875 151.68920898 C-10.86125488 152.61991211 -10.30454102 153.55061523 -9.73095703 154.50952148 C-5.11934921 162.13341197 -0.1956936 169.42073615 5.20703125 176.50170898 C5.63693359 177.0729248 6.06683594 177.64414062 6.50976562 178.23266602 C13.23631935 187.14657718 20.45458356 195.46803586 28.20703125 203.50170898 C28.77357422 204.09016602 29.34011719 204.67862305 29.92382812 205.28491211 C37.29123151 212.89653881 44.79476202 220.03589567 53.20703125 226.50170898 C53.76519531 226.94160156 54.32335937 227.38149414 54.8984375 227.8347168 C66.09994464 236.65923025 77.91603126 244.28441825 90.20703125 251.50170898 C91.2431958 252.11393311 91.2431958 252.11393311 92.30029297 252.73852539 C105.64240512 260.50935415 120.10129018 266.17674672 134.39648438 271.93481445 C136.95133634 272.9690184 139.46541693 274.06432212 141.97070312 275.21313477 C150.86284214 279.1992236 158.6652034 280.32341175 168.45703125 280.00170898 C169.72804688 279.99139648 170.9990625 279.98108398 172.30859375 279.97045898 C186.1986738 279.74134426 198.99528573 278.01325275 209.609375 268.30249023 C220.07805225 256.50283201 220.35849992 243.02900165 220.33300781 228.05908203 C220.33440538 226.72435955 220.33630652 225.38963751 220.33866882 224.05491638 C220.34313724 221.1985253 220.34502126 218.34214849 220.34513092 215.48575401 C220.34627799 210.96823407 220.35916209 206.45079455 220.37469482 201.93330383 C220.37726768 201.16882689 220.37984053 200.40434994 220.38249135 199.61670703 C220.38775667 198.05468934 220.39304215 196.49267172 220.39834738 194.93065417 C220.43340063 184.42527271 220.4600002 173.91999575 220.45751953 163.41455078 C220.45593214 156.3097485 220.47192751 149.20522476 220.50822616 142.10051185 C220.52668762 138.34559379 220.5360265 134.59114105 220.52375031 130.83618736 C220.51021282 126.65619162 220.53520709 122.4772853 220.56347656 118.29736328 C220.55327988 117.05418335 220.54308319 115.81100342 220.53257751 114.53015137 C220.54641983 113.3933342 220.56026215 112.25651703 220.57452393 111.08525085 C220.57672377 109.60394951 220.57672377 109.60394951 220.57896805 108.09272289 C221.45049502 104.49732277 223.14432386 103.44747519 226.20703125 101.50170898 C229.9913374 100.87099129 231.59416157 101.1177822 234.85484886 103.16041088 C237.20703125 105.50170898 237.20703125 105.50170898 237.83623695 108.2477541 C237.83906465 109.83904274 237.83906465 109.83904274 237.84194946 111.46247864 C237.85604858 112.68318054 237.87014771 113.90388245 237.88467407 115.16157532 C237.87495224 116.51169194 237.86471137 117.8618049 237.85400391 119.21191406 C237.86078097 120.63643512 237.86968461 122.06094741 237.8805542 123.48544312 C237.90336702 127.35614271 237.89449754 131.22617646 237.87865877 135.09688783 C237.86598277 139.15914826 237.8777471 143.22135239 237.8855896 147.28361511 C237.89469266 154.11740301 237.88269314 160.95092105 237.85888672 167.78466797 C237.83179364 175.65199085 237.84040009 183.5186634 237.86801875 191.38596994 C237.89083396 198.15910878 237.8938462 204.93205356 237.8808254 211.70521849 C237.8730831 215.74165978 237.87184096 219.77779751 237.88850784 223.81421852 C237.90313073 227.62220013 237.89261291 231.42936067 237.86403656 235.2372551 C237.85444174 237.27516857 237.86898135 239.3131528 237.88467407 241.35102844 C237.70077086 257.67795568 232.04296227 270.33433314 220.95703125 282.25170898 C207.2558249 295.39652117 190.94685344 297.10040594 172.94140625 297.01928711 C170.90986633 297.02471564 168.87833036 297.03184238 166.84680176 297.04052734 C161.35917911 297.05867658 155.87185913 297.05172792 150.38423157 297.039011 C144.62431053 297.02883968 138.86441432 297.03828812 133.10449219 297.04455566 C123.43419777 297.05182006 113.7640258 297.04227607 104.09375 297.02319336 C92.93511517 297.00142704 81.77677274 297.00847925 70.61814499 297.03049898 C61.01437259 297.0486874 51.4106879 297.05119448 41.80690384 297.0407443 C36.08114076 297.0345283 30.35551485 297.03362151 24.62976074 297.04689026 C19.24513655 297.05849827 13.86088708 297.05033279 8.4763031 297.02731323 C6.50756958 297.02205253 4.53880419 297.02349434 2.57008362 297.03236389 C-15.73878366 297.10720541 -29.83413146 293.66262498 -43.50390625 280.81811523 C-53.43377862 270.76962665 -59.11106284 258.03176694 -59.06712341 243.86437988 C-59.07236009 243.01960351 -59.07759677 242.17482713 -59.08299214 241.30445147 C-59.09793854 238.48669189 -59.09869612 235.66911478 -59.09936523 232.85131836 C-59.10699055 230.8253855 -59.11541869 228.79945552 -59.12458801 226.77352905 C-59.14650867 221.27723831 -59.15532917 215.78100321 -59.16041446 210.28467369 C-59.16406224 206.84570536 -59.17030464 203.4067515 -59.17741585 199.9677887 C-59.20190616 187.95532596 -59.21496043 175.94290634 -59.21850586 163.93041992 C-59.22213624 152.7588642 -59.25199722 141.58758402 -59.29391044 130.41611242 C-59.32869119 120.80646504 -59.34405568 111.19690859 -59.34475189 101.58719873 C-59.34554233 95.85616882 -59.35417311 90.12541946 -59.38274956 84.39445496 C-59.40906218 78.99673517 -59.411062 73.59952582 -59.39509392 68.20177078 C-59.39328964 66.23105881 -59.3998768 64.26031659 -59.41591263 62.28966904 C-59.56178025 43.18439458 -55.89820496 29.10858791 -42.54296875 14.75170898 C-30.70714024 3.39652325 -15.94698386 -0.12094194 0 0 Z " fill="#4C5CFF" transform="translate(154.79296875,119.498291015625)"/>
<path d="M0 0 C2.46805842 2.46805842 3.174956 4.65423637 4.43359375 7.9140625 C5.15083618 9.75000977 5.15083618 9.75000977 5.88256836 11.62304688 C6.1355368 12.27523193 6.38850525 12.92741699 6.6491394 13.59936523 C17.48620865 41.44442033 29.78248399 68.12357843 48 92 C48.64485352 92.85682373 48.64485352 92.85682373 49.30273438 93.73095703 C56.0292881 102.64486819 63.24755231 110.96632688 71 119 C71.84981445 119.88268555 71.84981445 119.88268555 72.71679688 120.78320312 C80.08420026 128.39482983 87.58773077 135.53418668 96 142 C96.55816406 142.43989258 97.11632812 142.87978516 97.69140625 143.33300781 C108.89291339 152.15752126 120.70900001 159.78270927 133 167 C134.03616455 167.61222412 134.03616455 167.61222412 135.09326172 168.23681641 C154.18132958 179.35425457 175.51955788 186.85051354 196 195 C196 195.33 196 195.66 196 196 C174.69398788 196.11700007 153.38802904 196.20506973 132.08176041 196.25906086 C122.18802374 196.2848005 112.29448713 196.31986968 102.40087891 196.37719727 C93.77375103 196.42716236 85.1467681 196.45932181 76.51949954 196.47044247 C71.95484638 196.47693911 67.39060775 196.49211883 62.82608795 196.52865028 C58.5217491 196.56281736 54.21799195 196.57301162 49.91353035 196.56553841 C48.34145753 196.56690377 46.76936343 196.57671243 45.19740868 196.59602737 C32.38351486 196.74563098 21.97103446 194.33329112 11.96484375 185.9375 C3.22510774 177.31939053 -0.39075996 166.46613349 -0.49973249 154.37457979 C-0.49760872 152.14830871 -0.47606724 149.92269013 -0.45410156 147.6965332 C-0.45297113 146.07916797 -0.45361076 144.46180069 -0.45587158 142.84443665 C-0.45701204 138.48553966 -0.43361202 134.12708936 -0.40557575 129.76829553 C-0.38044974 125.20128198 -0.37821131 120.63425645 -0.37347412 116.06718445 C-0.36107709 107.43303996 -0.3283001 98.79909978 -0.28807616 90.16504496 C-0.24325619 80.32945575 -0.22134577 70.49385641 -0.20129442 60.65819037 C-0.15956433 40.43867986 -0.08927637 20.21935284 0 0 Z " fill="#E0ECFF" transform="translate(112,204)"/>
<path d="M0 0 C0.7387587 -0.00861557 1.4775174 -0.01723114 2.23866272 -0.02610779 C4.6786718 -0.04879142 7.11753391 -0.04202234 9.55761719 -0.03295898 C11.2590977 -0.03819554 12.9605753 -0.04447213 14.66204834 -0.05174255 C18.22975307 -0.06215266 21.79705917 -0.05757974 25.36474609 -0.04296875 C29.92230983 -0.02582628 34.47860748 -0.04921576 39.03602982 -0.08445835 C42.55184177 -0.10649791 46.06735426 -0.10497434 49.58321381 -0.09669304 C51.26243219 -0.0958762 52.94167315 -0.10268829 54.62082672 -0.11746407 C71.63565512 -0.24417657 71.63565512 -0.24417657 77.60449219 5.53344727 C83.03937425 11.02564178 84.9049523 15.32847444 84.89501953 22.99243164 C84.90173676 23.73761551 84.90845398 24.48279938 84.91537476 25.25056458 C84.93434578 27.70951025 84.93827809 30.168183 84.94042969 32.62719727 C84.94685691 34.33825798 84.95358522 36.04931758 84.96060181 37.76037598 C84.97257135 41.3447525 84.97628283 44.92903264 84.97509766 48.51342773 C84.97489418 53.10704296 85.00222716 57.70004152 85.03664207 62.29351044 C85.05887174 65.82626182 85.06293646 69.35886368 85.0618782 72.89167786 C85.06423891 74.58537426 85.07308887 76.27907449 85.08854294 77.97270203 C85.10812955 80.34039672 85.10239548 82.70674676 85.09033203 85.07446289 C85.10157104 85.77380447 85.11281006 86.47314606 85.12438965 87.19367981 C85.0805126 90.58087696 84.81500395 92.26464227 82.6991272 94.96643066 C80.42643954 96.66665016 79.40556267 97.07721399 76.60449219 97.03344727 C75.61449219 97.04891602 75.61449219 97.04891602 74.60449219 97.06469727 C71.66435343 96.28372291 70.50973387 94.87956428 68.60449219 92.53344727 C68.08551025 89.69866943 68.08551025 89.69866943 68.05859375 86.38793945 C68.03887512 85.14695496 68.01915649 83.90597046 67.99884033 82.62738037 C67.99717731 81.27836146 67.99594637 79.92934195 67.99511719 78.58032227 C67.98013257 77.19596422 67.96340482 75.81162403 67.94500732 74.42730713 C67.901352 70.79084443 67.88133915 67.15462287 67.86627197 63.51794434 C67.84669401 59.80421704 67.8047249 56.09074991 67.76464844 52.37719727 C67.68936632 45.09601724 67.63906322 37.81494647 67.60449219 30.53344727 C67.15226256 30.99028585 66.70003294 31.44712444 66.23409939 31.91780663 C55.22204862 43.04034957 44.19615191 54.14895044 33.15470028 65.24230003 C27.81543335 70.60733247 22.48093532 75.97694954 17.1574707 81.35766602 C12.5167299 86.04829225 7.86722328 90.7300192 3.20704466 95.40133727 C0.74051267 97.87437928 -1.7214504 100.35160843 -4.17296028 102.83955002 C-6.91195658 105.61891655 -9.67048965 108.37837512 -12.4309082 111.13647461 C-13.237957 111.96149979 -14.0450058 112.78652496 -14.87651062 113.6365509 C-19.19055581 117.91150248 -22.27753412 120.72349252 -28.39550781 121.53344727 C-31.70800781 120.59594727 -31.70800781 120.59594727 -34.39550781 118.53344727 C-36.14171823 114.83148118 -36.82873256 112.76151222 -35.44902039 108.85043335 C-32.56002908 104.18391994 -28.87070236 100.61634791 -24.97680664 96.77416992 C-24.11805435 95.91497955 -23.25930206 95.05578918 -22.37452698 94.17056274 C-20.02888494 91.82664756 -17.67680497 89.48957079 -15.32156587 87.15532351 C-12.85781207 84.71037551 -10.402601 82.25687895 -7.94645691 79.80429077 C-3.29889341 75.16603628 1.35626149 70.53547967 6.01421767 65.90766466 C11.31879092 60.63667106 16.6148066 55.35711471 21.91013372 50.07683492 C32.79878375 39.219508 43.69808826 28.37294168 54.60449219 17.53344727 C53.83663391 17.52980164 53.06877563 17.52615601 52.27764893 17.5223999 C45.03826807 17.48451981 37.79940183 17.42766796 30.56035233 17.34954453 C26.83871965 17.31004899 23.11732429 17.27787109 19.39550781 17.26245117 C15.80311948 17.24729765 12.2113835 17.21287703 8.61928558 17.16513824 C7.24943464 17.15031066 5.87949056 17.14240545 4.50955963 17.14156342 C2.58959587 17.13919655 0.6697229 17.10984915 -1.25 17.0793457 C-2.34254089 17.07046326 -3.43508179 17.06158081 -4.56072998 17.0524292 C-8.04490903 16.414557 -9.22954564 15.27963943 -11.39550781 12.53344727 C-11.92675781 10.53344727 -11.92675781 10.53344727 -11.89550781 8.53344727 C-11.90582031 7.87344727 -11.91613281 7.21344727 -11.92675781 6.53344727 C-10.30329891 0.421602 -5.50550081 -0.0518402 0 0 Z " fill="#4C5CFF" transform="translate(331.3955078125,95.466552734375)"/>
</svg>
