<?xml version="1.0" encoding="UTF-8"?>
<svg version="1.1" xmlns="http://www.w3.org/2000/svg" width="225" height="225">
<path d="M0 0 C74.25 0 148.5 0 225 0 C225 74.25 225 148.5 225 225 C150.75 225 76.5 225 0 225 C0 150.75 0 76.5 0 0 Z " fill="#FDFDFD" transform="translate(0,0)"/>
<path d="M0 0 C74.25 0 148.5 0 225 0 C225 74.25 225 148.5 225 225 C150.75 225 76.5 225 0 225 C0 150.75 0 76.5 0 0 Z M99 14 C97.40507711 14.74917 95.8006163 15.47835225 94.1875 16.1875 C93.45917969 16.51105469 92.73085937 16.83460937 91.98046875 17.16796875 C88.61773705 18.58071402 86.00999276 19.11227483 82.39453125 19.10546875 C81.49283203 19.12029297 80.59113281 19.13511719 79.66210938 19.15039062 C77.78205324 19.17487388 75.90164422 19.18048851 74.02148438 19.16601562 C67.06568898 19.32892638 62.90542886 21.0134653 58 26 C55.90355198 28.69047061 55.90355198 28.69047061 54.4375 31.5 C49.20296841 40.16566751 43.10423392 43.7251003 34.0859375 48.19140625 C29.86077802 50.6676706 26.77117878 53.06784662 24.92578125 57.69140625 C24.72339844 58.63886719 24.52101563 59.58632813 24.3125 60.5625 C24.07660156 61.61566406 23.84070312 62.66882812 23.59765625 63.75390625 C23.03096266 66.83183027 22.6375538 69.89549007 22.25 73 C21.03489529 80.80117646 16.88207342 86.87046196 12.4296875 93.25 C11.75292969 94.24 11.75292969 94.24 11.0625 95.25 C10.66160156 95.79140625 10.26070312 96.3328125 9.84765625 96.890625 C7.93602202 101.64768715 8.60520803 105.92607183 10.3125 110.5703125 C10.869375 111.74335937 11.42625 112.91640625 12 114.125 C15.93892123 123.03696452 16.02576697 131.49818827 14 141 C13.44452326 146.88805344 14.43901765 151.29212469 18 156 C20.07220308 158.04224528 22.25144435 159.95601765 24.4375 161.875 C29.95168061 166.73285714 33.39392927 171.0258593 36 178 C36.80154825 180.10836288 37.61440544 182.21245501 38.4375 184.3125 C38.78683594 185.27800781 39.13617188 186.24351562 39.49609375 187.23828125 C41.76770445 191.40978454 44.60764276 194.1003815 49.02758789 195.76245117 C51.27766314 196.39081878 53.5332755 196.92538147 55.8125 197.4375 C66.51158164 200.14156897 73.08547337 204.89395683 81.15234375 212.36328125 C85.63586152 216.33493864 91.31220677 215.30998113 97 215 C99.07921883 214.58882476 99.07921883 214.58882476 100.9375 214 C109.82258702 211.44300808 118.62765912 212.93117204 127.3515625 215.3125 C132.58364154 216.67067981 136.20510419 216.7103709 140.875 214 C143.95910998 211.91630189 146.60534185 209.54791355 149.3125 207 C155.77514374 201.12386331 162.88572275 198.39818579 171.3125 196.4375 C176.50392589 195.21519792 180.9581696 194.08892291 184.06640625 189.38671875 C185.66824532 186.3526471 186.91912107 183.19816637 188.21484375 180.0234375 C192.20384344 170.25099449 195.9152227 164.72971108 204.44140625 158.34375 C208.04327283 155.04433023 209.84001376 151.86496112 210.26123047 146.95483398 C210.21369629 145.89594971 210.16616211 144.83706543 210.1171875 143.74609375 C210.08496094 142.56080078 210.05273438 141.37550781 210.01953125 140.15429688 C209.92422635 137.7034154 209.82025545 135.25285342 209.70703125 132.80273438 C209.51155759 124.92854551 210.60087304 119.09234807 213.84350586 111.89160156 C215.71425437 107.21413789 216.04326967 102.9172291 215 98 C212.86602192 93.26545055 209.94536609 89.24248114 206.8125 85.125 C203.03377642 78.60995935 202.11677476 70.99575574 201.0625 63.625 C200.16799792 58.13633525 198.96407127 54.20246962 194.3125 50.74609375 C191.4493094 48.90464657 188.49076085 47.26803684 185.50390625 45.63671875 C177.12591248 40.90576641 172.07321676 34.78351964 166.65234375 26.95703125 C162.5026447 21.94470819 162.5026447 21.94470819 156.69262695 19.55688477 C154.01514458 19.39090081 151.36995904 19.35221903 148.6875 19.375 C139.11705 19.375 131.79058859 18.0286883 123.625 12.8125 C114.72321312 7.82002932 107.4745518 9.06904777 99 14 Z " fill="#000000" transform="translate(0,0)"/>
<path d="M0 0 C7.0572132 4.75594802 7.0572132 4.75594802 8.875 8.9375 C9.0578989 12.5058216 8.99964868 15.94811162 8.82958984 19.51049805 C8.63316259 25.30256763 9.69221569 29.14982429 12.78125 34.15234375 C13.875 35.9375 13.875 35.9375 13.875 37.9375 C15.6075 37.4425 15.6075 37.4425 17.375 36.9375 C26.56959854 34.69530843 34.70563215 36.14604136 43 40.625 C43.61875 41.058125 44.2375 41.49125 44.875 41.9375 C45.143125 41.195 45.41125 40.4525 45.6875 39.6875 C46.82776751 37.04688051 47.96880306 35.08197156 49.875 32.9375 C50.535 32.9375 51.195 32.9375 51.875 32.9375 C50.6258258 36.39675163 49.19972205 39.08443203 46.875 41.9375 C48.22388816 44.85471268 49.79024725 47.19699026 51.8125 49.6875 C56.41967479 55.74779349 57.875 60.29009573 57.875 67.9375 C61.835 68.2675 65.795 68.5975 69.875 68.9375 C69.875 69.5975 69.875 70.2575 69.875 70.9375 C61.30357143 71.08035714 61.30357143 71.08035714 57.875 69.9375 C57.7821875 71.608125 57.7821875 71.608125 57.6875 73.3125 C56.53846671 82.08552444 52.24042967 88.30978008 45.44921875 93.7578125 C44.92972656 94.14710938 44.41023438 94.53640625 43.875 94.9375 C44.2954856 97.46041359 44.66351934 99.56030688 45.921875 101.8046875 C47.30890993 104.90846238 47.13910918 107.68335113 47.125 111.0625 C47.13273437 112.92261719 47.13273437 112.92261719 47.140625 114.8203125 C46.875 117.9375 46.875 117.9375 44.875 119.9375 C39.65930723 119.41814076 35.73027698 115.69346337 32.36035156 111.93261719 C27.43026832 105.31055272 18.875 92.34251393 18.875 83.9375 C17.84503906 84.1540625 16.81507813 84.370625 15.75390625 84.59375 C0.89399487 87.56432275 -17.94721035 90.02639483 -32.125 82.9375 C-32.35058594 83.70320313 -32.57617188 84.46890625 -32.80859375 85.2578125 C-34.60541817 90.28038995 -36.86024993 95.01675986 -39.1875 99.8125 C-39.62771484 100.76769531 -40.06792969 101.72289062 -40.52148438 102.70703125 C-43.81658282 109.46406857 -47.7366381 114.79883488 -54.125 118.9375 C-56.84008789 119.71044922 -56.84008789 119.71044922 -59.125 119.9375 C-61.41208144 117.65041856 -60.95622889 113.64340779 -61.08789062 110.58007812 C-60.73303297 98.16006011 -52.70336549 85.76555478 -47.125 74.9375 C-47.88490234 74.66059326 -48.64480469 74.38368652 -49.42773438 74.09838867 C-51.87780255 73.04389246 -53.34783901 72.14208338 -55.28125 70.36328125 C-55.82910156 69.85990234 -56.37695312 69.35652344 -56.94140625 68.83789062 C-57.77478516 68.05188477 -57.77478516 68.05188477 -58.625 67.25 C-59.18058594 66.74533203 -59.73617187 66.24066406 -60.30859375 65.72070312 C-64.18282579 62.11538836 -67.31765898 58.43657824 -70.125 53.9375 C-70.125 52.6175 -70.125 51.2975 -70.125 49.9375 C-67.859375 47.76171875 -67.859375 47.76171875 -64.875 45.625 C-63.90046875 44.90699219 -62.9259375 44.18898437 -61.921875 43.44921875 C-59.125 41.9375 -59.125 41.9375 -57.04296875 41.875 C-54.18633437 43.457494 -52.6612303 45.6673893 -50.6875 48.25 C-47.78681274 52.02846045 -45.07657678 55.23243687 -41.125 57.9375 C-40.135 57.9375 -39.145 57.9375 -38.125 57.9375 C-37.66444214 56.97094482 -37.66444214 56.97094482 -37.19458008 55.98486328 C-35.77652559 53.01027762 -34.35702049 50.03638633 -32.9375 47.0625 C-32.45474609 46.04929688 -31.97199219 45.03609375 -31.47460938 43.9921875 C-30.99443359 42.98671875 -30.51425781 41.98125 -30.01953125 40.9453125 C-29.54209473 39.94145508 -29.0646582 38.93759766 -28.57275391 37.90332031 C-27.61858566 35.94864311 -26.63174772 34.00953038 -25.61083984 32.08886719 C-25.14500488 31.21133789 -24.67916992 30.33380859 -24.19921875 29.4296875 C-23.77600342 28.65737793 -23.35278809 27.88506836 -22.91674805 27.08935547 C-21.97827859 24.53873265 -22.25171765 23.46272505 -23.125 20.9375 C-23.8390292 15.1168063 -23.987997 10.35530255 -20.5 5.4375 C-14.74546784 -1.12374228 -8.14968063 -2.77089141 0 0 Z " fill="#4385F3" transform="translate(119.125,54.0625)"/>
<path d="M0 0 C0.66 0 1.32 0 2 0 C0.7508258 3.45925163 -0.67527795 6.14693203 -3 9 C-1.65111184 11.91721268 -0.08475275 14.25949026 1.9375 16.75 C6.54467479 22.81029349 8 27.35259573 8 35 C11.96 35.33 15.92 35.66 20 36 C20 36.66 20 37.32 20 38 C11.42857143 38.14285714 11.42857143 38.14285714 8 37 C7.9071875 38.670625 7.9071875 38.670625 7.8125 40.375 C6.67857067 49.03270364 2.36907352 55.31420317 -4.1328125 60.91796875 C-5.05707031 61.45357422 -5.05707031 61.45357422 -6 62 C-9 61 -9 61 -10.11230469 59.26708984 C-10.46196289 58.50605957 -10.81162109 57.7450293 -11.171875 56.9609375 C-11.78712036 55.6464563 -11.78712036 55.6464563 -12.41479492 54.30541992 C-12.8554126 53.33838135 -13.29603027 52.37134277 -13.75 51.375 C-14.71869954 49.29494249 -15.68883426 47.21555295 -16.66015625 45.13671875 C-17.18754395 44.00282715 -17.71493164 42.86893555 -18.25830078 41.70068359 C-20.14942737 37.66127426 -22.10114877 33.65212935 -24.05859375 29.64453125 C-24.40115204 28.94227417 -24.74371033 28.24001709 -25.09664917 27.51647949 C-26.46778779 24.70653661 -27.83953445 21.89690966 -29.21643066 19.08978271 C-30.18300744 17.11756076 -31.14470343 15.14302672 -32.10546875 13.16796875 C-32.66387451 12.02610107 -33.22228027 10.8842334 -33.79760742 9.70776367 C-35 7 -35 7 -35 5 C-25.9915145 1.9971715 -18.81864161 2.64195808 -10 6 C-6.875 7.6875 -6.875 7.6875 -5 9 C-4.731875 8.2575 -4.46375 7.515 -4.1875 6.75 C-3.04723249 4.10938051 -1.90619694 2.14447156 0 0 Z " fill="#3EDC85" transform="translate(169,87)"/>
<path d="M0 0 C3.78771711 2.55259197 6.76283193 4.81443219 8.875 8.9375 C9.87173255 14.5705491 9.68080577 19.26619915 7.1875 24.4375 C0.55836881 31.60412832 0.55836881 31.60412832 -4.04296875 32.17578125 C-10.7294127 32.39444293 -14.77332354 31.06007452 -19.66796875 26.5 C-23.30549501 22.26131394 -23.94063141 18.16147238 -23.67578125 12.66015625 C-22.49442312 6.82039303 -19.01895342 3.25503281 -14.25 -0.0625 C-9.13228811 -1.70016781 -5.09433499 -1.7320739 0 0 Z " fill="#0C3346" transform="translate(119.125,54.0625)"/>
<path d="M0 0 C2.33317801 2.91987861 4.00256224 5.83297347 5.59375 9.2109375 C6.06683594 10.20867187 6.53992188 11.20640625 7.02734375 12.234375 C7.51332031 13.27078125 7.99929687 14.3071875 8.5 15.375 C9.46833116 17.42467709 10.43706941 19.47416192 11.40625 21.5234375 C11.85613281 22.47959961 12.30601563 23.43576172 12.76953125 24.42089844 C13.76191573 26.50096781 14.78503428 28.55496064 15.84375 30.6015625 C17 33 17 33 17 35 C11.0638783 37.05763778 5.69117808 37.30281079 -0.5625 37.25 C-1.48224609 37.25773437 -2.40199219 37.26546875 -3.34960938 37.2734375 C-8.29833789 37.25920679 -12.36204397 36.94470037 -17 35 C-11.48466303 23.25437497 -5.86058402 11.57744799 0 0 Z " fill="#FBFCFE" transform="translate(112,86)"/>
<path d="M0 0 C2.09375 0.48046875 2.09375 0.48046875 4.65625 2.54296875 C6.45853899 6.22590712 6.67332768 8.423425 6.09375 12.48046875 C4.65625 15.41796875 4.65625 15.41796875 2.09375 17.48046875 C-1.05512127 18.20306421 -3.7531979 18.17054955 -6.90625 17.48046875 C-9.96875 15.41796875 -9.96875 15.41796875 -11.90625 12.48046875 C-12.68779305 8.10382765 -12.42221953 6.26274513 -9.96875 2.54296875 C-6.38112333 0.12681201 -4.24920081 -0.26203405 0 0 Z " fill="#F8F9F9" transform="translate(114.90625,60.51953125)"/>
<path d="M0 0 C3.0625 0.3125 3.0625 0.3125 4.7421875 1.3828125 C6.77390478 4.35224544 6.34742255 6.9603141 6.25 10.5 C6.22292969 11.77230469 6.19585937 13.04460938 6.16796875 14.35546875 C6.13316406 15.33128906 6.09835938 16.30710937 6.0625 17.3125 C2.4325 17.3125 -1.1975 17.3125 -4.9375 17.3125 C-4.99133848 14.85387599 -5.03109038 12.3964245 -5.0625 9.9375 C-5.07925781 9.23882812 -5.09601563 8.54015625 -5.11328125 7.8203125 C-5.13094267 5.98352514 -5.04053261 4.14648037 -4.9375 2.3125 C-2.9375 0.3125 -2.9375 0.3125 0 0 Z " fill="#4587F3" transform="translate(111.9375,36.6875)"/>
<path d="M0 0 C1.65 0 3.3 0 5 0 C4.67 1.65 4.34 3.3 4 5 C2.68 4.67 1.36 4.34 0 4 C0 2.68 0 1.36 0 0 Z " fill="#EDFBF3" transform="translate(162,127)"/>
<path d="M0 0 C1.98 0.495 1.98 0.495 4 1 C4 2.32 4 3.64 4 5 C2.35 4.67 0.7 4.34 -1 4 C-0.67 2.68 -0.34 1.36 0 0 Z " fill="#F3FCF7" transform="translate(150,100)"/>
</svg>
