<?xml version="1.0" encoding="UTF-8"?>
<svg version="1.1" xmlns="http://www.w3.org/2000/svg" width="512" height="512">
<path d="M0 0 C0.991707 0.00273422 0.991707 0.00273422 2.00344849 0.00552368 C11.78165203 0.0509143 20.77816373 0.48855582 30.1875 3.3125 C31.38246094 3.64121094 32.57742187 3.96992187 33.80859375 4.30859375 C62.21963109 12.85259978 87.21156637 33.21449702 101.40234375 59.29296875 C103.46885036 63.2380747 105.36266853 67.25074425 107.1875 71.3125 C107.67089844 72.37984375 108.15429688 73.4471875 108.65234375 74.546875 C121.20016316 104.60061875 116.1875 136.02535001 116.1875 168.3125 C55.7975 168.3125 -4.5925 168.3125 -66.8125 168.3125 C-64.03744374 181.69438107 -64.03744374 181.69438107 -59 193.8125 C-58.65308105 194.47064697 -58.30616211 195.12879395 -57.94873047 195.80688477 C-55.08755123 201.09765047 -51.93436318 205.90784787 -47.8125 210.3125 C-47.12027344 211.05757812 -46.42804688 211.80265625 -45.71484375 212.5703125 C-33.43121292 224.66938126 -15.96326754 231.29176147 1.1875 231.3125 C18.00929835 230.31873103 36.45699502 224.01432068 48.1875 211.3125 C50.5649564 208.42152792 52.84942126 205.45897533 55.13867188 202.49804688 C61.98032555 193.66130299 68.81084742 186.74548879 80.1875 184.3125 C83.02441625 184.22886026 85.83567989 184.19628321 88.671875 184.21484375 C89.48746887 184.2162587 90.30306274 184.21767365 91.14337158 184.21913147 C93.74145212 184.22471697 96.33944563 184.23726679 98.9375 184.25 C100.70182167 184.25501688 102.46614469 184.25957946 104.23046875 184.26367188 C108.54951256 184.27468165 112.86849154 184.29193631 117.1875 184.3125 C108.09789821 216.52545838 90.66212957 246.84375946 61.1875 264.3125 C34.04575988 279.4802726 1.17298934 285.85305991 -29.36328125 277.69921875 C-60.62138981 268.31968785 -86.04494427 249.08862774 -101.94677734 220.25585938 C-107.30542707 210.06845758 -111.16945081 199.50980221 -113.8125 188.3125 C-113.9858638 187.58204971 -114.1592276 186.85159943 -114.33784485 186.09901428 C-116.142985 177.47879717 -116.1219921 168.9350233 -116.11328125 160.17578125 C-116.11717997 158.52589309 -116.121517 156.87600592 -116.12626648 155.22612 C-116.13368857 151.78100319 -116.13346769 148.33598891 -116.12817383 144.89086914 C-116.12239826 140.52180607 -116.13928346 136.15316957 -116.1625185 131.78417683 C-116.17740645 128.37877536 -116.1781071 124.97347292 -116.17500877 121.56804466 C-116.17551491 119.95963894 -116.18061619 118.35122659 -116.19082069 116.74285316 C-116.2692565 102.64904192 -114.81285234 89.08237166 -109.6875 75.8125 C-109.3889209 75.02552734 -109.0903418 74.23855469 -108.78271484 73.42773438 C-100.12470821 51.40849705 -84.24696109 30.63198086 -63.8125 18.3125 C-63.26996582 17.96912598 -62.72743164 17.62575195 -62.16845703 17.27197266 C-54.15428851 12.22293715 -46.04798793 8.39246047 -37.0625 5.375 C-36.22420654 5.09269531 -35.38591309 4.81039062 -34.5222168 4.51953125 C-23.09366417 0.88626001 -11.95237171 -0.05227316 0 0 Z M-47.6875 68.09375 C-62.2925331 83.34312279 -66.43030232 99.57953487 -67.8125 120.3125 C-22.9325 120.3125 21.9475 120.3125 68.1875 120.3125 C66.73283805 98.49257071 61.88834704 81.66075912 46.1875 66.3125 C18.49494564 42.18551058 -20.82660758 43.15149276 -47.6875 68.09375 Z " fill="#7C43FF" transform="translate(139.8125,119.6875)"/>
<path d="M0 0 C6.77680466 -0.10212012 13.55340805 -0.17176532 20.33081055 -0.21972656 C22.63231827 -0.23973827 24.93377582 -0.26695631 27.23510742 -0.30175781 C30.55920862 -0.35073699 33.88263276 -0.37307401 37.20703125 -0.390625 C38.2220723 -0.41127014 39.23711334 -0.43191528 40.28291321 -0.45318604 C52.10882104 -0.45683115 62.40927062 3.81485397 71.03125 11.90625 C77.7049647 18.97839542 83.31494377 26.97221956 89.09765625 34.76953125 C92.70716179 39.62844659 96.39620418 44.41976289 100.125 49.1875 C105.24308735 55.73643501 110.3228598 62.31233048 115.35864258 68.92480469 C117.8988049 72.2591861 120.44926618 75.58371862 123.03515625 78.8828125 C123.5053418 79.48504639 123.97552734 80.08728027 124.45996094 80.70776367 C125.72639851 82.32738645 126.99778683 83.94313463 128.26953125 85.55859375 C130 88 130 88 130 90 C130.66 90 131.32 90 132 90 C132.25136719 89.44699219 132.50273437 88.89398438 132.76171875 88.32421875 C134.21508712 85.59628758 135.94101256 83.27425249 137.8125 80.8125 C138.20211914 80.29840576 138.59173828 79.78431152 138.99316406 79.25463867 C140.32495579 77.50015008 141.66212311 75.74985215 143 74 C144.00911954 72.67708712 145.01823393 71.3541703 146.02734375 70.03125 C148.78468583 66.4198302 151.54702759 62.81226049 154.31054688 59.20556641 C156.50370277 56.34242041 158.69451348 53.47748572 160.88500977 50.61230469 C161.96080149 49.20523741 163.03681028 47.79833607 164.11303711 46.39160156 C166.88742544 42.76500489 169.65891828 39.13624835 172.42578125 35.50390625 C175.13943198 31.94245832 177.86097373 28.38720161 180.58984375 24.83740234 C181.83553752 23.21429097 183.0745338 21.5860442 184.3125 19.95703125 C191.94627913 10.10170311 200.42763379 2.61702949 213 0 C214.64897611 -0.08469708 216.30100408 -0.11778092 217.95214844 -0.11352539 C218.93286316 -0.11344986 219.91357788 -0.11337433 220.92401123 -0.11329651 C221.97518127 -0.10813522 223.02635132 -0.10297394 224.109375 -0.09765625 C225.19132141 -0.0962413 226.27326782 -0.09482635 227.38800049 -0.09336853 C230.8420285 -0.08777318 234.29599159 -0.0752215 237.75 -0.0625 C240.09244698 -0.0574844 242.43489498 -0.0529216 244.77734375 -0.04882812 C250.5182513 -0.03780528 256.25912101 -0.02107174 262 0 C261.04581688 1.44419289 260.08992002 2.8872536 259.13330078 4.32983398 C258.60116974 5.13355942 258.0690387 5.93728485 257.52078247 6.7653656 C255.77575941 9.32949863 253.8852807 11.70140561 251.875 14.0625 C248.21171224 18.46578412 244.72932975 22.96576992 241.3125 27.5625 C236.94672829 33.43291126 232.50673712 39.23709422 228 45 C223.60532796 50.62251569 219.26348832 56.2773499 215 62 C210.15775623 68.49948228 205.20187127 74.90328261 200.2109375 81.2890625 C195.92013801 86.78960281 191.7167863 92.34906071 187.55224609 97.94555664 C183.09723206 103.91450401 178.51796847 109.7837396 173.89453125 115.62304688 C169.99587001 120.58539438 166.42911676 125.70278231 163 131 C169.7001687 139.98549756 176.49349311 148.89743489 183.31054688 157.79443359 C186.04266822 161.36119432 188.77119272 164.93070359 191.5 168.5 C192.5833152 169.91668053 193.66664855 171.33334718 194.75 172.75 C209.91666667 192.58333333 225.08333333 212.41666667 240.25 232.25 C240.7872168 232.9524585 241.32443359 233.65491699 241.87792969 234.37866211 C242.95171528 235.78295516 244.02528612 237.18741246 245.09863281 238.59204102 C247.95122707 242.32446007 250.80844697 246.05322778 253.671875 249.77734375 C254.27064453 250.55722656 254.86941406 251.33710938 255.48632812 252.140625 C256.63991618 253.64297224 257.79481176 255.14431663 258.95117188 256.64453125 C259.46744141 257.31742187 259.98371094 257.9903125 260.515625 258.68359375 C260.97227539 259.27712646 261.42892578 259.87065918 261.89941406 260.48217773 C263 262 263 262 264 264 C257.22319534 264.10212012 250.44659195 264.17176532 243.66918945 264.21972656 C241.36768173 264.23973827 239.06622418 264.26695631 236.76489258 264.30175781 C233.44079138 264.35073699 230.11736724 264.37307401 226.79296875 264.390625 C225.7779277 264.41127014 224.76288666 264.43191528 223.71708679 264.45318604 C211.08363645 264.45708006 200.57941335 259.49753704 191.5859375 250.76171875 C188.16167537 247.27937953 185.2391812 243.57252177 182.375 239.625 C181.33022609 238.20904551 180.28462495 236.79370111 179.23828125 235.37890625 C178.70541504 234.65590332 178.17254883 233.93290039 177.62353516 233.18798828 C174.97407683 229.61739497 172.26904642 226.08990434 169.5625 222.5625 C169.02286621 221.85818848 168.48323242 221.15387695 167.92724609 220.42822266 C166.83212152 218.99899228 165.7367437 217.56995592 164.64111328 216.14111328 C161.38756344 211.89630042 158.1405685 207.64647068 154.89282227 203.3972168 C152.08817267 199.72835613 149.28070441 196.06170338 146.46875 192.3984375 C145.88802734 191.64111328 145.30730469 190.88378906 144.70898438 190.10351562 C143.60705515 188.66659992 142.50425577 187.2303509 141.40039062 185.79492188 C138.93621451 182.57981885 136.54263102 179.34788094 134.25 176.0078125 C133.5075 175.01523437 132.765 174.02265625 132 173 C131.34 173 130.68 173 130 173 C128.16885682 175.25513271 126.45025443 177.52349131 124.75 179.875 C123.66299253 181.3526923 122.57438915 182.82921167 121.484375 184.3046875 C120.91396484 185.07780273 120.34355469 185.85091797 119.75585938 186.64746094 C116.89675242 190.4781554 113.94813013 194.23766329 111 198 C106.6047354 203.62204567 102.26357714 209.27743661 98 215 C92.00918597 223.0385245 85.86343202 230.95310313 79.68017578 238.84423828 C78.50459056 240.35258142 77.33692982 241.86711907 76.17529297 243.38623047 C68.41655657 253.50388806 59.88061541 261.30840422 47 264 C45.35102389 264.08469708 43.69899592 264.11778092 42.04785156 264.11352539 C41.06713684 264.11344986 40.08642212 264.11337433 39.07598877 264.11329651 C38.02481873 264.10813522 36.97364868 264.10297394 35.890625 264.09765625 C34.80867859 264.0962413 33.72673218 264.09482635 32.61199951 264.09336853 C29.1579715 264.08777318 25.70400841 264.0752215 22.25 264.0625 C19.90755302 264.0574844 17.56510502 264.0529216 15.22265625 264.04882812 C9.4817487 264.03780528 3.74087899 264.02107174 -2 264 C-1.38681664 263.18262611 -1.38681664 263.18262611 -0.76124573 262.34873962 C0.04567467 261.27300438 0.04567467 261.27300438 0.86889648 260.17553711 C1.40143539 259.46562119 1.9339743 258.75570526 2.48265076 258.02427673 C3.68927481 256.41453461 4.8938259 254.80323869 6.09765625 253.19140625 C12.10813325 245.14955532 18.20434428 237.1748268 24.31054688 229.20556641 C27.04266822 225.63880568 29.77119272 222.06929641 32.5 218.5 C33.5833152 217.08331947 34.66664855 215.66665282 35.75 214.25 C36.28625 213.54875 36.8225 212.8475 37.375 212.125 C68.25 171.75 68.25 171.75 69.8762207 169.62353516 C70.95565432 168.21188073 72.03491962 166.8000976 73.11401367 165.38818359 C75.88062169 161.76873658 78.65043666 158.15181592 81.42578125 154.5390625 C87.39159078 146.76703564 93.30129968 138.9712938 99 131 C94.99552567 124.51907445 90.3760228 118.62954037 85.59448242 112.71801758 C81.75031898 107.95939396 78.0431245 103.11784054 74.39453125 98.20703125 C71.54876894 94.38156039 68.64900978 90.59768679 65.75 86.8125 C65.19836182 86.0920752 64.64672363 85.37165039 64.07836914 84.62939453 C62.94888018 83.15467048 61.81924035 81.68006197 60.68945312 80.20556641 C57.95733178 76.63880568 55.22880728 73.06929641 52.5 69.5 C51.4166848 68.08331947 50.33335145 66.66665282 49.25 65.25 C29.75 39.75 29.75 39.75 28.12353516 37.62304688 C27.04513301 36.21285363 25.96668284 34.80269711 24.88818359 33.39257812 C22.10399904 29.75217473 19.32076685 26.11104901 16.5390625 22.46875 C15.40105378 20.97915741 14.26303316 19.48957392 13.125 18 C12.58270752 17.28972656 12.04041504 16.57945312 11.48168945 15.84765625 C8.05022265 11.35794609 4.58880631 6.89389656 1.07421875 2.46875 C0 1 0 1 0 0 Z " fill="#7147FF" transform="translate(225,128)"/>
<path d="M0 0 C19.37299408 14.79117698 32.75534042 34.69008466 38.78491211 58.32983398 C38.99760742 59.1509668 39.21030273 59.97209961 39.42944336 60.81811523 C43.85347191 79.24626292 41.78491211 98.68711654 41.78491211 117.32983398 C-18.93508789 117.32983398 -79.65508789 117.32983398 -142.21508789 117.32983398 C-139.84822769 148.09901654 -135.26550671 171.37541877 -112.78540039 192.62670898 C-99.91447019 203.51424994 -83.30491637 211.97004812 -66.21508789 212.32983398 C-65.51254883 212.35948242 -64.81000977 212.38913086 -64.08618164 212.41967773 C-52.39327079 212.89499931 -42.33886618 212.28935462 -31.21508789 208.32983398 C-29.46131836 207.71108398 -29.46131836 207.71108398 -27.67211914 207.07983398 C-12.01075576 200.96129912 1.34545324 190.34502065 10.90991211 176.51733398 C15.01678987 170.63967694 19.6205235 166.69382335 26.78491211 165.32983398 C28.20025989 165.2652652 29.618289 165.2437236 31.03491211 165.26733398 C32.89116211 165.29827148 32.89116211 165.29827148 34.78491211 165.32983398 C31.37684732 176.38122854 25.29797586 185.65195415 17.78491211 194.32983398 C17.18163086 195.07749023 16.57834961 195.82514648 15.95678711 196.59545898 C6.3453472 208.14534056 -5.67820317 215.28247632 -19.21508789 221.32983398 C-20.29532227 221.82483398 -21.37555664 222.31983398 -22.48852539 222.82983398 C-41.83861376 231.01828448 -63.04954109 231.14611204 -83.21508789 226.32983398 C-84.30176758 226.07459961 -85.38844727 225.81936523 -86.50805664 225.55639648 C-100.63300313 221.7312557 -113.52323289 214.2471609 -124.21508789 204.32983398 C-125.06458008 203.56026367 -125.91407227 202.79069336 -126.78930664 201.99780273 C-146.39761234 183.41045016 -157.00474832 157.45115899 -158.40365601 130.72758484 C-158.47569862 127.14300283 -158.49264846 123.56354423 -158.48071289 119.97827148 C-158.48262634 118.67636871 -158.48453979 117.37446594 -158.48651123 116.03311157 C-158.48942497 113.30547214 -158.48528673 110.57796553 -158.47583008 107.8503418 C-158.4644148 104.39365295 -158.47103213 100.93727419 -158.48297501 97.48059654 C-158.49202762 94.12563143 -158.48565107 90.77074533 -158.48071289 87.41577148 C-158.48476135 86.19562347 -158.48880981 84.97547546 -158.49298096 83.71835327 C-158.34098329 55.46451299 -148.33421049 30.07070761 -128.90258789 9.51733398 C-116.36213127 -2.37254439 -101.72591557 -10.53610209 -85.14477539 -15.1340332 C-83.40209897 -15.61820798 -81.66737708 -16.13079423 -79.93383789 -16.64672852 C-52.89611282 -23.95237645 -22.19814287 -16.30499992 0 0 Z M-106.09008789 33.11108398 C-120.69512099 48.36045678 -124.83289022 64.59686885 -126.21508789 85.32983398 C-81.33508789 85.32983398 -36.45508789 85.32983398 9.78491211 85.32983398 C8.33025016 63.5099047 3.48575915 46.6780931 -12.21508789 31.32983398 C-39.90764225 7.20284456 -79.22919547 8.16882674 -106.09008789 33.11108398 Z " fill="#A8B8FF" transform="translate(198.215087890625,154.670166015625)"/>
<path d="M0 0 C8.44642716 -0.65307426 15.00971103 -0.07269774 22 5 C27.4690607 9.84516907 31.77033388 15.43200289 36.0625 21.3125 C37.38533296 23.10128606 38.709582 24.88902567 40.03515625 26.67578125 C40.69789551 27.56990723 41.36063477 28.4640332 42.04345703 29.38525391 C44.97329972 33.30072873 47.98211848 37.15222255 51 41 C55.97762755 47.35716566 60.85865117 53.77913471 65.6875 60.25 C70.84065458 67.1540792 76.07453037 73.9799939 81.421875 80.734375 C84.16302814 84.19754704 86.86763123 87.68823666 89.5625 91.1875 C90.36816406 92.23292969 91.17382812 93.27835937 92.00390625 94.35546875 C93.39273037 96.19545687 94.72125197 98.08187796 96 100 C99.80989965 98.73003345 100.54115828 97.24095756 102.875 94 C103.67470909 92.90416468 104.47555883 91.80916117 105.27734375 90.71484375 C105.71159668 90.11913574 106.14584961 89.52342773 106.59326172 88.90966797 C109.16053134 85.42456158 111.80261551 81.99659299 114.4375 78.5625 C115.27873413 77.46373535 115.27873413 77.46373535 116.13696289 76.34277344 C119.35536736 72.13994329 122.58180052 67.94338266 125.8125 63.75 C130.86168932 57.19261127 135.87581476 50.60869594 140.88793945 44.02294922 C144.13077732 39.76268293 147.37658367 35.50486226 150.63671875 31.2578125 C151.20140869 30.52175781 151.76609863 29.78570312 152.34790039 29.02734375 C153.4359096 27.609893 154.5249147 26.19320603 155.61499023 24.77734375 C157.91262742 21.78190564 160.18080799 18.77968601 162.3359375 15.6796875 C167.37320998 8.44222705 172.95907525 2.04516431 182 0 C186.34620687 -0.23437927 190.65251134 -0.17651458 195 0 C191.10173385 5.23188351 187.14928557 10.41884623 183.16650391 15.58666992 C179.59985768 20.21595882 176.04799261 24.85640305 172.5 29.5 C168.67450065 34.50607876 164.84384581 39.50799246 161 44.5 C151.68732073 56.59749977 142.4279562 68.73593653 133.18237305 80.88476562 C129.64015664 85.53885982 126.09131144 90.18766231 122.53125 94.828125 C121.80397705 95.7778418 121.0767041 96.72755859 120.32739258 97.70605469 C118.93348066 99.52601224 117.53758268 101.34445092 116.1394043 103.16113281 C115.50945557 103.98452148 114.87950684 104.80791016 114.23046875 105.65625 C113.67770264 106.37619141 113.12493652 107.09613281 112.55541992 107.83789062 C110.89128095 110.15112477 109.43376439 112.53857413 108 115 C118.68629224 129.30615339 129.52471043 143.4917079 140.41796875 157.640625 C145.07286915 163.69217714 149.70411677 169.76188366 154.33984375 175.828125 C155.94465094 177.9275904 157.55027916 180.02642464 159.15625 182.125 C161.84700107 185.6411374 164.5359564 189.15864276 167.22412109 192.67675781 C168.46608766 194.30152463 169.7086496 195.92583643 170.95166016 197.54980469 C177.85806232 206.57399356 184.76030176 215.60022688 191.5 224.75 C191.96293457 225.37600098 192.42586914 226.00200195 192.90283203 226.64697266 C196 230.87828082 196 230.87828082 196 232 C185.9743189 232.4851136 177.70452745 230.65982767 170 224 C167.79172072 221.56762693 165.86516096 218.97019174 163.9375 216.3125 C162.80304296 214.78834776 161.66759255 213.2649345 160.53125 211.7421875 C159.66113281 210.5680127 159.66113281 210.5680127 158.7734375 209.37011719 C155.88733919 205.51298029 152.90937589 201.72866532 149.9375 197.9375 C145.0640996 191.69582192 140.27639819 185.39767646 135.54541016 179.04760742 C131.11390711 173.11515886 126.56670053 167.27625647 122.00878906 161.44067383 C118.00088613 156.30366635 114.06057681 151.12547066 110.17578125 145.89453125 C108.54708499 143.72780966 106.90122469 141.58308646 105.23046875 139.44921875 C104.76543945 138.85343018 104.30041016 138.2576416 103.82128906 137.64379883 C102.91714949 136.48810172 102.00910304 135.3354476 101.09667969 134.1862793 C98 130.22166568 98 130.22166568 98 128 C97.34 128 96.68 128 96 128 C95.61714844 128.83724609 95.61714844 128.83724609 95.2265625 129.69140625 C93.82579126 132.32788969 92.18363448 134.55973922 90.375 136.9375 C89.80217285 137.69317261 89.80217285 137.69317261 89.21777344 138.46411133 C87.81523623 140.31200523 86.40746544 142.15585712 85 144 C83.76802243 145.61963443 82.5362666 147.23943754 81.3046875 148.859375 C73.41764784 159.22721031 65.50663136 169.57674606 57.58984375 179.921875 C55.94462024 182.07238829 54.30031538 184.22360122 52.65625 186.375 C49.43920649 190.58464025 46.22039869 194.79292596 43 199 C42.55027832 199.58765137 42.10055664 200.17530273 41.63720703 200.78076172 C39.58742985 203.4576574 37.53201711 206.12943095 35.46484375 208.79296875 C33.69135445 211.08256417 31.96565988 213.40221986 30.25390625 215.73828125 C24.09385603 224.03361605 18.73419625 230.33856143 8 232 C6.23022239 232.06459042 4.45829848 232.08611065 2.6875 232.0625 C1.80449219 232.05347656 0.92148437 232.04445313 0.01171875 232.03515625 C-0.98408203 232.01775391 -0.98408203 232.01775391 -2 232 C0.75220789 226.90452077 3.81373735 222.5164074 7.5 218.0625 C11.75849978 212.82922601 15.90938193 207.53772098 19.9375 202.125 C25.67610557 194.41970398 31.49958141 186.78263195 37.34570312 179.15869141 C39.57643321 176.24781251 41.80292776 173.33370616 44.02954102 170.41967773 C48.34437726 164.77309406 52.66474733 159.13092592 57 153.5 C58.22030256 151.91380446 59.44059872 150.32760397 60.66064453 148.74121094 C61.6118263 147.50463996 62.56336019 146.26833981 63.51513672 145.03222656 C71.14500101 135.11734667 78.64758843 125.12245842 86 115 C82.12827683 109.02827086 78.0409266 103.32899009 73.625 97.75 C72.38838988 96.1739087 71.15275246 94.59705385 69.91796875 93.01953125 C68.95769775 91.79290771 68.95769775 91.79290771 67.97802734 90.54150391 C64.59809145 86.19873266 61.26771147 81.81844991 57.9375 77.4375 C57.26501221 76.55320312 56.59252441 75.66890625 55.8996582 74.7578125 C54.56741972 73.0057923 53.23530474 71.2536782 51.90332031 69.50146484 C49.04598631 65.74617441 46.18001972 61.99751549 43.3125 58.25 C42.78994629 57.56703857 42.26739258 56.88407715 41.72900391 56.18041992 C40.68265728 54.8129576 39.63627072 53.44552583 38.58984375 52.078125 C36.94462024 49.92761171 35.30031538 47.77639878 33.65625 45.625 C28.77924222 39.24349674 23.89971657 32.86409067 19 26.5 C18.21753906 25.48164063 17.43507813 24.46328125 16.62890625 23.4140625 C14.60233582 20.77817042 12.56544485 18.15042184 10.52734375 15.5234375 C9.33061656 13.97404531 8.134001 12.42456687 6.9375 10.875 C6.36451172 10.13958984 5.79152344 9.40417969 5.20117188 8.64648438 C4.66943359 7.95619141 4.13769531 7.26589844 3.58984375 6.5546875 C3.11409912 5.94093262 2.63835449 5.32717773 2.14819336 4.69482422 C1 3 1 3 0 0 Z " fill="#A9B7FF" transform="translate(259,144)"/>
<path d="M0 0 C18.14477038 14.15191005 27.03993768 32.93608412 32.1171875 54.9375 C32.1171875 65.4975 32.1171875 76.0575 32.1171875 86.9375 C-23.3228125 86.9375 -78.7628125 86.9375 -135.8828125 86.9375 C-135.8828125 47.13308611 -135.8828125 47.13308611 -129.6953125 33.8125 C-129.39052979 33.14492676 -129.08574707 32.47735352 -128.77172852 31.78955078 C-120.64629229 14.51291698 -107.80596115 0.77538322 -90.8828125 -8.0625 C-89.98175781 -8.54074219 -89.08070312 -9.01898438 -88.15234375 -9.51171875 C-59.04741875 -23.8277306 -25.85578149 -18.4984453 0 0 Z M-99.7578125 18.71875 C-114.3628456 33.96812279 -118.50061482 50.20453487 -119.8828125 70.9375 C-75.0028125 70.9375 -30.1228125 70.9375 16.1171875 70.9375 C14.66252555 49.11757071 9.81803454 32.28575912 -5.8828125 16.9375 C-33.57536686 -7.18948942 -72.89692008 -6.22350724 -99.7578125 18.71875 Z " fill="#5354FF" transform="translate(191.8828125,169.0625)"/>
</svg>
