<?xml version="1.0" encoding="UTF-8"?>
<svg version="1.1" xmlns="http://www.w3.org/2000/svg" width="225" height="225">
<path d="M0 0 C74.25 0 148.5 0 225 0 C225 74.25 225 148.5 225 225 C150.75 225 76.5 225 0 225 C0 150.75 0 76.5 0 0 Z " fill="#E7E8EA" transform="translate(0,0)"/>
<path d="M0 0 C2.40221008 0.06027399 4.80456578 0.11501257 7.20703125 0.1640625 C13.05800452 0.29548598 18.90301363 0.50051533 24.75 0.75 C20.88044744 5.38003233 16.86675521 9.77207622 12.58032227 14.01733398 C11.99572235 14.60047363 11.41112244 15.18361328 10.80880737 15.78442383 C9.5512003 17.03825378 8.29244037 18.2909283 7.0326252 19.5425396 C5.03250759 21.52977406 3.03563511 23.52021997 1.03953552 25.51148987 C-3.91733277 30.45506048 -8.87963801 35.39316182 -13.84179688 40.3314209 C-18.04230723 44.51211527 -22.2407058 48.69490933 -26.43638802 52.8804493 C-28.39233464 54.82997019 -30.35129631 56.77642518 -32.31040955 58.72276306 C-37.60937394 64.0001293 -42.8384726 69.26058906 -47.68766785 74.96058655 C-50.6762369 78.38353708 -53.92856747 81.55048898 -57.15234375 84.75 C-57.8749086 85.4711499 -58.59747345 86.1922998 -59.3419342 86.93530273 C-61.62142604 89.20925415 -63.9043924 91.47967954 -66.1875 93.75 C-67.74567506 95.30315235 -69.30361993 96.85653567 -70.86132812 98.41015625 C-74.65489759 102.19277586 -78.45131615 105.9725169 -82.25 109.75 C-86.34492916 106.30286117 -90.31493546 102.80875464 -94.08984375 99.0078125 C-94.92451172 98.16992188 -95.75917969 97.33203125 -96.61914062 96.46875 C-97.46669922 95.6128125 -98.31425781 94.756875 -99.1875 93.875 C-100.06212891 92.99585937 -100.93675781 92.11671875 -101.83789062 91.2109375 C-103.97757048 89.0595654 -106.11486597 86.90588208 -108.25 84.75 C-103.00575531 78.32290424 -97.15191625 72.53566439 -91.27340889 66.69824409 C-89.40770352 64.84543651 -87.54525735 62.98940592 -85.68357849 61.1325531 C-81.06061701 56.52288035 -76.43221554 51.91868231 -71.80395508 47.31433105 C-67.88527904 43.4154825 -63.96872349 39.51452649 -60.05488396 35.61082268 C-58.23189488 33.79425232 -56.40588942 31.9807532 -54.57972717 30.16737366 C-44.59227902 20.31681299 -44.59227902 20.31681299 -35.86425781 9.37011719 C-26.42812164 -2.65723013 -14.15796515 -0.61835365 0 0 Z " fill="#5CC8F7" transform="translate(154.25,28.25)"/>
<path d="M0 0 C-4.62491379 5.55439924 -9.55360964 10.68525669 -14.6796875 15.77734375 C-15.49245148 16.58869278 -16.30521545 17.40004181 -17.14260864 18.23597717 C-19.71771738 20.8055259 -22.2962962 23.37155968 -24.875 25.9375 C-26.63043946 27.68791929 -28.38565017 29.438568 -30.140625 31.18945312 C-34.42444082 35.46229302 -38.71110472 39.73225899 -43 44 C-42.0444276 45.12258368 -41.08775329 46.24422945 -40.13061523 47.36547852 C-39.33167091 48.30255394 -39.33167091 48.30255394 -38.5165863 49.25856018 C-36.22342959 51.891707 -33.73186533 54.2908732 -31.22265625 56.71484375 C-29.37138975 58.61816696 -27.65403319 60.55468701 -25.9296875 62.5703125 C-21.24828513 67.96240217 -16.14490943 72.92761008 -11.0625 77.9375 C-9.15469053 79.81878142 -7.25027523 81.70329193 -5.34765625 83.58984375 C-4.51242432 84.41347412 -3.67719238 85.23710449 -2.81665039 86.08569336 C-1 88 -1 88 -1 89 C-41.08277032 96.19176431 -41.08277032 96.19176431 -56.04044342 85.91048813 C-63.44508442 80.38270423 -69.89075116 73.79038165 -76.125 67 C-76.60834305 66.47385605 -77.0916861 65.9477121 -77.5896759 65.40562439 C-83.62462536 58.7950805 -89.41381869 51.995155 -95 45 C-94.15655029 44.03054443 -93.31310059 43.06108887 -92.4440918 42.06225586 C-90.10132514 39.33373949 -87.84902963 36.55460492 -85.63989258 33.71704102 C-60.45539528 1.68493754 -40.24666879 -6.12415941 0 0 Z " fill="#5CC8F7" transform="translate(179,106)"/>
<path d="M0 0 C4.01199602 1.84756626 6.75705689 4.49579142 9.8125 7.625 C10.5559668 8.36943359 10.5559668 8.36943359 11.31445312 9.12890625 C14.0570014 11.90322149 16.66622444 14.75141475 19.203125 17.71484375 C23.83622831 23.06097814 28.902411 27.97425532 33.9375 32.9375 C35.84530947 34.81878142 37.74972477 36.70329193 39.65234375 38.58984375 C40.90519165 39.82528931 40.90519165 39.82528931 42.18334961 41.08569336 C44 43 44 43 44 44 C-3.04847546 47.20680392 -3.04847546 47.20680392 -13.328125 39.9921875 C-17.73002593 35.91774805 -21.23363143 31.32199617 -24 26 C-22.4152642 22.13671373 -19.94043113 19.71123077 -16.9921875 16.796875 C-16.50670441 16.3142218 -16.02122131 15.8315686 -15.52102661 15.33428955 C-13.97700134 13.80141438 -12.42615176 12.27565996 -10.875 10.75 C-9.82375991 9.70879639 -8.77297343 8.66713459 -7.72265625 7.625 C-5.15366996 5.07800536 -2.57851839 2.53734823 0 0 Z " fill="#075A9C" transform="translate(134,151)"/>
<path d="M0 0 C2.36429224 1.11952749 3.81583248 2.42105057 5.65234375 4.28564453 C6.33425781 4.97271484 7.01617187 5.65978516 7.71875 6.36767578 C8.42128906 7.09083984 9.12382813 7.81400391 9.84765625 8.55908203 C10.54246094 9.25904297 11.23726562 9.95900391 11.953125 10.68017578 C16.15686045 14.94724435 20.12759618 19.34170621 23.97265625 23.93408203 C22.38792045 27.7973683 19.91308738 30.22285126 16.96484375 33.13720703 C16.47936066 33.61986023 15.99387756 34.10251343 15.49368286 34.59979248 C13.94965759 36.13266765 12.39880801 37.65842207 10.84765625 39.18408203 C9.79641616 40.22528564 8.74562968 41.26694744 7.6953125 42.30908203 C5.12632621 44.85607667 2.55117464 47.3967338 -0.02734375 49.93408203 C-6.02235372 44.97213348 -11.49161412 39.58641963 -16.96484375 34.05908203 C-17.83947266 33.17994141 -18.71410156 32.30080078 -19.61523438 31.39501953 C-21.75491423 29.24364743 -23.89220972 27.08996411 -26.02734375 24.93408203 C-21.22429345 19.18895434 -16.14939911 13.77529336 -10.90234375 8.43408203 C-10.10441406 7.59876953 -9.30648437 6.76345703 -8.484375 5.90283203 C-7.71222656 5.11908203 -6.94007812 4.33533203 -6.14453125 3.52783203 C-5.10208252 2.4556543 -5.10208252 2.4556543 -4.03857422 1.36181641 C-2.02734375 -0.06591797 -2.02734375 -0.06591797 0 0 Z " fill="#16B9FD" transform="translate(110.02734375,126.06591796875)"/>
<path d="M0 0 C0.33 0 0.66 0 1 0 C1.20625 1.27875 1.4125 2.5575 1.625 3.875 C3.53299649 12.28873454 7.82297892 18.9888515 14.98828125 23.8203125 C19.81074737 26.64824409 24.39945998 28.31700731 30 29 C30 29.33 30 29.66 30 30 C20.1 30 10.2 30 0 30 C0 20.1 0 10.2 0 0 Z " fill="#FEFEFE" transform="translate(0,195)"/>
<path d="M0 0 C0.33 0 0.66 0 1 0 C1 9.9 1 19.8 1 30 C-8.9 30 -18.8 30 -29 30 C-29 29.67 -29 29.34 -29 29 C-27.72125 28.79375 -26.4425 28.5875 -25.125 28.375 C-16.71126546 26.46700351 -10.0111485 22.17702108 -5.1796875 15.01171875 C-2.35175591 10.18925263 -0.68299269 5.60054002 0 0 Z " fill="#FEFEFE" transform="translate(224,195)"/>
<path d="M0 0 C9.57 0 19.14 0 29 0 C29 9.57 29 19.14 29 29 C28.67 29 28.34 29 28 29 C27.82984375 28.34773438 27.6596875 27.69546875 27.484375 27.0234375 C24.59906633 16.61790943 19.41240069 9.68872556 10.13671875 4.0703125 C6.83853838 2.41820753 3.61190892 1.70948211 0 1 C0 0.67 0 0.34 0 0 Z " fill="#FEFEFE" transform="translate(196,0)"/>
<path d="M0 0 C9.57 0 19.14 0 29 0 C29 0.33 29 0.66 29 1 C28.34773438 1.17015625 27.69546875 1.3403125 27.0234375 1.515625 C16.61790943 4.40093367 9.68872556 9.58759931 4.0703125 18.86328125 C2.41820753 22.16146162 1.70948211 25.38809108 1 29 C0.67 29 0.34 29 0 29 C0 19.43 0 9.86 0 0 Z " fill="#FEFEFE" transform="translate(0,0)"/>
<path d="M0 0 C3.33557632 2.9905167 5.15083921 5.93184627 7 10 C1.45544036 12.62637036 -4.12497834 14.80877797 -9.9375 16.75 C-10.60015869 16.97260498 -11.26281738 17.19520996 -11.94555664 17.42456055 C-16.74109792 19 -16.74109792 19 -19 19 C-17.43238691 15.22546791 -15.06806222 12.80078748 -12.1875 9.9375 C-11.33542969 9.08027344 -10.48335937 8.22304687 -9.60546875 7.33984375 C-7.17577892 5.15785843 -4.82193469 3.61458742 -2 2 C-1.34 1.34 -0.68 0.68 0 0 Z " fill="#085595" transform="translate(131,156)"/>
<path d="M0 0 C0.66 0 1.32 0 2 0 C2.66 2.31 3.32 4.62 4 7 C1.70967689 7.83719383 -0.58210957 8.6698929 -2.875 9.5 C-3.52597656 9.73847656 -4.17695312 9.97695312 -4.84765625 10.22265625 C-9.7734375 12 -9.7734375 12 -12 12 C-9.68618031 6.60108739 -6.01185694 3.84456745 -1 1 C-0.67 0.67 -0.34 0.34 0 0 Z " fill="#074E88" transform="translate(124,163)"/>
<path d="M0 0 C0.33 0.99 0.66 1.98 1 3 C-5.75 6 -5.75 6 -8 6 C-6.98565881 3.46414701 -6.34981128 2.21863205 -4 0.75 C-2 0 -2 0 0 0 Z " fill="#06467A" transform="translate(120,169)"/>
</svg>
