<?xml version="1.0" encoding="UTF-8"?>
<svg version="1.1" xmlns="http://www.w3.org/2000/svg" width="600" height="600">
<path d="M0 0 C198 0 396 0 600 0 C600 198 600 396 600 600 C402 600 204 600 0 600 C0 402 0 204 0 0 Z " fill="#FEFEFE" transform="translate(0,0)"/>
<path d="M0 0 C4.78110277 4.09929058 7.28504031 7.93616607 9 14 C9.24050903 17.30307007 9.24050903 17.30307007 9.22705078 20.92333984 C9.22734283 21.5874588 9.22763489 22.25157776 9.22793579 22.93582153 C9.22655261 25.11099737 9.21103988 27.28582218 9.1953125 29.4609375 C9.19157876 30.97693698 9.18873349 32.49293889 9.18673706 34.00894165 C9.17912902 37.98409782 9.1595051 41.95910606 9.1373291 45.9342041 C9.11680948 49.9964803 9.1077223 54.05878058 9.09765625 58.12109375 C9.07625629 66.08080436 9.04109748 74.04036669 9 82 C4.38 82 -0.24 82 -5 82 C-5.66 79.36 -6.32 76.72 -7 74 C-7.61746094 74.39832031 -8.23492187 74.79664063 -8.87109375 75.20703125 C-19.85467273 82.07803728 -29.09456622 84.19395385 -42 83 C-47.96208784 81.4342885 -51.56163802 78.10842351 -55 73 C-58.61823213 66.36171122 -59.07342992 59.11668264 -57.53125 51.765625 C-55.44510574 45.35818192 -51.86250187 40.68115189 -46.046875 37.265625 C-33.46471067 30.88336773 -21.95673384 30.8141855 -8 31 C-8.02621839 20.61015591 -8.02621839 20.61015591 -13 12 C-17.20086335 8.8051935 -20.94797629 8.52904914 -26.0625 8.625 C-27.18434692 8.63370117 -27.18434692 8.63370117 -28.32885742 8.64257812 C-33.98881132 8.77345812 -39.15242952 9.68959771 -44.58203125 11.34375 C-47 12 -47 12 -51 12 C-52.81546807 8.14213034 -53.09380477 5.23294004 -53 1 C-36.38575956 -4.44122978 -15.97309993 -10.22968591 0 0 Z " fill="#EA2E34" transform="translate(421,458)"/>
<path d="M0 0 C7.3893141 8.12824551 7.03980172 16.22893663 6.890625 26.625 C6.88315347 28.16055562 6.87746485 29.69612085 6.87347412 31.23168945 C6.85828928 35.24976484 6.81907085 39.26725079 6.7746582 43.28509521 C6.7335498 47.39440948 6.71543007 51.5038201 6.6953125 55.61328125 C6.65256803 63.65915322 6.58227843 71.7044351 6.5 79.75 C1.88 79.75 -2.74 79.75 -7.5 79.75 C-7.5 77.11 -7.5 74.47 -7.5 71.75 C-8.24765625 72.23210937 -8.9953125 72.71421875 -9.765625 73.2109375 C-11.24289063 74.15839844 -11.24289063 74.15839844 -12.75 75.125 C-13.72453125 75.75148438 -14.6990625 76.37796875 -15.703125 77.0234375 C-24.66746114 82.55728746 -35.11015722 83.21216141 -45.421875 81.171875 C-52.20960549 78.90929817 -55.24641722 74.96902539 -58.5 68.75 C-61.27371021 63.20257958 -60.51172952 52.96484145 -58.6640625 47.09375 C-57.44601381 45.0336945 -56.17696084 43.45552221 -54.5 41.75 C-53.91863281 41.12867188 -53.33726562 40.50734375 -52.73828125 39.8671875 C-43.45908241 30.87031723 -32.50620964 29.57269563 -20.125 29.6875 C-18.73474609 29.69426758 -18.73474609 29.69426758 -17.31640625 29.70117188 C-15.04420291 29.71288426 -12.77213612 29.72928628 -10.5 29.75 C-10.2157641 20.32079173 -10.2157641 20.32079173 -13.8125 12 C-18.8020696 7.82268592 -22.62063908 7.39498823 -29.0625 7.4375 C-29.86445801 7.43878906 -30.66641602 7.44007813 -31.49267578 7.44140625 C-37.07272046 7.53128013 -42.0285231 8.27406506 -47.3359375 10.09375 C-49.5 10.75 -49.5 10.75 -53.5 10.75 C-54.16 7.45 -54.82 4.15 -55.5 0.75 C-39.30346749 -7.2110075 -15.75155561 -11.50175472 0 0 Z " fill="#EA2D33" transform="translate(264.5,459.25)"/>
<path d="M0 0 C6.68949106 6.24574373 9.06830161 12.61993453 9.4753418 21.77441406 C9.71143772 41.28856059 0.70884439 57.78702137 -12 72 C-12.72058594 72.84046875 -13.44117188 73.6809375 -14.18359375 74.546875 C-21.07195777 82.45437309 -28.70020078 89.45590719 -36.9375 95.9375 C-48.83909885 105.4021048 -64.01100646 117.81911653 -66.28051758 134 C-66.40121342 136.1350419 -66.41726874 138.23706642 -66.375 140.375 C-66.36339844 141.12958496 -66.35179687 141.88416992 -66.33984375 142.66162109 C-66.17442435 148.29196243 -65.51668496 152.90731428 -63 158 C-62.46246094 159.11503906 -61.92492187 160.23007813 -61.37109375 161.37890625 C-57.39024708 169.34059958 -52.67989506 176.53021605 -47.41015625 183.6875 C-38 196.48920998 -38 196.48920998 -38 200 C-41.86491351 198.41424872 -44.52358073 195.79795955 -47.4375 192.8984375 C-48.21343758 192.13500031 -48.21343758 192.13500031 -49.00505066 191.35614014 C-50.67753145 189.70310698 -52.34003941 188.04060113 -54 186.375 C-54.56457916 185.81020935 -55.12915833 185.2454187 -55.71084595 184.66351318 C-86.51715973 153.74134697 -86.51715973 153.74134697 -87.3125 133.0625 C-86.88400405 118.26811359 -76.60388023 107.92627509 -66.4765625 98.18359375 C-62.12888234 94.12486485 -57.48348555 90.49815051 -52.7578125 86.89453125 C-48.46271618 83.61512053 -44.29278812 80.18892723 -40.125 76.75 C-39.43567383 76.1835376 -38.74634766 75.6170752 -38.03613281 75.03344727 C-12.47274595 53.94944312 -12.47274595 53.94944312 0 24 C0.52490335 16.00561799 0.32299637 7.99937789 0 0 Z " fill="#EA3035" transform="translate(338,32)"/>
<path d="M0 0 C6.27 0 12.54 0 19 0 C22.14360344 8.44282067 24.85502314 16.8318181 27.19189453 25.53027344 C28.30912696 29.64583774 29.52855273 33.6403323 31.0625 37.625 C34.29590783 46.08969366 36.30157945 55.1133147 38 64 C39.8494555 61.22581675 40.62916352 59.33916803 41.55078125 56.1953125 C41.83469727 55.22980469 42.11861328 54.26429688 42.41113281 53.26953125 C42.70858398 52.23183594 43.00603516 51.19414062 43.3125 50.125 C43.7760791 48.51818359 43.7760791 48.51818359 44.24902344 46.87890625 C48.65586349 31.40701598 52.18814358 15.8351914 55 0 C60.94 0 66.88 0 73 0 C72.46497891 8.17430957 71.06427063 15.66173623 68.9375 23.5625 C68.62949463 24.72346191 68.32148926 25.88442383 68.00415039 27.08056641 C58.61903322 61.98802105 58.61903322 61.98802105 52.32421875 74.2890625 C50.63429191 77.74867673 49.35192937 81.39485502 48 85 C40.74 85 33.48 85 26 85 C24.13832642 79.41497927 22.29679086 73.83645216 20.5480957 68.21704102 C20.3233255 67.49717514 20.0985553 66.77730927 19.86697388 66.03562927 C19.13556826 63.69203456 18.40554339 61.3480132 17.67578125 59.00390625 C17.42478354 58.19824659 17.17378582 57.39258694 16.91518211 56.56251335 C15.59146076 52.31355238 14.26878461 48.06426779 12.94702148 43.81469727 C11.58095473 39.42337378 10.21139179 35.03314876 8.84104633 30.64315891 C7.78657848 27.26295777 6.73462391 23.88197839 5.68337059 20.50077629 C5.17913528 18.88051149 4.6739515 17.26054154 4.16781044 15.64087105 C3.46378723 13.38713038 2.76330953 11.13231769 2.0637207 8.87719727 C1.85336685 8.20657257 1.643013 7.53594788 1.42628479 6.84500122 C0 2.22825265 0 2.22825265 0 0 Z " fill="#EA2E34" transform="translate(282,455)"/>
<path d="M0 0 C0 0.66 0 1.32 0 2 C-0.78761719 2.09796875 -1.57523438 2.1959375 -2.38671875 2.296875 C-18.27781875 4.36719974 -18.27781875 4.36719974 -32 12 C-32.66283454 14.06634752 -32.66283454 14.06634752 -33 16 C-27.8105419 18.76501716 -22.96249386 20.83961592 -17.1875 22.0625 C-16.43758789 22.22532471 -15.68767578 22.38814941 -14.91503906 22.5559082 C-3.4166714 24.89659823 8.3256429 25.94418851 20 27 C21.01924561 27.09788818 22.03849121 27.19577637 23.08862305 27.29663086 C34.8104471 28.29292813 46.55678868 28.19897655 58.3125 28.1875 C59.45294769 28.18689575 60.59339539 28.1862915 61.7684021 28.18566895 C98.6293322 28.13298707 135.05723094 26.70939315 171.3125 19.5625 C172.25488525 19.38162842 173.19727051 19.20075684 174.16821289 19.0144043 C180.44339111 17.68023967 188.3198034 15.6801966 193 11 C193.07148199 9.64756083 193.08399454 8.29165633 193.0625 6.9375 C193.0315625 4.9884375 193.0315625 4.9884375 193 3 C195.46800047 4.15173355 197.04783565 5.04783565 199 7 C199.5 9.8125 199.5 9.8125 199 13 C187.24192461 24.39461093 169.51378478 27.90573599 154 31 C153.17628906 31.1748291 152.35257813 31.3496582 151.50390625 31.52978516 C104.35954992 41.46324254 53.77881824 41.84583787 6 37 C5.30215393 36.92976624 4.60430786 36.85953247 3.88531494 36.78717041 C-1.51712331 36.24041869 -6.9157228 35.66247763 -12.3125 35.0625 C-13.02867493 34.98318237 -13.74484985 34.90386475 -14.48272705 34.82214355 C-22.42838685 33.92879419 -30.32610439 32.85077547 -38.20703125 31.49609375 C-38.90838699 31.3778273 -39.60974274 31.25956085 -40.33235168 31.13771057 C-46.8654473 29.97235239 -53.61332797 28.30947804 -58 23 C-58.13778594 19.89981629 -57.75817127 17.94344785 -55.78515625 15.48828125 C-47.00734269 7.3113938 -35.36713852 3.8486323 -24 1 C-22.79730469 0.6596875 -22.79730469 0.6596875 -21.5703125 0.3125 C-15.29281369 -1.34310408 -5.93758387 -2.96879193 0 0 Z " fill="#0F7ABD" transform="translate(221,344)"/>
<path d="M0 0 C6.27 0 12.54 0 19 0 C19.04645152 14.13495614 19.08193422 28.26989396 19.10362434 42.40491104 C19.11403734 48.96918698 19.12815108 55.53341048 19.15087891 62.09765625 C19.17269595 68.43892682 19.18458729 74.78014711 19.18975449 81.12145233 C19.19343437 83.53420553 19.20062005 85.94695615 19.21146011 88.35968781 C19.22609281 91.75319753 19.22797303 95.14650259 19.22705078 98.54003906 C19.23424133 99.52547699 19.24143188 100.51091492 19.24884033 101.5262146 C19.2175701 112.24090799 18.21427051 122.03344812 12 131 C11.56816406 131.62648438 11.13632813 132.25296875 10.69140625 132.8984375 C6.7105411 138.06341267 1.62787625 140.87124952 -4 144 C-5.485 144.99 -5.485 144.99 -7 146 C-9.83660892 145.82413025 -10.86250798 145.13218237 -12.921875 143.15234375 C-13.82679688 142.05599609 -13.82679688 142.05599609 -14.75 140.9375 C-15.36359375 140.20402344 -15.9771875 139.47054687 -16.609375 138.71484375 C-17.06828125 138.14894531 -17.5271875 137.58304688 -18 137 C-15.25823451 134.1751507 -12.50944364 131.58785136 -9.4375 129.125 C-4.06648951 124.49118703 -1.93269536 120.4557586 -1.41127014 113.45684814 C-0.98780116 107.57342917 -0.83012854 101.71245207 -0.79467773 95.81542969 C-0.77982834 94.24735313 -0.77982834 94.24735313 -0.76467896 92.64759827 C-0.73343513 89.2390458 -0.70845553 85.83047946 -0.68359375 82.421875 C-0.66299205 80.04005601 -0.6419948 77.65824041 -0.62062073 75.27642822 C-0.56573194 69.04261034 -0.51617787 62.80876129 -0.46777344 56.57489014 C-0.41731427 50.19963852 -0.36175633 43.82443151 -0.30664062 37.44921875 C-0.19946577 24.96618404 -0.09793245 12.48311041 0 0 Z " fill="#EA3036" transform="translate(173,424)"/>
<path d="M0 0 C-0.91942383 0.54188965 -0.91942383 0.54188965 -1.85742188 1.09472656 C-36.22946985 19.84256337 -36.22946985 19.84256337 -59 50 C-61.3982787 64.57574555 -52.36561485 75.30170411 -44.390625 86.53125 C-43.97844727 87.10423828 -43.56626953 87.67722656 -43.14160156 88.26757812 C-38.70892357 94.99432814 -39.29079179 102.2368392 -40 110 C-41.04228544 113.60831811 -42.64701462 116.09462076 -45 119 C-46.05767578 120.32064453 -46.05767578 120.32064453 -47.13671875 121.66796875 C-53.05058518 128.57224115 -59.57928277 133.83609884 -67 139 C-67.66 138.67 -68.32 138.34 -69 138 C-68.61328125 137.59910156 -68.2265625 137.19820312 -67.828125 136.78515625 C-62.43780736 130.90117091 -58.84647683 125.01155341 -58.5625 116.875 C-58.98766542 108.4876459 -63.01824925 103.43585488 -67.875 96.8828125 C-77.27295668 84.13337863 -83.46010304 71.27712014 -81 55 C-73.81941439 33.81504244 -54.47847789 21.09091985 -35.32397461 11.58911133 C-27.70546014 7.91273969 -19.96808654 4.71500249 -12 1.875 C-11.145271 1.56747803 -10.29054199 1.25995605 -9.40991211 0.94311523 C-8.61464111 0.67055908 -7.81937012 0.39800293 -7 0.1171875 C-5.948125 -0.24463623 -5.948125 -0.24463623 -4.875 -0.61376953 C-3 -1 -3 -1 0 0 Z " fill="#EA2E34" transform="translate(382,107)"/>
<path d="M0 0 C-0.33 0.33 -0.66 0.66 -1 1 C-1.04063832 2.66617115 -1.042721 4.33388095 -1 6 C10.41693692 11.00434308 23.72063371 10.34528008 35.95678711 10.31567383 C38.66626704 10.31252468 41.37463921 10.33602551 44.08398438 10.36132812 C57.81210789 10.41001273 70.86071777 8.87495779 84.25 5.8125 C90.35661209 5.19643471 95.71426058 9.12349702 100.77734375 12.1171875 C103.86493368 14.06915942 103.86493368 14.06915942 107 15 C107 15.66 107 16.32 107 17 C98.2849035 21.0972708 89.62519028 23.63940103 80.234375 25.54589844 C78.78675533 25.84010436 77.34121181 26.14479871 75.8984375 26.46191406 C50.73024165 31.91737974 13.09600773 33.54111761 -9.59765625 19.37890625 C-11.86904997 17.70841034 -14.00624253 15.99375747 -16 14 C-16.4375 10.75 -16.4375 10.75 -16 7 C-12.00122352 2.70863012 -6.00733345 -2.00244448 0 0 Z " fill="#0A77BC" transform="translate(250,318)"/>
<path d="M0 0 C-2.87580185 1.91720123 -5.06662651 2.77787239 -8.33203125 3.8046875 C-9.37810547 4.14113281 -10.42417969 4.47757813 -11.50195312 4.82421875 C-13.69608857 5.5206464 -15.89139357 6.21340073 -18.08789062 6.90234375 C-26.08749226 9.43040389 -26.08749226 9.43040389 -33 14 C-33.95231597 16.12119128 -33.95231597 16.12119128 -34 18 C-32.21092846 18.48876697 -30.4185408 18.96539669 -28.625 19.4375 C-27.62726563 19.70433594 -26.62953125 19.97117188 -25.6015625 20.24609375 C-17.10170584 22.02534791 -8.55464475 22.15808584 0.1015625 22.16796875 C1.24362152 22.17229416 2.38568054 22.17661957 3.56234741 22.18107605 C7.24994097 22.19115264 10.93739548 22.19126262 14.625 22.1875 C15.88763672 22.18623108 17.15027344 22.18496216 18.45117188 22.18365479 C47.00114252 22.12882768 74.59767727 20.60219452 102.79492188 16.03271484 C103.62104477 15.89982056 104.44716766 15.76692627 105.29832458 15.63000488 C106.84141242 15.37993557 108.38370091 15.12485728 109.92494202 14.86364746 C114.36430279 14.14077696 118.52294091 13.88338891 123 14 C95.16818496 35.67546885 48.81072483 32.37649377 15.31062317 32.4330101 C13.15704873 32.43743416 11.00353194 32.44650229 8.84997559 32.45620728 C-47.768666 32.65857461 -47.768666 32.65857461 -61 22 C-60.72364817 18.68377808 -60.34307185 17.32099921 -57.875 15.01171875 C-42.20183092 4.04475941 -18.6257245 -0.5330096 0 0 Z " fill="#0C78BD" transform="translate(254,234)"/>
<path d="M0 0 C-0.495 0.37125 -0.99 0.7425 -1.5 1.125 C-3.59755514 3.74694393 -3.21743835 5.73842472 -3 9 C1.48767126 11.56242603 4.91594478 12.41219358 10.0625 12.625 C16.69580065 12.9274958 16.69580065 12.9274958 19.09985352 13.50048828 C23.31161327 14.22590797 27.47548275 14.18252811 31.7421875 14.203125 C32.6949205 14.21000336 33.6476535 14.21688171 34.6292572 14.22396851 C37.71121014 14.24116416 40.79300155 14.24743075 43.875 14.25 C44.91755951 14.25167175 45.96011902 14.25334351 47.03427124 14.25506592 C64.38857709 14.256742 80.98106432 13.40667243 97.92700195 9.43530273 C104.84315813 7.98299953 108.85074259 8.55788094 114.9375 12.375 C117.5168811 14.13812126 119.79181737 15.79181737 122 18 C112.49697795 21.28906235 103.09279614 23.23815354 93.18774414 24.81030273 C90.80384944 25.18887374 88.42240304 25.580602 86.04101562 25.97460938 C72.89735844 28.13006124 60.25239128 29.18660275 46.9440918 29.18530273 C44.46710617 29.18747405 41.99057824 29.20564152 39.51367188 29.22460938 C-2.61537908 29.37542436 -2.61537908 29.37542436 -17 18 C-19.95691132 14.54578996 -19.95691132 14.54578996 -20.1875 11.625 C-17.31211199 5.26887913 -9.96390348 2.26793621 -3.8828125 -0.43359375 C-2 -1 -2 -1 0 0 Z " fill="#0C78BD" transform="translate(242,277)"/>
<path d="M0 0 C1 3 1 3 0.1015625 4.83203125 C-3.92434114 10.23185439 -8.12713994 13.72937839 -14 17 C-15.35158203 17.75603516 -15.35158203 17.75603516 -16.73046875 18.52734375 C-26.64178374 23.56634348 -37.16811289 25.79784527 -48 28 C-48.73283203 28.15065918 -49.46566406 28.30131836 -50.22070312 28.45654297 C-75.3372549 33.47158353 -100.91616738 34.53676597 -126.44821167 34.38652039 C-128.60154546 34.37478725 -130.75484467 34.36828467 -132.90820312 34.36291504 C-149.79371591 34.31375416 -166.66143758 34.12611214 -183.5 32.75 C-184.19384796 32.69559753 -184.88769592 32.64119507 -185.60256958 32.58514404 C-193.38175504 31.94473141 -200.97125357 30.7172073 -208.59375 29.078125 C-209.34233276 28.9194696 -210.09091553 28.76081421 -210.86218262 28.59735107 C-215.27217303 27.59476323 -219.00950964 26.20941514 -223 24 C-219.51853512 22.83951171 -217.7770369 23.18252074 -214.17602539 23.76196289 C-212.97086777 23.94375595 -211.76571014 24.12554901 -210.52403259 24.31285095 C-209.8766255 24.41083418 -209.22921841 24.50881741 -208.56219292 24.60976982 C-190.93578607 27.22182588 -173.54962903 27.60137727 -155.76004028 27.45478058 C-153.39861087 27.43721065 -151.03726264 27.42744466 -148.67578125 27.41986084 C-125.35305437 27.33912787 -102.18500653 26.74538937 -79 24 C-77.70078613 23.85763916 -76.40157227 23.71527832 -75.06298828 23.56860352 C-66.22301317 22.57087565 -57.57333609 21.06207121 -48.89013672 19.13305664 C-46.87060067 18.68652729 -44.84781541 18.25778067 -42.82421875 17.83007812 C-31.17123158 15.31040849 -19.97616797 11.79972308 -9.3125 6.375 C-8.17425781 5.80523437 -7.03601563 5.23546875 -5.86328125 4.6484375 C-3.44893421 3.25845871 -1.79474904 2.09281691 0 0 Z " fill="#147CBF" transform="translate(436,366)"/>
<path d="M0 0 C0.886875 0.680625 1.77375 1.36125 2.6875 2.0625 C3.9559375 2.866875 3.9559375 2.866875 5.25 3.6875 C10.07163837 8.38550662 12.95124812 14.29790381 13.25 21.0625 C12.59182011 31.60983273 7.10434236 39.82126533 -0.3125 47.0625 C-9.06413492 54.26259139 -18.79261232 58.99973466 -29.3125 63.0625 C-30.25351562 63.46339844 -31.19453125 63.86429687 -32.1640625 64.27734375 C-36.92834595 66.29964533 -41.1491039 67.61350903 -46.3125 68.0625 C-43.07078845 64.44611827 -39.36508909 62.183833 -35.1875 59.8125 C-21.65873993 51.88461062 -9.43455552 42.42866657 -4.3125 27.0625 C-3.59267697 20.1213494 -3.59188849 14.43703319 -7.8203125 8.6796875 C-11.90121559 4.25692865 -17.20557527 1.30921408 -23.21484375 0.83203125 C-30.81135079 0.92511775 -30.81135079 0.92511775 -38.3125 2.0625 C-29.79841332 -9.16061426 -10.59687464 -6.19817196 0 0 Z " fill="#0D79BD" transform="translate(424.3125,234.9375)"/>
<path d="M0 0 C1.46984925 17.91457286 1.46984925 17.91457286 -1.828125 22.59375 C-4.20436382 24.13594473 -6.31222409 25.11974271 -9 26 C-9.81210937 26.35964844 -10.62421875 26.71929688 -11.4609375 27.08984375 C-15.91801054 28.68753301 -20.34215274 28.68878854 -25 28 C-28.17340476 26.34243519 -30.37654303 24.24691395 -32 21 C-32.471093 15.77164003 -32.86059473 10.79602379 -30.5625 6 C-21.12228294 -1.36797429 -11.47923777 -0.42039935 0 0 Z " fill="#FEF9F9" transform="translate(413,500)"/>
<path d="M0 0 C0.14546783 3.24952748 0.2341168 6.49821713 0.3125 9.75 C0.35439453 10.67039062 0.39628906 11.59078125 0.43945312 12.5390625 C0.56350385 19.38666248 0.56350385 19.38666248 -2.296875 22.5 C-3.18890625 22.995 -4.0809375 23.49 -5 24 C-5.59941406 24.41765625 -6.19882813 24.8353125 -6.81640625 25.265625 C-12.65286634 28.55597834 -18.41063485 28.93862899 -25 28 C-28.26281695 26.23807885 -29.43868663 24.93552228 -31.3125 21.8125 C-32.63612741 16.39766058 -32.80284151 11.85002608 -30.5625 6.6875 C-22.22894741 -2.05256735 -11.18973302 -0.40979694 0 0 Z " fill="#FEF9F9" transform="translate(254,500)"/>
<path d="M0 0 C2.97 0 5.94 0 9 0 C9.33 0.99 9.66 1.98 10 3 C10.66 2.01 11.32 1.02 12 0 C12.66 0 13.32 0 14 0 C14 2.64 14 5.28 14 8 C13.34 7.01 12.68 6.02 12 5 C11.67 5.66 11.34 6.32 11 7 C8.4375 7.625 8.4375 7.625 6 8 C6 6.02 6 4.04 6 2 C5.34 2 4.68 2 4 2 C4 3.98 4 5.96 4 8 C3.34 8 2.68 8 2 8 C2 5.69 2 3.38 2 1 C1.34 0.67 0.68 0.34 0 0 Z " fill="#F07377" transform="translate(431,452)"/>
<path d="M0 0 C5.28 0.66 10.56 1.32 16 2 C15.01 2.99 14.02 3.98 13 5 C8.00026003 4.81133057 4.33441034 3.43149848 0 1 C0 0.67 0 0.34 0 0 Z " fill="#4D9CCE" transform="translate(213,389)"/>
<path d="M0 0 C-2.62198774 2.15377564 -4.64404172 3.40072174 -8 4 C-8 3.34 -8 2.68 -8 2 C-8.66 2.165 -9.32 2.33 -10 2.5 C-13.73099794 3.12183299 -17.21873378 3.06408926 -21 3 C-21 2.67 -21 2.34 -21 2 C-18.81347261 1.66034526 -16.62571975 1.32857523 -14.4375 1 C-13.21933594 0.814375 -12.00117188 0.62875 -10.74609375 0.4375 C-7.12372152 0.01444923 -3.64287954 -0.07501425 0 0 Z " fill="#4E9DCF" transform="translate(377,248)"/>
<path d="M0 0 C-0.99 0.33 -1.98 0.66 -3 1 C-1.68 1.66 -0.36 2.32 1 3 C-0.58086048 3.36504603 -2.16483907 3.71660506 -3.75 4.0625 C-4.63171875 4.25972656 -5.5134375 4.45695313 -6.421875 4.66015625 C-8.98679028 4.99825872 -10.57091639 4.81158635 -13 4 C-4.95935583 -1.53911043 -4.95935583 -1.53911043 0 0 Z " fill="#3790C8" transform="translate(399,232)"/>
<path d="M0 0 C2.31 0 4.62 0 7 0 C7.33 2.64 7.66 5.28 8 8 C7.34 8 6.68 8 6 8 C6 6.02 6 4.04 6 2 C5.34 2 4.68 2 4 2 C4 3.98 4 5.96 4 8 C3.34 8 2.68 8 2 8 C2 5.69 2 3.38 2 1 C1.34 0.67 0.68 0.34 0 0 Z " fill="#F49D9F" transform="translate(431,452)"/>
<path d="M0 0 C4.29 0 8.58 0 13 0 C10.14521674 1.90318884 8.58058692 2.4619099 5.3125 3.125 C4.50425781 3.29257813 3.69601563 3.46015625 2.86328125 3.6328125 C2.24839844 3.75398437 1.63351563 3.87515625 1 4 C0.67 2.68 0.34 1.36 0 0 Z " fill="#2F8CC6" transform="translate(241,234)"/>
<path d="M0 0 C0.66 0.33 1.32 0.66 2 1 C1.34 1.66 0.68 2.32 0 3 C0.33 3.66 0.66 4.32 1 5 C-2.3 5.66 -5.6 6.32 -9 7 C-6.25604436 4.05278838 -3.61662784 1.80831392 0 0 Z " fill="#3E94CA" transform="translate(387,296)"/>
<path d="M0 0 C-1.28813342 0.83878455 -2.58063256 1.67086783 -3.875 2.5 C-4.59429687 2.9640625 -5.31359375 3.428125 -6.0546875 3.90625 C-8 5 -8 5 -10 5 C-10 4.34 -10 3.68 -10 3 C-10.66 2.67 -11.32 2.34 -12 2 C-10.56656 1.46809459 -9.12804633 0.94984742 -7.6875 0.4375 C-6.48673828 0.00244141 -6.48673828 0.00244141 -5.26171875 -0.44140625 C-3 -1 -3 -1 0 0 Z " fill="#EF6165" transform="translate(382,107)"/>
</svg>
