<?xml version="1.0" encoding="UTF-8"?>
<svg version="1.1" xmlns="http://www.w3.org/2000/svg" width="464" height="538">
<path d="M0 0 C153.12 0 306.24 0 464 0 C464 177.54 464 355.08 464 538 C310.88 538 157.76 538 0 538 C0 360.46 0 182.92 0 0 Z " fill="#FEFEFE" transform="translate(0,0)"/>
<path d="M0 0 C0.92831635 -0.0033284 1.85663269 -0.0066568 2.81307983 -0.01008606 C4.76779693 -0.01511939 6.72252252 -0.01749551 8.67724609 -0.01733398 C11.6196157 -0.01950994 14.56160325 -0.0376755 17.50390625 -0.05664062 C31.80640679 -0.1006016 45.3965587 0.98084256 59.3359375 4.41796875 C60.66395386 4.74220825 60.66395386 4.74220825 62.01879883 5.07299805 C87.55629274 11.47620449 113.00991931 22.07742887 134.0234375 38.16796875 C134.55388672 38.57128418 135.08433594 38.97459961 135.63085938 39.39013672 C143.40156584 45.31779101 150.92599157 51.4382084 158.0234375 58.16796875 C159.45623047 59.52148438 159.45623047 59.52148438 160.91796875 60.90234375 C167.89907513 67.62196859 173.99952696 74.79970938 179.80664062 82.54980469 C180.8890757 83.98928697 181.99380875 85.41194091 183.1015625 86.83203125 C194.25006691 101.47010818 203.64883354 118.55121133 209.0234375 136.16796875 C208.0334375 135.50796875 207.0434375 134.84796875 206.0234375 134.16796875 C206.0234375 133.50796875 206.0234375 132.84796875 206.0234375 132.16796875 C205.0334375 131.83796875 204.0434375 131.50796875 203.0234375 131.16796875 C201.67339975 129.51480402 200.34220748 127.84618248 199.0234375 126.16796875 C195.49774746 122.99543631 191.74234272 120.1101406 188.0234375 117.16796875 C187.08757812 116.39324219 186.15171875 115.61851562 185.1875 114.8203125 C153.56028256 89.29440866 113.47953048 75.48717315 74.0234375 67.91796875 C72.75491943 67.67151611 71.48640137 67.42506348 70.17944336 67.17114258 C51.64150875 63.76453362 33.20264187 62.83572593 14.37597656 62.90722656 C11.0265087 62.91795891 7.67757692 62.90725193 4.328125 62.89453125 C-13.58826154 62.88169634 -31.2592575 63.8320352 -48.8515625 67.41796875 C-49.93324707 67.63340332 -51.01493164 67.84883789 -52.12939453 68.07080078 C-82.67973669 74.30565544 -113.30636208 83.65622683 -139.9765625 100.16796875 C-141.41708984 101.04582031 -141.41708984 101.04582031 -142.88671875 101.94140625 C-152.81551301 108.11373686 -161.9007846 114.87441355 -170.46484375 122.83984375 C-172.57575019 124.79645377 -174.7155084 126.6866203 -176.9140625 128.54296875 C-179.39264805 130.64023344 -181.72400966 132.8253138 -183.9765625 135.16796875 C-183.29951402 130.71144714 -181.71475799 126.76856731 -179.9140625 122.66796875 C-179.60678223 121.96599365 -179.29950195 121.26401855 -178.98291016 120.54077148 C-176.36242577 114.71813159 -173.25449302 109.41369587 -169.80078125 104.0390625 C-168.28934006 101.66024178 -166.95410439 99.29388029 -165.6640625 96.79296875 C-163.22700504 92.31382521 -160.27643983 88.22807831 -157.2890625 84.10546875 C-156.80074951 83.42500488 -156.31243652 82.74454102 -155.80932617 82.04345703 C-154.58354139 80.37887405 -153.28560222 78.76790619 -151.9765625 77.16796875 C-151.3165625 77.16796875 -150.6565625 77.16796875 -149.9765625 77.16796875 C-149.75484375 76.63042969 -149.533125 76.09289062 -149.3046875 75.5390625 C-147.53239212 72.37499398 -145.18915157 69.86189621 -142.7265625 67.23046875 C-142.19643555 66.66271729 -141.66630859 66.09496582 -141.12011719 65.51000977 C-126.80085784 50.36207025 -110.97987093 37.44923031 -92.80029297 27.19726562 C-91.60741479 26.52401604 -90.41871259 25.84329917 -89.23486328 25.15429688 C-72.09110052 15.18575021 -53.28974957 8.48011471 -33.9765625 4.16796875 C-32.9242041 3.93255371 -32.9242041 3.93255371 -31.85058594 3.69238281 C-21.2087575 1.35710663 -10.89522033 0.01395318 0 0 Z " fill="#F37728" transform="translate(218.9765625,51.83203125)"/>
<path d="M0 0 C0.33 0.66 0.66 1.32 1 2 C0.14919213 4.4080627 -0.76911492 6.6753037 -1.8125 9 C-2.12437256 9.70261963 -2.43624512 10.40523926 -2.75756836 11.12915039 C-8.11077222 22.91034765 -14.44665638 34.48141804 -22 45 C-22.57878906 45.83144531 -23.15757812 46.66289062 -23.75390625 47.51953125 C-35.79487555 64.52283942 -50.21903519 80.5696557 -67 93 C-67.97582031 93.75796875 -68.95164062 94.5159375 -69.95703125 95.296875 C-75.10406479 99.25911969 -80.18597197 102.88222061 -85.94140625 105.8984375 C-87.9350369 106.96523796 -89.79719112 108.13610834 -91.6875 109.375 C-105.09048015 117.80803879 -119.97046042 123.24282399 -135 128 C-135.95777344 128.31710937 -136.91554688 128.63421875 -137.90234375 128.9609375 C-180.17637763 142.59111085 -228.69152468 139.61688068 -270 124 C-271.58941406 123.40058594 -271.58941406 123.40058594 -273.2109375 122.7890625 C-309.79645491 108.17447244 -342.83359833 82.90365175 -366 51 C-366.44021484 50.39929688 -366.88042969 49.79859375 -367.33398438 49.1796875 C-375 38.65989964 -375 38.65989964 -375 35 C-375.66 35 -376.32 35 -377 35 C-388.93202957 13.05962318 -388.93202957 13.05962318 -391 6 C-390.67 5.01 -390.34 4.02 -390 3 C-389.40574219 3.61746094 -388.81148438 4.23492187 -388.19921875 4.87109375 C-374.78898948 18.57330313 -359.5908016 29.49841793 -343 39 C-342.40203613 39.34562988 -341.80407227 39.69125977 -341.18798828 40.04736328 C-324.62012222 49.54396764 -306.71966664 55.92086574 -288.36328125 61.0078125 C-285 62 -285 62 -282.609375 63.0078125 C-278.90564338 64.41611764 -275.13308116 65.12071311 -271.25 65.875 C-270.38238037 66.04499512 -269.51476074 66.21499023 -268.62084961 66.39013672 C-223.25281062 75.11368125 -180.13923138 76.21870308 -134.5 68.5625 C-133.34975342 68.36954346 -132.19950684 68.17658691 -131.0144043 67.9777832 C-123.8625481 66.70235585 -116.95276181 64.95648346 -109.99072266 62.88256836 C-107.62468034 62.18434444 -105.27584636 61.55941752 -102.875 61 C-93.37239516 58.67886782 -84.24934951 55.03161797 -75.25 51.25 C-74.2079541 50.81244385 -73.1659082 50.3748877 -72.09228516 49.92407227 C-59.97855658 44.7836395 -48.41103748 39.29648685 -37.51318359 31.88061523 C-34.72467267 29.99797176 -32.3595292 28.51371442 -29 28 C-29 27.34 -29 26.68 -29 26 C-27.61136837 25.04932143 -26.21662288 24.10660404 -24.79589844 23.20458984 C-21.5219023 21.0085734 -18.59558317 18.39668429 -15.625 15.8125 C-14.96814209 15.24313721 -14.31128418 14.67377441 -13.63452148 14.0871582 C-8.67801174 9.73006314 -4.15532 5.13772792 0 0 Z " fill="#F37729" transform="translate(427,330)"/>
<path d="M0 0 C9.66708513 6.67654801 15.04837535 14.89045478 17.8046875 26.38671875 C19.75495934 38.74507401 16.4509956 49.76064827 9.1875 59.8125 C3.77719219 66.80428239 -4.14302618 71.56834477 -12.78515625 73.46484375 C-25.94902683 74.97656566 -37.84817974 73.52663651 -48.4375 65.125 C-52.39041182 61.54126674 -55.13148229 57.39418156 -57.8125 52.8125 C-58.22886719 52.18214844 -58.64523438 51.55179687 -59.07421875 50.90234375 C-63.88555144 42.41076361 -63.11609651 30.50320017 -61 21.265625 C-56.83627032 10.10451628 -48.5204656 1.8117505 -37.8125 -3.1875 C-25.10500782 -8.40133845 -11.776573 -7.0659438 0 0 Z " fill="#9E9E9E" transform="translate(96.8125,460.1875)"/>
<path d="M0 0 C7.96759407 6.30386274 12.31905538 14.03613989 14 24 C15.02614799 37.11805409 13.43114246 47.66888177 5 58 C-1.11607514 64.57549863 -8.75889189 67.64467064 -17.6875 68.25 C-26.68218116 68.08281262 -31.08744882 64.92504387 -38 59 C-38.33 70.55 -38.66 82.1 -39 94 C-42.96 94 -46.92 94 -51 94 C-51 62.32 -51 30.64 -51 -2 C-47.37 -2 -43.74 -2 -40 -2 C-39.67 0.97 -39.34 3.94 -39 7 C-38.45472656 6.45730469 -37.90945312 5.91460937 -37.34765625 5.35546875 C-26.65379599 -4.78998842 -13.29284013 -7.73525338 0 0 Z " fill="#525252" transform="translate(193,228)"/>
<path d="M0 0 C8.97556359 4.94571871 13.98123642 11.3107427 17 21 C19.50248993 29.85881435 17.54405863 38.10757955 13.375 46.125 C7.0826219 53.74208928 0.09825567 59.79782671 -10 61 C-19.98624557 61.81723766 -28.24406478 59.51362861 -35.95703125 53.015625 C-43.10612091 45.96222106 -45.5346065 38.86395807 -46.3125 29.0625 C-46.02202695 20.4508283 -42.69309447 12.43086049 -37 6 C-26.34786533 -2.77345131 -13.03915933 -4.74151249 0 0 Z " fill="#777777" transform="translate(399,10)"/>
<path d="M0 0 C4.11537182 3.2958224 6.81289075 6.9140899 8.94921875 11.7109375 C9.24828125 12.36707031 9.54734375 13.02320313 9.85546875 13.69921875 C12.68500889 20.86476715 11.94921875 25.23965133 11.94921875 33.7109375 C-3.89078125 33.7109375 -19.73078125 33.7109375 -36.05078125 33.7109375 C-33.71012361 46.32579862 -33.71012361 46.32579862 -25.05078125 54.7109375 C-14.90647119 58.80849893 -3.4855732 56.85140764 6.94921875 54.7109375 C7.44421875 59.1659375 7.44421875 59.1659375 7.94921875 63.7109375 C6.36623849 64.1912693 4.78281897 64.67015362 3.19921875 65.1484375 C2.3175 65.41527344 1.43578125 65.68210937 0.52734375 65.95703125 C-0.3234375 66.20582031 -1.17421875 66.45460938 -2.05078125 66.7109375 C-2.95183594 66.99710938 -2.95183594 66.99710938 -3.87109375 67.2890625 C-13.40825033 69.13496377 -24.66325739 68.8937219 -33.05078125 63.7109375 C-39.90635707 58.9429154 -46.32307243 52.09666944 -48.05078125 43.7109375 C-48.2928768 40.48483089 -48.28182552 37.25775922 -48.30078125 34.0234375 C-48.32140625 33.16298828 -48.34203125 32.30253906 -48.36328125 31.41601562 C-48.42444335 21.27075199 -45.25763552 12.18087493 -38.1953125 4.76171875 C-27.71653014 -4.9063261 -12.57715898 -7.90564279 0 0 Z " fill="#525252" transform="translate(391.05078125,228.2890625)"/>
<path d="M0 0 C4.62 0 9.24 0 14 0 C14.65226563 1.7634375 15.30453125 3.526875 15.9765625 5.34375 C16.60788086 7.04954224 16.60788086 7.04954224 17.25195312 8.78979492 C18.17038626 11.27155671 19.08835195 13.75349153 20.00585938 16.2355957 C22.93986309 24.16538017 22.93986309 24.16538017 25.9296875 32.07421875 C26.20087402 32.78578125 26.47206055 33.49734375 26.75146484 34.23046875 C27.4452531 36.04436524 28.1442785 37.85625624 28.84375 39.66796875 C29.7426615 42.25841303 30.4221575 44.70322322 31.03125 47.36328125 C31.3509375 48.56339844 31.670625 49.76351562 32 51 C32.99 51.495 32.99 51.495 34 52 C34.08709229 51.44634766 34.17418457 50.89269531 34.26391602 50.32226562 C35.661333 42.42458516 38.25095327 35.03701459 40.9375 27.5 C41.8248548 24.99070599 42.70766334 22.47987457 43.58984375 19.96875 C44.00733887 18.78152344 44.42483398 17.59429687 44.85498047 16.37109375 C46.13528049 12.60171579 47.27161549 8.80870089 48.32641602 4.97070312 C49 3 49 3 51 0 C54.0390625 -0.29296875 54.0390625 -0.29296875 57.625 -0.1875 C58.81351562 -0.16042969 60.00203125 -0.13335937 61.2265625 -0.10546875 C62.14179688 -0.07066406 63.05703125 -0.03585938 64 0 C62.90000272 3.18895396 61.79424309 6.37588156 60.6875 9.5625 C60.37876953 10.45775391 60.07003906 11.35300781 59.75195312 12.27539062 C58.00999391 17.28123131 56.11841465 22.14314689 54 27 C53.06845154 29.43326883 52.15139119 31.8682596 51.25 34.3125 C50.72195789 35.72548618 50.19328779 37.1382378 49.6640625 38.55078125 C48.83022516 40.77812126 47.99780592 43.00591679 47.17089844 45.23583984 C41.71981295 59.89001527 35.73801763 75.57744778 26 88 C25.34 88 24.68 88 24 88 C23.76796875 88.59425781 23.5359375 89.18851562 23.296875 89.80078125 C20.84124959 93.9649894 16.23337311 95.90920563 12 98 C8.375 98.875 8.375 98.875 6 99 C4.19769832 95.17010894 3.80377759 92.21878192 4 88 C5.175625 87.46375 6.35125 86.9275 7.5625 86.375 C15.45757482 82.36480327 21.89792899 76.51818694 25 68 C24.81870239 61.82832705 22.39373507 56.59038128 20 51 C19.18062828 49.04496714 18.3629754 47.08921318 17.546875 45.1328125 C17.12599609 44.12637695 16.70511719 43.11994141 16.27148438 42.08300781 C14.19236896 37.04171183 12.22136119 31.95919063 10.25 26.875 C7.55680594 19.94014097 4.82434991 13.03764371 1.875 6.20703125 C1 4 1 4 0 0 Z " fill="#525252" transform="translate(216,226)"/>
<path d="M0 0 C3.96 0 7.92 0 12 0 C12 22.77 12 45.54 12 69 C8.37 69 4.74 69 1 69 C1 65.7 1 62.4 1 59 C0.34 59 -0.32 59 -1 59 C-1.25394531 59.59554687 -1.50789063 60.19109375 -1.76953125 60.8046875 C-4.45684327 65.5991934 -9.45943074 68.3837723 -14.4375 70.375 C-23.29256012 71.92851932 -30.04764468 71.03894531 -37.75 66.3125 C-45.52642269 58.32006557 -46.30608718 47.52691066 -46.1953125 36.9375 C-46.1924826 35.90560547 -46.18965271 34.87371094 -46.18673706 33.81054688 C-46.17561252 30.54024268 -46.15052226 27.27022032 -46.125 24 C-46.11496022 21.77213939 -46.10583612 19.54427446 -46.09765625 17.31640625 C-46.0756985 11.87749688 -46.04122222 6.4387961 -46 1 C-42.04 1 -38.08 1 -34 1 C-33.98541748 2.17916992 -33.97083496 3.35833984 -33.95581055 4.57324219 C-33.89727655 9.00175376 -33.82005344 13.42978574 -33.73754883 17.85791016 C-33.70455612 19.76440574 -33.67644681 21.67099299 -33.65356445 23.57763672 C-34.31082793 40.9058525 -34.31082793 40.9058525 -28.08081055 56.24511719 C-24.26152539 59.46616866 -20.35223637 59.34008036 -15.5703125 59.27734375 C-11.41475754 58.828948 -9.34281495 57.54053936 -6 55 C-2.54017714 50.53864947 -0.90229843 47.04841819 -0.79467773 41.43676758 C-0.77473251 40.51603958 -0.75478729 39.59531158 -0.73423767 38.64668274 C-0.71752518 37.65597275 -0.70081268 36.66526276 -0.68359375 35.64453125 C-0.66281265 34.62775803 -0.64203156 33.6109848 -0.62062073 32.56340027 C-0.55519952 29.31316937 -0.49627463 26.06285723 -0.4375 22.8125 C-0.39430773 20.61001762 -0.35069321 18.40754347 -0.30664062 16.20507812 C-0.19952568 10.80346883 -0.09823711 5.40177775 0 0 Z " fill="#505050" transform="translate(106,225)"/>
<path d="M0 0 C6.30623854 2.44038887 10.67585357 7.21437489 14 13 C16.7624806 20.49575529 16.10052294 32.23331186 13.4375 39.6875 C10.79384396 45.19042941 6.81537647 48.3700452 1.625 51.375 C-5.07892901 52.97117357 -10.97458934 52.5242968 -17 49 C-22.13278368 44.21019035 -24.96878663 39.58679901 -25.37109375 32.48828125 C-25.82540989 13.56026664 -25.82540989 13.56026664 -20 7 C-13.69944587 1.75315923 -8.2595711 -1.13651698 0 0 Z " fill="#FDFDFD" transform="translate(179,234)"/>
<path d="M0 0 C5.0617802 4.27439217 9.49727548 9.61911486 10.2734375 16.3828125 C10.53735329 23.50853886 9.40464853 28.32584124 5 34 C0.6464597 38.62129791 -3.58607641 41.57989282 -10.015625 42.37109375 C-17.47646605 42.52427527 -23.23108803 42.04924891 -29 37 C-35.05751646 29.68743784 -36.87190812 23.42671682 -36 14 C-34.22416536 6.82879516 -30.09548637 2.04069906 -24 -2 C-15.30001112 -5.57320972 -7.93242696 -4.66523961 0 0 Z " fill="#636564" transform="translate(56,61)"/>
<path d="M0 0 C0 6.27 0 12.54 0 19 C5.94 19 11.88 19 18 19 C18 21.97 18 24.94 18 28 C12.39 28 6.78 28 1 28 C1.04411594 34.33596173 1.11391159 40.67092345 1.20751953 47.00634766 C1.23574499 49.16154013 1.25695165 51.31683643 1.27099609 53.47216797 C1.29240347 56.5705283 1.3390432 59.66763827 1.390625 62.765625 C1.39185364 63.72929993 1.39308228 64.69297485 1.39434814 65.68585205 C1.45855934 70.99968672 1.45855934 70.99968672 3.86547852 75.60595703 C6.574618 77.37527951 8.47048414 77.53050821 11.6875 77.625 C14.63671875 77.7265625 14.63671875 77.7265625 17 78 C18.4783226 80.95664519 18.06032783 83.74229737 18 87 C10.24054368 89.26786042 3.23655561 89.83850527 -4.3125 86.5625 C-9.38086202 81.72987575 -12.22527845 75.65740706 -12.56762695 68.64208984 C-12.56684968 66.74818787 -12.53946286 64.85414793 -12.48828125 62.9609375 C-12.48120651 61.95406891 -12.47413177 60.94720032 -12.46684265 59.90982056 C-12.43911491 56.73075336 -12.37641781 53.55352423 -12.3125 50.375 C-12.28738918 48.20445273 -12.26458092 46.03387753 -12.24414062 43.86328125 C-12.18935921 38.57482525 -12.10323861 33.28772296 -12 28 C-15.3 28 -18.6 28 -22 28 C-22 24.7 -22 21.4 -22 18 C-18.7 18 -15.4 18 -12 18 C-12 12.72 -12 7.44 -12 2 C-6 0 -6 0 0 0 Z " fill="#555555" transform="translate(313,207)"/>
<path d="M0 0 C4.29 0 8.58 0 13 0 C13.0930829 9.32797263 13.16395774 18.65578296 13.20724869 27.98412037 C13.22803651 32.3166487 13.25619092 36.64885698 13.30175781 40.98120117 C13.34553275 45.16985361 13.36920315 49.35820011 13.37950897 53.54706383 C13.38684404 55.13731381 13.40116625 56.72754891 13.42292023 58.31766701 C13.59054365 71.08953042 12.27003005 82.50966601 2.9375 92.125 C-2.96385392 95.89182165 -9.90151478 98.76740381 -17 98 C-17.33 95.03 -17.66 92.06 -18 89 C-17.25234375 88.75765625 -16.5046875 88.5153125 -15.734375 88.265625 C-14.25710937 87.76289063 -14.25710937 87.76289063 -12.75 87.25 C-11.28820312 86.76273438 -11.28820312 86.76273438 -9.796875 86.265625 C-6.63938787 84.83681798 -5.07881024 83.77787917 -3 81 C-1.41803875 75.67292888 -0.73934725 70.97733593 -0.68115234 65.390625 C-0.67110672 64.67744614 -0.6610611 63.96426727 -0.65071106 63.22947693 C-0.62014456 60.90299185 -0.60291891 58.57662037 -0.5859375 56.25 C-0.56720441 54.6247461 -0.54762943 52.9995017 -0.5272522 51.37426758 C-0.47615094 47.11978792 -0.43640819 42.8652768 -0.39910889 38.61065674 C-0.35893045 34.25989135 -0.30790158 29.90925433 -0.2578125 25.55859375 C-0.16131414 17.03915053 -0.07682681 8.51964323 0 0 Z " fill="#565656" transform="translate(24,225)"/>
<path d="M0 0 C1.8871875 0.0309375 1.8871875 0.0309375 3.8125 0.0625 C3.8125 4.0225 3.8125 7.9825 3.8125 12.0625 C0.9971875 12.43375 0.9971875 12.43375 -1.875 12.8125 C-8.06542619 13.85394817 -11.12427144 15.33609083 -14.9375 20.375 C-17.69001613 26.29290969 -17.37596947 33.07477738 -17.50390625 39.49609375 C-17.52468735 40.37403091 -17.54546844 41.25196808 -17.56687927 42.1565094 C-17.63181945 44.93759985 -17.69099927 47.71877785 -17.75 50.5 C-17.79323814 52.39519104 -17.83685405 54.2903735 -17.88085938 56.18554688 C-17.98744322 60.81111013 -18.08886408 65.43676071 -18.1875 70.0625 C-22.1475 70.0625 -26.1075 70.0625 -30.1875 70.0625 C-30.1875 47.6225 -30.1875 25.1825 -30.1875 2.0625 C-26.5575 2.0625 -22.9275 2.0625 -19.1875 2.0625 C-18.8575 5.3625 -18.5275 8.6625 -18.1875 12.0625 C-17.671875 11.175625 -17.15625 10.28875 -16.625 9.375 C-12.757607 3.54628627 -7.05251476 -0.115615 0 0 Z " fill="#525252" transform="translate(452.1875,223.9375)"/>
<path d="M0 0 C3.07460785 2.63537816 5.32034291 5.30475441 7 9 C7 11.64 7 14.28 7 17 C-5.21 17 -17.42 17 -30 17 C-30 9.897316 -28.3259598 6.45355416 -23.47265625 1.4140625 C-16.75976881 -4.49601143 -7.4670427 -4.86226037 0 0 Z " fill="#FBFBFB" transform="translate(385,236)"/>
<path d="M0 0 C3.44920331 3.9727431 5.726691 8.05664573 8 12.75 C8.34812744 13.45866211 8.69625488 14.16732422 9.05493164 14.89746094 C15.785616 28.67085858 15.785616 28.67085858 17 34 C16.01 33.34 15.02 32.68 14 32 C14 31.34 14 30.68 14 30 C13.01 29.67 12.02 29.34 11 29 C9.65259076 27.34469221 8.32122135 25.67628449 7 24 C5.31139763 22.49488356 3.57934151 21.03745338 1.8125 19.625 C0.37390625 18.47064453 0.37390625 18.47064453 -1.09375 17.29296875 C-5.04651925 14.17431882 -9.00661402 11.06652602 -13 8 C-12.34 7.67 -11.68 7.34 -11 7 C-10.01 7.33 -9.02 7.66 -8 8 C-7.67 7.34 -7.34 6.68 -7 6 C-6.01 7.485 -6.01 7.485 -5 9 C-4.34 8.01 -3.68 7.02 -3 6 C-2.01 6 -1.02 6 0 6 C0 4.02 0 2.04 0 0 Z " fill="#ED7D36" transform="translate(411,154)"/>
<path d="M0 0 C4.9813565 2.49067825 7.1960544 11.82549031 9.05859375 16.86328125 C9.73705914 18.89867741 10.37393003 20.94788178 11 23 C10.01 22.34 9.02 21.68 8 21 C8 20.34 8 19.68 8 19 C7.01 18.67 6.02 18.34 5 18 C3.66666667 16.33333333 2.33333333 14.66666667 1 13 C-1.26731585 10.9183695 -3.61719623 8.94774128 -6 7 C-5.67 6.34 -5.34 5.68 -5 5 C-4.01 5 -3.02 5 -2 5 C-1.34 3.35 -0.68 1.7 0 0 Z " fill="#EE7F38" transform="translate(417,165)"/>
<path d="M0 0 C3.96 0 7.92 0 12 0 C12 2.31 12 4.62 12 7 C6.72 7 1.44 7 -4 7 C-3.67 5.68 -3.34 4.36 -3 3 C-2.34 3 -1.68 3 -1 3 C-0.67 2.01 -0.34 1.02 0 0 Z " fill="#4E4E4E" transform="translate(319,227)"/>
<path d="M0 0 C0.33 0.66 0.66 1.32 1 2 C-0.00801573 4.64455893 -1.07576235 7.18049173 -2.25 9.75 C-2.71986328 10.80574219 -2.71986328 10.80574219 -3.19921875 11.8828125 C-5.03227697 15.97486777 -6.96427494 20.00394711 -9 24 C-10.08174162 20.63458162 -9.92538169 19.70152678 -9 16 C-13.455 17.485 -13.455 17.485 -18 19 C-15.66046941 15.78314543 -13.1422525 13.1856185 -10.125 10.625 C-6.30771575 7.37244507 -3.16910734 3.88215649 0 0 Z " fill="#EF813B" transform="translate(427,330)"/>
<path d="M0 0 C0.33 1.32 0.66 2.64 1 4 C0.01 4.495 0.01 4.495 -1 5 C-1 6.32 -1 7.64 -1 9 C-0.67 8.34 -0.34 7.68 0 7 C2.32156597 6.59270772 4.6568787 6.25561323 7 6 C3.83978867 10.02208715 0.5824899 13.34531405 -3.3515625 16.609375 C-5.35155071 18.29656885 -7.18716489 20.11465148 -9 22 C-8.32123256 17.21091862 -6.45906236 13.1244525 -4.5 8.75 C-4.01853516 7.65171875 -4.01853516 7.65171875 -3.52734375 6.53125 C-1.14218231 1.14218231 -1.14218231 1.14218231 0 0 Z " fill="#ED813B" transform="translate(44,165)"/>
<path d="M0 0 C4.66666667 4 9.33333333 8 14 12 C11.35261084 13.4606285 10.10551666 14 7 14 C6.67 14.66 6.34 15.32 6 16 C4.99303432 13.89915791 3.9946411 11.79420511 3 9.6875 C2.443125 8.51574219 1.88625 7.34398437 1.3125 6.13671875 C0 3 0 3 0 0 Z " fill="#ED7D33" transform="translate(36,333)"/>
<path d="M0 0 C2.02045442 0.60183749 4.02111039 1.27306096 6 2 C7 4 7 4 6.375 6.0625 C5 8 5 8 2.6875 9 C0 9 0 9 -2.8125 7.1875 C-3.534375 6.465625 -4.25625 5.74375 -5 5 C-5 4.34 -5 3.68 -5 3 C-4.360625 2.87625 -3.72125 2.7525 -3.0625 2.625 C-2.0415625 2.315625 -2.0415625 2.315625 -1 2 C-0.67 1.34 -0.34 0.68 0 0 Z " fill="#F07C33" transform="translate(410,162)"/>
<path d="M0 0 C0.99 0.33 1.98 0.66 3 1 C-0.3 4.96 -3.6 8.92 -7 13 C-7.66 12.34 -8.32 11.68 -9 11 C-9 9.68 -9 8.36 -9 7 C-8.401875 6.731875 -7.80375 6.46375 -7.1875 6.1875 C-4.95672092 5.1106021 -4.95672092 5.1106021 -3.375 3.375 C-2.92125 2.92125 -2.4675 2.4675 -2 2 C-1.34 2 -0.68 2 0 2 C0 1.34 0 0.68 0 0 Z " fill="#F17B31" transform="translate(399,379)"/>
<path d="M0 0 C6.95660771 0.57021375 13.31427305 2.01302694 20 4 C19.38640625 4.14824219 18.7728125 4.29648437 18.140625 4.44921875 C15.96036705 4.97422758 15.96036705 4.97422758 13.75 5.8125 C9.55070389 6.09881564 6.56620673 4.06185153 3 2 C2.67 2.66 2.34 3.32 2 4 C2 3.01 2 2.02 2 1 C1.34 0.67 0.68 0.34 0 0 Z " fill="#ED8545" transform="translate(272,56)"/>
<path d="M0 0 C0 0.99 0 1.98 0 3 C0.99 2.34 1.98 1.68 3 1 C3.99 1.33 4.98 1.66 6 2 C4.23754778 3.1999038 2.46473019 4.38459517 0.6875 5.5625 C-0.79169922 6.55443359 -0.79169922 6.55443359 -2.30078125 7.56640625 C-3.19152344 8.03949219 -4.08226562 8.51257813 -5 9 C-5.99 8.67 -6.98 8.34 -8 8 C-8 7.34 -8 6.68 -8 6 C-4.535 5.505 -4.535 5.505 -1 5 C-1 4.34 -1 3.68 -1 3 C-2.32 2.67 -3.64 2.34 -5 2 C-2 0 -2 0 0 0 Z " fill="#EF7C32" transform="translate(338,432)"/>
<path d="M0 0 C4.23431576 3.60700972 6.4692099 8.14586161 9 13 C8.34 13 7.68 13 7 13 C7 12.34 7 11.68 7 11 C6.01 11.33 5.02 11.66 4 12 C1.70620251 8.55930376 1 7.27709699 1 3 C0.34 2.67 -0.32 2.34 -1 2 C-0.67 1.34 -0.34 0.68 0 0 Z " fill="#EE8443" transform="translate(402,140)"/>
<path d="M0 0 C0.99 0.66 1.98 1.32 3 2 C2.67 4.31 2.34 6.62 2 9 C0.68 8.67 -0.64 8.34 -2 8 C-2 6.68 -2 5.36 -2 4 C-2.66 3.67 -3.32 3.34 -4 3 C-2.68 2.01 -1.36 1.02 0 0 Z " fill="#F27B35" transform="translate(408,349)"/>
<path d="M0 0 C1.32 0.66 2.64 1.32 4 2 C3.67 3.65 3.34 5.3 3 7 C3.66 7 4.32 7 5 7 C4.67 7.66 4.34 8.32 4 9 C1.03 7.02 -1.94 5.04 -5 3 C-4.01 2.67 -3.02 2.34 -2 2 C-1.34 2.33 -0.68 2.66 0 3 C0 2.01 0 1.02 0 0 Z " fill="#EE7F3A" transform="translate(393,152)"/>
<path d="M0 0 C0.33 0.66 0.66 1.32 1 2 C0.00390625 4.3828125 0.00390625 4.3828125 -1.4375 7.125 C-1.91058594 8.03507812 -2.38367188 8.94515625 -2.87109375 9.8828125 C-3.24363281 10.58148438 -3.61617188 11.28015625 -4 12 C-4.99 10.68 -5.98 9.36 -7 8 C-4.69 5.36 -2.38 2.72 0 0 Z " fill="#EB935B" transform="translate(427,330)"/>
<path d="M0 0 C1 2 1 2 0.4375 4.375 C-1.41741462 7.76223539 -3.71164126 9.06987639 -7 11 C-7.66 10.67 -8.32 10.34 -9 10 C-6.03 6.7 -3.06 3.4 0 0 Z " fill="#EB813B" transform="translate(78,117)"/>
<path d="M0 0 C1.65 0 3.3 0 5 0 C4.67 1.98 4.34 3.96 4 6 C4.66 6 5.32 6 6 6 C6.33 7.65 6.66 9.3 7 11 C6.34 10.67 5.68 10.34 5 10 C5 9.01 5 8.02 5 7 C4.34 7 3.68 7 3 7 C2.01 4.69 1.02 2.38 0 0 Z " fill="#EC8645" transform="translate(47,358)"/>
<path d="M0 0 C0.12375 0.639375 0.2475 1.27875 0.375 1.9375 C0.684375 2.9584375 0.684375 2.9584375 1 4 C1.66 4.33 2.32 4.66 3 5 C1.02 7.31 -0.96 9.62 -3 12 C-4.21386936 8.35839192 -3.6674695 7.66834531 -2.0625 4.3125 C-1.49208984 3.10013672 -1.49208984 3.10013672 -0.91015625 1.86328125 C-0.60980469 1.24839844 -0.30945312 0.63351563 0 0 Z " fill="#E58F56" transform="translate(39,175)"/>
<path d="M0 0 C1.32 0 2.64 0 4 0 C4 1.32 4 2.64 4 4 C4.66 4 5.32 4 6 4 C6 3.34 6 2.68 6 2 C7.65 2.33 9.3 2.66 11 3 C8.35261084 4.4606285 7.10551666 5 4 5 C3.67 5.66 3.34 6.32 3 7 C2.01 4.69 1.02 2.38 0 0 Z " fill="#EC8240" transform="translate(39,342)"/>
<path d="M0 0 C-3.41016497 2.86453858 -6.90694544 4.34703566 -11 6 C-11 5.01 -11 4.02 -11 3 C-7.33513904 0.08966924 -4.60625394 -0.32136655 0 0 Z " fill="#EC8241" transform="translate(331,441)"/>
<path d="M0 0 C0.66 0.33 1.32 0.66 2 1 C0.35 4.63 -1.3 8.26 -3 12 C-3.82810826 8.68756695 -4.09278428 6.34023421 -4 3 C-3.01 2.67 -2.02 2.34 -1 2 C-0.67 1.34 -0.34 0.68 0 0 Z " fill="#EB8646" transform="translate(421,342)"/>
<path d="M0 0 C-0.66 0 -1.32 0 -2 0 C-2.33 0.99 -2.66 1.98 -3 3 C-6.51072278 4.75536139 -10.32971326 2.92147625 -14 2 C-12.42085985 1.46658816 -10.83645613 0.94874237 -9.25 0.4375 C-8.36828125 0.14746094 -7.4865625 -0.14257812 -6.578125 -0.44140625 C-3.92165684 -1.01697435 -2.52968894 -0.89248371 0 0 Z " fill="#EB8B4D" transform="translate(184,58)"/>
<path d="M0 0 C1.9375 0.625 1.9375 0.625 4 2 C4.75 5.125 4.75 5.125 5 8 C2.69 6.02 0.38 4.04 -2 2 C-1.34 1.34 -0.68 0.68 0 0 Z " fill="#EB813E" transform="translate(74,393)"/>
<path d="M0 0 C1.65 0 3.3 0 5 0 C5.99 2.97 6.98 5.94 8 9 C7.01 8.34 6.02 7.68 5 7 C5 6.34 5 5.68 5 5 C4.01 4.67 3.02 4.34 2 4 C0.8125 1.9375 0.8125 1.9375 0 0 Z " fill="#E69863" transform="translate(420,179)"/>
<path d="M0 0 C1.5625 1.8125 1.5625 1.8125 3 4 C2.67 4.99 2.34 5.98 2 7 C-0.31 6.01 -2.62 5.02 -5 4 C-4.360625 3.71125 -3.72125 3.4225 -3.0625 3.125 C-0.84793921 2.17176549 -0.84793921 2.17176549 0 0 Z " fill="#EB8342" transform="translate(421,173)"/>
<path d="M0 0 C1.32 1.32 2.64 2.64 4 4 C3.67 4.99 3.34 5.98 3 7 C0.0280615 5.87548273 -2.33440687 4.77706209 -5 3 C-4.360625 2.87625 -3.72125 2.7525 -3.0625 2.625 C-2.0415625 2.315625 -2.0415625 2.315625 -1 2 C-0.67 1.34 -0.34 0.68 0 0 Z " fill="#EE8442" transform="translate(364,136)"/>
<path d="M0 0 C2.10353495 -0.0810206 4.20795952 -0.13919907 6.3125 -0.1875 C7.48425781 -0.22230469 8.65601563 -0.25710937 9.86328125 -0.29296875 C13 0 13 0 16 3 C10.72 2.34 5.44 1.68 0 1 C0 0.67 0 0.34 0 0 Z " fill="#EC8948" transform="translate(277,116)"/>
<path d="M0 0 C0.99 1.32 1.98 2.64 3 4 C2.01 4.66 1.02 5.32 0 6 C-0.66 5.34 -1.32 4.68 -2 4 C-2.99 4.99 -3.98 5.98 -5 7 C-5.66 6.67 -6.32 6.34 -7 6 C-4.69 4.02 -2.38 2.04 0 0 Z " fill="#EB813B" transform="translate(92,104)"/>
<path d="M0 0 C3.96 0.33 7.92 0.66 12 1 C12 1.33 12 1.66 12 2 C9.02148438 2.29296875 9.02148438 2.29296875 6.04296875 2.5859375 C3.70011858 2.92665391 3.70011858 2.92665391 1 5 C0.67 3.35 0.34 1.7 0 0 Z " fill="#E98F55" transform="translate(180,401)"/>
<path d="M0 0 C1.32 0.33 2.64 0.66 4 1 C3.25 3.4375 3.25 3.4375 2 6 C-0.125 6.8125 -0.125 6.8125 -2 7 C-2 4 -2 4 0 2 C0 1.34 0 0.68 0 0 Z " fill="#F17625" transform="translate(413,164)"/>
<path d="M0 0 C0.33 0.66 0.66 1.32 1 2 C2.65 2 4.3 2 6 2 C4.71034824 3.37562854 3.37310707 4.70766393 2 6 C1.34 6 0.68 6 0 6 C-0.38218767 4.34385343 -0.71395102 2.67542976 -1 1 C-0.67 0.67 -0.34 0.34 0 0 Z " fill="#EE8241" transform="translate(346,426)"/>
<path d="M0 0 C0.66 0.33 1.32 0.66 2 1 C0.93106782 2.03590338 -0.15578488 3.05333942 -1.25 4.0625 C-2.15492188 4.91521484 -2.15492188 4.91521484 -3.078125 5.78515625 C-4.02945312 6.38650391 -4.02945312 6.38650391 -5 7 C-6.32 6.67 -7.64 6.34 -9 6 C-6.03 4.02 -3.06 2.04 0 0 Z " fill="#EC8C50" transform="translate(395,358)"/>
<path d="M0 0 C1.16945792 0.80847729 2.33550461 1.62189112 3.5 2.4375 C4.47453125 3.11619141 4.47453125 3.11619141 5.46875 3.80859375 C5.9740625 4.20175781 6.479375 4.59492188 7 5 C7 5.33 7 5.66 7 6 C5.35 6 3.7 6 2 6 C1.67 5.34 1.34 4.68 1 4 C0.34 4 -0.32 4 -1 4 C-0.67 2.68 -0.34 1.36 0 0 Z " fill="#EC833E" transform="translate(55,350)"/>
<path d="M0 0 C2.33944736 0.28730055 4.6739143 0.61936779 7 1 C3.71536341 3.18975773 0.79303725 3.99806563 -3 5 C-1.125 1.125 -1.125 1.125 0 0 Z " fill="#EA833F" transform="translate(116,130)"/>
<path d="M0 0 C5.75 1.75 5.75 1.75 8 4 C7.34 4.66 6.68 5.32 6 6 C3.37812506 4.95125002 2.20628639 4.35068687 0.75 1.875 C0.5025 1.25625 0.255 0.6375 0 0 Z " fill="#EC8341" transform="translate(305,65)"/>
<path d="M0 0 C-1.75 3.875 -1.75 3.875 -4 5 C-5.67654729 4.72057545 -7.34608154 4.39171753 -9 4 C-3 0 -3 0 0 0 Z " fill="#EC8E51" transform="translate(359,379)"/>
<path d="M0 0 C-2.97 2.475 -2.97 2.475 -6 5 C-6.33 3.35 -6.66 1.7 -7 0 C-3.86650268 -1.04449911 -3.01031744 -0.93423645 0 0 Z " fill="#EA8747" transform="translate(51,172)"/>
<path d="M0 0 C4.875 2.75 4.875 2.75 6 5 C4.35 5.33 2.7 5.66 1 6 C0.4465236 3.92446352 0 2.15634036 0 0 Z " fill="#ED833F" transform="translate(352,90)"/>
<path d="M0 0 C0.99 0.33 1.98 0.66 3 1 C1.35 2.98 -0.3 4.96 -2 7 C-2.66 5.68 -3.32 4.36 -4 3 C-2.68 2.67 -1.36 2.34 0 2 C0 1.34 0 0.68 0 0 Z " fill="#E88444" transform="translate(399,379)"/>
<path d="M0 0 C1.32 0 2.64 0 4 0 C3.34 2.31 2.68 4.62 2 7 C0.4375 5.1875 0.4375 5.1875 -1 3 C-0.67 2.01 -0.34 1.02 0 0 Z " fill="#5F5F5F" transform="translate(202,270)"/>
<path d="M0 0 C2 3.75 2 3.75 2 6 C-0.88437779 4.70700306 -2.87219421 3.34058637 -5 1 C-2.525 1.495 -2.525 1.495 0 2 C0 1.34 0 0.68 0 0 Z " fill="#EC884A" transform="translate(403,160)"/>
<path d="M0 0 C0.66 0.99 1.32 1.98 2 3 C0.68 4.65 -0.64 6.3 -2 8 C-2.66 7.67 -3.32 7.34 -4 7 C-2.68 4.69 -1.36 2.38 0 0 Z " fill="#EC884A" transform="translate(55,146)"/>
<path d="M0 0 C-2.3125 2.0625 -2.3125 2.0625 -5 4 C-5.99 3.67 -6.98 3.34 -8 3 C-8 2.34 -8 1.68 -8 1 C-5.07175348 0.02391783 -3.04386724 -0.08226668 0 0 Z " fill="#E9803C" transform="translate(338,437)"/>
<path d="M0 0 C1.32 0.33 2.64 0.66 4 1 C2.35 2.65 0.7 4.3 -1 6 C-1.33 5.01 -1.66 4.02 -2 3 C-1.34 3 -0.68 3 0 3 C0 2.01 0 1.02 0 0 Z " fill="#EE7F3B" transform="translate(370,409)"/>
<path d="M0 0 C0.66 0.66 1.32 1.32 2 2 C1.625 4.625 1.625 4.625 1 7 C0.34 6.67 -0.32 6.34 -1 6 C-1.625 3.9375 -1.625 3.9375 -2 2 C-1.34 2 -0.68 2 0 2 C0 1.34 0 0.68 0 0 Z " fill="#F27A32" transform="translate(419,169)"/>
<path d="M0 0 C1.65 1.65 3.3 3.3 5 5 C4.01 5.33 3.02 5.66 2 6 C1.01 5.34 0.02 4.68 -1 4 C-0.67 2.68 -0.34 1.36 0 0 Z " fill="#EF833B" transform="translate(387,121)"/>
</svg>
