<?xml version="1.0" encoding="UTF-8"?>
<svg version="1.1" xmlns="http://www.w3.org/2000/svg" width="713" height="350">
<path d="M0 0 C235.29 0 470.58 0 713 0 C713 115.5 713 231 713 350 C477.71 350 242.42 350 0 350 C0 234.5 0 119 0 0 Z " fill="#FEFEFE" transform="translate(0,0)"/>
<path d="M0 0 C0.7895961 0.00718552 1.5791922 0.01437103 2.39271545 0.02177429 C3.2040242 0.02223251 4.01533295 0.02269073 4.85122681 0.02316284 C6.56860311 0.02618626 8.28597665 0.03407526 10.00331116 0.0464325 C12.63256043 0.06464564 15.26145667 0.06694247 17.89076233 0.06669617 C19.55808308 0.0716131 21.22540145 0.07744218 22.89271545 0.08427429 C23.68028732 0.08538712 24.46785919 0.08649994 25.27929688 0.08764648 C28.51142971 0.11573656 31.12136644 0.22299129 34.2091217 1.25224304 C36.56452703 14.12330055 38.6813888 26.98335942 40.25721741 39.97514343 C40.36896301 40.88643005 40.48070862 41.79771667 40.59584045 42.73661804 C40.69082825 43.53809265 40.78581604 44.33956726 40.88368225 45.16532898 C41.17900998 47.43903735 41.17900998 47.43903735 42.2091217 50.25224304 C42.3889154 52.39549811 42.52930679 54.54216178 42.6466217 56.68974304 C43.28804937 66.41138107 44.99821627 75.77693406 47.2091217 85.25224304 C48.1991217 85.25224304 49.1891217 85.25224304 50.2091217 85.25224304 C50.7659967 84.11786804 51.3228717 82.98349304 51.8966217 81.81474304 C53.7684696 78.07104725 55.76516969 74.41489528 57.8106842 70.76396179 C62.86553085 61.68500538 67.67832051 52.47454922 72.50990295 43.27568054 C76.658302 35.3836043 80.8578251 27.51972233 85.15834045 19.70927429 C85.48036438 19.12065613 85.80238831 18.53203796 86.13417053 17.92558289 C87.02827659 16.29178847 87.92713614 14.66059802 88.8263092 13.02958679 C89.98083635 10.71074838 90.73630204 8.78000968 91.2091217 6.25224304 C91.8691217 6.25224304 92.5291217 6.25224304 93.2091217 6.25224304 C93.4978717 5.63349304 93.7866217 5.01474304 94.0841217 4.37724304 C95.2091217 2.25224304 95.2091217 2.25224304 97.2091217 0.25224304 C99.98265248 0.06466398 102.65452815 -0.00336393 105.4278717 0.02177429 C106.24155212 0.02223251 107.05523254 0.02269073 107.89356995 0.02316284 C109.61514238 0.02618593 111.33671207 0.03407394 113.0582428 0.0464325 C115.69847773 0.06466952 118.33836167 0.06694233 120.97865295 0.06669617 C122.64922891 0.0716121 124.31980249 0.07744075 125.9903717 0.08427429 C127.17947144 0.08594353 127.17947144 0.08594353 128.39259338 0.08764648 C133.97698516 0.13617477 133.97698516 0.13617477 136.2091217 1.25224304 C135.8462567 9.16270006 134.39564998 16.75943353 132.79212952 24.49028015 C131.65041296 30.00054861 130.63188632 35.51404778 129.7091217 41.06474304 C128.83111213 46.26918528 127.71266678 51.29153145 126.2716217 56.37724304 C124.10613964 64.07303316 122.79349175 71.86184934 121.51600647 79.74882507 C121.35930481 80.70643738 121.20260315 81.66404968 121.04115295 82.65068054 C120.90427063 83.51354675 120.76738831 84.37641296 120.62635803 85.26542664 C120.2091217 87.25224304 120.2091217 87.25224304 119.2091217 88.25224304 C118.87989296 90.51793541 118.59681457 92.79037589 118.3341217 95.06474304 C117.61339726 100.94646907 116.48330268 106.53472781 114.92396545 112.26005554 C113.88566255 116.60617589 113.40509887 121.00031928 112.93177795 125.43974304 C111.99680883 129.07854181 111.4265969 130.23952825 108.2091217 132.25224304 C104.48868694 132.76187052 100.83131077 132.67269663 97.0841217 132.56474304 C96.06962952 132.55507507 95.05513733 132.5454071 94.00990295 132.53544617 C86.5469694 132.42116689 86.5469694 132.42116689 84.2091217 131.25224304 C84.76640865 120.93282622 86.28683807 110.77454393 89.21302795 100.84599304 C90.54229227 96.05021589 91.29210484 91.21577884 92.06459045 86.30497742 C92.99962139 80.66965654 92.99962139 80.66965654 94.2403717 78.19755554 C95.72073835 75.22488381 95.86897373 72.07520471 96.2091217 68.81474304 C96.37161041 67.38878158 96.53569915 65.96300162 96.7013092 64.53739929 C96.82457581 63.46643005 96.82457581 63.46643005 96.95033264 62.37382507 C97.56748418 57.31434693 98.39924725 52.2838035 99.2091217 47.25224304 C98.5903717 47.91224304 97.9716217 48.57224304 97.3341217 49.25224304 C95.2091217 51.25224304 95.2091217 51.25224304 93.2091217 51.25224304 C92.94486389 52.11591492 92.68060608 52.97958679 92.40834045 53.86943054 C89.21402652 62.88010111 83.73231507 71.130874 78.90052795 79.34599304 C74.3557209 87.15508415 70.18561846 95.14089347 66.2091217 103.25224304 C65.5491217 103.25224304 64.8891217 103.25224304 64.2091217 103.25224304 C63.9822467 104.22161804 63.7553717 105.19099304 63.5216217 106.18974304 C61.95637575 111.69046455 59.1003009 116.73548294 55.67396545 121.29521179 C54.31981722 123.10435383 53.26293384 124.88378176 52.2091217 126.87724304 C50.2091217 130.25224304 50.2091217 130.25224304 47.2091217 132.25224304 C45.15614319 132.5110321 45.15614319 132.5110321 42.83021545 132.51786804 C41.9916803 132.52044617 41.15314514 132.52302429 40.28919983 132.52568054 C39.41714905 132.51794617 38.54509827 132.51021179 37.6466217 132.50224304 C36.77070374 132.50997742 35.89478577 132.51771179 34.99232483 132.52568054 C33.73645569 132.52181335 33.73645569 132.52181335 32.45521545 132.51786804 C31.68878723 132.51561218 30.92235901 132.51335632 30.13270569 132.5110321 C28.2091217 132.25224304 28.2091217 132.25224304 26.2091217 130.25224304 C25.71009827 128.08622742 25.71009827 128.08622742 25.3497467 125.34599304 C25.20649963 124.30886169 25.06325256 123.27173035 24.91566467 122.20317078 C24.76500549 121.06436462 24.61434631 119.92555847 24.4591217 118.75224304 C22.91810684 107.67817579 21.08450985 96.68906041 19.0841217 85.68974304 C17.18423434 75.21922684 15.47534231 64.79744404 14.53334045 54.18974304 C14.38851455 51.32237032 14.38851455 51.32237032 13.2091217 49.25224304 C12.2191217 49.25224304 11.2291217 49.25224304 10.2091217 49.25224304 C10.09318665 49.81733582 9.97725159 50.38242859 9.85780334 50.96464539 C9.33196875 53.51944996 8.80184876 56.07334664 8.2716217 58.62724304 C8.08921936 59.51669617 7.90681702 60.40614929 7.71888733 61.32255554 C7.54164124 62.17333679 7.36439514 63.02411804 7.18177795 63.90068054 C7.01943665 64.686203 6.85709534 65.47172546 6.68983459 66.28105164 C6.2091217 68.25224304 6.2091217 68.25224304 5.2091217 70.25224304 C4.88880539 72.58181625 4.60258671 74.91612651 4.3341217 77.25224304 C3.79816754 81.62019222 3.18798793 85.81988414 1.7716217 90.00224304 C0.20871878 94.73022072 -0.54871403 99.46817614 -1.2908783 104.37724304 C-1.41527283 105.19088318 -1.53966736 106.00452332 -1.66783142 106.84281921 C-2.16528853 110.11012008 -2.65980005 113.37785303 -3.14976501 116.64628601 C-3.49121144 118.87247927 -3.85654559 121.09345125 -4.2283783 123.31474304 C-4.5358197 125.25027039 -4.5358197 125.25027039 -4.84947205 127.22489929 C-5.7908783 130.25224304 -5.7908783 130.25224304 -7.510849 131.429245 C-10.2163732 132.40582944 -12.3382313 132.47949468 -15.2127533 132.44755554 C-16.74996033 132.43788757 -16.74996033 132.43788757 -18.31822205 132.42802429 C-19.91343689 132.40288757 -19.91343689 132.40288757 -21.5408783 132.37724304 C-22.61982361 132.3682196 -23.69876892 132.35919617 -24.81040955 132.34989929 C-27.47079107 132.32635609 -30.13072166 132.29347103 -32.7908783 132.25224304 C-32.81773768 130.10647668 -32.83720917 127.96061659 -32.8533783 125.81474304 C-32.86497986 124.6197821 -32.87658142 123.42482117 -32.88853455 122.19364929 C-32.7908783 119.25224304 -32.7908783 119.25224304 -31.7908783 118.25224304 C-31.2996253 115.88546916 -30.85985956 113.52809019 -30.45103455 111.14677429 C-30.18997119 109.67346623 -29.92890334 108.20015896 -29.66783142 106.72685242 C-29.26075192 104.40113846 -28.85519243 102.07516524 -28.45030212 99.74906921 C-28.05845824 97.50596044 -27.66116139 95.26386402 -27.26353455 93.02177429 C-27.1457515 92.33404434 -27.02796844 91.64631439 -26.90661621 90.93774414 C-26.18759336 86.89133722 -25.12330722 83.13390583 -23.7908783 79.25224304 C-23.38357608 76.64071708 -23.02263933 74.06250442 -22.7283783 71.43974304 C-21.91868879 64.38005353 -21.91868879 64.38005353 -20.7908783 63.25224304 C-20.26818058 61.15846532 -19.79877037 59.05131685 -19.3533783 56.93974304 C-18.98406189 55.21304382 -18.98406189 55.21304382 -18.60728455 53.45146179 C-17.94450486 50.16577546 -17.38717852 46.86855276 -16.8455658 43.56083679 C-15.80373571 37.22398843 -14.60604006 30.92545574 -13.3533783 24.62724304 C-13.14906189 23.57278992 -12.94474548 22.51833679 -12.73423767 21.43193054 C-8.48412231 0.03571118 -8.48412231 0.03571118 0 0 Z " fill="#040404" transform="translate(73.79087829589844,141.7477569580078)"/>
<path d="M0 0 C0 0.66 0 1.32 0 2 C1.0828125 2.2475 1.0828125 2.2475 2.1875 2.5 C6.4074671 4.75064912 8.1912832 7.63341923 10 12 C10.94589808 19.8377793 9.39470234 27.48956157 7.75 35.125 C7.52328613 36.22465088 7.29657227 37.32430176 7.06298828 38.45727539 C5.94124015 43.83497529 4.72886596 49.17494101 3.36987305 54.49707031 C3.20656494 55.13741211 3.04325684 55.77775391 2.875 56.4375 C2.71233643 57.07397461 2.54967285 57.71044922 2.38208008 58.36621094 C0.50609628 66.23675058 -0.15492286 74.31199151 -0.87353516 82.35717773 C-0.97843262 83.43298096 -1.08333008 84.50878418 -1.19140625 85.6171875 C-1.27592041 86.58253418 -1.36043457 87.54788086 -1.44750977 88.54248047 C-2.08544923 91.38008483 -2.58701592 92.38745777 -5 94 C-7.36010742 94.34057617 -7.36010742 94.34057617 -10.10546875 94.29296875 C-11.08837891 94.28330078 -12.07128906 94.27363281 -13.08398438 94.26367188 C-14.10814453 94.23853516 -15.13230469 94.21339844 -16.1875 94.1875 C-17.22326172 94.17396484 -18.25902344 94.16042969 -19.32617188 94.14648438 C-21.88463699 94.11111389 -24.4420578 94.06175544 -27 94 C-27 93.34 -27 92.68 -27 92 C-27.66 92 -28.32 92 -29 92 C-29.33 91.01 -29.66 90.02 -30 89 C-34.48582549 89.52160762 -37.17691687 90.69598535 -41 93 C-48.55924731 96.31409816 -55.63988314 97.38412065 -63.8125 97.4375 C-64.60027832 97.44740967 -65.38805664 97.45731934 -66.19970703 97.4675293 C-73.46140953 97.36130149 -80.07211001 95.35874264 -86 91 C-87.1875 88.875 -87.1875 88.875 -88 87 C-88.66 86.67 -89.32 86.34 -90 86 C-93.29453008 78.67882204 -92.5718796 71.4298744 -90 64 C-89.36096883 62.32254318 -88.69658363 60.65438613 -88 59 C-87.731875 58.175 -87.46375 57.35 -87.1875 56.5 C-84.13996547 50.08413782 -77.61366377 45.42000338 -71.1171875 42.8671875 C-61.34865144 39.68947095 -51.61021039 38.16942608 -41.375 37.625 C-33.1630832 37.05831809 -24.97848578 34.97848578 -19 29 C-17.39631498 25.79262995 -17.37479273 22.46955684 -18 19 C-21.18993492 15.63763617 -24.02544139 14.15011264 -28.671875 13.796875 C-35.01646091 13.70025694 -39.37348802 14.06952501 -45 17 C-45.763125 17.144375 -46.52625 17.28875 -47.3125 17.4375 C-49.16984726 17.85448846 -49.16984726 17.85448846 -50.0625 19.75 C-50.371875 20.4925 -50.68125 21.235 -51 22 C-52.2121582 24.61010742 -52.2121582 24.61010742 -54 27 C-56.54370117 27.56762695 -56.54370117 27.56762695 -59.54296875 27.48828125 C-60.61611328 27.47216797 -61.68925781 27.45605469 -62.79492188 27.43945312 C-63.91447266 27.39755859 -65.03402344 27.35566406 -66.1875 27.3125 C-67.31865234 27.28994141 -68.44980469 27.26738281 -69.61523438 27.24414062 C-72.41147976 27.18514811 -75.20508097 27.1028824 -78 27 C-78.12604632 20.15476966 -75.24595642 14.62808816 -70.65234375 9.50390625 C-52.90705792 -6.64724042 -21.68133469 -8.55038551 0 0 Z " fill="#060606" transform="translate(300,180)"/>
<path d="M0 0 C0.81903809 0.00088623 1.63807617 0.00177246 2.48193359 0.00268555 C9.55737574 0.13909797 16.36749847 1.09601726 22.75 4.375 C23.245 5.86 23.245 5.86 23.75 7.375 C24.41 7.375 25.07 7.375 25.75 7.375 C26.245 8.365 26.245 8.365 26.75 9.375 C27.36488281 9.63796875 27.97976563 9.9009375 28.61328125 10.171875 C31.51789116 11.80737747 32.38397386 13.70165518 33.9375 16.625 C34.44667969 17.55828125 34.95585938 18.4915625 35.48046875 19.453125 C38.27148561 25.87675764 37.93295477 32.55147853 37.9375 39.4375 C37.94974609 40.41783203 37.96199219 41.39816406 37.97460938 42.40820312 C37.97654297 43.35759766 37.97847656 44.30699219 37.98046875 45.28515625 C37.98457764 46.14246338 37.98868652 46.99977051 37.99291992 47.88305664 C37.71145932 50.77036155 37.12128177 52.81478631 35.75 55.375 C32.34258195 57.66864184 29.27232864 57.64764509 25.23730469 57.69384766 C24.59298492 57.70389328 23.94866516 57.7139389 23.28482056 57.72428894 C21.16384744 57.75507823 19.0430003 57.77214378 16.921875 57.7890625 C15.44784464 57.80777762 13.97382495 57.8273513 12.49981689 57.8477478 C8.62669166 57.89903885 4.75353171 57.93868062 0.88024902 57.97589111 C-3.07471281 58.01594983 -7.02953058 58.06703363 -10.984375 58.1171875 C-18.73948444 58.2139109 -26.49466367 58.29832699 -34.25 58.375 C-34.16096976 60.61920204 -34.05157898 62.86260258 -33.93359375 65.10546875 C-33.87486084 66.35481201 -33.81612793 67.60415527 -33.75561523 68.89135742 C-33.05549823 73.71509933 -31.05408082 76.43869358 -27.25 79.375 C-23.90224754 81.04887623 -20.17753953 80.60172443 -16.5 80.625 C-15.70078125 80.645625 -14.9015625 80.66625 -14.078125 80.6875 C-7.06528254 80.73363712 -2.58656093 78.62369326 2.9375 74.3125 C9.63820063 69.11846578 9.63820063 69.11846578 14.19921875 69.1796875 C15.04677734 69.18613281 15.89433594 69.19257813 16.76757812 69.19921875 C18.08918945 69.22435547 18.08918945 69.22435547 19.4375 69.25 C20.33017578 69.25902344 21.22285156 69.26804687 22.14257812 69.27734375 C24.34532314 69.30090252 26.54752588 69.33379671 28.75 69.375 C29.91527907 72.83300347 29.81300562 73.24171887 28.125 76.8125 C26.026647 80.15852236 23.71379698 82.73335487 20.75 85.375 C20.07324219 85.99375 19.39648438 86.6125 18.69921875 87.25 C7.98320571 96.51031896 -5.46187277 101.79604833 -19.625 101.6875 C-20.7375415 101.68230347 -20.7375415 101.68230347 -21.87255859 101.67700195 C-27.71786202 101.56152499 -32.83159183 100.63732506 -38.25 98.375 C-39.37792969 97.95089844 -40.50585938 97.52679688 -41.66796875 97.08984375 C-45.52105766 95.24523521 -47.9278687 93.26392464 -50.9375 90.25 C-52.30455078 88.91582031 -52.30455078 88.91582031 -53.69921875 87.5546875 C-60.37174356 79.84668477 -60.88090761 71.81557041 -60.75 61.9375 C-60.76546875 60.77412109 -60.7809375 59.61074219 -60.796875 58.41210938 C-60.76300402 50.88851747 -59.57605186 45.11553642 -56.25 38.375 C-55.79625 37.364375 -55.3425 36.35375 -54.875 35.3125 C-47.90636398 22.71535027 -37.31342839 9.31072246 -23.25 4.375 C-20.4375 4.23828125 -20.4375 4.23828125 -18.25 4.375 C-18.25 3.715 -18.25 3.055 -18.25 2.375 C-12.11612779 0.79141861 -6.33374001 -0.01244478 0 0 Z " fill="#060606" transform="translate(479.25,175.625)"/>
<path d="M0 0 C6.33944115 8.12748865 5.8186768 17.14870244 5 27 C3.20604252 39.64312891 0.06138898 52.07127474 -3.16015625 64.4140625 C-4.28970279 69.23696353 -4.9307233 74.08092897 -5.57421875 78.98828125 C-6.0759451 82.53718969 -6.70829333 85.6567592 -8 89 C-11.2159105 91.14394034 -12.11030934 91.25580474 -15.81640625 91.265625 C-17.20956055 91.26949219 -17.20956055 91.26949219 -18.63085938 91.2734375 C-19.59830078 91.26570313 -20.56574219 91.25796875 -21.5625 91.25 C-23.01946289 91.26160156 -23.01946289 91.26160156 -24.50585938 91.2734375 C-25.43333984 91.27085937 -26.36082031 91.26828125 -27.31640625 91.265625 C-28.16662354 91.26336914 -29.01684082 91.26111328 -29.89282227 91.25878906 C-32 91 -32 91 -34 89 C-34.02490234 87.14794922 -34.02490234 87.14794922 -33.7109375 84.9296875 C-33.60104492 84.12370117 -33.49115234 83.31771484 -33.37792969 82.48730469 C-33.25321289 81.66649414 -33.12849609 80.84568359 -33 80 C-32.89333008 79.25911133 -32.78666016 78.51822266 -32.67675781 77.75488281 C-32.34719637 75.54098206 -31.99195844 73.33299878 -31.625 71.125 C-31.42982788 69.94502441 -31.42982788 69.94502441 -31.23071289 68.74121094 C-30.35493521 63.62645889 -29.16746806 58.71125356 -27.69140625 53.734375 C-26.546348 49.20589605 -26.01345152 44.59789625 -25.4296875 39.96875 C-25 37 -25 37 -24 34 C-23.82933716 31.87930439 -23.7337402 29.75204902 -23.6875 27.625 C-23.65011719 26.50351563 -23.61273437 25.38203125 -23.57421875 24.2265625 C-24.08628364 20.34614414 -25.29091177 18.76437575 -28 16 C-31.25471867 14.37264067 -34.80219381 14.77373958 -38.375 14.75 C-39.14328125 14.729375 -39.9115625 14.70875 -40.703125 14.6875 C-45.15461168 14.65669386 -47.61304889 14.82994724 -51 18 C-51.66 18 -52.32 18 -53 18 C-53 18.66 -53 19.32 -53 20 C-53.86625 20.7734375 -53.86625 20.7734375 -54.75 21.5625 C-61.27293016 28.62900768 -62.9497977 39.04360052 -64.4375 48.25 C-65.25520802 53.12897371 -66.15050765 57.87557118 -67.5625 62.625 C-68.84250026 66.96241022 -69.47950716 71.26895033 -70 75.75 C-71.41338355 87.41338355 -71.41338355 87.41338355 -75 91 C-78.63899175 91.25156269 -82.29083673 91.18522226 -85.9375 91.1875 C-86.96552734 91.19974609 -87.99355469 91.21199219 -89.05273438 91.22460938 C-90.03435547 91.22654297 -91.01597656 91.22847656 -92.02734375 91.23046875 C-93.38460571 91.23663208 -93.38460571 91.23663208 -94.76928711 91.24291992 C-97 91 -97 91 -99 89 C-98.56161556 82.21515772 -97.29171994 75.55574185 -96.0625 68.875 C-95.80823242 67.44994141 -95.80823242 67.44994141 -95.54882812 65.99609375 C-94.6178778 60.89179578 -93.44199328 55.98760029 -92 51 C-91.27173051 47.67840723 -90.63572182 44.34038564 -90 41 C-85.30629911 16.59863823 -85.30629911 16.59863823 -82.25 5 C-82.03947998 4.19957275 -81.82895996 3.39914551 -81.61206055 2.57446289 C-80.13777652 -2.86222348 -80.13777652 -2.86222348 -79 -4 C-77.43827255 -4.08685603 -75.87270656 -4.10702219 -74.30859375 -4.09765625 C-73.36435547 -4.09443359 -72.42011719 -4.09121094 -71.44726562 -4.08789062 C-70.45404297 -4.07951172 -69.46082031 -4.07113281 -68.4375 -4.0625 C-67.44041016 -4.05798828 -66.44332031 -4.05347656 -65.41601562 -4.04882812 C-62.94395151 -4.03700007 -60.47200482 -4.02051849 -58 -4 C-57.34 -1.69 -56.68 0.62 -56 3 C-51.74038291 2.61276208 -49.37959512 0.86795374 -46.0234375 -1.66015625 C-32.21648023 -10.80260093 -12.92148506 -10.65351077 0 0 Z " fill="#050505" transform="translate(623,183)"/>
<path d="M0 0 C3.96798297 0.15261473 6.40673631 0.5860951 9.6875 2.875 C15.18243145 10.30058304 16.49442419 18.71471926 17.41015625 27.73828125 C18.05028665 31.2780752 19.32911706 33.83504712 21 37 C21.38063221 39.3260857 21.71269945 41.66055264 22 44 C22.95794275 47.51245674 23.99257039 50.97729842 25.125 54.4375 C26.19350287 58.71999168 26.21789189 62.98543158 26.25 67.375 C26.25918457 68.08970459 26.26836914 68.80440918 26.27783203 69.54077148 C26.24672001 74.75327999 26.24672001 74.75327999 24 77 C23.83312552 79.58354218 23.83312552 79.58354218 24 82 C25.54401798 79.05232932 26.92431538 76.23714514 27.9375 73.0625 C28.98091327 70.05501469 30.37300179 67.50886465 32 64.78125 C33.17264691 62.77260412 33.17264691 62.77260412 34.4375 59.5625 C36.22585127 55.48505911 38.23545549 51.51270507 41 48 C41.66 48 42.32 48 43 48 C43.66 46.02 44.32 44.04 45 42 C45.66 42 46.32 42 47 42 C47.66 40.35 48.32 38.7 49 37 C49.66 37 50.32 37 51 37 C51.226875 36.46375 51.45375 35.9275 51.6875 35.375 C54.72201417 29.88397436 59.97872709 23.00709097 66 21 C66.33 20.34 66.66 19.68 67 19 C68 17 68 17 71 16 C72.20882096 13.99983534 72.20882096 13.99983534 73 12 C73.66 12 74.32 12 75 12 C75 11.34 75 10.68 75 10 C76.57421875 8.4921875 76.57421875 8.4921875 78.6875 6.875 C79.37199219 6.33617187 80.05648437 5.79734375 80.76171875 5.2421875 C83.42257622 3.76548126 84.9994285 3.65397034 88 4 C91.29504851 6.19669901 91.94231658 7.7908976 93 11.625 C93.44820205 16.95362439 91.18553253 21.26596665 89 26 C88.32494258 27.66328581 87.65590695 29.32906963 87 31 C86.34 31 85.68 31 85 31 C84.67 31.99 84.34 32.98 84 34 C83.34 34 82.68 34 82 34 C82 34.99 82 35.98 82 37 C81.38125 37.5775 80.7625 38.155 80.125 38.75 C77.40881526 41.62596031 76.99785405 44.20815462 76 48 C73.52941176 52.73529412 73.52941176 52.73529412 71 54 C70.7834375 54.99 70.7834375 54.99 70.5625 56 C70.376875 56.66 70.19125 57.32 70 58 C68.515 58.495 68.515 58.495 67 59 C65.86225691 60.88834985 65.86225691 60.88834985 65 63.1875 C64.49146484 64.40373047 64.49146484 64.40373047 63.97265625 65.64453125 C63.65167969 66.42183594 63.33070313 67.19914062 63 68 C59.875 74.75 59.875 74.75 57 77 C56.34 77 55.68 77 55 77 C54.78988281 77.59296875 54.57976562 78.1859375 54.36328125 78.796875 C52.48777791 81.82777438 50.36886079 82.69658585 47.1875 84.25 C45.63095703 85.03117187 45.63095703 85.03117187 44.04296875 85.828125 C41.07741505 86.97018676 39.13490439 87.2549645 36 87 C36.33 87.66 36.66 88.32 37 89 C40.3 89 43.6 89 47 89 C43.91330796 92.08669204 43.08072342 92.44855089 39 93 C39.33 94.32 39.66 95.64 40 97 C36.43260426 99.37826383 34.12757458 99.38656475 29.9609375 99.65625 C29.31382812 99.7696875 28.66671875 99.883125 28 100 C27.67 100.66 27.34 101.32 27 102 C26.34 101.01 25.68 100.02 25 99 C25.6496875 98.2265625 25.6496875 98.2265625 26.3125 97.4375 C28.96420848 93.60725441 30.53272538 89.40182387 32 85 C30.87068379 86.89326541 29.74672384 88.7897264 28.625 90.6875 C27.99851562 91.74324219 27.37203125 92.79898438 26.7265625 93.88671875 C24.39207671 98.09618747 22.71014983 101.44942001 22.875 106.3125 C22.91625 107.529375 22.9575 108.74625 23 110 C22.34 109.67 21.68 109.34 21 109 C21 108.34 21 107.68 21 107 C19.02 107.99 19.02 107.99 17 109 C17.33 106.69 17.66 104.38 18 102 C16.68 102 15.36 102 14 102 C14 101.34 14 100.68 14 100 C13.34 100 12.68 100 12 100 C12 99.34 12 98.68 12 98 C12.66 98 13.32 98 14 98 C12.77065985 94.31197956 11.06140622 93.27643027 8 91 C8.99 90.505 8.99 90.505 10 90 C9.56558594 89.319375 9.13117188 88.63875 8.68359375 87.9375 C1.67536795 75.70969072 -0.92615634 61.7754432 -3 48 C-3.1045752 47.3201001 -3.20915039 46.6402002 -3.31689453 45.93969727 C-4.23959023 38.98646714 -4.22113498 31.981075 -4.24023438 24.97875977 C-4.25002738 22.80642621 -4.28117964 20.63500685 -4.3125 18.46289062 C-4.31902435 17.06510969 -4.32427704 15.66732212 -4.328125 14.26953125 C-4.3374707 13.01760986 -4.34681641 11.76568848 -4.35644531 10.47583008 C-3.9496932 6.50943974 -2.90085393 2.90085393 0 0 Z " fill="#BC2440" transform="translate(331,170)"/>
<path d="M0 0 C1.22589844 0.01353516 1.22589844 0.01353516 2.4765625 0.02734375 C3.41628906 0.04474609 3.41628906 0.04474609 4.375 0.0625 C4.375 2.0425 4.375 4.0225 4.375 6.0625 C4.95765625 5.629375 5.5403125 5.19625 6.140625 4.75 C12.87107562 0.17837316 18.28471495 -1.26881273 26.375 0.0625 C29.38485004 1.05182462 30.83314452 2.01796407 33.375 4.0625 C34.625 6.625 34.625 6.625 35.375 9.0625 C35.87797607 9.51657227 36.38095215 9.97064453 36.89916992 10.43847656 C38.81498183 12.54666198 38.74907195 13.66946022 38.73828125 16.484375 C38.73763672 17.34546875 38.73699219 18.2065625 38.73632812 19.09375 C38.72021484 19.9909375 38.70410156 20.888125 38.6875 21.8125 C38.69072266 22.69421875 38.69394531 23.5759375 38.69726562 24.484375 C38.62345996 33.50208536 36.80260629 40.51695598 30.375 47.0625 C25.60922835 49.8353126 21.84743157 50.63854543 16.375 50.0625 C12.90010699 49.0200321 9.61770783 47.68385392 6.375 46.0625 C6.38023682 46.66312256 6.38547363 47.26374512 6.39086914 47.88256836 C6.41158014 50.58836838 6.42464125 53.29415177 6.4375 56 C6.44587891 56.94552734 6.45425781 57.89105469 6.46289062 58.86523438 C6.46611328 59.76435547 6.46933594 60.66347656 6.47265625 61.58984375 C6.47789307 62.42249756 6.48312988 63.25515137 6.48852539 64.11303711 C6.375 66.0625 6.375 66.0625 5.375 67.0625 C1.415 67.0625 -2.545 67.0625 -6.625 67.0625 C-6.625 45.2825 -6.625 23.5025 -6.625 1.0625 C-4.21954362 -0.14022819 -2.67503047 -0.03821472 0 0 Z " fill="#0B0B0B" transform="translate(298.625,94.9375)"/>
<path d="M0 0 C1.48831242 0.00667405 2.97660807 0.01863442 4.46484375 0.03515625 C5.22345703 0.03966797 5.98207031 0.04417969 6.76367188 0.04882812 C8.64326246 0.06064945 10.52281274 0.07858547 12.40234375 0.09765625 C15.069898 5.93931672 17.51611828 11.81430682 19.71484375 17.84765625 C20.0089917 18.65187012 20.30313965 19.45608398 20.60620117 20.28466797 C22.88638819 26.57104629 25.07801354 32.88620021 27.21484375 39.22265625 C27.50464111 40.0744043 27.79443848 40.92615234 28.09301758 41.80371094 C29.69731209 46.62179249 30.99385157 51.39514281 31.97924805 56.37841797 C32.25000893 58.11787037 32.25000893 58.11787037 33.40234375 59.09765625 C33.44327312 61.43063058 33.44476098 63.7647085 33.40234375 66.09765625 C29.44234375 66.09765625 25.48234375 66.09765625 21.40234375 66.09765625 C17.52734375 56.59765625 17.52734375 56.59765625 16.40234375 52.09765625 C3.53234375 51.60265625 3.53234375 51.60265625 -9.59765625 51.09765625 C-9.92765625 53.73765625 -10.25765625 56.37765625 -10.59765625 59.09765625 C-11.6915844 61.69848142 -13.05553668 63.70985821 -14.59765625 66.09765625 C-18.22765625 66.09765625 -21.85765625 66.09765625 -25.59765625 66.09765625 C-25.14708779 60.15015256 -24.33951365 56.43884875 -21.59765625 51.09765625 C-20.9046786 49.09250039 -20.25961484 47.07022811 -19.66015625 45.03515625 C-19.32113281 43.90335938 -18.98210937 42.7715625 -18.6328125 41.60546875 C-18.29121094 40.44789062 -17.94960937 39.2903125 -17.59765625 38.09765625 C-15.55100164 31.20114695 -13.43901226 24.43788142 -10.67578125 17.79296875 C-8.84670949 13.22028935 -7.26550091 8.55718469 -5.6484375 3.90625 C-4.22994678 0.1148194 -4.22994678 0.1148194 0 0 Z " fill="#0C0C0C" transform="translate(249.59765625,77.90234375)"/>
<path d="M0 0 C3.29504851 2.19669901 3.94231658 3.7908976 5 7.625 C5.44820205 12.95362439 3.18553253 17.26596665 1 22 C0.32494258 23.66328581 -0.34409305 25.32906963 -1 27 C-1.66 27 -2.32 27 -3 27 C-3.495 28.485 -3.495 28.485 -4 30 C-4.66 30 -5.32 30 -6 30 C-6 30.99 -6 31.98 -6 33 C-6.61875 33.5775 -7.2375 34.155 -7.875 34.75 C-10.59118474 37.62596031 -11.00214595 40.20815462 -12 44 C-14.47058824 48.73529412 -14.47058824 48.73529412 -17 50 C-17.144375 50.66 -17.28875 51.32 -17.4375 52 C-17.623125 52.66 -17.80875 53.32 -18 54 C-18.99 54.33 -19.98 54.66 -21 55 C-22.13774309 56.88834985 -22.13774309 56.88834985 -23 59.1875 C-23.50853516 60.40373047 -23.50853516 60.40373047 -24.02734375 61.64453125 C-24.50880859 62.81048828 -24.50880859 62.81048828 -25 64 C-28.125 70.75 -28.125 70.75 -31 73 C-31.66 73 -32.32 73 -33 73 C-33.185625 73.5775 -33.37125 74.155 -33.5625 74.75 C-35.67199057 78.05181133 -38.41722796 79.6410175 -42 81 C-45.3298206 81.58647495 -48.62362884 81.86412993 -52 82 C-51.18987369 78.60401596 -50.22436129 75.27115363 -49.1875 71.9375 C-48.87167969 70.89464844 -48.55585938 69.85179687 -48.23046875 68.77734375 C-46.8905896 65.7530451 -45.84812731 64.61710961 -43 63 C-42.34 63 -41.68 63 -41 63 C-41.061875 61.948125 -41.12375 60.89625 -41.1875 59.8125 C-40.9922214 55.84183507 -40.29674932 54.15803031 -38 51 C-39.98 51.66 -41.96 52.32 -44 53 C-44.495 51.515 -44.495 51.515 -45 50 C-45.66 50 -46.32 50 -47 50 C-46.33501617 45.61110675 -44.81242323 42.0188515 -43 38 C-42.34 38 -41.68 38 -41 38 C-40.34 36.35 -39.68 34.7 -39 33 C-38.34 33 -37.68 33 -37 33 C-36.773125 32.46375 -36.54625 31.9275 -36.3125 31.375 C-33.27798583 25.88397436 -28.02127291 19.00709097 -22 17 C-21.67 16.34 -21.34 15.68 -21 15 C-20 13 -20 13 -17 12 C-15.79117904 9.99983534 -15.79117904 9.99983534 -15 8 C-14.34 8 -13.68 8 -13 8 C-13 7.34 -13 6.68 -13 6 C-11.42578125 4.4921875 -11.42578125 4.4921875 -9.3125 2.875 C-8.62800781 2.33617187 -7.94351563 1.79734375 -7.23828125 1.2421875 C-4.57742378 -0.23451874 -3.0005715 -0.34602966 0 0 Z " fill="#DD5A2A" transform="translate(419,174)"/>
<path d="M0 0 C0.89847656 0.00257812 1.79695313 0.00515625 2.72265625 0.0078125 C3.61855469 0.00523438 4.51445312 0.00265625 5.4375 0 C7.78515625 0.1328125 7.78515625 0.1328125 9.78515625 1.1328125 C9.78515625 9.3828125 9.78515625 17.6328125 9.78515625 26.1328125 C13.25015625 23.6578125 13.25015625 23.6578125 16.78515625 21.1328125 C20.171875 20.57421875 20.171875 20.57421875 23.47265625 20.6953125 C24.56964844 20.71722656 25.66664063 20.73914063 26.796875 20.76171875 C29.62184244 21.1125317 31.37418282 21.67214976 33.78515625 23.1328125 C33.78515625 23.7928125 33.78515625 24.4528125 33.78515625 25.1328125 C34.77515625 25.4628125 35.76515625 25.7928125 36.78515625 26.1328125 C40.01614939 31.0214168 40.20316346 35.13386271 40.11328125 40.77734375 C40.11140808 41.58773605 40.10953491 42.39812836 40.10760498 43.233078 C40.1009142 44.93496861 40.08705929 46.63684461 40.06640625 48.33862305 C40.03504721 50.95440829 40.02541145 53.56959165 40.01953125 56.18554688 C40.01036872 57.84115325 39.99999536 59.49675346 39.98828125 61.15234375 C39.98190643 62.33036308 39.98190643 62.33036308 39.97540283 63.53218079 C39.90236763 69.01560112 39.90236763 69.01560112 38.78515625 70.1328125 C36.95399742 70.23132421 35.11895692 70.26253879 33.28515625 70.2578125 C32.28484375 70.26039063 31.28453125 70.26296875 30.25390625 70.265625 C27.78515625 70.1328125 27.78515625 70.1328125 26.78515625 69.1328125 C26.63753422 66.73338388 26.55021614 64.35901305 26.50390625 61.95703125 C26.48549683 61.23546341 26.4670874 60.51389557 26.44812012 59.77046204 C26.38920244 57.45383076 26.33649699 55.13712334 26.28515625 52.8203125 C26.21737259 49.78240077 26.14359993 46.74471667 26.06640625 43.70703125 C26.05283081 43.00897873 26.03925537 42.31092621 26.02526855 41.59172058 C25.94176557 38.30927349 25.77848647 35.27617983 24.78515625 32.1328125 C23.3921202 31.99624034 21.99509504 31.90010101 20.59765625 31.8203125 C19.82035156 31.76230469 19.04304688 31.70429687 18.2421875 31.64453125 C14.51532339 32.38516402 13.15330013 34.22243799 10.78515625 37.1328125 C10.02599594 40.68043689 10.02599594 40.68043689 10.11328125 44.5859375 C10.10053162 45.28676453 10.08778198 45.98759155 10.074646 46.70965576 C10.0384769 48.93445836 10.03563787 51.15774235 10.03515625 53.3828125 C10.0135556 55.62160017 9.98515355 57.86015896 9.95281982 60.09881592 C9.92695218 62.11947042 9.91862653 64.14032663 9.91113281 66.16113281 C9.78515625 69.1328125 9.78515625 69.1328125 8.78515625 70.1328125 C6.76551426 70.20525303 4.74348501 70.21658438 2.72265625 70.1953125 C1.61792969 70.18628906 0.51320313 70.17726563 -0.625 70.16796875 C-1.47964844 70.15636719 -2.33429688 70.14476562 -3.21484375 70.1328125 C-3.23796941 61.15360473 -3.25575998 52.17440713 -3.26665592 43.19517612 C-3.27188426 39.02618422 -3.27898101 34.85721263 -3.2902832 30.68823242 C-3.30111383 26.66823564 -3.30712096 22.64825845 -3.30972099 18.62824821 C-3.31157493 17.09118275 -3.31519494 15.55411841 -3.32057381 14.01706123 C-3.32778659 11.87145763 -3.32883459 9.72593595 -3.32836914 7.58032227 C-3.33058975 6.35676529 -3.33281036 5.13320831 -3.33509827 3.87257385 C-3.17347453 0.19029653 -3.17347453 0.19029653 0 0 Z " fill="#0E0E0E" transform="translate(446.21484375,73.8671875)"/>
<path d="M0 0 C5.13009646 2.47567373 8.75876208 4.8537672 11.2421875 10.08203125 C12.24053777 13.30747059 12.43769617 16.33765049 12.4921875 19.70703125 C12.51796875 20.66867188 12.54375 21.6303125 12.5703125 22.62109375 C12.46203125 23.43320313 12.35375 24.2453125 12.2421875 25.08203125 C8.65550437 27.47315334 7.07822181 27.31584152 2.82421875 27.27734375 C0.94379883 27.26767578 0.94379883 27.26767578 -0.97460938 27.2578125 C-2.94010742 27.23267578 -2.94010742 27.23267578 -4.9453125 27.20703125 C-6.28059237 27.19699764 -7.61587939 27.18787245 -8.95117188 27.1796875 C-12.22023265 27.15608417 -15.48893278 27.12315719 -18.7578125 27.08203125 C-18.4278125 30.05203125 -18.0978125 33.02203125 -17.7578125 36.08203125 C-16.7678125 36.41203125 -15.7778125 36.74203125 -14.7578125 37.08203125 C-14.7578125 37.74203125 -14.7578125 38.40203125 -14.7578125 39.08203125 C-12.52891754 39.13632098 -10.29963779 39.17495463 -8.0703125 39.20703125 C-6.20826172 39.24183594 -6.20826172 39.24183594 -4.30859375 39.27734375 C-0.91058849 39.09043477 1.18321305 38.46072396 4.2421875 37.08203125 C7.0546875 36.95703125 7.0546875 36.95703125 9.2421875 37.08203125 C9.2421875 40.05203125 9.2421875 43.02203125 9.2421875 46.08203125 C-0.96130421 49.72613543 -11.58044618 50.66959593 -21.91796875 47.03125 C-23.97741566 45.96873281 -25.28498973 44.86685386 -26.7578125 43.08203125 C-26.7578125 42.42203125 -26.7578125 41.76203125 -26.7578125 41.08203125 C-27.4178125 41.08203125 -28.0778125 41.08203125 -28.7578125 41.08203125 C-33.52488015 33.32286795 -32.6913358 23.8753382 -31.7578125 15.08203125 C-30.32382963 9.1936958 -27.53506335 5.29140057 -22.8828125 1.45703125 C-16.36582744 -2.42682853 -7.08701858 -2.35899344 0 0 Z " fill="#101010" transform="translate(528.7578125,95.91796875)"/>
<path d="M0 0 C3.27397909 2.06373579 5.4183856 3.72954095 7.83203125 6.78515625 C8.51060739 9.94789358 8.41577934 13.01999072 8.3203125 16.2421875 C8.31323776 17.1451506 8.30616302 18.04811371 8.2988739 18.97843933 C8.27096444 21.85236713 8.20823357 24.72432097 8.14453125 27.59765625 C8.11944387 29.550102 8.09663147 31.5025784 8.07617188 33.45507812 C8.02114914 38.23252727 7.93490123 43.00850751 7.83203125 47.78515625 C4.86203125 47.78515625 1.89203125 47.78515625 -1.16796875 47.78515625 C-1.49796875 46.46515625 -1.82796875 45.14515625 -2.16796875 43.78515625 C-3.05484375 44.42453125 -3.94171875 45.06390625 -4.85546875 45.72265625 C-10.5153546 49.24673612 -16.6032337 49.53330423 -23.16796875 48.78515625 C-28.00655423 46.45546694 -30.83827944 43.62374173 -33.16796875 38.78515625 C-33.76183022 35.32743946 -33.82698773 32.2363346 -33.16796875 28.78515625 C-30.16889414 24.604628 -25.92349731 21.74998434 -21.16796875 19.78515625 C-18.16227913 19.33737746 -15.26033026 19.40014957 -12.23046875 19.53515625 C-11.45123047 19.55320312 -10.67199219 19.57125 -9.86914062 19.58984375 C-7.96820744 19.63649242 -6.06791706 19.70821796 -4.16796875 19.78515625 C-4.47595201 18.30504254 -4.78948675 16.826083 -5.10546875 15.34765625 C-5.27949219 14.52394531 -5.45351563 13.70023438 -5.6328125 12.8515625 C-5.97549869 10.80854421 -5.97549869 10.80854421 -7.16796875 9.78515625 C-9.24840588 9.65880202 -11.33373087 9.6093392 -13.41796875 9.59765625 C-15.12726563 9.57638672 -15.12726563 9.57638672 -16.87109375 9.5546875 C-20.11301467 9.78131467 -22.23917426 10.45019446 -25.16796875 11.78515625 C-26.82716771 12.15386713 -28.49273305 12.49797299 -30.16796875 12.78515625 C-30.16796875 9.48515625 -30.16796875 6.18515625 -30.16796875 2.78515625 C-20.80867195 -1.37453122 -9.94888237 -3.81516944 0 0 Z " fill="#0B0B0B" transform="translate(378.16796875,96.21484375)"/>
<path d="M0 0 C1 1 1 1 1.09765625 2.84765625 C1.06510417 4.8984375 1.03255208 6.94921875 1 9 C-0.625 9.6875 -0.625 9.6875 -3 10 C-3.9075 9.525625 -4.815 9.05125 -5.75 8.5625 C-10.01395965 6.5125194 -12.30072065 6.4694362 -17 7 C-20.2454384 9.33005834 -21.25618975 11.17113334 -22 15 C-22.06926968 17.75970408 -22.0941736 20.49196042 -22.0625 23.25 C-22.05798828 23.99507812 -22.05347656 24.74015625 -22.04882812 25.5078125 C-22.03709246 27.3385764 -22.0191585 29.16929873 -22 31 C-21.34 31 -20.68 31 -20 31 C-19.55398438 31.48984375 -19.10796875 31.9796875 -18.6484375 32.484375 C-16.52535714 34.43640149 -15.46350214 34.34687721 -12.625 34.25 C-11.83480469 34.22421875 -11.04460937 34.1984375 -10.23046875 34.171875 C-7.75904936 33.98143288 -5.40112063 33.61964403 -3 33 C-3 32.34 -3 31.68 -3 31 C-1.68 31 -0.36 31 1 31 C1 34.3 1 37.6 1 41 C-6.70672752 45.59439525 -13.16689915 47.31128168 -22.21875 45.57421875 C-27.56996275 43.89681937 -31.08880205 40.7747355 -34 36 C-37.53464818 27.72404789 -37.76397152 16.17634401 -34.8671875 7.67578125 C-31.81995298 2.33913231 -28.17432546 -1.69216413 -22.1796875 -3.5703125 C-13.91803819 -5.19895304 -7.11951182 -4.43290358 0 0 Z " fill="#0F0F0F" transform="translate(433,99)"/>
<path d="M0 0 C0.66 0.33 1.32 0.66 2 1 C1.34 2.65 0.68 4.3 0 6 C0.66 6 1.32 6 2 6 C2.66 6.66 3.32 7.32 4 8 C6.60280568 7.67958603 6.60280568 7.67958603 9 7 C8.33333333 9.66666667 7.66666667 12.33333333 7 15 C6.9175 15.680625 6.835 16.36125 6.75 17.0625 C6 19 6 19 3.58984375 20.25 C0.28238781 22.48490235 -0.11409344 24.14542181 -1.1875 27.9375 C-2.22138257 31.48789674 -3.22192178 34.74932836 -5 38 C-2.36 37.67 0.28 37.34 3 37 C-0.22791555 39.1519437 -1.28400809 39.20086443 -5 39 C-4.67 39.66 -4.34 40.32 -4 41 C-0.7 41 2.6 41 6 41 C2.91330796 44.08669204 2.08072342 44.44855089 -2 45 C-1.505 46.98 -1.505 46.98 -1 49 C-4.56739574 51.37826383 -6.87242542 51.38656475 -11.0390625 51.65625 C-11.68617188 51.7696875 -12.33328125 51.883125 -13 52 C-13.33 52.66 -13.66 53.32 -14 54 C-14.66 53.01 -15.32 52.02 -16 51 C-15.3503125 50.2265625 -15.3503125 50.2265625 -14.6875 49.4375 C-12.03579152 45.60725441 -10.46727462 41.40182387 -9 37 C-10.12931621 38.89326541 -11.25327616 40.7897264 -12.375 42.6875 C-13.00148438 43.74324219 -13.62796875 44.79898438 -14.2734375 45.88671875 C-16.60792329 50.09618747 -18.28985017 53.44942001 -18.125 58.3125 C-18.08375 59.529375 -18.0425 60.74625 -18 62 C-18.66 61.67 -19.32 61.34 -20 61 C-20 60.34 -20 59.68 -20 59 C-21.32 59.66 -22.64 60.32 -24 61 C-23.67 58.69 -23.34 56.38 -23 54 C-24.32 54 -25.64 54 -27 54 C-27 53.34 -27 52.68 -27 52 C-27.66 52 -28.32 52 -29 52 C-29 51.34 -29 50.68 -29 50 C-28.34 50 -27.68 50 -27 50 C-28.22934015 46.31197956 -29.93859378 45.27643027 -33 43 C-32.01 42.505 -32.01 42.505 -31 42 C-31.4125 41.38125 -31.825 40.7625 -32.25 40.125 C-35.78917441 33.80504569 -39.03622045 27.40157466 -38 20 C-36.75 17.5625 -36.75 17.5625 -35 16 C-33.68 16 -32.36 16 -31 16 C-30.87882812 16.69867188 -30.75765625 17.39734375 -30.6328125 18.1171875 C-30.46523438 19.02726562 -30.29765625 19.93734375 -30.125 20.875 C-29.88136719 22.23238281 -29.88136719 22.23238281 -29.6328125 23.6171875 C-29.16955297 26.16505988 -29.16955297 26.16505988 -27 28 C-25.57895017 31.6315718 -25 34.0553602 -25 38 C-24.01 38 -23.02 38 -22 38 C-21.67 37.34 -21.34 36.68 -21 36 C-19.68 36 -18.36 36 -17 36 C-15.70598867 32.91428068 -14.62291901 29.81506895 -13.625 26.625 C-12.22295389 22.34805127 -10.29158671 18.86705258 -8 15 C-7.525625 13.865625 -7.05125 12.73125 -6.5625 11.5625 C-4.74777602 7.42492932 -2.47558069 3.76718801 0 0 Z " fill="#C24964" transform="translate(372,218)"/>
<path d="M0 0 C0.55207848 8.55721643 -1.19653371 15.6298294 -6.4375 22.5625 C-9.09727575 25.09253059 -10.38739005 25.79356515 -14 26 C-14 26.66 -14 27.32 -14 28 C-20.68209712 30.4298535 -28.43600834 31.57834805 -35.29296875 29.20703125 C-38.48628346 27.48856704 -39.8358826 26.49235221 -41 23 C-41.37906043 18.37546271 -41.45676308 15.9500672 -39.4375 11.75 C-31.94167599 3.29317291 -20.34517519 1.862441 -9.6875 0.4296875 C-2.82105669 -0.66814501 -2.82105669 -0.66814501 0 0 Z " fill="#F9F9F9" transform="translate(276,230)"/>
<path d="M0 0 C3.78990182 3.99604711 5.20738971 8.125535 5.6875 13.55078125 C5.26755918 16.1472446 4.38766747 16.88891853 2.3671875 18.53125 C-0.57465991 18.79292679 -3.3001846 18.87998921 -6.23828125 18.82421875 C-7.07748611 18.81997391 -7.91669098 18.81572906 -8.78132629 18.81135559 C-11.46131495 18.79456464 -14.1405512 18.7569123 -16.8203125 18.71875 C-18.63735893 18.70370367 -20.45441715 18.69001518 -22.27148438 18.67773438 C-26.72555026 18.64465982 -31.17905382 18.59287513 -35.6328125 18.53125 C-36.77832031 12.85742188 -36.77832031 12.85742188 -35.46875 9.921875 C-33.55822492 7.43412745 -31.59573099 5.37181193 -29.2578125 3.28125 C-28.50757813 2.59546875 -27.75734375 1.9096875 -26.984375 1.203125 C-20.71181814 -3.2564337 -6.82340551 -3.80652889 0 0 Z " fill="#F8F8F8" transform="translate(486.6328125,197.46875)"/>
<path d="M0 0 C0.33 0.66 0.66 1.32 1 2 C1.99 1.67 2.98 1.34 4 1 C5.9375 0.83203125 5.9375 0.83203125 8 0.8125 C8.680625 0.79832031 9.36125 0.78414062 10.0625 0.76953125 C12 1 12 1 15 3 C15 3.99 15 4.98 15 6 C13.02 6.66 11.04 7.32 9 8 C8.67 9.98 8.34 11.96 8 14 C8.66 14.33 9.32 14.66 10 15 C9.566875 15.350625 9.13375 15.70125 8.6875 16.0625 C6.3442049 18.75294993 5.34008582 21.70562235 4 25 C0.89005236 31.7382199 0.89005236 31.7382199 -2 34 C-2.66 34 -3.32 34 -4 34 C-4.185625 34.5775 -4.37125 35.155 -4.5625 35.75 C-6.67199057 39.05181133 -9.41722796 40.6410175 -13 42 C-16.3298206 42.58647495 -19.62362884 42.86412993 -23 43 C-22.18987369 39.60401596 -21.22436129 36.27115363 -20.1875 32.9375 C-19.87167969 31.89464844 -19.55585938 30.85179687 -19.23046875 29.77734375 C-17.8905896 26.7530451 -16.84812731 25.61710961 -14 24 C-13.34 24 -12.68 24 -12 24 C-12.12375 23.030625 -12.2475 22.06125 -12.375 21.0625 C-12.375 15.69474328 -9.11876866 12.11621269 -6 8 C-5.42765625 7.22398437 -4.8553125 6.44796875 -4.265625 5.6484375 C-2.85921804 3.75313669 -1.43797011 1.87140082 0 0 Z " fill="#BC1F3C" transform="translate(390,213)"/>
<path d="M0 0 C3.96798297 0.15261473 6.40673631 0.5860951 9.6875 2.875 C15.22782448 10.36192497 16.53098377 18.95335823 17.60546875 28.03125 C17.91158875 31.04892545 17.91158875 31.04892545 19 34 C17.5459375 34.928125 17.5459375 34.928125 16.0625 35.875 C12.97164638 37.65678846 12.97164638 37.65678846 12 40 C11.34 40 10.68 40 10 40 C10 40.66 10 41.32 10 42 C9.01 42 8.02 42 7 42 C7 43.98 7 45.96 7 48 C6.67 48 6.34 48 6 48 C5.80422363 46.65252686 5.80422363 46.65252686 5.60449219 45.27783203 C5.1118209 41.94690818 4.60318566 38.61925234 4.08349609 35.29248047 C3.86186696 33.85205334 3.64665243 32.41062404 3.43798828 30.96826172 C3.13693633 28.89514092 2.81300409 26.82671768 2.484375 24.7578125 C2.29584961 23.5114502 2.10732422 22.26508789 1.91308594 20.98095703 C1.30623474 17.88884354 1.30623474 17.88884354 -1.09277344 16.57763672 C-2.03685059 16.29170654 -2.03685059 16.29170654 -3 16 C-3 17.65 -3 19.3 -3 21 C-3.33 21 -3.66 21 -4 21 C-4.08165496 18.79229195 -4.13948488 16.58369575 -4.1875 14.375 C-4.23970703 12.53035156 -4.23970703 12.53035156 -4.29296875 10.6484375 C-3.96573355 6.57326854 -2.97849003 2.97849003 0 0 Z " fill="#E5702A" transform="translate(331,170)"/>
<path d="M0 0 C0.495 1.98 0.495 1.98 1 4 C2.65 3.01 4.3 2.02 6 1 C4.79013682 3.85967661 3.45962299 5.61757372 1.375 8 C-1.41380196 10.88497939 -1.41380196 10.88497939 -1 15 C-1.66 15 -2.32 15 -3 15 C-3 15.66 -3 16.32 -3 17 C-4.32 17 -5.64 17 -7 17 C-8.86595779 20.58838037 -10.53384702 24.22989233 -12 28 C-11.67 28.66 -11.34 29.32 -11 30 C-12.32 29.67 -13.64 29.34 -15 29 C-15.74443359 30.15628906 -15.74443359 30.15628906 -16.50390625 31.3359375 C-22.74340108 40.54718413 -22.74340108 40.54718413 -27 41.6875 C-28.485 41.8421875 -28.485 41.8421875 -30 42 C-30.495 40.515 -30.495 40.515 -31 39 C-31.66 39 -32.32 39 -33 39 C-32.33501617 34.61110675 -30.81242323 31.0188515 -29 27 C-28.34 27 -27.68 27 -27 27 C-26.34 25.35 -25.68 23.7 -25 22 C-24.34 22 -23.68 22 -23 22 C-22.6596875 21.195625 -22.6596875 21.195625 -22.3125 20.375 C-19.27798583 14.88397436 -14.02127291 8.00709097 -8 6 C-7.3162955 4.67532254 -6.65035814 3.34136367 -6 2 C-3 0 -3 0 0 0 Z " fill="#CB4242" transform="translate(405,185)"/>
<path d="M0 0 C4.0674694 3.14304454 5.90043468 6.00197581 7 11 C7.45183909 17.32574722 6.68448654 21.7861034 2.8125 26.875 C-0.68989619 29.5212549 -2.71126907 29.42046382 -7 29 C-7 28.34 -7 27.68 -7 27 C-7.61875 26.896875 -8.2375 26.79375 -8.875 26.6875 C-11 26 -11 26 -13 23 C-14.63141252 8.95252756 -14.63141252 8.95252756 -11.64453125 3.546875 C-8.15217615 0.37060502 -4.72167654 -1.12909656 0 0 Z " fill="#F4F4F4" transform="translate(318,105)"/>
<path d="M0 0 C0.12117188 0.69867188 0.24234375 1.39734375 0.3671875 2.1171875 C0.53476562 3.02726563 0.70234375 3.93734375 0.875 4.875 C1.11863281 6.23238281 1.11863281 6.23238281 1.3671875 7.6171875 C1.83044703 10.16505988 1.83044703 10.16505988 4 12 C5.42104983 15.6315718 6 18.0553602 6 22 C6.66 22 7.32 22 8 22 C8.14695312 23.15628906 8.14695312 23.15628906 8.296875 24.3359375 C8.44640625 25.33882813 8.5959375 26.34171875 8.75 27.375 C8.95882813 28.87160156 8.95882813 28.87160156 9.171875 30.3984375 C9.74386889 33.14561047 9.74386889 33.14561047 12.078125 34.3515625 C12.71234375 34.56554687 13.3465625 34.77953125 14 35 C13.85892253 36.45880109 13.71197585 37.91703551 13.5625 39.375 C13.48128906 40.18710937 13.40007812 40.99921875 13.31640625 41.8359375 C13 44 13 44 12 46 C11.67 45.01 11.34 44.02 11 43 C9.68 43.66 8.36 44.32 7 45 C7.33 42.69 7.66 40.38 8 38 C6.68 38 5.36 38 4 38 C4 37.34 4 36.68 4 36 C3.34 36 2.68 36 2 36 C2 35.34 2 34.68 2 34 C2.66 34 3.32 34 4 34 C2.77065985 30.31197956 1.06140622 29.27643027 -2 27 C-1.34 26.67 -0.68 26.34 0 26 C-0.4125 25.38125 -0.825 24.7625 -1.25 24.125 C-4.78917441 17.80504569 -8.03622045 11.40157466 -7 4 C-4.9820461 0.06498989 -4.62157657 0 0 0 Z " fill="#A9264C" transform="translate(341,234)"/>
<path d="M0 0 C2.475 0.99 2.475 0.99 5 2 C5.53211543 5.60259539 6.04874543 9.20724417 6.5625 12.8125 C6.71396484 13.83666016 6.86542969 14.86082031 7.02148438 15.91601562 C7.2293457 17.39038086 7.2293457 17.39038086 7.44140625 18.89453125 C7.57232666 19.80050049 7.70324707 20.70646973 7.83813477 21.63989258 C8 24 8 24 7 27 C5.68 27 4.36 27 3 27 C3 26.34 3 25.68 3 25 C2.34 25 1.68 25 1 25 C1.309375 25.94875 1.61875 26.8975 1.9375 27.875 C3.27928271 32.50938425 3.63342007 37.20552041 4 42 C5.98 41.505 5.98 41.505 8 41 C7.938125 40.21625 7.87625 39.4325 7.8125 38.625 C7.874375 37.75875 7.93625 36.8925 8 36 C8.99 35.34 9.98 34.68 11 34 C11.67493341 36.22667765 12.33963044 38.45645977 13 40.6875 C13.37125 41.92886719 13.7425 43.17023438 14.125 44.44921875 C14.87703457 47.5010019 15.19034899 49.88898362 15 53 C14.34 52.34 13.68 51.68 13 51 C13 50.01 13 49.02 13 48 C10.52372901 48.63921965 10.52372901 48.63921965 8 50 C6.63921965 52.52372901 6.63921965 52.52372901 6 55 C3.6839164 52.6839164 3.55050102 51.68225536 2.96484375 48.52734375 C2.79533203 47.62693359 2.62582031 46.72652344 2.45117188 45.79882812 C2.28166016 44.85458984 2.11214844 43.91035156 1.9375 42.9375 C1.76412109 42.02033203 1.59074219 41.10316406 1.41210938 40.15820312 C-0.22278772 31.31973643 -1.17071108 22.73984626 -1.125 13.75 C-1.12886719 12.97398437 -1.13273437 12.19796875 -1.13671875 11.3984375 C-1.13000707 7.46539258 -0.96767888 3.83999556 0 0 Z " fill="#B9435B" transform="translate(328,186)"/>
<path d="M0 0 C0.33 0 0.66 0 1 0 C1 1.65 1 3.3 1 5 C1.66 5 2.32 5 3 5 C3.33 5.66 3.66 6.32 4 7 C5.32 7 6.64 7 8 7 C4.8692693 13.55805695 1.4407278 19.94802408 -2.0625 26.3125 C-2.4857959 27.08899902 -2.9090918 27.86549805 -3.34521484 28.66552734 C-5.60830772 32.74968209 -7.93098137 36.44901078 -11 40 C-14.40756081 37.72829279 -14.8695411 36.82616857 -16 33 C-16.25 29.8125 -16.25 29.8125 -16 27 C-15.34 26.34 -14.68 25.68 -14 25 C-12.68 25 -11.36 25 -10 25 C-8.70598867 21.91428068 -7.62291901 18.81506895 -6.625 15.625 C-5.63578903 12.59175616 -4.50327627 9.93079154 -2.875 7.1875 C-1.3685254 4.62649318 -0.46075694 2.87973088 0 0 Z " fill="#A92A53" transform="translate(365,229)"/>
<path d="M0 0 C1.83203125 0.48828125 1.83203125 0.48828125 4 2 C5.09398241 4.76886653 5.93582942 7.32825145 6.6875 10.1875 C6.89955078 10.93064453 7.11160156 11.67378906 7.33007812 12.43945312 C8.60041215 17.01185414 9.31825272 21.22776903 10 26 C4.72 26 -0.56 26 -6 26 C-7.95493185 22.09013631 -5.97723149 17.10209964 -5 13 C-4.13755391 10.56863604 -3.10227267 8.34232943 -2 6 C-1.31163487 4.00736409 -0.63718601 2.00958663 0 0 Z " fill="#F2F2F2" transform="translate(252,93)"/>
<path d="M0 0 C3.36655033 2.24436689 3.94987487 3.79949947 4.9375 7.75 C5.34006917 12.40579993 3.88180419 15.78475861 2 20 C1.67 19.01 1.34 18.02 1 17 C-2.96 17 -6.92 17 -11 17 C-10.67 16.01 -10.34 15.02 -10 14 C-10.99 14.33 -11.98 14.66 -13 15 C-13.103125 14.360625 -13.20625 13.72125 -13.3125 13.0625 C-13.539375 12.381875 -13.76625 11.70125 -14 11 C-14.99 10.67 -15.98 10.34 -17 10 C-15.68 9.34 -14.36 8.68 -13 8 C-13 7.34 -13 6.68 -13 6 C-11.42578125 4.4921875 -11.42578125 4.4921875 -9.3125 2.875 C-8.62800781 2.33617187 -7.94351562 1.79734375 -7.23828125 1.2421875 C-4.57742378 -0.23451874 -3.0005715 -0.34602966 0 0 Z " fill="#F49832" transform="translate(419,174)"/>
<path d="M0 0 C0.98484375 0.00902344 1.9696875 0.01804687 2.984375 0.02734375 C4.10585938 0.04474609 4.10585938 0.04474609 5.25 0.0625 C5.25 3.0325 5.25 6.0025 5.25 9.0625 C4.26 9.3925 3.27 9.7225 2.25 10.0625 C1.693125 10.76375 1.13625 11.465 0.5625 12.1875 C-2.06001425 14.31386291 -2.59083192 14.33392259 -5.8125 14.0625 C-8.56836039 13.5493044 -9.59596962 13.19727658 -11.75 11.3125 C-12.94760913 8.61787945 -13.19877835 6.97955928 -12.75 4.0625 C-9.58706792 -0.36560492 -5.04338306 -0.06004027 0 0 Z " fill="#E6E6E6" transform="translate(369.75,122.9375)"/>
<path d="M0 0 C1.65 0.33 3.3 0.66 5 1 C5.33 3.64 5.66 6.28 6 9 C6.99 9 7.98 9 9 9 C9 7.68 9 6.36 9 5 C9.66 5 10.32 5 11 5 C11.66 3.35 12.32 1.7 13 0 C14.32 0 15.64 0 17 0 C16.57910004 5.60461531 16.08386889 10.72086547 14 16 C13.34 16 12.68 16 12 16 C12 13.36 12 10.72 12 8 C11.67386719 8.5775 11.34773437 9.155 11.01171875 9.75 C10.57472656 10.4925 10.13773438 11.235 9.6875 12 C9.25824219 12.7425 8.82898438 13.485 8.38671875 14.25 C7.92910156 14.8275 7.47148438 15.405 7 16 C6.01 16 5.02 16 4 16 C3.67 14.35 3.34 12.7 3 11 C2.7525 11.639375 2.505 12.27875 2.25 12.9375 C1 15 1 15 -1.125 15.75 C-2.053125 15.87375 -2.053125 15.87375 -3 16 C-3.37851209 10.06997733 -2.10575375 5.52760359 0 0 Z " fill="#1F1F1F" transform="translate(648,175)"/>
<path d="M0 0 C0.66 0 1.32 0 2 0 C2 0.66 2 1.32 2 2 C2.99 2.33 3.98 2.66 5 3 C4.34 3 3.68 3 3 3 C3.33 3.66 3.66 4.32 4 5 C4.58333277 9.18055152 4.0022938 11.36881794 1.5625 14.6875 C1.11003906 15.24824219 0.65757812 15.80898437 0.19140625 16.38671875 C-1.20739801 18.10686487 -1.20739801 18.10686487 -2 21 C-5.0625 22.1875 -5.0625 22.1875 -8 23 C-8.33 22.01 -8.66 21.02 -9 20 C-9.66 20 -10.32 20 -11 20 C-10.33501617 15.61110675 -8.81242323 12.0188515 -7 8 C-6.34 8 -5.68 8 -5 8 C-4.34 6.35 -3.68 4.7 -3 3 C-2.34 3 -1.68 3 -1 3 C-0.67 2.01 -0.34 1.02 0 0 Z " fill="#C32941" transform="translate(383,204)"/>
<path d="M0 0 C4.28602114 0.16484697 6.46146021 0.55720062 9.8125 3.3125 C13.17557252 7.44427481 13.17557252 7.44427481 14 10 C13.625 12.25 13.625 12.25 13 14 C12.34 13.01 11.68 12.02 11 11 C9.68 12.32 8.36 13.64 7 15 C6.34 14.67 5.68 14.34 5 14 C5.99 11.03 6.98 8.06 8 5 C6.04366025 2.58878141 6.04366025 2.58878141 2.375 2.875 C0.704375 2.936875 0.704375 2.936875 -1 3 C-0.67 4.98 -0.34 6.96 0 9 C1.32 9 2.64 9 4 9 C3.96519531 9.70640625 3.93039062 10.4128125 3.89453125 11.140625 C3.67899234 19.3105762 4.58348332 26.97251729 5.93286133 35.01855469 C6.66028878 39.40473046 7.17433331 43.53270905 7 48 C6.67 48 6.34 48 6 48 C5.80422363 46.65252686 5.80422363 46.65252686 5.60449219 45.27783203 C5.1118209 41.94690818 4.60318566 38.61925234 4.08349609 35.29248047 C3.86186696 33.85205334 3.64665243 32.41062404 3.43798828 30.96826172 C3.13693633 28.89514092 2.81300409 26.82671768 2.484375 24.7578125 C2.29584961 23.5114502 2.10732422 22.26508789 1.91308594 20.98095703 C1.30623474 17.88884354 1.30623474 17.88884354 -1.09277344 16.57763672 C-2.03685059 16.29170654 -2.03685059 16.29170654 -3 16 C-3 17.65 -3 19.3 -3 21 C-3.33 21 -3.66 21 -4 21 C-4.08165496 18.79229195 -4.13948488 16.58369575 -4.1875 14.375 C-4.23970703 12.53035156 -4.23970703 12.53035156 -4.29296875 10.6484375 C-3.96573355 6.57326854 -2.97849003 2.97849003 0 0 Z " fill="#EF9C46" transform="translate(331,170)"/>
<path d="M0 0 C1.73734147 3.80043446 2 5.59714577 2 10 C-3.94 10 -9.88 10 -16 10 C-15.67 7.03 -15.34 4.06 -15 1 C-10.05183286 -1.80396138 -5.38317715 -0.77350507 0 0 Z " fill="#F5F5F5" transform="translate(526,105)"/>
<path d="M0 0 C1.39195915 4.17587745 -0.17676781 6.13474776 -2 10 C0.64 9.67 3.28 9.34 6 9 C2.77208445 11.1519437 1.71599191 11.20086443 -2 11 C-1.67 11.66 -1.34 12.32 -1 13 C2.3 13 5.6 13 9 13 C5.91330796 16.08669204 5.08072342 16.44855089 1 17 C1.33 18.32 1.66 19.64 2 21 C-1.56739574 23.37826383 -3.87242542 23.38656475 -8.0390625 23.65625 C-9.00972656 23.82640625 -9.00972656 23.82640625 -10 24 C-10.33 24.66 -10.66 25.32 -11 26 C-11.66 25.01 -12.32 24.02 -13 23 C-12.566875 22.484375 -12.13375 21.96875 -11.6875 21.4375 C-10.07045421 19.10176719 -9.08792592 16.83476835 -8.02734375 14.21484375 C-5.73803597 9.27933989 -2.79429363 4.66225979 0 0 Z " fill="#7C2F70" transform="translate(369,246)"/>
<path d="M0 0 C-1.04760926 4.27102236 -1.74892325 7.03162558 -5 10 C-5.13535156 10.60070312 -5.27070313 11.20140625 -5.41015625 11.8203125 C-6.11554937 14.42699702 -7.25298442 16.03691715 -8.875 18.1875 C-9.38804687 18.88230469 -9.90109375 19.57710937 -10.4296875 20.29296875 C-12 22 -12 22 -15 23 C-15 22.01 -15 21.02 -15 20 C-15.99 19.67 -16.98 19.34 -18 19 C-16.81603772 13.51072032 -15.46844653 10.70554103 -11 7 C-10.01 6.67 -9.02 6.34 -8 6 C-7.3162955 4.67532254 -6.65035814 3.34136367 -6 2 C-3 0 -3 0 0 0 Z " fill="#D64731" transform="translate(405,185)"/>
<path d="M0 0 C2.475 0.99 2.475 0.99 5 2 C4.91284983 3.93833996 4.80467036 5.8757429 4.6875 7.8125 C4.62949219 8.89144531 4.57148438 9.97039062 4.51171875 11.08203125 C3.96859128 14.17910163 3.5389653 15.21332071 1 17 C0.34 17 -0.32 17 -1 17 C-1 17.66 -1 18.32 -1 19 C-2.32 19 -3.64 19 -5 19 C-6.12862175 13.63904667 -6.09688221 8.44693314 -6 3 C-5.01 3 -4.02 3 -3 3 C-1.31201173 1.56249809 -1.31201173 1.56249809 0 0 Z " fill="#CF3B36" transform="translate(342,193)"/>
<path d="M0 0 C0.66 0.99 1.32 1.98 2 3 C2.99 3 3.98 3 5 3 C3.57250019 6.79049707 1.83763458 10.27122456 -0.125 13.8125 C-0.93324219 15.27623047 -0.93324219 15.27623047 -1.7578125 16.76953125 C-2.16773438 17.50558594 -2.57765625 18.24164063 -3 19 C-6.84375 17.28125 -6.84375 17.28125 -8.25 14.75 C-9.08992811 11.6702636 -9.28248774 9.17798713 -9 6 C-8.34 5.34 -7.68 4.68 -7 4 C-5.68 4 -4.36 4 -3 4 C-2.67 3.01 -2.34 2.02 -2 1 C-1.34 0.67 -0.68 0.34 0 0 Z " fill="#7E2A71" transform="translate(358,250)"/>
<path d="M0 0 C4.29 0 8.58 0 13 0 C12.54177532 3.46941546 12.10868317 6.67395049 11 10 C10.34 10 9.68 10 9 10 C8.67 10.99 8.34 11.98 8 13 C7.34 13 6.68 13 6 13 C5.67 13.99 5.34 14.98 5 16 C4.731875 15.030625 4.46375 14.06125 4.1875 13.0625 C3.795625 12.051875 3.40375 11.04125 3 10 C2.01 9.67 1.02 9.34 0 9 C0.33 8.34 0.66 7.68 1 7 C0.01 6.01 -0.98 5.02 -2 4 C-1.34 2.68 -0.68 1.36 0 0 Z " fill="#E57227" transform="translate(407,191)"/>
<path d="M0 0 C3.45854519 3.45854519 4 7.21904213 4 12 C4.66 12 5.32 12 6 12 C6.09796875 12.77085937 6.1959375 13.54171875 6.296875 14.3359375 C6.44640625 15.33882813 6.5959375 16.34171875 6.75 17.375 C6.88921875 18.37273437 7.0284375 19.37046875 7.171875 20.3984375 C7.74386889 23.14561047 7.74386889 23.14561047 10.078125 24.3515625 C10.71234375 24.56554687 11.3465625 24.77953125 12 25 C11.85892253 26.45880109 11.71197585 27.91703551 11.5625 29.375 C11.48128906 30.18710937 11.40007812 30.99921875 11.31640625 31.8359375 C11 34 11 34 10 36 C9.505 34.515 9.505 34.515 9 33 C7.68 33.66 6.36 34.32 5 35 C5.33 32.69 5.66 30.38 6 28 C4.68 28 3.36 28 2 28 C2 27.34 2 26.68 2 26 C1.34 26 0.68 26 0 26 C0 25.34 0 24.68 0 24 C0.66 24 1.32 24 2 24 C1.67 22.68 1.34 21.36 1 20 C1.66 20 2.32 20 3 20 C4.2712354 16.1862938 3.44000208 14.84471943 2.0625 11.125 C0.62039719 7.22398968 -0.25398144 4.17145279 0 0 Z " fill="#BD95AF" transform="translate(343,244)"/>
<path d="M0 0 C2.475 0.99 2.475 0.99 5 2 C6.10087193 9.01805857 6.09733092 15.90565767 6 23 C4.35 23 2.7 23 1 23 C-0.58926449 15.15300658 -1.92133707 7.92551542 0 0 Z " fill="#D74A2D" transform="translate(328,186)"/>
<path d="M0 0 C2.39842391 3.59763586 2.92800233 6.76013747 3 11 C2.3125 14.4375 2.3125 14.4375 1 17 C-1.08203125 17.66015625 -1.08203125 17.66015625 -3 18 C-4.17122859 12.34853777 -5.25339288 6.72398793 -6 1 C-5.34 1 -4.68 1 -4 1 C-4 1.66 -4 2.32 -4 3 C-2.68 3 -1.36 3 0 3 C0 2.01 0 1.02 0 0 Z " fill="#C42137" transform="translate(335,210)"/>
<path d="M0 0 C0.66 0.33 1.32 0.66 2 1 C2.05382106 3.62527189 2.09358313 6.24944713 2.125 8.875 C2.14175781 9.62136719 2.15851563 10.36773437 2.17578125 11.13671875 C2.1933959 13.09194461 2.10320189 15.04742021 2 17 C1.34 17.66 0.68 18.32 0 19 C-0.16677282 22.58343976 -0.16677282 22.58343976 0 26 C-1.32 26 -2.64 26 -4 26 C-4.33 26.99 -4.66 27.98 -5 29 C-5.99 28.67 -6.98 28.34 -8 28 C-8.33 25.69 -8.66 23.38 -9 21 C-7.35 21 -5.7 21 -4 21 C-1.51203563 16.18993556 -0.78505756 12.22446776 -0.4375 6.8125 C-0.35371094 5.54019531 -0.26992188 4.26789063 -0.18359375 2.95703125 C-0.12300781 1.98121094 -0.06242187 1.00539062 0 0 Z " fill="#AC3E5E" transform="translate(355,228)"/>
<path d="M0 0 C1.54753747 2.9134075 2.66269331 5.78327253 3.625 8.9375 C3.88539063 9.77152344 4.14578125 10.60554687 4.4140625 11.46484375 C5.01494131 14.06464605 5.10462243 16.34163909 5 19 C4.34 18.34 3.68 17.68 3 17 C3 16.01 3 15.02 3 14 C-0.54518884 15.39759905 -0.54518884 15.39759905 -4 17 C-4.144375 15.88625 -4.28875 14.7725 -4.4375 13.625 C-4.78372035 10.17857953 -4.78372035 10.17857953 -6 8 C-4.68 7.67 -3.36 7.34 -2 7 C-2.061875 5.824375 -2.061875 5.824375 -2.125 4.625 C-2 2 -2 2 0 0 Z " fill="#CC566C" transform="translate(338,220)"/>
<path d="M0 0 C1.23512958 2.91939719 0.98072075 4.05670368 -0.0625 7.125 C-2.39414359 10.58485823 -4.00377939 11.11195098 -8 12 C-8.33 11.01 -8.66 10.02 -9 9 C-9.66 9 -10.32 9 -11 9 C-10.875 6.75 -10.875 6.75 -10 4 C-6.35345986 1.00173367 -4.78447394 0 0 0 Z " fill="#C32138" transform="translate(383,215)"/>
<path d="M0 0 C0 4.13712787 -1.91564033 5.31548895 -4.6875 8.18359375 C-6.39045431 10.16686434 -6.39045431 10.16686434 -6 14 C-6.66 14 -7.32 14 -8 14 C-8 14.66 -8 15.32 -8 16 C-9.32 16 -10.64 16 -12 16 C-12.2475 16.598125 -12.495 17.19625 -12.75 17.8125 C-14.16370012 20.28647521 -15.65055383 21.43370255 -18 23 C-16.78298156 20.23404899 -15.24859154 17.95984082 -13.4375 15.5625 C-11.37438374 12.7469531 -10.32239635 10.54635989 -10 7 C-9.01 6.67 -8.02 6.34 -7 6 C-6.67 4.35 -6.34 2.7 -6 1 C-5.34 1 -4.68 1 -4 1 C-4 1.66 -4 2.32 -4 3 C-2.68 2.01 -1.36 1.02 0 0 Z " fill="#DD8A74" transform="translate(410,186)"/>
<path d="M0 0 C0.66 0 1.32 0 2 0 C1.05887977 6.26587945 0.06466923 11.04618438 -4 16 C-4.66 16.33 -5.32 16.66 -6 17 C-7.13350534 19.01669827 -7.13350534 19.01669827 -8 21 C-8.66 20.67 -9.32 20.34 -10 20 C-10 18.02 -10 16.04 -10 14 C-7.35261084 12.5393715 -6.10551666 12 -3 12 C-3.33 11.01 -3.66 10.02 -4 9 C-4.66 8.67 -5.32 8.34 -6 8 C-6 7.34 -6 6.68 -6 6 C-6.66 5.67 -7.32 5.34 -8 5 C-4.77208445 2.8480563 -3.71599191 2.79913557 0 3 C0 2.01 0 1.02 0 0 Z " fill="#C74F5C" transform="translate(408,207)"/>
<path d="M0 0 C3.96 0 7.92 0 12 0 C12 0.99 12 1.98 12 3 C10.35 3 8.7 3 7 3 C6.34 7.29 5.68 11.58 5 16 C4.01 16 3.02 16 2 16 C1.92345464 11.48382401 1.89771304 7.40914783 3 3 C2.01 3 1.02 3 0 3 C0 2.01 0 1.02 0 0 Z " fill="#222222" transform="translate(633,175)"/>
<path d="M0 0 C2.31 0 4.62 0 7 0 C5.58226538 3.54433654 4.32387762 4.33806119 1 6 C0.731875 6.61875 0.46375 7.2375 0.1875 7.875 C-1.72687956 11.30073185 -4.50071781 12.31284609 -8 14 C-8.66 13.67 -9.32 13.34 -10 13 C-7.25 6.125 -7.25 6.125 -5 5 C-4.67 5.66 -4.34 6.32 -4 7 C-1.49962266 4.82575883 -0.56371414 3.26954202 0 0 Z " fill="#B83755" transform="translate(385,241)"/>
<path d="M0 0 C1.234375 1.72265625 1.234375 1.72265625 2 4 C1.3203125 6.578125 1.3203125 6.578125 0.125 9.25 C-0.26429688 10.14203125 -0.65359375 11.0340625 -1.0546875 11.953125 C-1.36664063 12.62859375 -1.67859375 13.3040625 -2 14 C-2.33 14 -2.66 14 -3 14 C-3 11.36 -3 8.72 -3 6 C-4.32 6 -5.64 6 -7 6 C-7.33 4.02 -7.66 2.04 -8 0 C-4.99135897 -0.96706319 -2.94639752 -1.27677226 0 0 Z " fill="#F59425" transform="translate(338,173)"/>
<path d="M0 0 C2.475 0.99 2.475 0.99 5 2 C4.67 5.3 4.34 8.6 4 12 C2 11 2 11 1 8 C-0.98 8.33 -2.96 8.66 -5 9 C-5.33 7.02 -5.66 5.04 -6 3 C-5.01 3 -4.02 3 -3 3 C-1.31201173 1.56249809 -1.31201173 1.56249809 0 0 Z " fill="#DB542D" transform="translate(342,193)"/>
<path d="M0 0 C0.12375 0.61875 0.2475 1.2375 0.375 1.875 C0.87197356 4.19120832 0.87197356 4.19120832 3 6 C-0.31371 8.20914 -1.3446021 8.22481553 -5.1875 8.125 C-6.08855469 8.10695312 -6.98960937 8.08890625 -7.91796875 8.0703125 C-8.60503906 8.04710937 -9.29210937 8.02390625 -10 8 C-9.57692877 6.68277821 -9.13602514 5.37127336 -8.6875 4.0625 C-8.44386719 3.33160156 -8.20023437 2.60070312 -7.94921875 1.84765625 C-6.0994214 -1.75297811 -3.32378817 -1.03152047 0 0 Z " fill="#D4412F" transform="translate(402,206)"/>
<path d="M0 0 C1.65 0.33 3.3 0.66 5 1 C5.33 3.64 5.66 6.28 6 9 C4.66666667 7 3.33333333 5 2 3 C1.01 4.485 1.01 4.485 0 6 C0.99 6 1.98 6 3 6 C2.34 8.97 1.68 11.94 1 15 C-0.32 15.33 -1.64 15.66 -3 16 C-3.37851209 10.06997733 -2.10575375 5.52760359 0 0 Z " fill="#333334" transform="translate(648,175)"/>
<path d="M0 0 C-0.66 2.31 -1.32 4.62 -2 7 C-4.31 7 -6.62 7 -9 7 C-9.33 8.98 -9.66 10.96 -10 13 C-10.99 13 -11.98 13 -13 13 C-13.99 13.33 -14.98 13.66 -16 14 C-16 12 -16 12 -13.6875 9.4375 C-11 7 -11 7 -8 6 C-7.3162955 4.67532254 -6.65035814 3.34136367 -6 2 C-3 0 -3 0 0 0 Z " fill="#E07534" transform="translate(405,185)"/>
<path d="M0 0 C2.475 0.99 2.475 0.99 5 2 C5.36567164 8.460199 5.36567164 8.460199 3.6875 10.9375 C2 12 2 12 -1 12 C-1.08159574 7.83861737 -0.98248524 4.0527516 0 0 Z " fill="#DD6428" transform="translate(328,186)"/>
<path d="M0 0 C0.99 0 1.98 0 3 0 C2.96519531 0.63421875 2.93039062 1.2684375 2.89453125 1.921875 C2.66636095 9.78831766 3.64172512 17.23406419 4.93286133 24.96777344 C5.65834584 29.36982206 6.17520206 33.51774741 6 38 C5.67 38 5.34 38 5 38 C2.4775362 25.32282263 0.37075725 12.93942804 0 0 Z " fill="#EFB68F" transform="translate(332,180)"/>
<path d="M0 0 C4.2523578 0.25013869 6.47564781 0.56886598 9.8125 3.3125 C13.17557252 7.44427481 13.17557252 7.44427481 14 10 C13.625 12.25 13.625 12.25 13 14 C12.34 13.01 11.68 12.02 11 11 C9.68 12.32 8.36 13.64 7 15 C6.34 14.67 5.68 14.34 5 14 C5.99 11.03 6.98 8.06 8 5 C5.64031256 2.90250005 4.45383006 2.03094296 1.25 1.8125 C0.5075 1.874375 -0.235 1.93625 -1 2 C-0.67 1.34 -0.34 0.68 0 0 Z " fill="#EFA357" transform="translate(331,170)"/>
<path d="M0 0 C0.99 0.33 1.98 0.66 3 1 C3 1.66 3 2.32 3 3 C4.32 3.66 5.64 4.32 7 5 C6.85892253 6.45880109 6.71197585 7.91703551 6.5625 9.375 C6.48128906 10.18710937 6.40007812 10.99921875 6.31640625 11.8359375 C6 14 6 14 5 16 C4.67 15.01 4.34 14.02 4 13 C2.02 13.99 2.02 13.99 0 15 C0.185625 14.01 0.37125 13.02 0.5625 12 C1.17661683 7.82912322 0.65520905 4.14965731 0 0 Z " fill="#9B7F97" transform="translate(348,264)"/>
<path d="M0 0 C2.97 0.495 2.97 0.495 6 1 C6.06058594 1.61488281 6.12117188 2.22976562 6.18359375 2.86328125 C6.26738281 3.67152344 6.35117187 4.47976562 6.4375 5.3125 C6.51871094 6.11300781 6.59992188 6.91351563 6.68359375 7.73828125 C6.95265693 10.16087179 6.95265693 10.16087179 8 13 C6.35 13.66 4.7 14.32 3 15 C3.66 11.37 4.32 7.74 5 4 C2.03 3.505 2.03 3.505 -1 3 C-0.67 2.01 -0.34 1.02 0 0 Z M-3 1 C-2.34 1.99 -1.68 2.98 -1 4 C-2.32 4.99 -3.64 5.98 -5 7 C-5 6.01 -5 5.02 -5 4 C-4.34 4 -3.68 4 -3 4 C-3 3.01 -3 2.02 -3 1 Z " fill="#E1612A" transform="translate(342,191)"/>
<path d="M0 0 C0.66 0.33 1.32 0.66 2 1 C2 1.99 2 2.98 2 4 C2.66 4 3.32 4 4 4 C4.33 6.64 4.66 9.28 5 12 C3.66666667 10 2.33333333 8 1 6 C-0.65 6.33 -2.3 6.66 -4 7 C-4 7.66 -4 8.32 -4 9 C-4.99 8.67 -5.98 8.34 -7 8 C-6 5 -6 5 -4.0625 4 C-3.0415625 3.505 -3.0415625 3.505 -2 3 C-1.34 2.01 -0.68 1.02 0 0 Z " fill="#E47E34" transform="translate(342,180)"/>
<path d="M0 0 C1.39195915 4.17587745 -0.17676781 6.13474776 -2 10 C0.64 9.67 3.28 9.34 6 9 C2.77208445 11.1519437 1.71599191 11.20086443 -2 11 C-1.67 11.99 -1.34 12.98 -1 14 C-3.97 13.505 -3.97 13.505 -7 13 C-6.02325896 11.01963514 -5.04354018 9.04073867 -4.0625 7.0625 C-3.51722656 5.96035156 -2.97195313 4.85820312 -2.41015625 3.72265625 C-1 1 -1 1 0 0 Z " fill="#9C3A64" transform="translate(369,246)"/>
<path d="M0 0 C0.33 0 0.66 0 1 0 C1.33 3.63 1.66 7.26 2 11 C3.65 11 5.3 11 7 11 C7 8.69 7 6.38 7 4 C7.33 4 7.66 4 8 4 C9.125 11.625 9.125 11.625 8 15 C6.68 15 5.36 15 4 15 C4 14.34 4 13.68 4 13 C2.68 12.34 1.36 11.68 0 11 C0 7.37 0 3.74 0 0 Z " fill="#C94E4A" transform="translate(327,198)"/>
<path d="M0 0 C2.35953094 2.35953094 2.49141413 3.77895617 3 7 C2.34 7 1.68 7 1 7 C1 7.66 1 8.32 1 9 C-3.75 8.25 -3.75 8.25 -6 6 C-5.34 5.67 -4.68 5.34 -4 5 C-4.33 4.01 -4.66 3.02 -5 2 C-3.35 1.34 -1.7 0.68 0 0 Z " fill="#8B467A" transform="translate(345,255)"/>
<path d="M0 0 C0.99 0 1.98 0 3 0 C6.28571429 8.42857143 6.28571429 8.42857143 7 13 C5.68 13.33 4.36 13.66 3 14 C2.67 10.7 2.34 7.4 2 4 C1.01 4 0.02 4 -1 4 C-0.67 2.68 -0.34 1.36 0 0 Z " fill="#19191A" transform="translate(649,177)"/>
<path d="M0 0 C0.33 0.99 0.66 1.98 1 3 C2.65 3.33 4.3 3.66 6 4 C6.33 3.01 6.66 2.02 7 1 C7.33 1.99 7.66 2.98 8 4 C4.43260426 6.37826383 2.12757458 6.38656475 -2.0390625 6.65625 C-3.00972656 6.82640625 -3.00972656 6.82640625 -4 7 C-4.33 7.66 -4.66 8.32 -5 9 C-5.66 8.01 -6.32 7.02 -7 6 C-4.9859524 2.9789286 -3.36720387 1.39332574 0 0 Z " fill="#885481" transform="translate(363,263)"/>
<path d="M0 0 C2 2 2 2 2.125 4.625 C2.08375 5.40875 2.0425 6.1925 2 7 C-0.375 7.625 -0.375 7.625 -3 8 C-3.66 7.34 -4.32 6.68 -5 6 C-4.625 3.375 -4.625 3.375 -4 1 C-2.125 0.375 -2.125 0.375 0 0 Z " fill="#9B295B" transform="translate(343,249)"/>
<path d="M0 0 C0.99 0 1.98 0 3 0 C3.25 2.75 3.25 2.75 3 6 C1 8.375 1 8.375 -1 10 C-3 7 -3 7 -2.75 4.4375 C-2 2 -2 2 0 0 Z " fill="#B51B40" transform="translate(337,234)"/>
<path d="M0 0 C0.99 0 1.98 0 3 0 C3 0.66 3 1.32 3 2 C4.32 1.34 5.64 0.68 7 0 C7.66 1.32 8.32 2.64 9 4 C5.86501708 5.85776765 3.62528568 6.20140476 0 6 C0 4.02 0 2.04 0 0 Z " fill="#D2452C" transform="translate(336,200)"/>
<path d="M0 0 C2.31 0.33 4.62 0.66 7 1 C7 2.32 7 3.64 7 5 C6.34 5 5.68 5 5 5 C4.67 5.99 4.34 6.98 4 8 C3.01 7.67 2.02 7.34 1 7 C0.67 4.69 0.34 2.38 0 0 Z " fill="#962358" transform="translate(346,249)"/>
<path d="M0 0 C0.66 0 1.32 0 2 0 C1.34 3.3 0.68 6.6 0 10 C-0.33 9.34 -0.66 8.68 -1 8 C-2.65 8 -4.3 8 -6 8 C-6 7.34 -6 6.68 -6 6 C-6.66 5.67 -7.32 5.34 -8 5 C-4.77208445 2.8480563 -3.71599191 2.79913557 0 3 C0 2.01 0 1.02 0 0 Z " fill="#D3695D" transform="translate(408,207)"/>
<path d="M0 0 C2.31 0 4.62 0 7 0 C6.34 2.31 5.68 4.62 5 7 C4.34 7 3.68 7 3 7 C2.67 7.99 2.34 8.98 2 10 C1.34 10 0.68 10 0 10 C-0.33 10.99 -0.66 11.98 -1 13 C-1 11.35 -1 9.7 -1 8 C-0.34 8 0.32 8 1 8 C1.33 5.69 1.66 3.38 2 1 C1.34 0.67 0.68 0.34 0 0 Z " fill="#DE8148" transform="translate(413,194)"/>
<path d="M0 0 C0 3.54404336 -0.60989485 4.10267905 -2.875 6.6875 C-3.40867187 7.31011719 -3.94234375 7.93273437 -4.4921875 8.57421875 C-6 10 -6 10 -8 10 C-8 9.34 -8 8.68 -8 8 C-8.66 7.67 -9.32 7.34 -10 7 C-9.01 6.67 -8.02 6.34 -7 6 C-6.67 4.35 -6.34 2.7 -6 1 C-5.34 1 -4.68 1 -4 1 C-4 1.66 -4 2.32 -4 3 C-2.68 2.01 -1.36 1.02 0 0 Z " fill="#E98D53" transform="translate(410,186)"/>
<path d="M0 0 C1.65 0 3.3 0 5 0 C4.34 2.31 3.68 4.62 3 7 C1.35 7.33 -0.3 7.66 -2 8 C-1.34 5.36 -0.68 2.72 0 0 Z " fill="#DD5B27" transform="translate(396,192)"/>
<path d="M0 0 C0.33 0.99 0.66 1.98 1 3 C-0.28189588 5.03335209 -1.62156808 7.03081154 -3 9 C-3.33 9.86625 -3.66 10.7325 -4 11.625 C-5.1801391 14.42783036 -6.75749414 15.98174472 -9 18 C-8.29348082 14.02582964 -6.42199657 10.82959618 -4.5 7.3125 C-3.8709375 6.15363281 -3.241875 4.99476563 -2.59375 3.80078125 C-1 1 -1 1 0 0 Z " fill="#E6D8E3" transform="translate(364,252)"/>
<path d="M0 0 C0.33 0.99 0.66 1.98 1 3 C0.34 3.66 -0.32 4.32 -1 5 C-1.12375 6.155 -1.2475 7.31 -1.375 8.5 C-1.684375 10.2325 -1.684375 10.2325 -2 12 C-4.0390625 13.21875 -4.0390625 13.21875 -6 14 C-5.05944297 8.31953056 -4.13782924 4.27575688 0 0 Z " fill="#CD7489" transform="translate(380,225)"/>
<path d="M0 0 C0.33 0 0.66 0 1 0 C1.12375 1.010625 1.2475 2.02125 1.375 3.0625 C1.97413938 6.8370781 2.92320764 10.33890597 4 14 C4 14.66 4 15.32 4 16 C3.01 16 2.02 16 1 16 C1 14.02 1 12.04 1 10 C0.01 9.67 -0.98 9.34 -2 9 C-1.34 6.03 -0.68 3.06 0 0 Z " fill="#CC7886" transform="translate(351,207)"/>
<path d="M0 0 C2.35953094 2.35953094 2.49141413 3.77895617 3 7 C2.34 7 1.68 7 1 7 C0.67 7.66 0.34 8.32 0 9 C-0.99 9 -1.98 9 -3 9 C-2.5020163 5.26512223 -2.12508244 3.18762365 0 0 Z " fill="#AB2048" transform="translate(373,239)"/>
<path d="M0 0 C1.258125 -0.04125 2.51625 -0.0825 3.8125 -0.125 C4.52019531 -0.14820313 5.22789062 -0.17140625 5.95703125 -0.1953125 C8 0 8 0 11 2 C11 2.99 11 3.98 11 5 C10.01 5.33 9.02 5.66 8 6 C7.34 4.68 6.68 3.36 6 2 C4.35 2 2.7 2 1 2 C0.67 1.34 0.34 0.68 0 0 Z " fill="#C92332" transform="translate(394,214)"/>
<path d="M0 0 C0.33 0.66 0.66 1.32 1 2 C1.99 2.33 2.98 2.66 4 3 C3.34 3 2.68 3 2 3 C2.33 5.31 2.66 7.62 3 10 C2.67 9.34 2.34 8.68 2 8 C0.68 8 -0.64 8 -2 8 C-1.125 2.25 -1.125 2.25 0 0 Z " fill="#C52131" transform="translate(384,204)"/>
<path d="M0 0 C0 5.48231797 -4.73336121 9.66669601 -8.375 13.5 C-8.91125 13.995 -9.4475 14.49 -10 15 C-9.3928642 11.35718519 -7.85769366 9.22848401 -5.5625 6.375 C-4.94503906 5.59898437 -4.32757813 4.82296875 -3.69140625 4.0234375 C-2 2 -2 2 0 0 Z " fill="#E4B3BA" transform="translate(391,210)"/>
<path d="M0 0 C2.475 0.99 2.475 0.99 5 2 C4.67 3.98 4.34 5.96 4 8 C1.525 7.01 1.525 7.01 -1 6 C-0.67 4.02 -0.34 2.04 0 0 Z " fill="#E0732B" transform="translate(328,186)"/>
<path d="M0 0 C-0.33 1.65 -0.66 3.3 -1 5 C-1.99 5 -2.98 5 -4 5 C-4.99 5.33 -5.98 5.66 -7 6 C-5.81636731 2.44910192 -3.99368042 0 0 0 Z M-9 6 C-8.34 6 -7.68 6 -7 6 C-8.75 9.875 -8.75 9.875 -11 11 C-10.34 9.35 -9.68 7.7 -9 6 Z " fill="#C22230" transform="translate(350,204)"/>
<path d="M0 0 C0.66 0.33 1.32 0.66 2 1 C-0.475 5.455 -0.475 5.455 -3 10 C-4.32 9.34 -5.64 8.68 -7 8 C-7 7.34 -7 6.68 -7 6 C-5.35 5.67 -3.7 5.34 -2 5 C-2 4.01 -2 3.02 -2 2 C-1.34 2 -0.68 2 0 2 C0 1.34 0 0.68 0 0 Z " fill="#773D72" transform="translate(358,259)"/>
<path d="M0 0 C0.66 0.99 1.32 1.98 2 3 C2.99 3 3.98 3 5 3 C4.34 4.65 3.68 6.3 3 8 C0 7 0 7 -1.1875 4.9375 C-1.5896875 3.9784375 -1.5896875 3.9784375 -2 3 C-1.34 2.01 -0.68 1.02 0 0 Z " fill="#842B63" transform="translate(358,250)"/>
<path d="M0 0 C0.99 0.33 1.98 0.66 3 1 C2.34 3.97 1.68 6.94 1 10 C0.34 10 -0.32 10 -1 10 C-0.67 6.7 -0.34 3.4 0 0 Z " fill="#323232" transform="translate(661,181)"/>
<path d="M0 0 C0.66 0 1.32 0 2 0 C1.38461538 6.52307692 1.38461538 6.52307692 -0.5625 8.9375 C-1.036875 9.288125 -1.51125 9.63875 -2 10 C-2.33 8.02 -2.66 6.04 -3 4 C-2.34 4 -1.68 4 -1 4 C-0.67 2.68 -0.34 1.36 0 0 Z " fill="#C14355" transform="translate(395,228)"/>
<path d="M0 0 C0.33 0 0.66 0 1 0 C1.06058594 0.61488281 1.12117188 1.22976562 1.18359375 1.86328125 C1.26738281 2.67152344 1.35117187 3.47976562 1.4375 4.3125 C1.51871094 5.11300781 1.59992188 5.91351563 1.68359375 6.73828125 C1.95265693 9.16087179 1.95265693 9.16087179 3 12 C1.35 12.66 -0.3 13.32 -2 14 C-1.34 9.38 -0.68 4.76 0 0 Z " fill="#D27D76" transform="translate(347,192)"/>
<path d="M0 0 C1.485 0.99 1.485 0.99 3 2 C2.67 3.65 2.34 5.3 2 7 C2.99 7.33 3.98 7.66 5 8 C4.01 8.495 4.01 8.495 3 9 C2.34444881 11.52733235 2.34444881 11.52733235 2 14 C1.67 14 1.34 14 1 14 C0.67 9.38 0.34 4.76 0 0 Z " fill="#D96E3E" transform="translate(334,187)"/>
<path d="M0 0 C1.65 0.33 3.3 0.66 5 1 C5.33 3.64 5.66 6.28 6 9 C4.66666667 7 3.33333333 5 2 3 C1.01 3.99 0.02 4.98 -1 6 C-0.67 4.02 -0.34 2.04 0 0 Z " fill="#3D3D3D" transform="translate(648,175)"/>
<path d="M0 0 C0.68707555 2.49064888 1 4.37886292 1 7 C-0.65 7.66 -2.3 8.32 -4 9 C-3.52418802 7.68628013 -3.04424851 6.37405454 -2.5625 5.0625 C-2.29566406 4.33160156 -2.02882813 3.60070312 -1.75390625 2.84765625 C-1 1 -1 1 0 0 Z " fill="#AC3258" transform="translate(379,246)"/>
<path d="M0 0 C0.66 0.33 1.32 0.66 2 1 C1.34 2.98 0.68 4.96 0 7 C-0.99 7 -1.98 7 -3 7 C-3.99 7.33 -4.98 7.66 -6 8 C-6 6 -6 6 -3.5625 3.4375 C-2.716875 2.633125 -1.87125 1.82875 -1 1 C-0.67 0.67 -0.34 0.34 0 0 Z " fill="#D56A4C" transform="translate(395,191)"/>
<path d="M0 0 C0.66 0.33 1.32 0.66 2 1 C1.34 3.31 0.68 5.62 0 8 C-1.32 8 -2.64 8 -4 8 C-2.87548273 5.0280615 -1.77706209 2.66559313 0 0 Z " fill="#C55468" transform="translate(372,218)"/>
<path d="M0 0 C1 2 1 2 0.0625 5.125 C-0.288125 6.07375 -0.63875 7.0225 -1 8 C-2.32 8 -3.64 8 -5 8 C-4.34 6.35 -3.68 4.7 -3 3 C-2.34 3 -1.68 3 -1 3 C-0.67 2.01 -0.34 1.02 0 0 Z " fill="#BD475A" transform="translate(383,204)"/>
<path d="M0 0 C0.66 1.32 1.32 2.64 2 4 C0.68 5.32 -0.64 6.64 -2 8 C-2.125 5.125 -2.125 5.125 -2 2 C-1.34 1.34 -0.68 0.68 0 0 Z " fill="#E8D4DC" transform="translate(356,245)"/>
<path d="M0 0 C0.33 0 0.66 0 1 0 C1.08886184 3.19902639 0.91058531 5.92677456 0 9 C-1.32 8.34 -2.64 7.68 -4 7 C-2.68 4.69 -1.36 2.38 0 0 Z " fill="#C12443" transform="translate(382,224)"/>
<path d="M0 0 C0.33 0 0.66 0 1 0 C0.67 3.3 0.34 6.6 0 10 C-0.66 9.01 -1.32 8.02 -2 7 C-2.99 7.495 -2.99 7.495 -4 8 C-2.87548273 5.0280615 -1.77706209 2.66559313 0 0 Z " fill="#D8D8D8" transform="translate(660,181)"/>
<path d="M0 0 C0.66 1.32 1.32 2.64 2 4 C1.34 4 0.68 4 0 4 C0 4.66 0 5.32 0 6 C-0.99 6 -1.98 6 -3 6 C-2.625 3.5625 -2.625 3.5625 -2 1 C-1.34 0.67 -0.68 0.34 0 0 Z " fill="#772C6A" transform="translate(346,258)"/>
<path d="M0 0 C0.99 0.33 1.98 0.66 3 1 C3.33 2.65 3.66 4.3 4 6 C3.01 6.33 2.02 6.66 1 7 C0.67 4.69 0.34 2.38 0 0 Z " fill="#A73763" transform="translate(346,249)"/>
<path d="M0 0 C1.10844919 3.32534757 0.84454356 5.62182575 0 9 C-0.66 9 -1.32 9 -2 9 C-1.125 2.25 -1.125 2.25 0 0 Z " fill="#B01B43" transform="translate(354,234)"/>
<path d="M0 0 C0.6875 1.75 0.6875 1.75 1 4 C-0.4375 6.25 -0.4375 6.25 -2 8 C-2 7.01 -2 6.02 -2 5 C-2.99 4.67 -3.98 4.34 -5 4 C-4.34 3.34 -3.68 2.68 -3 2 C-2.01 2.33 -1.02 2.66 0 3 C0 2.01 0 1.02 0 0 Z " fill="#F09E53" transform="translate(422,186)"/>
<path d="M0 0 C0.66 0.33 1.32 0.66 2 1 C0.35 2.98 -1.3 4.96 -3 7 C-4.32 6.34 -5.64 5.68 -7 5 C-4.69 3.35 -2.38 1.7 0 0 Z " fill="#333333" transform="translate(579,180)"/>
<path d="M0 0 C0.99 0.33 1.98 0.66 3 1 C2.34 2.65 1.68 4.3 1 6 C0.01 6 -0.98 6 -2 6 C-2.33 5.34 -2.66 4.68 -3 4 C-2.01 4 -1.02 4 0 4 C0 2.68 0 1.36 0 0 Z " fill="#3B3B3B" transform="translate(657,180)"/>
<path d="M0 0 C-2.87949147 2.23960447 -5.76742026 4.29864224 -9 6 C-9.66 5.67 -10.32 5.34 -11 5 C-4.85714286 -0.71428571 -4.85714286 -0.71428571 0 0 Z " fill="#EEB16E" transform="translate(419,174)"/>
<path d="M0 0 C0.99 0.33 1.98 0.66 3 1 C4.1875 4.0625 4.1875 4.0625 5 7 C4.01 7.495 4.01 7.495 3 8 C0 2.25 0 2.25 0 0 Z " fill="#E1D3DF" transform="translate(348,264)"/>
<path d="M0 0 C0.66 0.33 1.32 0.66 2 1 C1.67 2.65 1.34 4.3 1 6 C0.01 6 -0.98 6 -2 6 C-1.34 4.02 -0.68 2.04 0 0 Z " fill="#85497B" transform="translate(347,265)"/>
<path d="M0 0 C1.98 0.66 3.96 1.32 6 2 C6 2.66 6 3.32 6 4 C4.02 4 2.04 4 0 4 C0 2.68 0 1.36 0 0 Z " fill="#DC4B28" transform="translate(402,206)"/>
</svg>
