<?xml version="1.0" encoding="UTF-8"?>
<svg version="1.1" xmlns="http://www.w3.org/2000/svg" width="1024" height="1024">
<path d="M0 0 C1.96352178 -0.00187214 3.92704319 -0.00417444 5.89056402 -0.00686532 C11.24470407 -0.01293998 16.5988284 -0.01285488 21.9529711 -0.01167095 C27.74395397 -0.01146583 33.53493193 -0.01699623 39.32591248 -0.02172852 C50.65664483 -0.03001204 61.98737199 -0.03278232 73.31810712 -0.03334089 C82.53566594 -0.03381719 91.75322305 -0.0358776 100.97078133 -0.03904152 C103.63144368 -0.0399361 106.29210603 -0.04082772 108.95276839 -0.0417164 C109.61436644 -0.04193744 110.27596449 -0.04215849 110.95761096 -0.04238624 C129.54954727 -0.04853439 148.141483 -0.05248743 166.73342037 -0.05204296 C167.78332681 -0.05201959 167.78332681 -0.05201959 168.85444348 -0.05199575 C172.4013852 -0.05191266 175.94832692 -0.05181362 179.49526864 -0.05171105 C180.19960349 -0.0516911 180.90393834 -0.05167115 181.62961667 -0.05165061 C183.05395233 -0.05161017 184.478288 -0.05156837 185.90262367 -0.05152521 C208.0457305 -0.05091294 230.18882199 -0.05841276 252.33192444 -0.07209778 C277.25634617 -0.08749567 302.18075783 -0.09606176 327.10518461 -0.09513456 C340.28437284 -0.09476533 353.46354452 -0.09750941 366.64272881 -0.10831261 C377.86617966 -0.1174542 389.08960539 -0.11956301 400.31305837 -0.11280318 C406.02956147 -0.10955624 411.74601646 -0.1094146 417.46251488 -0.11815643 C487.63859486 -0.21853437 549.50106245 9.87224307 602.13539124 60.13371277 C602.79023499 60.73570496 603.44507874 61.33769714 604.11976624 61.95793152 C637.65140756 93.6533163 656.28287602 143.03950599 660.13539124 188.13371277 C660.2587177 189.49893434 660.2587177 189.49893434 660.38453561 190.89173615 C661.23256375 201.29280627 661.27843881 211.63895558 661.269104 222.06825256 C661.27097524 224.06375932 661.27327718 226.05926572 661.27596933 228.05477154 C661.28205533 233.50657341 661.28195752 238.95835987 661.28077495 244.41016436 C661.28057013 250.30273198 661.28609754 256.19529476 661.29083252 262.08786011 C661.2991225 273.62173364 661.30188663 285.15560206 661.3024449 296.68947832 C661.30290553 306.07156726 661.30496952 315.45365455 661.30814552 324.83574295 C661.30904316 327.54244427 661.30993297 330.24914559 661.3108204 332.95584691 C661.31104145 333.62886832 661.3112625 334.30188973 661.31149024 334.99530572 C661.31763998 353.9130379 661.32159127 372.83076951 661.32114697 391.74850273 C661.32113139 392.46096049 661.32111581 393.17341825 661.32109976 393.90746564 C661.32101666 397.51796937 661.32091762 401.12847309 661.32081505 404.73897682 C661.32078513 405.81443819 661.32078513 405.81443819 661.32075461 406.91162605 C661.32071417 408.3615227 661.32067237 409.81141935 661.32062922 411.261316 C661.32001698 433.80016825 661.3275153 456.33900545 661.34120178 478.87785339 C661.35659652 504.23990068 661.36516593 529.60193808 661.36423856 554.96399033 C661.36416394 557.6738352 661.36411523 560.38368006 661.36408424 563.09352493 C661.36406676 564.09426317 661.36406676 564.09426317 661.36404893 565.11521834 C661.36402018 575.14484542 661.36934263 585.17445863 661.37741661 595.20408249 C661.38655429 606.62780026 661.38867021 618.05149335 661.38190719 629.47521321 C661.37865817 635.29486679 661.37852623 641.1144731 661.38726044 646.93412209 C661.4855237 716.92829481 651.26598751 778.63643599 601.13539124 831.13371277 C600.53339905 831.78855652 599.93140686 832.44340027 599.31117249 833.11808777 C594.09419372 838.63730964 587.98412075 843.17166297 581.94984436 847.75041199 C580.28548417 849.01928508 578.63915545 850.3117193 576.99476624 851.60636902 C536.73134195 882.10145022 486.45493569 890.31237726 437.27078247 890.26742554 C435.30726069 890.26929768 433.34373928 890.27159998 431.38021845 890.27429086 C426.0260784 890.28036551 420.67195407 890.28028042 415.31781137 890.27909648 C409.5268285 890.27889137 403.73585054 890.28442177 397.94487 890.28915405 C386.61413764 890.29743757 375.28341048 890.30020786 363.95267535 890.30076643 C354.73511653 890.30124273 345.51755942 890.30330314 336.30000114 890.30646706 C333.63933879 890.30736164 330.97867644 890.30825325 328.31801409 890.30914193 C327.65641603 890.30936298 326.99481798 890.30958403 326.31317151 890.30981178 C307.7212352 890.31595993 289.12929947 890.31991296 270.5373621 890.3194685 C269.83742447 890.31945292 269.13748685 890.31943734 268.41633899 890.31942129 C264.86939727 890.31933819 261.32245555 890.31923915 257.77551384 890.31913658 C257.07117899 890.31911664 256.36684414 890.31909669 255.64116581 890.31907614 C254.21683014 890.3190357 252.79249447 890.31899391 251.36815881 890.31895075 C229.22505197 890.31833847 207.08196048 890.3258383 184.93885803 890.33952332 C160.0144363 890.35492121 135.09002464 890.3634873 110.16559786 890.36256009 C96.98640963 890.36219086 83.80723795 890.36493495 70.62805367 890.37573814 C59.40460281 890.38487974 48.18117708 890.38698854 36.9577241 890.38022872 C31.241221 890.37698177 25.52476601 890.37684014 19.80826759 890.38558197 C-38.01897833 890.46829647 -95.36420518 886.04406549 -142.86460876 849.13371277 C-143.7398822 848.46855652 -144.61515564 847.80340027 -145.51695251 847.11808777 C-152.31191202 841.83669744 -158.59991814 836.02359284 -164.86460876 830.13371277 C-165.81980408 829.25972839 -165.81980408 829.25972839 -166.79429626 828.36808777 C-200.26633944 796.65773108 -219.1483321 747.26249451 -222.86460876 702.13371277 C-222.98793523 700.65769907 -222.98793523 700.65769907 -223.11375314 699.15186691 C-223.91832232 688.45075369 -224.00793548 677.79975328 -223.99832153 667.07218933 C-224.00019316 665.07510682 -224.00249526 663.07802468 -224.00518686 661.08094311 C-224.01126786 655.62946997 -224.01117565 650.17801226 -224.00999248 644.72653651 C-224.00978753 638.83264225 -224.01531621 632.93875282 -224.02005005 627.04486084 C-224.02833698 615.51079152 -224.03110401 603.97672731 -224.03166243 592.44265527 C-224.03212315 583.06105839 -224.03418759 573.67946316 -224.03736305 564.29786682 C-224.03826069 561.59085115 -224.03915051 558.88383548 -224.04003793 556.1768198 C-224.04025898 555.5037165 -224.04048003 554.83061319 -224.04070777 554.13711281 C-224.04685665 535.21973512 -224.05080888 516.30235799 -224.05036449 497.38497925 C-224.05034892 496.67266229 -224.05033334 495.96034532 -224.05031729 495.226443 C-224.05023419 491.61668214 -224.05013515 488.00692127 -224.05003258 484.39716041 C-224.05001263 483.68033731 -224.04999269 482.96351421 -224.04997214 482.22496919 C-224.0499317 480.77537928 -224.0498899 479.32578936 -224.04984675 477.87619944 C-224.04923438 455.33719352 -224.05673564 432.79820266 -224.07041931 410.25920105 C-224.08581168 384.89569118 -224.09438363 359.53219121 -224.09345609 334.16867638 C-224.09338147 331.45914586 -224.09333276 328.74961535 -224.09330177 326.04008484 C-224.09329012 325.37300509 -224.09327846 324.70592534 -224.09326646 324.01863106 C-224.0932377 313.98809798 -224.09856147 303.95757733 -224.10663414 293.92704773 C-224.11576869 282.50442353 -224.11789023 271.08182403 -224.11112472 259.65919775 C-224.10787431 253.83966112 -224.10774894 248.02017177 -224.11647797 242.20063972 C-224.12440988 236.85721816 -224.12284421 231.51388085 -224.11419383 226.17046118 C-224.11267342 224.25328517 -224.11441881 222.33610267 -224.12005391 220.41893435 C-224.28775945 159.23414718 -206.56152062 103.84635866 -163.86460876 59.13371277 C-163.26261658 58.47886902 -162.66062439 57.82402527 -162.04039001 57.14933777 C-120.5480276 13.25313571 -57.87845372 -0.05289786 0 0 Z " fill="#252425" transform="translate(292.86460876464844,76.86628723144531)"/>
<path d="M0 0 C1.96352178 -0.00187214 3.92704319 -0.00417444 5.89056402 -0.00686532 C11.24470407 -0.01293998 16.5988284 -0.01285488 21.9529711 -0.01167095 C27.74395397 -0.01146583 33.53493193 -0.01699623 39.32591248 -0.02172852 C50.65664483 -0.03001204 61.98737199 -0.03278232 73.31810712 -0.03334089 C82.53566594 -0.03381719 91.75322305 -0.0358776 100.97078133 -0.03904152 C103.63144368 -0.0399361 106.29210603 -0.04082772 108.95276839 -0.0417164 C109.61436644 -0.04193744 110.27596449 -0.04215849 110.95761096 -0.04238624 C129.54954727 -0.04853439 148.141483 -0.05248743 166.73342037 -0.05204296 C167.78332681 -0.05201959 167.78332681 -0.05201959 168.85444348 -0.05199575 C172.4013852 -0.05191266 175.94832692 -0.05181362 179.49526864 -0.05171105 C180.19960349 -0.0516911 180.90393834 -0.05167115 181.62961667 -0.05165061 C183.05395233 -0.05161017 184.478288 -0.05156837 185.90262367 -0.05152521 C208.0457305 -0.05091294 230.18882199 -0.05841276 252.33192444 -0.07209778 C277.25634617 -0.08749567 302.18075783 -0.09606176 327.10518461 -0.09513456 C340.28437284 -0.09476533 353.46354452 -0.09750941 366.64272881 -0.10831261 C377.86617966 -0.1174542 389.08960539 -0.11956301 400.31305837 -0.11280318 C406.02956147 -0.10955624 411.74601646 -0.1094146 417.46251488 -0.11815643 C487.63859486 -0.21853437 549.50106245 9.87224307 602.13539124 60.13371277 C602.79023499 60.73570496 603.44507874 61.33769714 604.11976624 61.95793152 C637.65140756 93.6533163 656.28287602 143.03950599 660.13539124 188.13371277 C660.2587177 189.49893434 660.2587177 189.49893434 660.38453561 190.89173615 C661.23256375 201.29280627 661.27843881 211.63895558 661.269104 222.06825256 C661.27097524 224.06375932 661.27327718 226.05926572 661.27596933 228.05477154 C661.28205533 233.50657341 661.28195752 238.95835987 661.28077495 244.41016436 C661.28057013 250.30273198 661.28609754 256.19529476 661.29083252 262.08786011 C661.2991225 273.62173364 661.30188663 285.15560206 661.3024449 296.68947832 C661.30290553 306.07156726 661.30496952 315.45365455 661.30814552 324.83574295 C661.30904316 327.54244427 661.30993297 330.24914559 661.3108204 332.95584691 C661.31104145 333.62886832 661.3112625 334.30188973 661.31149024 334.99530572 C661.31763998 353.9130379 661.32159127 372.83076951 661.32114697 391.74850273 C661.32113139 392.46096049 661.32111581 393.17341825 661.32109976 393.90746564 C661.32101666 397.51796937 661.32091762 401.12847309 661.32081505 404.73897682 C661.32078513 405.81443819 661.32078513 405.81443819 661.32075461 406.91162605 C661.32071417 408.3615227 661.32067237 409.81141935 661.32062922 411.261316 C661.32001698 433.80016825 661.3275153 456.33900545 661.34120178 478.87785339 C661.35659652 504.23990068 661.36516593 529.60193808 661.36423856 554.96399033 C661.36416394 557.6738352 661.36411523 560.38368006 661.36408424 563.09352493 C661.36406676 564.09426317 661.36406676 564.09426317 661.36404893 565.11521834 C661.36402018 575.14484542 661.36934263 585.17445863 661.37741661 595.20408249 C661.38655429 606.62780026 661.38867021 618.05149335 661.38190719 629.47521321 C661.37865817 635.29486679 661.37852623 641.1144731 661.38726044 646.93412209 C661.4855237 716.92829481 651.26598751 778.63643599 601.13539124 831.13371277 C600.53339905 831.78855652 599.93140686 832.44340027 599.31117249 833.11808777 C594.09419372 838.63730964 587.98412075 843.17166297 581.94984436 847.75041199 C580.28548417 849.01928508 578.63915545 850.3117193 576.99476624 851.60636902 C536.73134195 882.10145022 486.45493569 890.31237726 437.27078247 890.26742554 C435.30726069 890.26929768 433.34373928 890.27159998 431.38021845 890.27429086 C426.0260784 890.28036551 420.67195407 890.28028042 415.31781137 890.27909648 C409.5268285 890.27889137 403.73585054 890.28442177 397.94487 890.28915405 C386.61413764 890.29743757 375.28341048 890.30020786 363.95267535 890.30076643 C354.73511653 890.30124273 345.51755942 890.30330314 336.30000114 890.30646706 C333.63933879 890.30736164 330.97867644 890.30825325 328.31801409 890.30914193 C327.65641603 890.30936298 326.99481798 890.30958403 326.31317151 890.30981178 C307.7212352 890.31595993 289.12929947 890.31991296 270.5373621 890.3194685 C269.83742447 890.31945292 269.13748685 890.31943734 268.41633899 890.31942129 C264.86939727 890.31933819 261.32245555 890.31923915 257.77551384 890.31913658 C257.07117899 890.31911664 256.36684414 890.31909669 255.64116581 890.31907614 C254.21683014 890.3190357 252.79249447 890.31899391 251.36815881 890.31895075 C229.22505197 890.31833847 207.08196048 890.3258383 184.93885803 890.33952332 C160.0144363 890.35492121 135.09002464 890.3634873 110.16559786 890.36256009 C96.98640963 890.36219086 83.80723795 890.36493495 70.62805367 890.37573814 C59.40460281 890.38487974 48.18117708 890.38698854 36.9577241 890.38022872 C31.241221 890.37698177 25.52476601 890.37684014 19.80826759 890.38558197 C-38.01897833 890.46829647 -95.36420518 886.04406549 -142.86460876 849.13371277 C-143.7398822 848.46855652 -144.61515564 847.80340027 -145.51695251 847.11808777 C-152.31191202 841.83669744 -158.59991814 836.02359284 -164.86460876 830.13371277 C-165.81980408 829.25972839 -165.81980408 829.25972839 -166.79429626 828.36808777 C-200.26633944 796.65773108 -219.1483321 747.26249451 -222.86460876 702.13371277 C-222.98793523 700.65769907 -222.98793523 700.65769907 -223.11375314 699.15186691 C-223.91832232 688.45075369 -224.00793548 677.79975328 -223.99832153 667.07218933 C-224.00019316 665.07510682 -224.00249526 663.07802468 -224.00518686 661.08094311 C-224.01126786 655.62946997 -224.01117565 650.17801226 -224.00999248 644.72653651 C-224.00978753 638.83264225 -224.01531621 632.93875282 -224.02005005 627.04486084 C-224.02833698 615.51079152 -224.03110401 603.97672731 -224.03166243 592.44265527 C-224.03212315 583.06105839 -224.03418759 573.67946316 -224.03736305 564.29786682 C-224.03826069 561.59085115 -224.03915051 558.88383548 -224.04003793 556.1768198 C-224.04025898 555.5037165 -224.04048003 554.83061319 -224.04070777 554.13711281 C-224.04685665 535.21973512 -224.05080888 516.30235799 -224.05036449 497.38497925 C-224.05034892 496.67266229 -224.05033334 495.96034532 -224.05031729 495.226443 C-224.05023419 491.61668214 -224.05013515 488.00692127 -224.05003258 484.39716041 C-224.05001263 483.68033731 -224.04999269 482.96351421 -224.04997214 482.22496919 C-224.0499317 480.77537928 -224.0498899 479.32578936 -224.04984675 477.87619944 C-224.04923438 455.33719352 -224.05673564 432.79820266 -224.07041931 410.25920105 C-224.08581168 384.89569118 -224.09438363 359.53219121 -224.09345609 334.16867638 C-224.09338147 331.45914586 -224.09333276 328.74961535 -224.09330177 326.04008484 C-224.09329012 325.37300509 -224.09327846 324.70592534 -224.09326646 324.01863106 C-224.0932377 313.98809798 -224.09856147 303.95757733 -224.10663414 293.92704773 C-224.11576869 282.50442353 -224.11789023 271.08182403 -224.11112472 259.65919775 C-224.10787431 253.83966112 -224.10774894 248.02017177 -224.11647797 242.20063972 C-224.12440988 236.85721816 -224.12284421 231.51388085 -224.11419383 226.17046118 C-224.11267342 224.25328517 -224.11441881 222.33610267 -224.12005391 220.41893435 C-224.28775945 159.23414718 -206.56152062 103.84635866 -163.86460876 59.13371277 C-163.26261658 58.47886902 -162.66062439 57.82402527 -162.04039001 57.14933777 C-120.5480276 13.25313571 -57.87845372 -0.05289786 0 0 Z M-117.76304626 114.54777527 C-129.27791177 128.71662464 -138.24469935 144.94146544 -143.86460876 162.32121277 C-144.26413757 163.54602356 -144.26413757 163.54602356 -144.67173767 164.795578 C-149.33590581 180.26994321 -150.30556522 195.67984243 -150.23883057 211.72372437 C-150.24157755 213.74147367 -150.24563507 215.75922154 -150.25087422 217.77696592 C-150.26137611 223.27136371 -150.25338772 228.7655968 -150.24212372 234.25998724 C-150.23322963 240.20480545 -150.24174013 246.14960332 -150.24798584 252.09442139 C-150.25689968 263.04932367 -150.25233614 274.0041687 -150.24082202 284.95906726 C-150.23025754 295.08013077 -150.22575014 305.20117566 -150.22711754 315.32224464 C-150.22720157 315.99536769 -150.2272856 316.66849073 -150.22737218 317.36201144 C-150.22772446 320.09486946 -150.22810848 322.82772746 -150.22853775 325.56058546 C-150.2324963 351.1580456 -150.21981502 376.75547284 -150.19901119 402.35292357 C-150.18063761 425.06688958 -150.17483115 447.7808241 -150.18028259 470.49479675 C-150.18062903 471.95383087 -150.18097513 473.41286498 -150.18132088 474.87189909 C-150.18149188 475.59323827 -150.18166287 476.31457745 -150.18183905 477.05777539 C-150.18269267 480.68933829 -150.18351645 484.32090119 -150.18430805 487.9524641 C-150.18446513 488.66900676 -150.18462221 489.38554941 -150.18478405 490.12380548 C-150.18877844 509.13799502 -150.18329283 528.15218155 -150.17479676 547.16636926 C-150.17388978 549.21343144 -150.17298413 551.26049362 -150.17208153 553.3075558 C-150.17148042 554.66535678 -150.1708718 556.02315776 -150.17025562 557.38095874 C-150.16604314 566.82588682 -150.16545225 576.27080893 -150.16736112 585.71573764 C-150.16980915 597.88826827 -150.16547768 610.06076573 -150.15015111 622.23328777 C-150.14292473 628.09843131 -150.13881512 633.9635309 -150.14339447 639.82867813 C-150.1474894 645.20425812 -150.14225301 650.57974764 -150.12976839 655.95531396 C-150.12685568 657.8931167 -150.12725097 659.83092805 -150.13141147 661.76872852 C-150.2097065 701.89894549 -136.70002366 736.24072132 -108.86460876 765.13371277 C-108.22265564 765.83882996 -107.58070251 766.54394714 -106.91929626 767.27043152 C-97.07856903 777.77146729 -84.45650856 785.39664536 -71.86460876 792.13371277 C-71.1517572 792.53074402 -70.43890564 792.92777527 -69.70445251 793.33683777 C-54.67419235 801.37850563 -35.55122747 806.3045901 -18.54973793 806.26514053 C-17.72368205 806.26719317 -16.89762617 806.2692458 -16.04653829 806.27136064 C-13.2724707 806.27702491 -10.49845285 806.27557408 -7.72438049 806.27415466 C-5.71770209 806.27673864 -3.71102419 806.27975189 -1.70434701 806.28315806 C3.81517766 806.29122775 9.33468933 806.29301762 14.8542192 806.29375553 C20.80539915 806.29560618 26.75657236 806.30315368 32.70774841 806.30989075 C46.40343171 806.32418373 60.09911404 806.33000109 73.79480309 806.33458269 C80.56633604 806.3369199 87.33786814 806.34052273 94.10940043 806.34427807 C117.29995987 806.35711402 140.49051885 806.36783223 163.68108177 806.37128067 C165.13659548 806.3715023 166.59210919 806.37172409 168.0476229 806.37194602 C169.50661145 806.37216666 170.96560001 806.37238714 172.42458856 806.37260747 C175.35146419 806.37305002 178.27833982 806.37349713 181.20521545 806.37394714 C181.93090923 806.37405653 182.656603 806.37416593 183.40428749 806.37427863 C206.92124995 806.37790717 230.43818154 806.39381932 253.95513218 806.41713751 C278.83206156 806.44175895 303.7089733 806.45545462 328.58591521 806.45664859 C331.31933252 806.45682003 334.05274983 806.45703546 336.78616714 806.45728302 C337.45918681 806.45733879 338.13220647 806.45739456 338.82562067 806.45745202 C349.63610449 806.45860058 360.44655654 806.46960613 371.25702965 806.48417008 C382.13380048 806.49856935 393.01052885 806.50150124 403.8873065 806.4937301 C409.7747949 806.48982986 415.66217687 806.4907226 421.5496521 806.50478745 C426.94737883 806.51756397 432.34491956 806.51629591 437.74264617 806.50419673 C439.68755872 806.50224621 441.63248461 806.50528811 443.57737844 806.5140411 C455.1601465 806.56283723 465.82201529 805.72059482 477.13539124 803.13371277 C477.97436962 802.95758493 478.81334801 802.78145709 479.67774999 802.59999204 C504.44923196 797.2253186 525.45682373 783.76462983 544.13539124 767.13371277 C544.85210999 766.50207214 545.56882874 765.87043152 546.30726624 765.21965027 C557.04870717 755.14400112 565.40052094 742.12239119 572.13539124 729.13371277 C572.59703674 728.25513611 572.59703674 728.25513611 573.06800842 727.35881042 C578.25993978 717.36285062 581.65196427 707.10740625 584.13539124 696.13371277 C584.50886028 694.5128653 584.50886028 694.5128653 584.88987416 692.85927343 C587.2163268 681.79890459 587.55667141 671.17906601 587.50961304 659.90483093 C587.51235893 657.90189481 587.51641552 655.89896014 587.52165669 653.896029 C587.53217485 648.43324764 587.52415937 642.97063156 587.51290619 637.50785756 C587.50402238 631.6004768 587.51251974 625.69311669 587.51876831 619.78573608 C587.52823405 608.2293993 587.52167593 596.67312516 587.50950537 585.11679304 C587.49985354 575.72133173 587.49662272 566.32588593 587.49790001 556.93041992 C587.49798404 556.26146356 587.49806807 555.59250721 587.49815465 554.90327944 C587.49850693 552.18737088 587.49889095 549.47146232 587.49932022 546.75555376 C587.50328011 521.30846235 587.49059186 495.86140401 587.46979366 470.41432206 C587.45142594 447.83493744 587.44561193 425.25558452 587.45106506 402.67619324 C587.4514115 401.22625099 587.4517576 399.77630874 587.45210335 398.32636648 C587.45227435 397.60952244 587.45244534 396.8926784 587.45262152 396.15411181 C587.45347514 392.54516217 587.45429892 388.93621253 587.45509052 385.32726288 C587.4552476 384.61517994 587.45540468 383.90309701 587.45556652 383.1694358 C587.45956177 364.26941777 587.454074 345.36940277 587.44557923 326.46938658 C587.44467225 324.43430642 587.4437666 322.39922626 587.442864 320.36414609 C587.44226289 319.01428592 587.44165427 317.66442575 587.44103809 316.31456559 C587.43652815 306.26183233 587.43650781 296.20910595 587.43854713 286.15637207 C587.44067345 274.71929337 587.43541197 263.28224506 587.42093358 251.84517491 C587.41371055 246.01435084 587.40959467 240.18357093 587.41417694 234.35274315 C587.41827549 229.00725444 587.41302536 223.66185661 587.40055086 218.31638163 C587.397641 216.39061431 587.39802918 214.46483831 587.40219394 212.53907329 C587.42443743 201.21931839 586.82248334 190.33554615 585.13539124 179.13371277 C584.90217217 177.42461676 584.90217217 177.42461676 584.66424161 175.68099356 C583.73944222 168.98910057 581.83932751 163.29709693 579.13539124 157.13371277 C578.50688298 155.51006645 577.88191908 153.88504396 577.26039124 152.25871277 C570.55950921 135.64880442 561.13004439 121.32345363 549.13539124 108.13371277 C548.35679749 107.27132996 547.57820374 106.40894714 546.77601624 105.52043152 C531.05250248 88.979084 509.44179771 75.53731641 487.32085955 69.71153629 C485.85395978 69.32369759 484.39042403 68.92292323 482.9304384 68.5098182 C461.21540692 62.54289046 439.03841777 63.42231479 416.7219857 63.49474847 C410.85757784 63.50825333 404.99323176 63.49263899 399.12882996 63.48092651 C387.67394648 63.46264351 376.21923472 63.47099904 364.76435677 63.48901474 C355.44829488 63.5030955 346.13226781 63.50706886 336.81619835 63.50357246 C336.15150409 63.50333566 335.48680983 63.50309886 334.80197332 63.50285489 C332.10300791 63.50187978 329.40404253 63.50085894 326.70507717 63.49976978 C301.450107 63.48971426 276.19522831 63.50787463 250.94027965 63.53949014 C228.55403125 63.56735505 206.16789153 63.57230698 183.78163147 63.55729675 C178.04546013 63.5534736 172.30928878 63.5496786 166.57311726 63.54612637 C165.51348137 63.54546964 165.51348137 63.54546964 164.43243869 63.54479966 C145.66545469 63.53353547 126.89847851 63.54092647 108.13149709 63.55400711 C106.10988721 63.55539553 104.08827733 63.55677624 102.06666744 63.55814553 C100.72587858 63.55905491 99.38508972 63.55997758 98.04430087 63.56091364 C88.07850899 63.56768041 78.11274312 63.56506708 68.14695168 63.55796623 C56.80611534 63.55020569 45.46539544 63.55708353 34.12458245 63.58214127 C28.34759006 63.59457219 22.57077836 63.60086114 16.79377937 63.58959961 C11.49079666 63.57945785 6.188172 63.5882253 0.88523235 63.61118079 C-1.01816172 63.61628189 -2.92158867 63.61488558 -4.82496782 63.60578614 C-48.87684336 63.41294588 -88.82858844 81.19423661 -117.76304626 114.54777527 Z " fill="#78DE8B" transform="translate(292.86460876464844,76.86628723144531)"/>
<path d="M0 0 C1.96352178 -0.00187214 3.92704319 -0.00417444 5.89056402 -0.00686532 C11.24470407 -0.01293998 16.5988284 -0.01285488 21.9529711 -0.01167095 C27.74395397 -0.01146583 33.53493193 -0.01699623 39.32591248 -0.02172852 C50.65664483 -0.03001204 61.98737199 -0.03278232 73.31810712 -0.03334089 C82.53566594 -0.03381719 91.75322305 -0.0358776 100.97078133 -0.03904152 C103.63144368 -0.0399361 106.29210603 -0.04082772 108.95276839 -0.0417164 C109.61436644 -0.04193744 110.27596449 -0.04215849 110.95761096 -0.04238624 C129.54954727 -0.04853439 148.141483 -0.05248743 166.73342037 -0.05204296 C167.78332681 -0.05201959 167.78332681 -0.05201959 168.85444348 -0.05199575 C172.4013852 -0.05191266 175.94832692 -0.05181362 179.49526864 -0.05171105 C180.19960349 -0.0516911 180.90393834 -0.05167115 181.62961667 -0.05165061 C183.05395233 -0.05161017 184.478288 -0.05156837 185.90262367 -0.05152521 C208.0457305 -0.05091294 230.18882199 -0.05841276 252.33192444 -0.07209778 C277.25634617 -0.08749567 302.18075783 -0.09606176 327.10518461 -0.09513456 C340.28437284 -0.09476533 353.46354452 -0.09750941 366.64272881 -0.10831261 C377.86617966 -0.1174542 389.08960539 -0.11956301 400.31305837 -0.11280318 C406.02956147 -0.10955624 411.74601646 -0.1094146 417.46251488 -0.11815643 C487.63859486 -0.21853437 549.50106245 9.87224307 602.13539124 60.13371277 C602.79023499 60.73570496 603.44507874 61.33769714 604.11976624 61.95793152 C637.65140756 93.6533163 656.28287602 143.03950599 660.13539124 188.13371277 C660.2587177 189.49893434 660.2587177 189.49893434 660.38453561 190.89173615 C661.23256375 201.29280627 661.27843881 211.63895558 661.269104 222.06825256 C661.27097524 224.06375932 661.27327718 226.05926572 661.27596933 228.05477154 C661.28205533 233.50657341 661.28195752 238.95835987 661.28077495 244.41016436 C661.28057013 250.30273198 661.28609754 256.19529476 661.29083252 262.08786011 C661.2991225 273.62173364 661.30188663 285.15560206 661.3024449 296.68947832 C661.30290553 306.07156726 661.30496952 315.45365455 661.30814552 324.83574295 C661.30904316 327.54244427 661.30993297 330.24914559 661.3108204 332.95584691 C661.31104145 333.62886832 661.3112625 334.30188973 661.31149024 334.99530572 C661.31763998 353.9130379 661.32159127 372.83076951 661.32114697 391.74850273 C661.32113139 392.46096049 661.32111581 393.17341825 661.32109976 393.90746564 C661.32101666 397.51796937 661.32091762 401.12847309 661.32081505 404.73897682 C661.32078513 405.81443819 661.32078513 405.81443819 661.32075461 406.91162605 C661.32071417 408.3615227 661.32067237 409.81141935 661.32062922 411.261316 C661.32001698 433.80016825 661.3275153 456.33900545 661.34120178 478.87785339 C661.35659652 504.23990068 661.36516593 529.60193808 661.36423856 554.96399033 C661.36416394 557.6738352 661.36411523 560.38368006 661.36408424 563.09352493 C661.36406676 564.09426317 661.36406676 564.09426317 661.36404893 565.11521834 C661.36402018 575.14484542 661.36934263 585.17445863 661.37741661 595.20408249 C661.38655429 606.62780026 661.38867021 618.05149335 661.38190719 629.47521321 C661.37865817 635.29486679 661.37852623 641.1144731 661.38726044 646.93412209 C661.4855237 716.92829481 651.26598751 778.63643599 601.13539124 831.13371277 C600.53339905 831.78855652 599.93140686 832.44340027 599.31117249 833.11808777 C594.09419372 838.63730964 587.98412075 843.17166297 581.94984436 847.75041199 C580.28548417 849.01928508 578.63915545 850.3117193 576.99476624 851.60636902 C536.73134195 882.10145022 486.45493569 890.31237726 437.27078247 890.26742554 C435.30726069 890.26929768 433.34373928 890.27159998 431.38021845 890.27429086 C426.0260784 890.28036551 420.67195407 890.28028042 415.31781137 890.27909648 C409.5268285 890.27889137 403.73585054 890.28442177 397.94487 890.28915405 C386.61413764 890.29743757 375.28341048 890.30020786 363.95267535 890.30076643 C354.73511653 890.30124273 345.51755942 890.30330314 336.30000114 890.30646706 C333.63933879 890.30736164 330.97867644 890.30825325 328.31801409 890.30914193 C327.65641603 890.30936298 326.99481798 890.30958403 326.31317151 890.30981178 C307.7212352 890.31595993 289.12929947 890.31991296 270.5373621 890.3194685 C269.83742447 890.31945292 269.13748685 890.31943734 268.41633899 890.31942129 C264.86939727 890.31933819 261.32245555 890.31923915 257.77551384 890.31913658 C257.07117899 890.31911664 256.36684414 890.31909669 255.64116581 890.31907614 C254.21683014 890.3190357 252.79249447 890.31899391 251.36815881 890.31895075 C229.22505197 890.31833847 207.08196048 890.3258383 184.93885803 890.33952332 C160.0144363 890.35492121 135.09002464 890.3634873 110.16559786 890.36256009 C96.98640963 890.36219086 83.80723795 890.36493495 70.62805367 890.37573814 C59.40460281 890.38487974 48.18117708 890.38698854 36.9577241 890.38022872 C31.241221 890.37698177 25.52476601 890.37684014 19.80826759 890.38558197 C-38.01897833 890.46829647 -95.36420518 886.04406549 -142.86460876 849.13371277 C-143.7398822 848.46855652 -144.61515564 847.80340027 -145.51695251 847.11808777 C-152.31191202 841.83669744 -158.59991814 836.02359284 -164.86460876 830.13371277 C-165.81980408 829.25972839 -165.81980408 829.25972839 -166.79429626 828.36808777 C-200.26633944 796.65773108 -219.1483321 747.26249451 -222.86460876 702.13371277 C-222.98793523 700.65769907 -222.98793523 700.65769907 -223.11375314 699.15186691 C-223.91832232 688.45075369 -224.00793548 677.79975328 -223.99832153 667.07218933 C-224.00019316 665.07510682 -224.00249526 663.07802468 -224.00518686 661.08094311 C-224.01126786 655.62946997 -224.01117565 650.17801226 -224.00999248 644.72653651 C-224.00978753 638.83264225 -224.01531621 632.93875282 -224.02005005 627.04486084 C-224.02833698 615.51079152 -224.03110401 603.97672731 -224.03166243 592.44265527 C-224.03212315 583.06105839 -224.03418759 573.67946316 -224.03736305 564.29786682 C-224.03826069 561.59085115 -224.03915051 558.88383548 -224.04003793 556.1768198 C-224.04025898 555.5037165 -224.04048003 554.83061319 -224.04070777 554.13711281 C-224.04685665 535.21973512 -224.05080888 516.30235799 -224.05036449 497.38497925 C-224.05034892 496.67266229 -224.05033334 495.96034532 -224.05031729 495.226443 C-224.05023419 491.61668214 -224.05013515 488.00692127 -224.05003258 484.39716041 C-224.05001263 483.68033731 -224.04999269 482.96351421 -224.04997214 482.22496919 C-224.0499317 480.77537928 -224.0498899 479.32578936 -224.04984675 477.87619944 C-224.04923438 455.33719352 -224.05673564 432.79820266 -224.07041931 410.25920105 C-224.08581168 384.89569118 -224.09438363 359.53219121 -224.09345609 334.16867638 C-224.09338147 331.45914586 -224.09333276 328.74961535 -224.09330177 326.04008484 C-224.09329012 325.37300509 -224.09327846 324.70592534 -224.09326646 324.01863106 C-224.0932377 313.98809798 -224.09856147 303.95757733 -224.10663414 293.92704773 C-224.11576869 282.50442353 -224.11789023 271.08182403 -224.11112472 259.65919775 C-224.10787431 253.83966112 -224.10774894 248.02017177 -224.11647797 242.20063972 C-224.12440988 236.85721816 -224.12284421 231.51388085 -224.11419383 226.17046118 C-224.11267342 224.25328517 -224.11441881 222.33610267 -224.12005391 220.41893435 C-224.28775945 159.23414718 -206.56152062 103.84635866 -163.86460876 59.13371277 C-163.26261658 58.47886902 -162.66062439 57.82402527 -162.04039001 57.14933777 C-120.5480276 13.25313571 -57.87845372 -0.05289786 0 0 Z M-57.36460876 28.82121277 C-58.65105286 29.20358093 -58.65105286 29.20358093 -59.96348572 29.59367371 C-87.90281904 38.14481074 -113.41505191 52.09594697 -134.33824158 72.6381073 C-135.87169732 74.14065846 -137.42500329 75.62023682 -138.98179626 77.09855652 C-162.92513376 100.09930254 -178.82012581 131.12170785 -186.86460876 163.13371277 C-187.14063258 164.22793045 -187.14063258 164.22793045 -187.42223263 165.34425354 C-192.55083142 186.98755874 -191.43713366 209.42084278 -191.38750744 231.50079346 C-191.3783759 237.52135485 -191.39246645 243.5418715 -191.40342712 249.56242371 C-191.42011159 260.64872266 -191.4187712 271.73494584 -191.40778125 282.82124519 C-191.39767574 293.06701197 -191.39511225 303.31274671 -191.39987183 313.55851746 C-191.40017737 314.24101271 -191.40048291 314.92350797 -191.40079771 315.6266849 C-191.40204328 318.39790946 -191.40331691 321.169134 -191.40463676 323.94035852 C-191.41684301 349.87915155 -191.4058263 375.81788891 -191.38424917 401.75667334 C-191.36527006 424.74696629 -191.36696871 447.73717059 -191.38609314 470.72746277 C-191.40756211 496.62209938 -191.41597697 522.5166869 -191.40364408 548.41133118 C-191.40236142 551.17719013 -191.40111005 553.9430491 -191.39987183 556.70890808 C-191.39955552 557.38981656 -191.39923921 558.07072504 -191.39891331 558.7722671 C-191.39438418 569.00571829 -191.39964553 579.23913373 -191.40979004 589.47257996 C-191.42128057 601.12115542 -191.41787378 612.7696466 -191.39666706 624.41821289 C-191.3862183 630.35139384 -191.38192844 636.28439581 -191.39526367 642.21757507 C-191.51894824 702.34551279 -178.74537988 751.88874475 -135.98960876 796.32121277 C-130.04840701 802.12890438 -123.50865275 807.16459042 -116.86460876 812.13371277 C-115.64559875 813.06594666 -115.64559875 813.06594666 -114.40196228 814.01701355 C-107.80301694 818.96814964 -101.02106518 823.01433257 -93.67710876 826.75871277 C-92.57995544 827.32138855 -91.48280212 827.88406433 -90.35240173 828.46379089 C-79.0435024 834.17895167 -67.76032437 838.4672798 -55.55210876 841.82121277 C-54.86648865 842.01199402 -54.18086853 842.20277527 -53.47447205 842.39933777 C-37.82255465 846.44584477 -22.26790028 847.57506249 -6.1678009 847.50793457 C-4.15061393 847.51068215 -2.13342839 847.51474017 -0.11624634 847.51997823 C5.37203101 847.53047153 10.86014328 847.52249742 16.34841323 847.51122773 C22.28848041 847.50232804 28.22852732 847.51084575 34.16859436 847.51708984 C45.1134301 847.52600094 56.05820852 847.5214428 67.00304052 847.50992603 C77.11567251 847.49935832 87.22828585 847.49485454 97.34092331 847.49622154 C98.01368736 847.49630557 98.68645142 847.4963896 99.37960226 847.49647618 C102.11106648 847.49682847 104.84253069 847.49721249 107.5739949 847.49764176 C133.15552021 847.50159978 158.7370126 847.48892175 184.31852849 847.46811519 C207.01253661 847.44974389 229.7065132 847.44393469 252.40052795 847.4493866 C253.85815446 847.44973303 255.31578097 847.45007913 256.77340747 847.45042489 C257.49405448 847.45059588 258.21470149 847.45076688 258.95718629 847.45094305 C262.58535484 847.45179669 266.2135234 847.45262047 269.84169197 847.45341206 C270.91552841 847.45364768 270.91552841 847.45364768 272.01105851 847.45388806 C291.01422098 847.45788371 310.01738044 847.45239509 329.02054107 847.44390076 C331.06678561 847.44299379 333.11303014 847.44208814 335.15927468 847.44118553 C336.51650602 847.44058443 337.87373735 847.43997581 339.23096868 847.43935962 C348.66709029 847.43514922 358.10320594 847.43455539 367.53932819 847.43646512 C379.70205828 847.43891461 391.86475518 847.43457056 404.02747668 847.41925512 C409.88679916 847.41203504 415.74607773 847.40791367 421.6054039 847.41249847 C426.97796457 847.41660001 432.35043489 847.41133859 437.72298191 847.3988724 C439.65742564 847.39596496 441.59187798 847.39634708 443.5263194 847.40051547 C458.68064936 847.43018385 473.60447074 846.64000098 488.38539124 843.00871277 C489.25252747 842.79770935 490.1196637 842.58670593 491.01307678 842.36930847 C517.2299169 835.67409059 542.78416193 823.04406254 563.13539124 805.13371277 C563.96296936 804.41570496 564.79054749 803.69769714 565.64320374 802.95793152 C568.17824699 800.72089491 570.66376464 798.44056426 573.13539124 796.13371277 C573.99777405 795.33707214 574.86015686 794.54043152 575.74867249 793.71965027 C588.05029149 781.93430761 597.99016569 768.05819435 606.13539124 753.13371277 C606.47908752 752.506745 606.82278381 751.87977722 607.17689514 751.23381042 C622.14770662 723.54729328 628.45754616 694.07024346 628.40281677 662.78157043 C628.40655899 660.7406896 628.41116277 658.6998102 628.41654742 656.65893304 C628.42872256 651.08170146 628.42852344 645.50453011 628.42615867 639.92728829 C628.4257491 633.89974317 628.43680308 627.87221699 628.4462738 621.84468079 C628.46285545 610.04610798 628.46840809 598.24755015 628.46949856 586.44896813 C628.47041974 576.85186941 628.47454727 567.25477713 628.48089981 557.65768051 C628.48269508 554.88919239 628.48447471 552.12070426 628.48624957 549.35221612 C628.48669166 548.66383639 628.48713376 547.97545665 628.48758925 547.26621692 C628.49988908 527.91623093 628.50779127 508.56624717 628.50690269 489.2162571 C628.50687154 488.48748787 628.50684038 487.75871865 628.50680828 487.00786551 C628.50664208 483.31467974 628.506444 479.62149397 628.50623886 475.9283082 C628.50619897 475.19491162 628.50615908 474.46151504 628.50611798 473.70589432 C628.50603711 472.22278769 628.50595351 470.73968105 628.5058672 469.25657442 C628.5046427 446.20078409 628.51963986 423.14505266 628.54701233 400.08927917 C628.57779938 374.14711226 628.59494078 348.20498404 628.59308589 322.26279771 C628.59293664 319.49116604 628.59283922 316.71953436 628.59277725 313.94790268 C628.59275394 313.2655292 628.59273063 312.58315572 628.59270662 311.88010425 C628.59264532 300.94517464 628.60536401 290.01029657 628.62264178 279.07538224 C628.63967765 268.06501709 628.6411702 257.05471726 628.62842314 246.04434462 C628.62192353 240.09097314 628.62166675 234.13778652 628.63912964 228.18443298 C629.05304358 195.41857285 629.05304358 195.41857285 624.13539124 163.13371277 C623.69801667 161.27155341 623.69801667 161.27155341 623.25180626 159.37177467 C622.58047731 156.6656259 621.80935339 154.03466676 620.94789124 151.38371277 C620.65237366 150.45018982 620.35685608 149.51666687 620.05238342 148.55485535 C611.45648653 122.28492328 597.14642391 99.13898328 578.13539124 79.13371277 C577.65731018 78.62840027 577.17922913 78.12308777 576.68666077 77.60246277 C565.15327839 65.49040958 552.49068742 55.69262 538.13539124 47.13371277 C537.51776917 46.76391296 536.90014709 46.39411316 536.2638092 46.0131073 C512.40381486 31.97960718 483.34336959 22.93763396 455.53874588 23.002285 C454.70651558 23.00023237 453.87428527 22.99817974 453.01683587 22.9960649 C450.23376846 22.99041958 447.45075093 22.9918491 444.66767883 22.99327087 C442.64975069 22.99068581 440.63182306 22.98767225 438.61389613 22.98426747 C433.0724079 22.97621056 427.53093264 22.97440863 421.98943925 22.97367001 C416.01095118 22.97181712 410.03246979 22.96426849 404.0539856 22.95753479 C390.29962262 22.94325136 376.54526062 22.93742554 362.79089192 22.93284285 C355.98766923 22.93050433 349.18444737 22.92690135 342.38122533 22.92314747 C319.07389533 22.91031234 295.76656579 22.89959427 272.45923233 22.89614487 C270.99682333 22.89592324 269.53441432 22.89570145 268.07200532 22.89547952 C266.6061412 22.89525888 265.14027708 22.8950384 263.67441297 22.89481807 C260.73383411 22.89437553 257.79325525 22.89392841 254.85267639 22.89347839 C254.1235869 22.893369 253.39449741 22.89325961 252.6433143 22.89314691 C229.02217168 22.88951926 205.40105982 22.87361005 181.77992897 22.85028803 C156.78227744 22.82565225 131.78464346 22.81197024 106.78697944 22.81077695 C104.03891738 22.81060551 101.29085533 22.81039008 98.54279327 22.81014252 C97.86618685 22.81008675 97.18958043 22.81003098 96.49247078 22.80997352 C85.63639523 22.80882619 74.78035139 22.79783109 63.92428652 22.78325546 C52.9961611 22.7688377 42.06807794 22.76593409 31.13994572 22.77369544 C25.22764476 22.7775891 19.31544977 22.7767354 13.403162 22.76263809 C7.97816667 22.74982168 2.55335608 22.75116406 -2.87163928 22.7632288 C-4.82194675 22.76517251 -6.77226767 22.76216968 -8.72255632 22.75338444 C-25.16972471 22.6840581 -41.54898525 24.00358754 -57.36460876 28.82121277 Z " fill="#000000" transform="translate(292.86460876464844,76.86628723144531)"/>
<path d="M0 0 C161.41583829 0 161.41583829 0 189.50878906 27.47363281 C206.66752166 45.03689349 213.26470915 69.12058382 213.3190918 93.09326172 C213.13792521 107.32711145 210.39931408 121.22019335 204 134 C203.37351562 135.35931641 203.37351562 135.35931641 202.734375 136.74609375 C192.76313776 156.94644505 171.8580753 171.81968529 151 179 C147.8732675 179.99247216 144.72873609 180.89243777 141.5625 181.75 C140.83659668 181.94875732 140.11069336 182.14751465 139.36279297 182.35229492 C136.91913185 182.97536174 134.47272126 183.50423777 132 184 C131.04778564 184.19126465 130.09557129 184.3825293 129.11450195 184.57958984 C115.2331679 186.87809938 101.08193261 186.21328309 87.0625 186.125 C73.1715625 186.063125 73.1715625 186.063125 59 186 C59 212.73 59 239.46 59 267 C39.53 267 20.06 267 0 267 C0 178.89 0 90.78 0 0 Z " fill="#FDFDFD" transform="translate(247,274)"/>
<path d="M0 0 C2.79075608 2.39534062 5.52528926 4.83854988 8.22387695 7.33691406 C9.20098633 8.19800781 10.1780957 9.05910156 11.18481445 9.94628906 C11.85770508 10.73519531 12.5305957 11.52410156 13.22387695 12.33691406 C12.8841013 15.5051032 11.69242901 17.2881656 9.59887695 19.62207031 C9.06166016 20.22962158 8.52444336 20.83717285 7.97094727 21.46313477 C7.39441406 22.10210693 6.81788086 22.7410791 6.22387695 23.39941406 C5.02991971 24.74726711 3.83721704 26.09623251 2.64575195 27.44628906 C1.76693359 28.43918945 1.76693359 28.43918945 0.87036133 29.45214844 C-1.32638069 31.96680567 -3.43134426 34.54951132 -5.52612305 37.14941406 C-11.2575143 44.21883231 -17.30708068 50.93572879 -23.77612305 57.33691406 C-24.87053711 56.33724609 -24.87053711 56.33724609 -25.98706055 55.31738281 C-45.17602326 38.21111313 -68.37994942 26.2217913 -94.6862793 27.05175781 C-114.75571892 28.90393113 -134.50927749 36.33517371 -147.9831543 51.88378906 C-163.40590432 71.32643815 -170.5375927 94.95118391 -168.4987793 119.70410156 C-165.98399431 140.82829549 -157.57088235 160.7267617 -141.77612305 175.33691406 C-141.26307617 175.85511719 -140.7500293 176.37332031 -140.22143555 176.90722656 C-125.68152473 190.82310688 -107.14931966 195.01026609 -87.6171875 194.87597656 C-61.25830402 194.11443424 -40.81420489 181.43986872 -20.77612305 165.33691406 C-17.75964307 166.69240372 -15.63235617 168.21746697 -13.27685547 170.52978516 C-12.61324509 171.17740814 -11.9496347 171.82503113 -11.26591492 172.49227905 C-10.56158829 173.19124298 -9.85726166 173.89020691 -9.1315918 174.61035156 C-8.40241043 175.33050446 -7.67322906 176.05065735 -6.92195129 176.79263306 C-5.3853512 178.31474304 -3.85153269 179.83966552 -2.3203125 181.3671875 C0.03296764 183.70852205 2.40425084 186.0305602 4.77661133 188.35253906 C6.26668889 189.8331582 7.75566018 191.31489169 9.2434082 192.79785156 C9.95785599 193.49276703 10.67230377 194.1876825 11.40840149 194.90365601 C12.05625107 195.55758331 12.70410065 196.21151062 13.37158203 196.88525391 C13.94797928 197.45658051 14.52437653 198.0279071 15.11824036 198.61654663 C16.22387695 200.33691406 16.22387695 200.33691406 15.97468567 202.45484924 C15.12733776 204.57891047 14.18901904 205.77330063 12.59106445 207.40332031 C12.04015137 207.96575439 11.48923828 208.52818848 10.92163086 209.10766602 C10.01936768 209.9945813 10.01936768 209.9945813 9.09887695 210.89941406 C8.47287598 211.5171167 7.846875 212.13481934 7.2019043 212.77124023 C-23.51829854 242.41749719 -61.25444104 251.1422624 -102.71488953 250.50978088 C-110.7039126 250.34149274 -118.08594709 249.55876528 -125.77612305 247.33691406 C-126.58758789 247.10584961 -127.39905273 246.87478516 -128.23510742 246.63671875 C-164.27411464 236.07997198 -195.44398019 213.43169953 -213.86694336 180.30566406 C-230.31687686 149.48236661 -236.70027652 110.50206946 -227.77612305 76.33691406 C-227.57744629 75.57169434 -227.37876953 74.80647461 -227.17407227 74.01806641 C-224.04771657 62.41425183 -219.58001121 51.84005972 -213.77612305 41.33691406 C-213.28370117 40.42683594 -212.7912793 39.51675781 -212.28393555 38.57910156 C-195.85196584 9.70710959 -167.3197371 -13.05041373 -135.54174805 -22.67480469 C-90.57661868 -34.47581893 -36.97900549 -30.94248372 0 0 Z " fill="#FDFDFD" transform="translate(713.776123046875,298.6630859375)"/>
<path d="M0 0 C80.19 0 160.38 0 243 0 C243 13.2 243 26.4 243 40 C162.81 40 82.62 40 0 40 C0 26.8 0 13.6 0 0 Z " fill="#FDFDFD" transform="translate(249,717)"/>
<path d="M0 0 C8.105625 -0.061875 16.21125 -0.12375 24.5625 -0.1875 C28.3514978 -0.22846802 28.3514978 -0.22846802 32.21704102 -0.27026367 C50.23549361 -0.38434324 70.40660571 -0.16812469 84.31640625 13.10546875 C92.57828606 22.40247967 94.40271098 32.4046053 94.27734375 44.5234375 C93.39152254 55.6273935 88.91704976 65.59139436 80.8125 73.25 C64.82722331 85.84974865 44.26348306 84.38952858 25.125 84.1875 C16.83375 84.125625 8.5425 84.06375 0 84 C0 56.28 0 28.56 0 0 Z " fill="#292829" transform="translate(306,328)"/>
</svg>
