<?xml version="1.0" encoding="UTF-8"?>
<svg version="1.1" xmlns="http://www.w3.org/2000/svg" width="1200" height="576">
<path d="M0 0 C2.13068467 0.00563825 4.26136138 0.00846002 6.3920517 0.0110817 C26.61575163 0.04726585 46.61423024 0.35870212 66.66286469 3.31805801 C68.53192474 3.58344376 68.53192474 3.58344376 70.43874359 3.85419083 C113.28949728 10.06693313 158.42791816 20.91484744 193.66286469 47.31805801 C194.62966156 48.03735489 195.59645844 48.75665176 196.59255219 49.49774551 C209.92045282 59.87209477 221.94656022 75.19640405 224.66286469 92.31805801 C224.83000585 95.39843601 224.84795375 98.4770473 224.86818695 101.56146622 C224.8830236 102.98165495 224.8830236 102.98165495 224.89815998 104.43053436 C224.9302575 107.65994347 224.95495043 110.88936273 224.97927094 114.11883926 C225.00021385 116.50368282 225.02134882 118.88852469 225.04265594 121.27336502 C225.10627624 128.67896639 225.15936433 136.08461676 225.21043348 143.49031258 C225.22530917 145.6225998 225.24069079 147.75488275 225.25625229 149.88716507 C225.72210162 213.80941789 225.80293193 277.73340355 225.84030724 341.6571122 C225.84597712 351.27943601 225.85567766 360.9017474 225.86842698 370.52406432 C225.88507027 383.0953209 225.8944839 395.66654988 225.89261484 408.2378208 C225.89181139 414.40673387 225.89411253 420.57560384 225.90473557 426.74450874 C225.91440014 432.4660189 225.91454921 438.18745052 225.90733802 443.90896356 C225.90631999 445.98888721 225.90866602 448.06881585 225.91474354 450.14873087 C225.97965109 473.90821053 222.30137043 492.90054138 205.03786469 510.44305801 C198.76180807 516.61206567 192.20376834 521.7485565 184.66286469 526.31805801 C184.01930023 526.71444473 183.37573578 527.11083145 182.71266937 527.51922989 C170.3237854 535.05722194 157.30152351 540.46300511 143.66286469 545.31805801 C142.85236664 545.60664688 142.04186859 545.89523575 141.20681 546.19256973 C127.32746605 551.03834995 113.02138445 554.23783442 98.66286469 557.31805801 C97.9228827 557.49120498 97.18290071 557.66435194 96.42049503 557.84274578 C93.20392062 558.39716279 90.15283457 558.46627351 86.88794708 558.49214554 C86.21895498 558.49864449 85.54996287 558.50514344 84.86069828 558.51183933 C82.62476227 558.53217239 80.38884417 558.54543373 78.15285492 558.55853653 C76.54552213 558.57135852 74.93819182 558.58449422 73.33086395 558.59791946 C58.55854525 558.71451024 43.78554804 558.77066321 29.01285458 558.81468678 C18.13569166 558.84766301 7.25938185 558.90669225 -3.61741596 559.0021978 C-11.30717497 559.06736325 -18.99670768 559.10035029 -26.68673176 559.11143631 C-31.25345677 559.11887461 -35.81915357 559.13897498 -40.38556862 559.19446373 C-71.23966063 559.55246724 -99.91981583 555.13872731 -129.08713531 544.75555801 C-130.46000597 544.28028526 -131.83314058 543.80577437 -133.20652008 543.33197403 C-154.27777789 535.99705739 -174.16741493 526.75359891 -191.33713531 512.31805801 C-192.24076813 511.56653458 -193.14440094 510.81501114 -194.07541656 510.04071426 C-207.12876071 498.77007266 -217.93573275 484.26457593 -219.7047739 466.65938187 C-219.84953046 462.59801657 -219.87153264 458.55484795 -219.84506989 454.49188614 C-219.84968846 452.93075099 -219.85604775 451.36962021 -219.86397886 449.80849838 C-219.88056414 445.55305258 -219.87247548 441.29796896 -219.86003399 437.04252243 C-219.85094122 432.43984489 -219.86497409 427.83722734 -219.87595367 423.23456192 C-219.89369856 414.2315331 -219.88991692 405.22863802 -219.87830311 396.22560406 C-219.86925316 388.9057436 -219.86805154 381.58592051 -219.87239838 374.26605606 C-219.87301131 373.22248428 -219.87362424 372.1789125 -219.87425575 371.10371733 C-219.87553471 368.98342577 -219.87683156 366.86313421 -219.87814611 364.74284267 C-219.8895401 344.88167658 -219.87645675 325.02058446 -219.85494465 305.1594305 C-219.83707475 288.13414431 -219.84017919 271.10896724 -219.85861969 254.08368301 C-219.88004727 234.2914208 -219.88844158 214.49922334 -219.87617064 194.70695114 C-219.8748965 192.59465409 -219.87363901 190.48235704 -219.87239838 188.37005997 C-219.87178127 187.33089038 -219.87116417 186.2917208 -219.87052837 185.22106123 C-219.86708114 177.91377801 -219.87289029 170.60653602 -219.88231659 163.29925919 C-219.89355893 154.38869491 -219.89044959 145.4782715 -219.86919361 136.56772327 C-219.85871326 132.02529591 -219.8545097 127.48310304 -219.86779022 122.94067764 C-219.87978274 118.77566745 -219.87303969 114.61110728 -219.85188001 110.44613743 C-219.84744281 108.94630912 -219.84961469 107.44644212 -219.85938317 105.94663906 C-219.97527012 86.66190464 -213.75565425 72.0620261 -200.33713531 58.31805801 C-199.49151031 57.43118301 -198.64588531 56.54430801 -197.77463531 55.63055801 C-196.97026031 54.86743301 -196.16588531 54.10430801 -195.33713531 53.31805801 C-194.81377594 52.81145645 -194.29041656 52.30485489 -193.75119781 51.78290176 C-157.57751524 18.2802717 -99.42526524 7.43750544 -52.33713531 2.31805801 C-51.5591156 2.23085495 -50.78109589 2.14365189 -49.97949982 2.0538063 C-33.33194536 0.23684842 -16.73200429 -0.04495752 0 0 Z M-173.43088531 83.26727676 C-179.48923663 89.78497029 -182.74917423 95.76175336 -182.60666656 104.70087051 C-181.64737418 114.01573859 -174.16299827 121.188249 -167.26682281 126.82977676 C-158.89396431 133.19353935 -149.92297693 138.0474358 -140.33713531 142.31805801 C-139.59254059 142.65047501 -138.84794586 142.982892 -138.08078766 143.32538223 C-56.8627072 178.94674904 54.79145836 178.02134733 136.70583344 146.34930801 C155.31968983 138.86793513 176.62730409 128.48959095 186.66286469 110.31805801 C188.52280488 104.73823742 188.63155852 98.67145902 186.16286469 93.25555801 C177.30442803 78.01293771 161.27061059 69.27152011 145.66286469 62.31805801 C144.91826996 61.98564102 144.17367523 61.65322403 143.40651703 61.3107338 C59.52874384 24.52285469 -69.60785384 22.5745667 -173.43088531 83.26727676 Z M-183.33713531 161.31805801 C-183.4302874 168.96825256 -183.50112763 176.61838745 -183.544384 184.26902199 C-183.56515721 187.82251941 -183.59328304 191.37562555 -183.63889313 194.92889786 C-183.69113253 199.02479944 -183.71016515 203.12029744 -183.72776031 207.21649551 C-183.74840546 208.47730942 -183.7690506 209.73812332 -183.79032135 211.03714371 C-183.79327985 222.79273195 -180.9542566 230.47758031 -172.80197906 238.94696426 C-130.62642034 279.51838129 -56.57499237 287.01013717 -1.33713531 288.31805801 C-0.1044693 288.35092911 -0.1044693 288.35092911 1.15309906 288.38446426 C56.7251389 289.67383874 130.42714821 284.92774945 174.66286469 247.31805801 C175.71473969 246.53430801 176.76661469 245.75055801 177.85036469 244.94305801 C184.32206527 238.90280413 188.25309423 231.95654833 188.90337372 223.00862503 C188.8989325 221.86945129 188.89449127 220.73027756 188.88991547 219.5565834 C188.8897644 218.25576324 188.88961334 216.95494308 188.8894577 215.61470413 C188.87924749 214.21503925 188.86881555 212.81537596 188.85817719 211.41571426 C188.85444201 209.96840486 188.85159742 208.52109291 188.84960175 207.07378006 C188.84200493 203.28440614 188.82239093 199.49518816 188.80019379 195.7058754 C188.77964971 191.83118168 188.77058181 187.9564625 188.76052094 184.08172989 C188.73914085 176.49376856 188.70505331 168.90593523 188.66286469 161.31805801 C185.10155696 162.68950974 181.89123447 164.29078107 178.60353851 166.23651505 C144.52343621 186.32701189 105.36075142 194.59539419 66.66286469 200.31805801 C65.45452972 200.50029922 64.24619476 200.68254044 63.00124359 200.87030411 C23.30514453 206.52670274 -21.71394315 206.26790031 -61.33713531 200.31805801 C-62.01856598 200.21859879 -62.69999664 200.11913956 -63.40207672 200.01666641 C-102.98825843 194.23644238 -146.02898316 185.64778375 -179.47385406 162.49774551 C-181.25121339 161.13974946 -181.25121339 161.13974946 -183.33713531 161.31805801 Z M-183.33713531 278.31805801 C-183.43025342 286.35947129 -183.50111015 294.40065528 -183.544384 302.44247627 C-183.56516455 306.17756592 -183.59330454 309.91228381 -183.63889313 313.64715958 C-183.68269562 317.25874937 -183.7063439 320.86998401 -183.71664429 324.48181915 C-183.72397459 325.85240766 -183.7382873 327.22297907 -183.76005554 328.59341431 C-183.9543002 341.34160724 -181.70743065 349.69510937 -172.80197906 358.94696426 C-130.62642034 399.51838129 -56.57499237 407.01013717 -1.33713531 408.31805801 C-0.1044693 408.35092911 -0.1044693 408.35092911 1.15309906 408.38446426 C56.7251389 409.67383874 130.42714821 404.92774945 174.66286469 367.31805801 C175.71473969 366.53430801 176.76661469 365.75055801 177.85036469 364.94305801 C184.23802033 358.98124608 188.33676242 352.06563915 188.83657074 343.25647354 C188.89425127 339.45437599 188.8880186 335.65535057 188.85817719 331.85321426 C188.85444176 330.45074542 188.85159729 329.04827394 188.84960175 327.64580154 C188.84200689 323.97479275 188.82239467 320.30394506 188.80019379 316.63299942 C188.77964541 312.87895257 188.7705809 309.1248794 188.76052094 305.37079239 C188.73914434 298.0198079 188.70505926 290.66895563 188.66286469 283.31805801 C187.75665375 283.84480118 186.85044281 284.37154434 185.91677094 284.91424942 C135.51847458 314.06561022 76.16979555 323.16916145 18.66286469 324.31805801 C17.86557953 324.33465469 17.06829437 324.35125137 16.24684906 324.36835098 C11.04907045 324.45948087 5.86018262 324.41825241 0.66286469 324.31805801 C-0.61620758 324.29920547 -0.61620758 324.29920547 -1.92111969 324.27997208 C-64.90871209 323.18161192 -128.90834075 311.02138298 -183.33713531 278.31805801 Z M-183.33713531 398.31805801 C-183.43025342 406.35947129 -183.50111015 414.40065528 -183.544384 422.44247627 C-183.56516455 426.17756592 -183.59330454 429.91228381 -183.63889313 433.64715958 C-183.68269562 437.25874937 -183.7063439 440.86998401 -183.71664429 444.48181915 C-183.72397459 445.85240766 -183.7382873 447.22297907 -183.76005554 448.59341431 C-183.9543002 461.34160724 -181.70743065 469.69510937 -172.80197906 478.94696426 C-130.62642034 519.51838129 -56.57499237 527.01013717 -1.33713531 528.31805801 C-0.1044693 528.35092911 -0.1044693 528.35092911 1.15309906 528.38446426 C56.7251389 529.67383874 130.42714821 524.92774945 174.66286469 487.31805801 C175.71473969 486.53430801 176.76661469 485.75055801 177.85036469 484.94305801 C184.23802033 478.98124608 188.33676242 472.06563915 188.83657074 463.25647354 C188.89425127 459.45437599 188.8880186 455.65535057 188.85817719 451.85321426 C188.85444176 450.45074542 188.85159729 449.04827394 188.84960175 447.64580154 C188.84200689 443.97479275 188.82239467 440.30394506 188.80019379 436.63299942 C188.77964541 432.87895257 188.7705809 429.1248794 188.76052094 425.37079239 C188.73914434 418.0198079 188.70505926 410.66895563 188.66286469 403.31805801 C187.75665375 403.84480118 186.85044281 404.37154434 185.91677094 404.91424942 C135.51847458 434.06561022 76.16979555 443.16916145 18.66286469 444.31805801 C17.86557953 444.33465469 17.06829437 444.35125137 16.24684906 444.36835098 C11.04907045 444.45948087 5.86018262 444.41825241 0.66286469 444.31805801 C-0.61620758 444.29920547 -0.61620758 444.29920547 -1.92111969 444.27997208 C-64.90871209 443.18161192 -128.90834075 431.02138298 -183.33713531 398.31805801 Z " fill="#DF6B1F" transform="translate(285.3371353149414,17.681941986083984)"/>
<path d="M0 0 C0.71027344 0.58652344 1.42054688 1.17304688 2.15234375 1.77734375 C14.82687935 12.50569346 24.34994888 26.36853976 32 41 C32.31211426 41.59683594 32.62422852 42.19367188 32.94580078 42.80859375 C49.36021346 74.76129661 51.52954101 112.58816307 41.10742188 146.79663086 C35.34469595 164.63811384 26.34966686 180.85028945 14 195 C13.15695312 195.97582031 12.31390625 196.95164062 11.4453125 197.95703125 C5.48237191 204.72669751 -0.82237387 210.50224382 -8 216 C-3.89738137 222.35381365 0.5025981 228.37762428 5.1875 234.3125 C6.41040259 235.87090047 7.63306731 237.42948765 8.85546875 238.98828125 C9.38809326 239.66415283 9.92071777 240.34002441 10.46948242 241.03637695 C10.97455322 241.68437256 11.47962402 242.33236816 12 243 C12.58048096 243.6808667 13.16096191 244.3617334 13.7590332 245.06323242 C14.16855225 245.70236572 14.57807129 246.34149902 15 247 C13.8362632 250.49121041 12.94674297 251.04280542 10.02734375 253.14453125 C9.20943359 253.73943359 8.39152344 254.33433594 7.54882812 254.94726562 C6.68708984 255.56279297 5.82535156 256.17832031 4.9375 256.8125 C3.2589035 258.02705207 1.58051611 259.2418932 -0.09765625 260.45703125 C-0.91508301 261.04564941 -1.73250977 261.63426758 -2.57470703 262.24072266 C-6.08183608 264.78475043 -9.5450366 267.38574235 -13 270 C-16.46089672 268.56260763 -18.16535462 266.86180917 -20.3984375 263.87890625 C-21.03523437 263.03585937 -21.67203125 262.1928125 -22.328125 261.32421875 C-23.00359375 260.41285156 -23.6790625 259.50148438 -24.375 258.5625 C-25.08398438 257.61890625 -25.79296875 256.6753125 -26.5234375 255.703125 C-31.62989257 248.89147868 -36.67696399 242.03534109 -41.70849609 235.16821289 C-46.72767929 228.32973525 -51.86981777 221.58907873 -57.02587891 214.85351562 C-62.13078874 208.17243548 -67.14299891 201.42827609 -72.09985352 194.63671875 C-74.72067821 191.054302 -77.36493836 187.50484977 -80.12890625 184.03125 C-80.60602051 183.42925781 -81.08313477 182.82726562 -81.57470703 182.20703125 C-82.84147169 180.62028483 -84.12138763 179.04406213 -85.40234375 177.46875 C-85.92957031 176.6540625 -86.45679688 175.839375 -87 175 C-85.8362632 171.50878959 -84.94674297 170.95719458 -82.02734375 168.85546875 C-81.20943359 168.26056641 -80.39152344 167.66566406 -79.54882812 167.05273438 C-78.68708984 166.43720703 -77.82535156 165.82167969 -76.9375 165.1875 C-75.2589035 163.97294793 -73.58051611 162.7581068 -71.90234375 161.54296875 C-71.08491699 160.95435059 -70.26749023 160.36573242 -69.42529297 159.75927734 C-65.91816392 157.21524957 -62.4549634 154.61425765 -59 152 C-55.39863375 153.46852791 -53.67372461 155.34937443 -51.35546875 158.4375 C-50.67806641 159.33339844 -50.00066406 160.22929687 -49.30273438 161.15234375 C-48.25569336 162.56193359 -48.25569336 162.56193359 -47.1875 164 C-46.15786133 165.36318359 -46.15786133 165.36318359 -45.10742188 166.75390625 C-40.60411987 172.7441074 -36.25795072 178.8333704 -32 185 C-15.08264168 176.9090895 -3.76118033 156.97078278 2.90625 140.14453125 C12.23197925 113.33305965 11.20260345 85.64045331 -0.9609375 59.97216797 C-12.82278075 35.97837166 -33.14876253 18.04571777 -58.4140625 9.0625 C-87.95407156 0.30990472 -115.86734676 3.07664943 -143.0625 17.625 C-165.26851735 30.45375135 -181.95973493 52.44901036 -188.58984375 77.20214844 C-195.52317263 104.85616118 -192.01861288 131.67362236 -178.0703125 156.671875 C-163.48939245 180.11139176 -140.90564896 196.50247775 -114 203 C-105.03477554 204.92393409 -96.39804448 205.24913839 -87.25 205.125 C-85.32800781 205.11146484 -85.32800781 205.11146484 -83.3671875 205.09765625 C-80.24458779 205.07435327 -77.12239975 205.04164054 -74 205 C-73.28157153 209.16153511 -72.56971975 213.32412741 -71.86376953 217.48779297 C-71.62303325 218.90215903 -71.38054625 220.31622833 -71.13623047 221.72998047 C-70.78405219 223.76973958 -70.43831919 225.81050595 -70.09375 227.8515625 C-69.77954102 229.68968506 -69.77954102 229.68968506 -69.45898438 231.56494141 C-69.03179927 234.76201291 -68.91378884 237.78001327 -69 241 C-76.36687688 242.77736969 -83.37071018 243.35316266 -90.9375 243.3125 C-92.02998047 243.30758545 -93.12246094 243.3026709 -94.24804688 243.29760742 C-132.14975497 242.75765761 -166.35357889 226.68332751 -193 200 C-198.9013252 193.42765184 -204.1254827 186.35910136 -209 179 C-209.73476563 177.92105469 -209.73476563 177.92105469 -210.484375 176.8203125 C-229.45217558 147.3488374 -234.27577028 109.21224712 -227.50048828 75.27978516 C-222.5118104 52.55574905 -211.60684181 31.93779392 -197 14 C-196.443125 13.30003906 -195.88625 12.60007813 -195.3125 11.87890625 C-191.63958013 7.39754478 -187.43617432 3.70969281 -183 0 C-182.19820312 -0.70125 -181.39640625 -1.4025 -180.5703125 -2.125 C-128.48714166 -46.63524689 -51.41707788 -43.06506523 0 0 Z " fill="#DF6B1F" transform="translate(972,197)"/>
<path d="M0 0 C16.17368494 12.91578447 27.10772705 30.68843639 30.19921875 51.234375 C30.19921875 55.194375 30.19921875 59.154375 30.19921875 63.234375 C17.98921875 63.234375 5.77921875 63.234375 -6.80078125 63.234375 C-7.79078125 57.294375 -7.79078125 57.294375 -8.80078125 51.234375 C-12.82531018 39.95231606 -19.05697746 32.29324781 -29.48828125 26.359375 C-40.12383601 21.48749821 -51.25822272 21.31265303 -62.19921875 25.0546875 C-72.29716816 29.15590245 -80.17052737 36.00686954 -85.08984375 45.80078125 C-90.43542195 59.01089717 -89.62521325 73.19841194 -84.73828125 86.421875 C-81.52749566 93.56326831 -76.46993388 100.87979449 -69.17578125 104.296875 C-62.95638821 106.07793732 -62.95638821 106.07793732 -56.58984375 105.76953125 C-42.20107546 103.00866114 -28.12481053 106.04052608 -15.5546875 113.359375 C1.29264706 124.82990066 12.10615336 142.27526694 17.13671875 161.859375 C21.0301726 183.15170076 17.85688347 202.98365914 6.19921875 221.234375 C3.72040615 224.76137121 1.07685327 228.02719543 -1.80078125 231.234375 C-2.31769531 231.84410156 -2.83460938 232.45382812 -3.3671875 233.08203125 C-16.27332188 247.28201369 -36.97300081 255.38162993 -55.7734375 256.39453125 C-79.02002644 256.99731766 -99.53906472 248.88334341 -116.55078125 233.046875 C-132.22375324 216.53839531 -138.88637832 195.57576568 -138.93359375 173.1484375 C-138.80078125 170.234375 -138.80078125 170.234375 -137.80078125 169.234375 C-135.1396717 169.27409305 -132.51762286 169.38245405 -129.86328125 169.546875 C-129.06873535 169.59320068 -128.27418945 169.63952637 -127.45556641 169.68725586 C-118.86975861 170.22755655 -110.33838351 171.19492697 -101.80078125 172.234375 C-101.71441406 173.17796875 -101.62804687 174.1215625 -101.5390625 175.09375 C-100.02745918 188.90619864 -96.48748258 199.6725896 -85.80078125 209.234375 C-76.91789078 216.02210875 -66.00479414 219.69434154 -54.80078125 218.234375 C-42.1018772 215.48992321 -32.37559955 209.9214556 -24.80078125 199.234375 C-19.25621097 189.74670012 -18.33779298 180.47575826 -20.5 169.7734375 C-23.25547239 159.79792986 -27.98278112 151.04320878 -36.80078125 145.234375 C-40.76335188 143.31796034 -43.79701575 143.03742866 -48.17578125 143.1796875 C-49.40941406 143.20417969 -50.64304687 143.22867188 -51.9140625 143.25390625 C-54.4742078 143.32337753 -57.03414008 143.40129142 -59.59375 143.48828125 C-76.47851086 143.785733 -90.48336612 137.91501688 -102.66333008 126.39306641 C-118.73441714 110.68392886 -126.39711024 88.28639232 -126.84423828 66.07568359 C-126.75645915 43.42350532 -119.28867819 23.04333754 -103.35644531 6.74609375 C-75.87244377 -19.96152356 -30.66860182 -23.11072663 0 0 Z " fill="#DF6B1F" transform="translate(707.80078125,176.765625)"/>
<path d="M0 0 C11.88 0 23.76 0 36 0 C36.029729 8.6301123 36.029729 8.6301123 36.06005859 17.43457031 C36.12698257 36.44952891 36.20452333 55.46443328 36.28752708 74.47932816 C36.33759031 86.00736421 36.38403387 97.53539338 36.421875 109.06347656 C36.45487712 119.11455948 36.49475352 129.16558795 36.54279006 139.21661067 C36.56797344 144.53561195 36.58977862 149.85457748 36.60334396 155.17362213 C36.61623863 160.18702207 36.63837192 165.20029891 36.66738319 170.21363068 C36.67640137 172.04689192 36.68213562 173.88017295 36.68421364 175.7134552 C36.70638612 192.31347059 37.22444122 208.57793429 49.2421875 221.4765625 C60.91728866 231.5949835 73.67366168 233.07596074 88.5 233.31640625 C90.11442993 233.3475779 90.11442993 233.3475779 91.76147461 233.37937927 C95.17425615 233.44437179 98.58710972 233.50352425 102 233.5625 C104.32422597 233.60573313 106.64844487 233.6493489 108.97265625 233.69335938 C114.64836501 233.80071575 120.32413415 233.90016254 126 234 C126 245.88 126 257.76 126 270 C118.45957844 270.0844077 110.92091608 270.16447879 103.38043213 270.20700073 C99.86734333 270.22792811 96.35465473 270.25578125 92.84179688 270.30175781 C67.6904858 270.62201141 46.90060739 269.05766348 27 252 C26.41089844 251.55398438 25.82179688 251.10796875 25.21484375 250.6484375 C11.05823994 239.61983044 2.73083296 221.40627019 0 204 C-0.6481593 197.17075965 -0.50870345 190.30883447 -0.45410156 183.45703125 C-0.45297057 181.4448448 -0.45361184 179.4326567 -0.45587158 177.42047119 C-0.45700984 172.00821997 -0.4336457 166.59633008 -0.40557575 161.18416214 C-0.38041265 155.50943123 -0.37820842 149.83469021 -0.37347412 144.15991211 C-0.36108789 133.43641098 -0.32832565 122.71307477 -0.28807616 111.98964596 C-0.24322234 99.77187654 -0.2213373 87.55409885 -0.20129442 75.33626747 C-0.15958881 50.22408409 -0.08850754 25.1120583 0 0 Z " fill="#DF6B1F" transform="translate(1038,168)"/>
</svg>
