<?xml version="1.0" encoding="UTF-8"?>
<svg version="1.1" xmlns="http://www.w3.org/2000/svg" width="653" height="382">
<path d="M0 0 C215.49 0 430.98 0 653 0 C653 126.06 653 252.12 653 382 C437.51 382 222.02 382 0 382 C0 255.94 0 129.88 0 0 Z " fill="#FEFEFE" transform="translate(0,0)"/>
<path d="M0 0 C3.19581153 2.19141362 5.26290248 5.15561743 7.1875 8.5 C7.1875 9.16 7.1875 9.82 7.1875 10.5 C7.8475 10.5 8.5075 10.5 9.1875 10.5 C9.1875 11.49 9.1875 12.48 9.1875 13.5 C9.8475 13.5 10.5075 13.5 11.1875 13.5 C12.84375 15.94921875 12.84375 15.94921875 14.6875 19.1875 C15.2959375 20.24324219 15.904375 21.29898438 16.53125 22.38671875 C18.1875 25.5 18.1875 25.5 19.21875 28.33203125 C19.5384375 29.04746094 19.858125 29.76289062 20.1875 30.5 C21.6725 30.995 21.6725 30.995 23.1875 31.5 C25.01171875 34.22265625 25.01171875 34.22265625 26.875 37.5625 C27.80892578 39.21958984 27.80892578 39.21958984 28.76171875 40.91015625 C29.46748047 42.19212891 29.46748047 42.19212891 30.1875 43.5 C41.23945397 38.12427616 52.0750407 32.38261174 62.87255859 26.51318359 C68.64650025 23.38011177 74.44003798 20.32909387 80.34619141 17.4519043 C82.15259501 16.63604048 82.15259501 16.63604048 83.1875 15.5 C84.85367115 15.45936168 86.52138095 15.457279 88.1875 15.5 C89.24611152 18.69229887 89.15857886 20.3770536 87.89453125 23.4765625 C87.59595215 24.22470215 87.29737305 24.9728418 86.98974609 25.74365234 C86.66312988 26.52949707 86.33651367 27.3153418 86 28.125 C85.67338379 28.93533691 85.34676758 29.74567383 85.01025391 30.58056641 C84.36414681 32.18123014 83.71355764 33.78009332 83.05810547 35.37695312 C82.03681119 37.86746772 81.04877269 40.37044032 80.0625 42.875 C78.68441891 46.30852406 77.25227118 49.71693404 75.8125 53.125 C73.50844609 58.61928241 71.4218208 64.17874645 69.35693359 69.765625 C67.7240332 74.15397851 65.95685908 78.43649847 63.98046875 82.6796875 C63.05407078 84.69888403 63.05407078 84.69888403 62.25 87.75 C60.86674565 91.33018772 59.10945546 93.02158265 56.1875 95.5 C53.20605469 96.34301758 53.20605469 96.34301758 49.859375 96.64453125 C48.60189453 96.7640918 47.34441406 96.88365234 46.04882812 97.00683594 C44.6785184 97.1104971 43.30806963 97.21233374 41.9375 97.3125 C40.50454893 97.43121427 39.07160638 97.55003126 37.63867188 97.66894531 C22.85819486 98.82551273 8.09692957 98.85332815 -6.7164917 98.5435791 C-8.85016648 98.49921686 -10.98389518 98.45980724 -13.11767578 98.42089844 C-54.75088696 97.62675571 -54.75088696 97.62675571 -61.8125 92.5 C-64.74327296 88.19003976 -66.42725522 83.9876523 -67.984375 79.04296875 C-71.63832992 67.82256943 -76.42698599 56.90985319 -80.82397461 45.96411133 C-81.84667913 43.4148012 -82.86479305 40.86368417 -83.8828125 38.3125 C-85.01225256 35.48379487 -86.15981193 32.66698706 -87.33203125 29.85546875 C-87.97205078 28.28732422 -87.97205078 28.28732422 -88.625 26.6875 C-89.28435547 25.10001953 -89.28435547 25.10001953 -89.95703125 23.48046875 C-90.86634912 20.31238867 -90.75196002 18.61808509 -89.8125 15.5 C-85.23768673 16.04220009 -81.99832174 17.23620578 -78 19.5 C-76.865625 20.13035156 -75.73125 20.76070312 -74.5625 21.41015625 C-73.95664063 21.74934082 -73.35078125 22.08852539 -72.7265625 22.43798828 C-69.34168154 24.31607912 -65.92109947 26.12646742 -62.5 27.9375 C-61.79174072 28.31334229 -61.08348145 28.68918457 -60.35375977 29.07641602 C-54.58298451 32.12501683 -48.75960873 35.06104211 -42.90112305 37.93725586 C-40.07371572 39.33181847 -37.44087366 40.74775089 -34.8125 42.5 C-33.8225 42.5 -32.8325 42.5 -31.8125 42.5 C-30.24398577 40.2431244 -30.24398577 40.2431244 -28.8125 37.5 C-27.74445368 35.92701099 -26.66057029 34.36467879 -25.5625 32.8125 C-24.95277344 31.94625 -24.34304688 31.08 -23.71484375 30.1875 C-22.45991436 28.41462234 -21.20216018 26.64374037 -19.94140625 24.875 C-16.62676551 20.19886167 -13.55011285 15.53720765 -10.8125 10.5 C-10.1525 10.5 -9.4925 10.5 -8.8125 10.5 C-8.544375 9.778125 -8.27625 9.05625 -8 8.3125 C-4.02183425 -1.10947152 -4.02183425 -1.10947152 0 0 Z " fill="#FB4D4E" transform="translate(327.8125,71.5)"/>
<path d="M0 0 C3.19581153 2.19141362 5.26290248 5.15561743 7.1875 8.5 C7.1875 9.16 7.1875 9.82 7.1875 10.5 C7.8475 10.5 8.5075 10.5 9.1875 10.5 C9.1875 11.49 9.1875 12.48 9.1875 13.5 C9.8475 13.5 10.5075 13.5 11.1875 13.5 C12.84375 15.94921875 12.84375 15.94921875 14.6875 19.1875 C15.60015625 20.77111328 15.60015625 20.77111328 16.53125 22.38671875 C18.1875 25.5 18.1875 25.5 19.21875 28.33203125 C19.5384375 29.04746094 19.858125 29.76289062 20.1875 30.5 C21.1775 30.83 22.1675 31.16 23.1875 31.5 C25.01171875 34.22265625 25.01171875 34.22265625 26.875 37.5625 C27.49761719 38.66722656 28.12023437 39.77195313 28.76171875 40.91015625 C29.23222656 41.76480469 29.70273437 42.61945313 30.1875 43.5 C41.23945397 38.12427616 52.0750407 32.38261174 62.87255859 26.51318359 C68.64650025 23.38011177 74.44003798 20.32909387 80.34619141 17.4519043 C82.15259501 16.63604048 82.15259501 16.63604048 83.1875 15.5 C84.85367115 15.45936168 86.52138095 15.457279 88.1875 15.5 C89.24611152 18.69229887 89.15857886 20.3770536 87.89453125 23.4765625 C87.59595215 24.22470215 87.29737305 24.9728418 86.98974609 25.74365234 C86.49982178 26.92241943 86.49982178 26.92241943 86 28.125 C85.51007568 29.34050537 85.51007568 29.34050537 85.01025391 30.58056641 C84.36414681 32.18123014 83.71355764 33.78009332 83.05810547 35.37695312 C82.03681119 37.86746772 81.04877269 40.37044032 80.0625 42.875 C78.68441891 46.30852406 77.25227118 49.71693404 75.8125 53.125 C73.50844609 58.61928241 71.4218208 64.17874645 69.35693359 69.765625 C67.72568031 74.14955197 65.95862547 78.42726906 63.98828125 82.66796875 C63.04573516 84.73109191 63.04573516 84.73109191 62.125 87.9375 C61.1875 90.5 61.1875 90.5 58.1875 92.5 C56.07788086 91.90429688 56.07788086 91.90429688 53.65234375 90.71875 C52.76466309 90.29134521 51.87698242 89.86394043 50.96240234 89.42358398 C50.02605957 88.95380127 49.0897168 88.48401855 48.125 88 C47.1757666 87.53601807 46.2265332 87.07203613 45.24853516 86.59399414 C39.64521495 83.82510763 34.18121343 80.95381106 28.9296875 77.55859375 C27.0594124 76.33375939 27.0594124 76.33375939 24.1875 75.5 C24.1875 74.84 24.1875 74.18 24.1875 73.5 C21.2175 73.005 21.2175 73.005 18.1875 72.5 C18.1875 71.84 18.1875 71.18 18.1875 70.5 C17.1975 70.26152344 16.2075 70.02304688 15.1875 69.77734375 C10.79350919 68.52081268 7.09941735 66.38192226 3.1875 64.0625 C-0.72301293 61.76638465 -4.5416118 59.5478911 -8.75 57.83984375 C-11.8125 56.5 -11.8125 56.5 -12.8125 54.5 C-14.58475042 53.54315593 -14.58475042 53.54315593 -16.75 52.6875 C-21.88178593 50.50112818 -26.84350091 48.03118116 -31.8125 45.5 C-30.51324348 38.19168207 -26.22641817 33.30274595 -21.8125 27.5 C-17.82482594 21.98786302 -14.0625525 16.48009659 -10.8125 10.5 C-10.1525 10.5 -9.4925 10.5 -8.8125 10.5 C-8.544375 9.778125 -8.27625 9.05625 -8 8.3125 C-4.02183425 -1.10947152 -4.02183425 -1.10947152 0 0 Z " fill="#BD4143" transform="translate(327.8125,71.5)"/>
<path d="M0 0 C3.63 0 7.26 0 11 0 C11 3.3 11 6.6 11 10 C11.680625 9.278125 12.36125 8.55625 13.0625 7.8125 C14.03837481 6.87157388 15.01775239 5.93427151 16 5 C16.44988281 4.52304688 16.89976562 4.04609375 17.36328125 3.5546875 C22.32636723 -0.93389155 27.8678857 -0.77198155 34.31640625 -0.5546875 C39.53974244 0.23185941 43.42864818 2.07066065 47 6 C48.23046875 8.70703125 48.23046875 8.70703125 49 11 C49.680625 10.278125 50.36125 9.55625 51.0625 8.8125 C57.88072102 1.99427898 63.49434111 -0.34524483 73.22338867 -0.46191406 C78.54635274 -0.34604352 81.62581224 0.83845838 85.58203125 4.296875 C87.08250773 6.0991002 88.04782337 7.86340853 89 10 C89.66 10 90.32 10 91 10 C93.31418658 16.42148081 93.27394808 22.46483554 93.23046875 29.2421875 C93.23001053 30.40630157 93.22955231 31.57041565 93.2290802 32.76980591 C93.22606911 35.21894354 93.21821721 37.66807944 93.20581055 40.1171875 C93.1874616 43.88288069 93.18530165 47.6483291 93.18554688 51.4140625 C93.18063483 53.79427298 93.17480789 56.17448178 93.16796875 58.5546875 C93.16685593 59.68687714 93.1657431 60.81906677 93.16459656 61.98556519 C93.15821671 63.02399567 93.15183685 64.06242615 93.14526367 65.13232422 C93.14145187 66.05052948 93.13764008 66.96873474 93.13371277 67.9147644 C93 70 93 70 92 71 C90.31391034 71.07205511 88.62499341 71.08386068 86.9375 71.0625 C85.55884766 71.04896484 85.55884766 71.04896484 84.15234375 71.03515625 C83.08693359 71.01775391 83.08693359 71.01775391 82 71 C81.9845388 70.01734161 81.9845388 70.01734161 81.96876526 69.01483154 C81.86065576 62.20168161 81.74606117 55.38866273 81.62768555 48.57568359 C81.58435101 46.03241719 81.54267487 43.48912198 81.50268555 40.94580078 C81.44494742 37.29190381 81.38126275 33.63815169 81.31640625 29.984375 C81.29969376 28.84570984 81.28298126 27.70704468 81.26576233 26.53387451 C81.2358445 24.94267792 81.2358445 24.94267792 81.20532227 23.31933594 C81.18200584 21.92035065 81.18200584 21.92035065 81.15821838 20.49310303 C81.01014894 18.15992048 80.80142588 16.1961628 80 14 C77.63813861 12.73854232 77.63813861 12.73854232 75 12 C74.01 11.67 73.02 11.34 72 11 C66.98182789 10.52614783 62.53484259 10.20060282 58 12.5625 C52.73231121 18.98249571 52.54917944 25.15034632 52.5234375 33.1484375 C52.50006821 34.72813828 52.50006821 34.72813828 52.47622681 36.3397522 C52.42889625 39.68482799 52.40098855 43.02969618 52.375 46.375 C52.33853708 49.74158283 52.29800551 53.10804717 52.25234985 56.47451782 C52.2250664 58.56557258 52.20373999 60.65671483 52.18881226 62.74789429 C52.17341904 64.15538437 52.17341904 64.15538437 52.15771484 65.59130859 C52.15121918 66.42068939 52.14472351 67.25007019 52.13803101 68.10458374 C52 70 52 70 51 71 C49.50261876 71.0979057 48.00057108 71.12974864 46.5 71.125 C45.6853125 71.12757813 44.870625 71.13015625 44.03125 71.1328125 C42 71 42 71 41 70 C40.89292722 68.43612896 40.85378113 66.86753888 40.84228516 65.30004883 C40.83202301 64.29843216 40.82176086 63.29681549 40.81118774 62.2648468 C40.80388641 61.17326767 40.79658508 60.08168854 40.7890625 58.95703125 C40.76098458 56.66340444 40.73232006 54.36978474 40.703125 52.07617188 C40.66190423 48.44653592 40.62503296 44.81703155 40.59863281 41.18725586 C40.57099398 37.69356485 40.5251082 34.20048599 40.4765625 30.70703125 C40.47330963 29.62557327 40.47005676 28.5441153 40.46670532 27.42988586 C40.37716274 21.93090983 40.24077503 17.67966361 37 13 C32.07706866 10.35842708 26.46568192 10.59548309 21 11 C17.88667752 11.66868314 17.88667752 11.66868314 16.8125 14.0625 C16.544375 14.701875 16.27625 15.34125 16 16 C15.34 16 14.68 16 14 16 C12.27701981 22.74985048 11.66960792 28.98957618 11.5859375 35.94140625 C11.56657135 36.94968979 11.5472052 37.95797333 11.5272522 38.99681091 C11.46795567 42.18529062 11.42127231 45.37380741 11.375 48.5625 C11.3367742 50.73764507 11.29771986 52.91277575 11.2578125 55.08789062 C11.16229587 60.39179836 11.07710564 65.69579435 11 71 C9.35425434 71.02688151 7.70838587 71.04634123 6.0625 71.0625 C5.14597656 71.07410156 4.22945313 71.08570313 3.28515625 71.09765625 C1 71 1 71 0 70 C-0.09429342 67.82194281 -0.11742538 65.6407872 -0.11352539 63.46069336 C-0.11367142 62.77779739 -0.11381744 62.09490143 -0.1139679 61.39131165 C-0.11326876 59.12412386 -0.1054764 56.85701726 -0.09765625 54.58984375 C-0.09579207 53.02185613 -0.09436817 51.45386793 -0.09336853 49.88587952 C-0.08954334 45.75123497 -0.07971306 41.61662534 -0.06866455 37.48199463 C-0.05845044 33.26599602 -0.05387091 29.04999178 -0.04882812 24.83398438 C-0.03809079 16.55597353 -0.02101436 8.2779911 0 0 Z " fill="#31313A" transform="translate(385,237)"/>
<path d="M0 0 C1.7578125 1.1171875 1.7578125 1.1171875 3.625 2.5625 C4.88957031 3.49449219 4.88957031 3.49449219 6.1796875 4.4453125 C13.86216908 10.65810195 16.41422247 16.71040861 18.375 26.1875 C18.67978288 30.30206885 18.625 34.43665834 18.625 38.5625 C1.465 38.5625 -15.695 38.5625 -33.375 38.5625 C-30.45644348 50.33227809 -30.45644348 50.33227809 -22.9765625 58.3203125 C-15.52495415 61.87828766 -7.29062698 60.73783566 0.4453125 58.7421875 C3.3287426 57.18162139 3.67687056 55.62192798 4.625 52.5625 C5.625 51.5625 5.625 51.5625 8.9375 51.375 C12.27138318 51.54451948 13.88191987 51.80692871 16.625 53.5625 C14.9543397 59.50262552 10.65324554 64.58878316 5.52734375 67.9296875 C-2.83768614 72.21383365 -11.98017308 72.95114153 -21.19921875 70.94921875 C-29.09545971 68.13533068 -36.79883785 62.29086175 -40.6015625 54.66796875 C-45.26195542 41.98134358 -45.62623896 30.37966822 -41.375 17.5625 C-39.68685735 14.26383046 -37.71997025 11.42456626 -35.375 8.5625 C-34.6325 7.655 -33.89 6.7475 -33.125 5.8125 C-24.05298428 -1.61005832 -11.24718818 -4.93778993 0 0 Z " fill="#32323B" transform="translate(283.375,238.4375)"/>
<path d="M0 0 C4.24784483 2.61853448 4.24784483 2.61853448 5.4375 6.1875 C6.0975 6.1875 6.7575 6.1875 7.4375 6.1875 C10.48362307 13.4037744 10.83851508 19.89462903 10.73046875 27.66015625 C10.72622391 28.8238121 10.72197906 29.98746796 10.71760559 31.18638611 C10.70091785 34.87450058 10.66328319 38.56205286 10.625 42.25 C10.6099404 44.76236186 10.59625424 47.27473235 10.58398438 49.78710938 C10.55104664 55.92078695 10.49933235 62.05404841 10.4375 68.1875 C6.8075 68.1875 3.1775 68.1875 -0.5625 68.1875 C-0.5625 65.8775 -0.5625 63.5675 -0.5625 61.1875 C-1.14257812 61.66960937 -1.72265625 62.15171875 -2.3203125 62.6484375 C-3.10148437 63.28007812 -3.88265625 63.91171875 -4.6875 64.5625 C-5.45320313 65.18898438 -6.21890625 65.81546875 -7.0078125 66.4609375 C-13.59253729 70.91116435 -20.86882093 71.08043579 -28.5625 70.1875 C-35.51114595 67.85891504 -40.65562599 64.52452952 -44.3125 58.125 C-46.61617116 52.23924677 -46.58214255 45.18606421 -44.4375 39.25 C-40.10698671 32.17682829 -32.25495614 30.07742323 -24.5625 28.1875 C-18.24850278 27.08180096 -11.89025173 26.27522803 -5.52685547 25.51293945 C-3.49165389 25.27499798 -3.49165389 25.27499798 -1.5625 24.1875 C-1.25757757 17.42975871 -1.25757757 17.42975871 -3.5625 11.1875 C-7.01781657 7.72371451 -10.64275843 7.5743672 -15.3125 7.5625 C-16.38286499 7.55790771 -16.38286499 7.55790771 -17.47485352 7.55322266 C-23.29623796 7.74862019 -26.36514028 9.2821883 -30.27734375 13.4609375 C-31.62459586 15.16559749 -31.62459586 15.16559749 -32.5625 17.1875 C-35.8625 16.5275 -39.1625 15.8675 -42.5625 15.1875 C-43.5625 11.1875 -43.5625 11.1875 -42.55078125 9.2578125 C-31.92580021 -3.07608157 -14.84061579 -7.71016367 0 0 Z " fill="#303039" transform="translate(357.5625,239.8125)"/>
<path d="M0 0 C4.61775803 5.42276949 7.15499101 9.8704134 7 17 C3.37 17 -0.26 17 -4 17 C-4.391875 15.9275 -4.78375 14.855 -5.1875 13.75 C-7.20970675 9.0724657 -9.99034277 6.80099195 -14.734375 4.91015625 C-22.17707501 2.83581522 -31.8950547 2.67428092 -39 6 C-42.3210053 9.03222223 -44.20709351 11.59683843 -45 16 C-45 20.58725572 -44.7766401 22.35070158 -42 26 C-36.57653352 30.14279104 -31.83079676 32.36751882 -25 33 C-23.08140332 33.70348545 -21.16322753 34.40967483 -19.265625 35.16796875 C-14.93952943 36.75669005 -10.45775291 37.84458978 -6 39 C-6 39.66 -6 40.32 -6 41 C-4.9790625 41.2784375 -4.9790625 41.2784375 -3.9375 41.5625 C1.27446947 44.11303825 5.01064172 47.84922114 7.4375 53.125 C8.25488635 58.75588374 8.15370491 64.32145766 8 70 C7.34 70 6.68 70 6 70 C5.979375 70.845625 5.95875 71.69125 5.9375 72.5625 C4.35240759 78.3745055 0.55328581 81.53878222 -4.59375 84.484375 C-17.86262815 90.82063704 -29.16851442 91.08484271 -42.98046875 86.61328125 C-49.9870596 84.03768494 -53.92874498 79.2913597 -57.4375 72.875 C-58.88815523 69.64138085 -59.64575208 66.54247921 -60 63 C-56.04 63 -52.08 63 -48 63 C-46.9171875 65.10375 -46.9171875 65.10375 -45.8125 67.25 C-42.64151179 72.93991406 -39.18836151 75.91678919 -33 78 C-22.43021591 79.22604333 -14.79275046 77.52117109 -6.4375 71 C-4.66752353 68.53742404 -4.2750174 67.02519136 -4 64 C-3.835 62.700625 -3.67 61.40125 -3.5 60.0625 C-3.54128094 57.56046526 -3.69681061 56.38656499 -5.25268555 54.40283203 C-9.9514927 50.36600965 -14.38050313 48.45843692 -20.3125 46.8125 C-21.57489502 46.43653687 -21.57489502 46.43653687 -22.86279297 46.05297852 C-26.27951616 45.03999181 -29.70909744 44.08022406 -33.14453125 43.1328125 C-42.09751503 40.6231572 -49.82323474 37.04497304 -55 29 C-57.93683456 22.61557703 -57.18344921 15.77634249 -56 9 C-53.01219204 2.5463348 -47.02161395 -1.9855907 -41.1875 -5.875 C-27.73345303 -10.62348717 -11.05473968 -9.20094487 0 0 Z " fill="#31313A" transform="translate(132,221)"/>
<path d="M0 0 C1.2065625 0.0309375 1.2065625 0.0309375 2.4375 0.0625 C3.49611152 3.25479887 3.40857886 4.9395536 2.14453125 8.0390625 C1.84595215 8.78720215 1.54737305 9.5353418 1.23974609 10.30615234 C0.74982178 11.48491943 0.74982178 11.48491943 0.25 12.6875 C-0.23992432 13.90300537 -0.23992432 13.90300537 -0.73974609 15.14306641 C-1.38585319 16.74373014 -2.03644236 18.34259332 -2.69189453 19.93945312 C-3.71318881 22.42996772 -4.70122731 24.93294032 -5.6875 27.4375 C-7.06558109 30.87102406 -8.49772882 34.27943404 -9.9375 37.6875 C-11.95583245 42.5004466 -13.81439243 47.35657382 -15.625 52.25 C-20.97658324 66.68362487 -20.97658324 66.68362487 -24.5625 72.0625 C-25.2225 72.0625 -25.8825 72.0625 -26.5625 72.0625 C-26.5625 71.4025 -26.5625 70.7425 -26.5625 70.0625 C-28.0475 69.5675 -28.0475 69.5675 -29.5625 69.0625 C-32.5625 63.84027778 -32.5625 63.84027778 -32.5625 61.0625 C-33.2225 61.0625 -33.8825 61.0625 -34.5625 61.0625 C-35.14 60.010625 -35.7175 58.95875 -36.3125 57.875 C-38.13983443 54.67556183 -40.21429781 51.90880568 -42.5625 49.0625 C-45.73748622 44.89163301 -48.21372834 40.76004332 -50.5625 36.0625 C-51.09875 35.546875 -51.635 35.03125 -52.1875 34.5 C-54.06427269 32.53791946 -54.11101475 30.69048488 -54.5625 28.0625 C-52.88800781 27.18851563 -52.88800781 27.18851563 -51.1796875 26.296875 C-41.16345162 21.05409468 -31.20287946 15.72103545 -21.30224609 10.26269531 C-16.08655753 7.39761634 -10.82945217 4.66308341 -5.48071289 2.05395508 C-1.58146069 0.03857221 -1.58146069 0.03857221 0 0 Z " fill="#7F373E" transform="translate(413.5625,86.9375)"/>
<path d="M0 0 C3.63 0 7.26 0 11 0 C11 5.28 11 10.56 11 16 C15.95 16 20.9 16 26 16 C26 19.3 26 22.6 26 26 C21.05 26 16.1 26 11 26 C11.0937432 32.29908584 11.19988436 38.59779678 11.31738281 44.89648438 C11.35560153 47.03802816 11.39046668 49.17963457 11.421875 51.32128906 C11.46767979 54.40452417 11.52564917 57.48733071 11.5859375 60.5703125 C11.59748871 61.52366486 11.60903992 62.47701721 11.62094116 63.45925903 C11.72891363 68.35249674 12.09537324 72.40884707 14 77 C17.96 77.33 21.92 77.66 26 78 C26.87890625 84.93359375 26.87890625 84.93359375 27 87 C25.15526785 88.84473215 22.28789953 88.21643526 19.8125 88.25 C14.76751977 88.1948636 11.15472305 88.11604229 7 85 C2.3376127 80.12568601 -0.26371341 75.91883839 -0.22705078 69.11791992 C-0.22689972 68.17732224 -0.22674866 67.23672455 -0.22659302 66.2676239 C-0.21627045 65.2653627 -0.20594788 64.2631015 -0.1953125 63.23046875 C-0.1924826 62.19432938 -0.18965271 61.15819 -0.18673706 60.09065247 C-0.17556454 56.78948293 -0.15046505 53.48858719 -0.125 50.1875 C-0.11496643 47.94596747 -0.10584124 45.70443067 -0.09765625 43.46289062 C-0.07563478 37.9751674 -0.04218621 32.48760326 0 27 C-0.63808594 27.01160156 -1.27617188 27.02320313 -1.93359375 27.03515625 C-3.17302734 27.04869141 -3.17302734 27.04869141 -4.4375 27.0625 C-5.67306641 27.07990234 -5.67306641 27.07990234 -6.93359375 27.09765625 C-9 27 -9 27 -10 26 C-10.14257189 22.66381769 -10.04228157 19.34024394 -10 16 C-6.7 16 -3.4 16 0 16 C0 10.72 0 5.44 0 0 Z " fill="#2F2F38" transform="translate(556,221)"/>
<path d="M0 0 C3.63 0 7.26 0 11 0 C11 5.28 11 10.56 11 16 C15.62 16 20.24 16 25 16 C25 19.63 25 23.26 25 27 C20.38 27 15.76 27 11 27 C11.09345199 33.49643284 11.19952775 39.99248934 11.31738281 46.48852539 C11.35570017 48.69907968 11.39054814 50.90969692 11.421875 53.12036133 C11.46746552 56.29531371 11.52547003 59.46983172 11.5859375 62.64453125 C11.59748871 63.63524124 11.60903992 64.62595123 11.62094116 65.64668274 C11.64081085 66.56741074 11.66068054 67.48813873 11.68115234 68.43676758 C11.69447601 69.2472908 11.70779968 70.05781403 11.7215271 70.89289856 C11.88223777 73.30100191 11.88223777 73.30100191 14 76 C16.64691668 76.80092254 16.64691668 76.80092254 19.625 77.1875 C21.12933594 77.42533203 21.12933594 77.42533203 22.6640625 77.66796875 C23.43492187 77.77753906 24.20578125 77.88710938 25 78 C25.36116046 79.4774746 25.71375048 80.95704675 26.0625 82.4375 C26.25972656 83.26121094 26.45695312 84.08492188 26.66015625 84.93359375 C26.77230469 85.61550781 26.88445312 86.29742187 27 87 C25.15526785 88.84473215 22.28789953 88.21643526 19.8125 88.25 C13.73580153 88.17702655 9.74917103 87.81431726 5.3515625 83.3125 C1.69876456 79.19667133 -0.12758857 76.7802506 -0.11352539 71.18310547 C-0.11344986 70.18221893 -0.11337433 69.1813324 -0.11329651 68.15011597 C-0.10813522 67.06674957 -0.10297394 65.98338318 -0.09765625 64.8671875 C-0.0962413 63.76021515 -0.09482635 62.6532428 -0.09336853 61.51272583 C-0.08775772 57.96679007 -0.07520337 54.42091677 -0.0625 50.875 C-0.05748639 48.47526133 -0.05292325 46.07552167 -0.04882812 43.67578125 C-0.03778478 37.78382999 -0.02051286 31.8919256 0 26 C-3.63 26 -7.26 26 -11 26 C-11 22.7 -11 19.4 -11 16 C-7.37 16 -3.74 16 0 16 C0 10.72 0 5.44 0 0 Z " fill="#31313A" transform="translate(160,221)"/>
<path d="M0 0 C3.63 0 7.26 0 11 0 C11 2.97 11 5.94 11 9 C11.53109375 8.51789063 12.0621875 8.03578125 12.609375 7.5390625 C13.66898438 6.59160156 13.66898438 6.59160156 14.75 5.625 C15.44609375 4.99851563 16.1421875 4.37203125 16.859375 3.7265625 C21.22681745 0.20391731 24.11208452 -0.23775831 29.75 -0.125 C30.92046875 -0.10695312 32.0909375 -0.08890625 33.296875 -0.0703125 C34.63492188 -0.03550781 34.63492188 -0.03550781 36 0 C36 3.63 36 7.26 36 11 C34.98679688 11.01417969 33.97359375 11.02835938 32.9296875 11.04296875 C24.63565424 10.96877095 24.63565424 10.96877095 17.25 14.0625 C12.03315457 20.87338153 11.54313743 27.5602512 11.48828125 35.84375 C11.47033005 36.85344849 11.45237885 37.86314697 11.43388367 38.90344238 C11.38005901 42.10225349 11.34597429 45.30091777 11.3125 48.5 C11.27930237 50.67970781 11.24481047 52.85939631 11.20898438 55.0390625 C11.12434849 60.35926859 11.05740478 65.67943324 11 71 C7.37 71 3.74 71 0 71 C0 47.57 0 24.14 0 0 Z " fill="#303038" transform="translate(199,237)"/>
<path d="M0 0 C3.63 0 7.26 0 11 0 C11 31.02 11 62.04 11 94 C7.37 94 3.74 94 0 94 C0 62.98 0 31.96 0 0 Z " fill="#32323A" transform="translate(495,214)"/>
<path d="M0 0 C2.97 0 5.94 0 9 0 C11 2 11 2 11.24050903 4.86001587 C11.23606781 6.08135223 11.23162659 7.3026886 11.22705078 8.56103516 C11.22734283 9.23432358 11.22763489 9.907612 11.22793579 10.6013031 C11.22654047 12.83068654 11.21097016 15.05973732 11.1953125 17.2890625 C11.19158308 18.83319923 11.18873577 20.37733833 11.18673706 21.92147827 C11.17909499 25.98875443 11.15944168 30.05588811 11.1373291 34.12310791 C11.11688296 38.2721565 11.10773799 42.42122807 11.09765625 46.5703125 C11.07619625 54.71360711 11.04205349 62.85678584 11 71 C7.37 71 3.74 71 0 71 C0 47.57 0 24.14 0 0 Z " fill="#32323A" transform="translate(523,237)"/>
<path d="M0 0 C0.59528107 14.66155235 0.59528107 14.66155235 -3 20 C-7.54375318 24.46403821 -11.74183729 26.38630228 -18.125 26.5625 C-24.02880616 26.2391068 -28.3229364 25.24527915 -32.9375 21.375 C-34.63141272 17.58860685 -34.89067654 14.05511272 -34 10 C-28.48118323 3.82418123 -21.7851539 2.78134759 -13.875 1.9375 C-9.28915936 1.42842962 -4.55564631 0 0 0 Z " fill="#FBFBFB" transform="translate(357,274)"/>
<path d="M0 0 C0.94101562 -0.00257813 1.88203125 -0.00515625 2.8515625 -0.0078125 C7.98455105 0.26234479 9.98600913 2.48183482 13.375 6.125 C17.38714524 10.99689065 17.375 13.41637444 17.375 20.125 C4.505 20.125 -8.365 20.125 -21.625 20.125 C-20.55109621 12.60767345 -19.5953107 7.5897259 -13.6875 2.6875 C-9.12917902 0.36182603 -5.07541899 -0.01398187 0 0 Z " fill="#FBFBFB" transform="translate(272.625,246.875)"/>
<path d="M0 0 C1.875 1.125 1.875 1.125 3 3 C3.43076923 9.13846154 3.43076923 9.13846154 2 12 C1.34 12 0.68 12 0 12 C0 12.66 0 13.32 0 14 C-7.25581395 14.48372093 -7.25581395 14.48372093 -10.5 12.375 C-12.44280469 9.29889257 -12.52224493 7.58110811 -12 4 C-9.00369823 -1.27919836 -5.60614617 -1.40153654 0 0 Z " fill="#313139" transform="translate(533,212)"/>
<path d="M0 0 C4.59808129 0.53894425 7.86784369 1.76571528 11.875 4.0625 C12.84179688 4.61035156 13.80859375 5.15820312 14.8046875 5.72265625 C15.89136719 6.35494141 15.89136719 6.35494141 17 7 C14 8 14 8 11 8 C10.01 9.485 10.01 9.485 9 11 C6.875 11.6875 6.875 11.6875 5 12 C5 12.66 5 13.32 5 14 C5.66 14 6.32 14 7 14 C7.92091738 16.57856865 8.18506902 17.5943287 7.0234375 20.140625 C6.51683594 21.06101562 6.51683594 21.06101562 6 22 C4.79613537 19.27704434 3.61184242 16.54815863 2.4375 13.8125 C2.09525391 13.04357422 1.75300781 12.27464844 1.40039062 11.48242188 C-1.61142744 4.39400159 -1.61142744 4.39400159 0 0 Z " fill="#F75052" transform="translate(238,87)"/>
<path d="M0 0 C-0.8125 2.9375 -0.8125 2.9375 -2 6 C-2.99 6.33 -3.98 6.66 -5 7 C-5 8.32 -5 9.64 -5 11 C-5.66 11 -6.32 11 -7 11 C-8.29024129 8.8748967 -9 7.44654501 -9 4.9375 C-7.2857554 1.61615109 -3.68905867 0 0 0 Z " fill="#894247" transform="translate(368,111)"/>
<path d="M0 0 C0.66 0 1.32 0 2 0 C1.5 1.9375 1.5 1.9375 0 4 C-5.63763499 5.18687052 -11.25605478 5.11966553 -17 5 C-16.67 4.01 -16.34 3.02 -16 2 C-10.72 2 -5.44 2 0 2 C0 1.34 0 0.68 0 0 Z " fill="#DB6368" transform="translate(384,163)"/>
<path d="M0 0 C4.66154042 1.49835228 5.86610751 4.88463591 8 9 C7.34 9 6.68 9 6 9 C5.34 8.34 4.68 7.68 4 7 C3.34 7 2.68 7 2 7 C2 5.68 2 4.36 2 3 C1.01 2.67 0.02 2.34 -1 2 C-1.33 3.65 -1.66 5.3 -2 7 C-2.99 7.33 -3.98 7.66 -5 8 C-3.8141763 4.62496331 -2.72426311 2.35277269 0 0 Z " fill="#BB5F62" transform="translate(326,71)"/>
<path d="M0 0 C0.33 0.99 0.66 1.98 1 3 C1.66 3 2.32 3 3 3 C4.32421875 4.6796875 4.32421875 4.6796875 5.6875 6.875 C6.14511719 7.59429687 6.60273438 8.31359375 7.07421875 9.0546875 C7.53248047 10.01761719 7.53248047 10.01761719 8 11 C7.67 11.66 7.34 12.32 7 13 C4.625 12.4375 4.625 12.4375 2 11 C0.48351612 7.10047002 0 4.1914598 0 0 Z " fill="#C06368" transform="translate(336,82)"/>
<path d="M0 0 C0 0.66 0 1.32 0 2 C-2.5 3.5 -2.5 3.5 -5 5 C-5 5.66 -5 6.32 -5 7 C-7.875 7.625 -7.875 7.625 -11 8 C-11.66 7.34 -12.32 6.68 -13 6 C-11.21118264 4.99491199 -9.41885304 3.99607264 -7.625 3 C-6.62726563 2.443125 -5.62953125 1.88625 -4.6015625 1.3125 C-2 0 -2 0 0 0 Z " fill="#885158" transform="translate(400,94)"/>
<path d="M0 0 C3 1 3 1 4.1484375 2.734375 C5.10970831 5.2918845 5.41022043 7.52945879 5.625 10.25 C5.69976562 11.14203125 5.77453125 12.0340625 5.8515625 12.953125 C5.90054687 13.62859375 5.94953125 14.3040625 6 15 C3.81692968 12.81692968 3.35653664 11.52164953 2.4375 8.625 C2.18871094 7.85414063 1.93992187 7.08328125 1.68359375 6.2890625 C1.06076391 4.20347231 0.50733047 2.11629282 0 0 Z " fill="#DE7373" transform="translate(258,144)"/>
<path d="M0 0 C5.3592233 0.46601942 5.3592233 0.46601942 7.875 2.5625 C8.431875 3.2740625 8.431875 3.2740625 9 4 C7.68 4 6.36 4 5 4 C5 3.34 5 2.68 5 2 C3.68 2 2.36 2 1 2 C1.33 3.32 1.66 4.64 2 6 C1.01 6.495 1.01 6.495 0 7 C-0.38133299 5.0085944 -0.71325582 3.00720923 -1 1 C-0.67 0.67 -0.34 0.34 0 0 Z " fill="#E66467" transform="translate(238,87)"/>
<path d="M0 0 C0.33 0.66 0.66 1.32 1 2 C1.99 2.33 2.98 2.66 4 3 C4.6875 5.0625 4.6875 5.0625 5 7 C3.02 7.33 1.04 7.66 -1 8 C-0.67 5.36 -0.34 2.72 0 0 Z " fill="#BD585C" transform="translate(347,100)"/>
<path d="M0 0 C0.66 0 1.32 0 2 0 C2 0.66 2 1.32 2 2 C2.66 2 3.32 2 4 2 C4.93065133 4.60582371 5.14917407 5.64198224 4.0625 8.25 C3.711875 8.8275 3.36125 9.405 3 10 C0 3.375 0 3.375 0 0 Z " fill="#E85C5D" transform="translate(241,99)"/>
<path d="M0 0 C-0.66 1.32 -1.32 2.64 -2 4 C-2.33 3.67 -2.66 3.34 -3 3 C-4.68608966 2.92794489 -6.37500659 2.91613932 -8.0625 2.9375 C-8.98160156 2.94652344 -9.90070313 2.95554687 -10.84765625 2.96484375 C-11.55792969 2.97644531 -12.26820313 2.98804688 -13 3 C-13 2.67 -13 2.34 -13 2 C-11.20873548 1.66451233 -9.41697413 1.33167645 -7.625 1 C-6.62726563 0.814375 -5.62953125 0.62875 -4.6015625 0.4375 C-2 0 -2 0 0 0 Z " fill="#5D5D63" transform="translate(282,298)"/>
<path d="M0 0 C1.485 0.99 1.485 0.99 3 2 C3 2.66 3 3.32 3 4 C3.66 4 4.32 4 5 4 C5 5.98 5 7.96 5 10 C2.66063182 7.87330165 1.19346152 5.93775144 0 3 C0 2.01 0 1.02 0 0 Z " fill="#EA5559" transform="translate(255,135)"/>
<path d="M0 0 C0.66 0.99 1.32 1.98 2 3 C1.01 3.33 0.02 3.66 -1 4 C-1.33 5.65 -1.66 7.3 -2 9 C-2.66 8.67 -3.32 8.34 -4 8 C-2.25 2.25 -2.25 2.25 0 0 Z " fill="#BA6268" transform="translate(316,84)"/>
<path d="M0 0 C0.66 0 1.32 0 2 0 C1.71125 0.53625 1.4225 1.0725 1.125 1.625 C-0.16711808 4.35280484 -1.08558592 7.12612718 -2 10 C-2.33 10 -2.66 10 -3 10 C-3.2295711 6.63295715 -3.33943529 4.58629732 -1.625 1.625 C-1.08875 1.08875 -0.5525 0.5525 0 0 Z " fill="#68686C" transform="translate(524,212)"/>
</svg>
