<?xml version="1.0" encoding="UTF-8"?>
<svg version="1.1" xmlns="http://www.w3.org/2000/svg" width="2048" height="2048">
<path d="M0 0 C1.00142029 0.24753021 1.00142029 0.24753021 2.02307129 0.50006104 C86.41159258 21.43182224 171.90498192 53.75054226 246.19482422 99.29589844 C249.35104391 101.21325383 252.53371957 103.08316193 255.72265625 104.9453125 C268.48666112 112.40896497 281.08124365 120.07447411 293.39257812 128.26806641 C296.29116672 130.19340231 299.20010401 132.10256631 302.109375 134.01171875 C311.54322988 140.22375998 320.88920355 146.42585148 329.7421875 153.44921875 C333.88491923 156.73141495 338.17117945 159.81898401 342.4375 162.9375 C363.99150643 178.75465832 384.75728757 195.76436559 404.5234375 213.76953125 C406.55167003 215.59622017 408.59975525 217.39160185 410.66113281 219.18041992 C414.82059336 222.81855678 418.8775773 226.55347354 422.8984375 230.34375 C423.62727142 231.03053833 424.35610535 231.71732666 425.10702515 232.42492676 C432.67281475 239.58762972 440.06836633 246.91663554 447.42431641 254.29394531 C449.65541572 256.53048995 451.89192947 258.761523 454.12890625 260.9921875 C455.57844632 262.44238723 457.02767679 263.89289651 458.4765625 265.34375 C459.13081207 265.99597534 459.78506165 266.64820068 460.45913696 267.32019043 C464.26181212 271.14203482 467.88441605 275.07087062 471.39831543 279.16020203 C474.13018931 282.29820818 477.01334064 285.29335496 479.875 288.3125 C484.79493773 293.5394866 489.45374682 298.85862862 493.93359375 304.46875 C496.00112782 307.00138153 498.16113341 309.4073116 500.375 311.8125 C504.88771505 316.77101186 508.99548182 321.98763687 513.1015625 327.28125 C515.57826174 330.47306444 518.10174315 333.62441334 520.63916016 336.76806641 C525.96801078 343.37409347 531.0715929 350.08788701 536 357 C537.55749818 359.15759152 539.11813521 361.31289531 540.67871094 363.46826172 C542.93076941 366.58056244 545.17727972 369.69684539 547.42333984 372.81347656 C548.41486867 374.18853574 549.40725647 375.56297635 550.40087891 376.93652344 C603.93155183 450.93892661 644.26965075 534.23746399 725 880 C725.04236786 880.66852997 725.08473572 881.33705994 725.12838745 882.02584839 C726.27779964 900.50478093 726.18744873 919.00942381 726.18530273 937.51586914 C726.18522206 941.18681834 726.19208455 944.85764117 726.20581055 948.52856445 C726.3217585 980.07942838 725.55968131 1011.54190734 722.1875 1042.9375 C722.10318726 1043.74587311 722.01887451 1044.55424622 721.93200684 1045.38711548 C721.31904649 1051.26169527 720.6711243 1057.13179568 720 1063 C719.9101886 1063.78721436 719.8203772 1064.57442871 719.72784424 1065.38549805 C709.97355502 1150.21191561 689.22936335 1233.54277532 603.40527344 1426.55224609 C601.676669 1429.56318912 600.01692758 1432.60835243 598.36010742 1435.65917969 C591.41630613 1448.41044503 583.69960744 1460.69576155 576 1473 C575.35353516 1474.03431152 574.70707031 1475.06862305 574.04101562 1476.13427734 C567.65626921 1486.3265768 561.21919847 1496.37440203 554 1506 C552.50364272 1508.06209892 551.01612132 1510.1304124 549.52905273 1512.19921875 C528.46669989 1541.49687383 506.4937293 1569.8500101 482.1953125 1596.55859375 C480.38213397 1598.57502895 478.59904727 1600.61106366 476.82177734 1602.65893555 C473.18283294 1606.81905364 469.44723086 1610.87683004 465.65625 1614.8984375 C464.96946167 1615.62727142 464.28267334 1616.35610535 463.57507324 1617.10702515 C456.41237028 1624.67281475 449.08336446 1632.06836633 441.70605469 1639.42431641 C439.46951005 1641.65541572 437.238477 1643.89192947 435.0078125 1646.12890625 C433.55761277 1647.57844632 432.10710349 1649.02767679 430.65625 1650.4765625 C430.00402466 1651.13081207 429.35179932 1651.78506165 428.67980957 1652.45913696 C424.85909737 1656.2606856 420.93153667 1659.88223664 416.8432312 1663.3948822 C413.68220886 1666.14755545 410.66614758 1669.05397901 407.625 1671.9375 C402.68601877 1676.58750154 397.67401939 1680.99782487 392.30859375 1685.15625 C389.85656785 1687.11455156 387.55851105 1689.18732289 385.25 1691.3125 C380.26146128 1695.85744011 375.01604605 1699.99268724 369.6875 1704.125 C366.63925817 1706.49012633 363.63449264 1708.90408792 360.63818359 1711.33447266 C352.09234288 1718.25296954 343.28839486 1724.79096455 334.39648438 1731.25634766 C332.06768643 1732.95075219 329.74444929 1734.65254768 327.421875 1736.35546875 C317.13930233 1743.86965647 306.67306283 1751.05265116 296 1758 C295.05205566 1758.6177832 294.10411133 1759.23556641 293.12744141 1759.87207031 C278.63170682 1769.29418159 263.96257023 1778.34007129 249 1787 C248.13455566 1787.5048291 247.26911133 1788.0096582 246.37744141 1788.52978516 C232.7996202 1796.44869792 219.00419855 1803.86453725 205 1811 C203.77651479 1811.62545862 202.55304531 1812.25094804 201.32958984 1812.87646484 C122.49073315 1853.1241272 37.6012291 1882.42205116 -559.55487061 1869.12013245 C-574.84894566 1864.13628808 -589.97832756 1858.75084628 -605 1853 C-605.69657715 1852.73378845 -606.3931543 1852.4675769 -607.11083984 1852.19329834 C-652.34141884 1834.87114079 -697.21847576 1814.58153858 -738.64697266 1789.40917969 C-742.15379165 1787.30901791 -745.73119214 1785.34434009 -749.3125 1783.375 C-757.646207 1778.74719472 -765.66771826 1773.64008292 -773.68457031 1768.48779297 C-775.8567177 1767.09206689 -778.03329417 1765.70353522 -780.2109375 1764.31640625 C-798.61608149 1752.54911127 -816.5452532 1740.13402185 -834 1727 C-834.85480957 1726.3591748 -835.70961914 1725.71834961 -836.59033203 1725.05810547 C-848.02362373 1716.47527696 -859.2242298 1707.67165993 -870.19287109 1698.50292969 C-872.75436414 1696.37262015 -875.34661314 1694.2819512 -877.9375 1692.1875 C-882.30401763 1688.6215106 -886.50768425 1684.90450257 -890.67578125 1681.109375 C-892.72042335 1679.25373343 -894.78784149 1677.43243624 -896.875 1675.625 C-901.20830627 1671.84746848 -905.44149299 1667.96293403 -909.66699219 1664.06591797 C-911.72068431 1662.17367839 -913.78150316 1660.29068092 -915.84936523 1658.41381836 C-924.52065904 1650.52449026 -932.84574496 1642.3081244 -941.12255859 1634.0078125 C-943.38915993 1631.73580631 -945.66111959 1629.46925556 -947.93359375 1627.203125 C-949.40136271 1625.73469583 -950.86882176 1624.2659568 -952.3359375 1622.796875 C-953.00273529 1622.13210144 -953.66953308 1621.46732788 -954.35653687 1620.78240967 C-958.19534593 1616.92464067 -961.85680277 1612.96343702 -965.40325928 1608.83485413 C-968.13297671 1605.69806853 -971.01495186 1602.70494515 -973.875 1599.6875 C-978.79493773 1594.4605134 -983.45374682 1589.14137138 -987.93359375 1583.53125 C-990.00112782 1580.99861847 -992.16113341 1578.5926884 -994.375 1576.1875 C-998.88771505 1571.22898814 -1002.99548182 1566.01236313 -1007.1015625 1560.71875 C-1009.57826174 1557.52693556 -1012.10174315 1554.37558666 -1014.63916016 1551.23193359 C-1019.96801078 1544.62590653 -1025.0715929 1537.91211299 -1030 1531 C-1031.55749818 1528.84240848 -1033.11813521 1526.68710469 -1034.67871094 1524.53173828 C-1036.93076941 1521.41943756 -1039.17727972 1518.30315461 -1041.42333984 1515.18652344 C-1042.41486867 1513.81146426 -1043.40725647 1512.43702365 -1044.40087891 1511.06347656 C-1097.41961386 1437.76879176 -1138.19348562 1355.08975184 -1215.6875 1048.6875 C-1215.79041351 1047.73591003 -1215.89332703 1046.78432007 -1215.99935913 1045.80389404 C-1219.43439155 1013.72254387 -1220.34389898 981.57505898 -1220.26074219 949.33203125 C-1220.24934882 944.88943166 -1220.25615312 940.44707185 -1220.26761246 936.00448036 C-1220.33815779 903.78117868 -1219.1904203 871.67957257 -1215.75 839.625 C-1215.64328979 838.60826202 -1215.53657959 837.59152405 -1215.42663574 836.54397583 C-1210.18778202 786.85196382 -1201.47589293 737.39242587 -1189 689 C-1188.71733276 687.90186981 -1188.71733276 687.90186981 -1188.42895508 686.78155518 C-1175.2509246 635.80745842 -1157.7253419 585.95768019 -1136 538 C-1135.47341797 536.83404297 -1134.94683594 535.66808594 -1134.40429688 534.46679688 C-1123.17170394 509.69503967 -1111.22165904 485.35758182 -1097.60888672 461.80322266 C-1095.96937535 458.94664155 -1094.35776631 456.07595304 -1092.75390625 453.19921875 C-1085.51993829 440.23410656 -1077.92449894 427.55359385 -1070 415 C-1068.78384782 413.0612019 -1067.56770213 411.12239973 -1066.3515625 409.18359375 C-1060.50692643 399.89815135 -1054.5854311 390.78057479 -1048 382 C-1046.50364272 379.93790108 -1045.01612132 377.8695876 -1043.52905273 375.80078125 C-1022.46669989 346.50312617 -1000.4937293 318.1499899 -976.1953125 291.44140625 C-974.38213397 289.42497105 -972.59904727 287.38893634 -970.82177734 285.34106445 C-967.18283294 281.18094636 -963.44723086 277.12316996 -959.65625 273.1015625 C-958.96946167 272.37272858 -958.28267334 271.64389465 -957.57507324 270.89297485 C-950.41237028 263.32718525 -943.08336446 255.93163367 -935.70605469 248.57568359 C-933.46951005 246.34458428 -931.238477 244.10807053 -929.0078125 241.87109375 C-927.55761277 240.42155368 -926.10710349 238.97232321 -924.65625 237.5234375 C-924.00402466 236.86918793 -923.35179932 236.21493835 -922.67980957 235.54086304 C-918.85796518 231.73818788 -914.92912938 228.11558395 -910.83979797 224.60168457 C-907.70178089 221.86980117 -904.7068113 218.98649918 -901.6875 216.125 C-896.55110138 211.29471063 -891.32342878 206.6811663 -885.8125 202.27734375 C-882.46137225 199.56386114 -879.2002728 196.7560045 -875.9375 193.9375 C-870.38869933 189.16124199 -864.76594004 184.51350225 -859 180 C-858.37673828 179.50806152 -857.75347656 179.01612305 -857.11132812 178.50927734 C-846.63475907 170.2417705 -835.97755813 162.2874903 -825.12109375 154.52734375 C-822.452793 152.60597065 -819.81155041 150.6496156 -817.17114258 148.69018555 C-809.28991028 142.84836315 -801.2147168 137.36020591 -793 132 C-792.02256836 131.35877197 -792.02256836 131.35877197 -791.02539062 130.70458984 C-770.76884077 117.42168701 -750.08768872 104.91948419 -729 93 C-728.34323273 92.62748108 -727.68646545 92.25496216 -727.00979614 91.87115479 C-715.11833808 85.13916597 -703.04502045 78.83807923 -690.8125 72.75 C-689.89937042 72.29501129 -688.98624084 71.84002258 -688.04544067 71.37124634 C-609.10262982 32.09812082 -524.66056998 3.79836106 -356 -24 C-355.30445007 -24.07047546 -354.60890015 -24.14095093 -353.89227295 -24.21356201 C-260.28501614 -33.59999282 -164.54330177 -30.83931742 0 0 Z " fill="#EDEDEE" transform="translate(1271,112)"/>
<path d="M0 0 C1.8818399 0.00090637 1.8818399 0.00090637 3.80169678 0.00183105 C24.43581924 0.02870822 44.93589487 0.47819306 65.5 2.1875 C66.22382874 2.24595093 66.94765747 2.30440186 67.69342041 2.36462402 C89.24583038 4.11283262 110.61691883 6.93313652 132 10.125 C133.65538284 10.36962982 133.65538284 10.36962982 135.34420776 10.61920166 C149.74347523 12.76208974 163.94487874 15.40656552 178.13702393 18.64950562 C181.14265049 19.33381648 184.15503423 19.98543845 187.16796875 20.63671875 C217.52749036 27.3755354 247.17723598 36.32392859 276.54223633 46.50909424 C278.37153257 47.14298337 280.20231392 47.77258219 282.03320312 48.40185547 C330.5342585 65.12760841 377.8974051 87.15719747 421.86083984 113.60693359 C424.35049262 115.09796154 426.85335338 116.56296359 429.36328125 118.01953125 C456.93320889 134.12129571 483.31966279 152.58783534 508.5 172.1875 C509.13599121 172.68169434 509.77198242 173.17588867 510.42724609 173.68505859 C525.72747916 185.58968904 540.68901299 197.89967365 555.0234375 210.95703125 C557.1173137 212.84284088 559.23051756 214.70028909 561.35546875 216.55078125 C572.86623142 226.60998912 583.74525137 237.33166104 594.5625 248.125 C595.10292938 248.66284119 595.64335876 249.20068237 596.20016479 249.75482178 C601.62613226 255.16027421 606.98350865 260.58019747 611.96362305 266.40600586 C614.50830973 269.35667783 617.20173343 272.16630469 619.875 275 C624.60196376 280.04660944 629.07509143 285.22084148 633.3984375 290.62109375 C635.48001427 293.16309363 637.6503838 295.58279335 639.875 298 C644.94764458 303.57549804 649.55314061 309.47727925 654.15332031 315.44238281 C655.40705901 317.06706088 656.66808696 318.68610675 657.9296875 320.3046875 C674.36010059 341.4756788 690.29892169 363.18969968 704.22216797 386.10302734 C705.63031133 388.40007129 707.06515186 390.67904124 708.50390625 392.95703125 C716.38890595 405.48153739 723.72245538 418.26421103 730.86279297 431.22607422 C732.37536169 433.96205075 733.90453727 436.68777743 735.44140625 439.41015625 C741.8416529 450.79773946 747.62102571 462.41505717 753.13378906 474.25634766 C754.47212155 477.12768787 755.82522652 479.99170886 757.1796875 482.85546875 C778.31175076 527.87628521 794.97656541 575.08023745 807.5 623.1875 C807.79471191 624.31172363 808.08942383 625.43594727 808.39306641 626.59423828 C820.16653266 671.97619538 827.3009995 718.53122177 831.5 765.1875 C831.62004395 766.49928223 831.74008789 767.81106445 831.86376953 769.16259766 C833.54492745 788.47211196 833.67809102 807.75300486 833.6875 827.125 C833.68858765 828.32226715 833.68967529 829.5195343 833.6907959 830.75308228 C833.68824912 855.50165633 832.83208874 880.14495195 830.8125 904.8125 C830.7279657 905.85455597 830.6434314 906.89661194 830.55633545 907.97024536 C828.89627104 928.10124224 826.24918252 947.97633506 822.88604736 967.88793945 C822.50299299 970.16967171 822.12872297 972.45267198 821.75732422 974.73632812 C818.54454067 994.44752987 814.55122062 1013.85390309 809.5 1033.1875 C809.22319397 1034.25191315 809.22319397 1034.25191315 808.9407959 1035.33782959 C793.75890977 1093.67401223 773.99048436 1150.39469563 746.53515625 1204.171875 C745.00721153 1207.16558506 743.52571186 1210.17914635 742.05859375 1213.203125 C735.69226355 1226.25899728 728.66357954 1238.80372091 721.22460938 1251.27636719 C719.60044851 1254.01794337 718.00569632 1256.7740342 716.421875 1259.5390625 C699.35242794 1289.19004693 679.39562531 1317.13764581 658.5 1344.1875 C657.97486816 1344.87005859 657.44973633 1345.55261719 656.90869141 1346.25585938 C651.40952667 1353.39571 645.73585247 1360.34473356 639.83227539 1367.15454102 C636.8740163 1370.56776953 634.00264369 1374.02904573 631.1875 1377.5625 C626.7184822 1383.0772843 621.88117867 1388.21572709 616.9909668 1393.35498047 C616.38293213 1393.9945166 615.77489746 1394.63405273 615.1484375 1395.29296875 C614.61395996 1395.85137451 614.07948242 1396.40978027 613.52880859 1396.98510742 C611.74391363 1398.92271723 610.02282943 1400.89657941 608.30297852 1402.89160156 C604.38275934 1407.38493876 600.22484206 1411.6068915 596.00390625 1415.81640625 C595.21153061 1416.60973862 594.41915497 1417.40307098 593.60276794 1418.22044373 C591.93749717 1419.88639081 590.27097971 1421.55109256 588.60327148 1423.21459961 C586.06965378 1425.74286134 583.54141833 1428.27641661 581.01367188 1430.81054688 C579.38573717 1432.4378207 577.75749225 1434.06478425 576.12890625 1435.69140625 C575.38282608 1436.43951065 574.63674591 1437.18761505 573.86805725 1437.95838928 C569.78391268 1442.0245929 565.61358177 1445.92838533 561.24151611 1449.68409729 C558.6610164 1451.91177135 556.18201297 1454.23893966 553.6875 1456.5625 C549.03961458 1460.8562538 544.25583652 1464.9228184 539.32421875 1468.890625 C536.83759861 1470.91293847 534.39692001 1472.97940937 531.9675293 1475.06982422 C524.43632177 1481.5376802 516.59618835 1487.55303121 508.67626953 1493.53466797 C506.55365696 1495.14674864 504.44467286 1496.7749463 502.33984375 1498.41015625 C475.7839926 1519.00934981 447.50832785 1537.25131515 418.5 1554.1875 C417.57751465 1554.72793945 416.6550293 1555.26837891 415.70458984 1555.82519531 C372.61377919 1580.95828329 327.25457072 1601.32471081 280.4375 1618.4375 C279.46361328 1618.79634277 278.48972656 1619.15518555 277.48632812 1619.52490234 C263.26947931 1624.60699999 247.5114337 1627.09417663 233.07421875 1621.44140625 C223.76567322 1616.90719818 215.73901846 1609.26865556 212.0625 1599.5 C209.67871341 1592.28450249 209.36107975 1585.45016979 209.39993286 1577.92218018 C209.40119513 1576.89000893 209.40245741 1575.85783769 209.40375793 1574.79438853 C209.40913485 1571.33588044 209.42166006 1567.87743473 209.43408203 1564.41894531 C209.43927601 1561.9381113 209.44398398 1559.45727623 209.44824219 1556.97644043 C209.45818647 1551.63017017 209.47098741 1546.28391788 209.48596573 1540.93766022 C209.50941376 1532.46160195 209.52236342 1523.98554237 209.53366089 1515.50946045 C209.53766255 1512.60315316 209.54173132 1509.69684596 209.54582024 1506.79053879 C209.54683946 1506.06412115 209.54785869 1505.33770352 209.54890881 1504.58927323 C209.5606489 1496.32220777 209.57452333 1488.05514638 209.58935547 1479.78808594 C209.5907079 1479.03270164 209.59206033 1478.27731734 209.59345375 1477.4990426 C209.61554664 1465.30816994 209.64541314 1453.11732553 209.67732288 1440.9264752 C209.70989967 1428.37172956 209.73064149 1415.81699844 209.74159515 1403.26221538 C209.74875877 1395.54300488 209.76525507 1387.82393369 209.79439591 1380.10477433 C209.81593509 1374.15561633 209.82124268 1368.20650784 209.82102966 1362.25730896 C209.82342064 1359.84292762 209.8308536 1357.42854417 209.84415817 1355.0141983 C210.12116714 1302.48279879 198.77196696 1244.89495788 160.5 1206.1875 C159.39267439 1205.24812516 158.27316342 1204.32288143 157.140625 1203.4140625 C156.26921875 1202.67929688 155.3978125 1201.94453125 154.5 1201.1875 C154.5 1200.5275 154.5 1199.8675 154.5 1199.1875 C155.47122803 1199.08203857 156.44245605 1198.97657715 157.44311523 1198.86791992 C161.13597267 1198.46538887 164.82796685 1198.05534108 168.51977539 1197.64331055 C170.1009383 1197.46783867 171.68231251 1197.29425792 173.26391602 1197.12280273 C184.43963985 1195.90951976 195.45457899 1194.27072876 206.5 1192.1875 C207.93946765 1191.92094402 209.3790028 1191.65475235 210.81860352 1191.38891602 C279.03753573 1178.72396484 349.84517276 1157.82227558 404.5 1113.1875 C405.44875 1112.42953125 406.3975 1111.6715625 407.375 1110.890625 C414.70416853 1104.98657257 421.96357742 1098.90988309 428.5 1092.125 C430.5 1090.1875 430.5 1090.1875 432.5 1090.1875 C432.72558594 1089.63191406 432.95117188 1089.07632812 433.18359375 1088.50390625 C434.88894414 1085.50309681 437.06706316 1083.50812463 439.5625 1081.125 C444.99242047 1075.81094849 449.87498786 1070.22138829 454.5 1064.1875 C455.27947998 1063.17405518 455.27947998 1063.17405518 456.07470703 1062.14013672 C500.01822096 1004.64852257 521.02783569 935.46426689 529.24285889 864.37103271 C529.48366851 862.32618009 529.74146429 860.28334795 530.00048828 858.24072266 C532.62912742 837.17627111 532.81217537 816.08510921 532.86791611 794.88866043 C532.87488224 792.66263102 532.8865417 790.43666708 532.89907837 788.21066284 C533.01309905 764.72093107 531.78040702 741.59227807 526.75 718.5625 C526.49395996 717.36431641 526.23791992 716.16613281 525.97412109 714.93164062 C517.1612005 674.79274489 501.21993751 635.87261836 477.5 602.1875 C476.72500813 601.06267378 475.95028207 599.93766439 475.17578125 598.8125 C467.77059264 588.15496314 459.48870524 578.35694259 450.7421875 568.7734375 C449.5 567.1875 449.5 567.1875 448.5 564.1875 C449.31540461 561.40326388 450.20282514 558.72357481 451.1875 556 C460.95881216 527.84628304 464.72467856 498.69721004 464.75 469 C464.75100708 468.17178741 464.75201416 467.34357483 464.75305176 466.49026489 C464.74085969 451.55122158 463.79896404 436.96973971 461.5 422.1875 C461.29117187 420.83229248 461.29117187 420.83229248 461.078125 419.44970703 C457.29885438 395.85988478 450.50752306 373.00426737 442.32861328 350.59985352 C441.59840303 348.47398214 441.00342442 346.37653704 440.5 344.1875 C375.82479341 337.55414548 311.27481736 368.88768755 257.22119141 401.546875 C254.52516566 403.17232745 251.81747779 404.77638369 249.10546875 406.375 C232.88278091 415.6737474 232.88278091 415.6737474 217.78027344 426.62646484 C214.6323312 429.18427752 213.29546474 430.22056782 209.1171875 430.046875 C207.88226562 429.68078125 206.64734375 429.3146875 205.375 428.9375 C203.85586566 428.52068613 202.33630052 428.10544049 200.81640625 427.69140625 C199.97352051 427.4505127 199.13063477 427.20961914 198.26220703 426.96142578 C152.45934977 414.12820521 104.86370046 407.55939015 57.5 404.1875 C56.31196777 404.09033691 55.12393555 403.99317383 53.89990234 403.89306641 C39.66083968 402.85779805 25.37912389 403.03583597 11.11083984 403.05712891 C7.29356598 403.06278517 3.47636239 403.05945486 -0.340909 403.05370522 C-24.2304125 403.02285945 -48.01823507 403.37736738 -71.80444336 405.80712891 C-74.33168013 406.06445293 -76.85996892 406.30833284 -79.38867188 406.55078125 C-90.41334852 407.63236862 -101.34467123 409.11160762 -112.28579712 410.83929443 C-114.26385427 411.15036372 -116.24352584 411.45112669 -118.22338867 411.75048828 C-134.19459776 414.16857007 -149.97310038 417.23368045 -165.75 420.6875 C-166.60242279 420.87282288 -167.45484558 421.05814575 -168.33309937 421.24908447 C-179.51715337 423.68964614 -179.51715337 423.68964614 -190.57592773 426.63476562 C-191.80415253 426.9915741 -191.80415253 426.9915741 -193.05718994 427.35559082 C-194.610029 427.81449674 -196.15938369 428.28542725 -197.70428467 428.77038574 C-201.66407479 429.95071772 -204.29940749 430.62112391 -208.0625 428.6875 C-209.56510167 427.55117551 -211.04057532 426.37877022 -212.5 425.1875 C-214.96638678 423.51038686 -217.48692564 421.91851432 -220 420.3125 C-220.71236816 419.84787354 -221.42473633 419.38324707 -222.15869141 418.90454102 C-237.7424779 408.75591257 -253.81329911 399.25179101 -270.1875 390.43408203 C-271.78933948 389.57059044 -273.38810498 388.70138122 -274.984375 387.82763672 C-307.7150932 369.94946187 -342.96714013 355.19246906 -379.5 347.1875 C-380.17836914 347.02813965 -380.85673828 346.8687793 -381.55566406 346.70458984 C-398.53604473 342.82872016 -416.19973462 343.90460258 -433.5 344.1875 C-433.67160645 344.77668213 -433.84321289 345.36586426 -434.02001953 345.97290039 C-435.67278815 351.57273424 -437.46503439 357.10813825 -439.35424805 362.63232422 C-451.25939139 397.53623408 -457.69054129 433.27699481 -457.8125 470.1875 C-457.81511841 470.9584198 -457.81773682 471.7293396 -457.82043457 472.52362061 C-457.83041591 500.32663459 -453.11911538 527.16572038 -444.8671875 553.6640625 C-444.64071533 554.42291748 -444.41424316 555.18177246 -444.1809082 555.96362305 C-443.72879478 557.44024591 -443.2403214 558.90624316 -442.71557617 560.35864258 C-442.03515625 562.43359375 -442.03515625 562.43359375 -441.5 566.1875 C-443.25390625 568.99609375 -443.25390625 568.99609375 -446.0625 571.625 C-447.10256634 572.65653435 -448.13612688 573.694658 -449.1640625 574.73828125 C-449.71223633 575.29080566 -450.26041016 575.84333008 -450.82519531 576.41259766 C-489.05790177 616.93034926 -511.97175635 675.17498631 -521.5 729.1875 C-521.69754883 730.2398584 -521.89509766 731.2922168 -522.09863281 732.37646484 C-529.65884924 774.08139033 -526.99055711 819.23286644 -522.5 861.1875 C-522.38785156 862.30511719 -522.27570313 863.42273437 -522.16015625 864.57421875 C-513.17433736 952.99023923 -480.2537355 1034.49265643 -406.9375 1106 C-405.13565047 1107.40955497 -403.32228764 1108.80446902 -401.5 1110.1875 C-400.32528358 1111.10256008 -399.15082191 1112.01794727 -397.9765625 1112.93359375 C-342.67817709 1155.62611392 -275.68760755 1178.85119758 -207.42041016 1190.68066406 C-204.8445262 1191.12770762 -202.27142066 1191.58701443 -199.69921875 1192.0546875 C-195.63697378 1192.79088873 -191.57068444 1193.49953788 -187.5 1194.1875 C-186.75379395 1194.31366699 -186.00758789 1194.43983398 -185.23876953 1194.56982422 C-175.55419397 1196.1909336 -165.89550684 1197.598451 -156.10961914 1198.45336914 C-150.7139068 1198.9735932 -150.7139068 1198.9735932 -148.5 1201.1875 C-148.97308594 1201.56519531 -149.44617188 1201.94289063 -149.93359375 1202.33203125 C-177.57738162 1225.34157788 -191.90115042 1263.40153965 -198.640625 1297.72265625 C-198.79305664 1298.44372559 -198.94548828 1299.16479492 -199.10253906 1299.90771484 C-199.55370724 1302.22924638 -199.55370724 1302.22924638 -199.63964844 1304.78369141 C-199.89231983 1307.6118287 -200.23884366 1309.63601961 -201.5 1312.1875 C-205.10628664 1314.81207527 -209.03364453 1316.06827424 -213.25 1317.4375 C-214.41998535 1317.8495166 -215.5899707 1318.2615332 -216.79541016 1318.68603516 C-238.46600004 1326.16604497 -261.44889481 1332.74544924 -284.5 1333.1875 C-285.54897461 1333.21328125 -286.59794922 1333.2390625 -287.67871094 1333.265625 C-302.53892774 1333.59141764 -317.00560809 1333.74399431 -331.5 1330.1875 C-332.32371094 1329.98882324 -333.14742187 1329.79014648 -333.99609375 1329.58544922 C-362.51387357 1322.51426867 -386.81810658 1308.86420268 -408.05175781 1288.56835938 C-409.43734332 1287.24724143 -410.83941785 1285.94348229 -412.2421875 1284.640625 C-424.66794503 1272.7551178 -434.08572296 1258.58510381 -443.25195312 1244.13623047 C-452.96746201 1228.96620074 -464.07132785 1215.19007909 -476.5 1202.1875 C-477.13550781 1201.51074219 -477.77101563 1200.83398438 -478.42578125 1200.13671875 C-501.26004427 1176.43050297 -533.61664568 1159.13487883 -566.875 1157.984375 C-588.62280282 1157.61088977 -588.62280282 1157.61088977 -607.5 1167 C-609.32476348 1170.99167012 -609.09525102 1174.2793898 -607.796875 1178.44140625 C-601.03029002 1194.17119149 -584.31778355 1204.09587626 -570.125 1212.375 C-555.11368977 1221.21693647 -543.16965185 1234.56438679 -532.83837891 1248.39599609 C-531.50134132 1250.18570456 -530.14790017 1251.96209731 -528.79296875 1253.73828125 C-509.47973779 1279.30235362 -492.81960983 1308.27220753 -481.3125 1338.1875 C-474.53871015 1355.61408758 -464.41988609 1370.7087953 -451.5 1384.1875 C-450.75492188 1384.99574219 -450.00984375 1385.80398438 -449.2421875 1386.63671875 C-423.33264895 1413.87166273 -385.67449104 1426.89455467 -349.5 1433.1875 C-347.66888672 1433.51041016 -347.66888672 1433.51041016 -345.80078125 1433.83984375 C-329.64115235 1436.41112036 -313.0788957 1436.42254431 -296.75 1436.4375 C-295.86902649 1436.43883942 -294.98805298 1436.44017883 -294.0803833 1436.44155884 C-277.38210925 1436.43611501 -261.07273768 1435.27188165 -244.5 1433.1875 C-243.41509277 1433.05408203 -242.33018555 1432.92066406 -241.21240234 1432.78320312 C-235.67474811 1432.09728816 -230.14480735 1431.36677717 -224.61723328 1430.60443115 C-220.79955879 1430.09381572 -216.97822683 1429.61605141 -213.15600586 1429.14086914 C-212.41771294 1429.04884468 -211.67942001 1428.95682022 -210.91875458 1428.86200714 C-209.11253572 1428.6369091 -207.30627238 1428.41216813 -205.5 1428.1875 C-205.36678531 1441.92692443 -205.23627997 1455.66637202 -205.10884857 1469.40585136 C-205.04954208 1475.79190165 -204.98944422 1482.17794202 -204.92724609 1488.56396484 C-204.79558676 1502.13484432 -204.67706595 1515.70567585 -204.58433533 1529.27688217 C-204.53315118 1536.5320534 -204.45978864 1543.78657354 -204.3693161 1551.04135704 C-204.31591193 1555.63309954 -204.27945767 1560.22487261 -204.24708557 1564.81680679 C-204.22848716 1566.95228619 -204.20286963 1569.08771835 -204.16954041 1571.22301865 C-203.94615341 1585.84665889 -203.78099886 1599.89515693 -214.5 1611.1875 C-215.07492187 1611.80238281 -215.64984375 1612.41726563 -216.2421875 1613.05078125 C-225.61923276 1622.13600975 -237.65677347 1624.56779491 -250.35180664 1624.56152344 C-258.51199035 1624.34777889 -265.87800498 1621.90211003 -273.5 1619.1875 C-274.59425293 1618.80045898 -275.68850586 1618.41341797 -276.81591797 1618.01464844 C-313.22013076 1605.00792448 -349.35355271 1589.75562617 -383.35449219 1571.34033203 C-385.42718403 1570.22662574 -387.5108695 1569.13806582 -389.6015625 1568.05859375 C-435.26144987 1544.4217933 -479.19176267 1515.31354443 -518.82373047 1482.56396484 C-521.06763312 1480.72138938 -523.34520998 1478.92288319 -525.625 1477.125 C-535.56805157 1469.19064572 -545.08585659 1460.73723959 -554.5 1452.1875 C-556.06244746 1450.79160785 -557.62494901 1449.39577625 -559.1875 1448 C-560.96067525 1446.39842236 -562.73131487 1444.79403487 -564.5 1443.1875 C-564.98936035 1442.74470703 -565.4787207 1442.30191406 -565.98291016 1441.84570312 C-575.24826818 1433.43156921 -584.14256075 1424.65124158 -593 1415.8125 C-593.56630127 1415.24878693 -594.13260254 1414.68507385 -594.71606445 1414.10427856 C-600.31917352 1408.52137203 -605.87553425 1402.93816353 -611.01464844 1396.91796875 C-613.38349163 1394.15821192 -615.88730509 1391.52717407 -618.375 1388.875 C-622.83504356 1384.0810086 -627.06309553 1379.16239004 -631.1640625 1374.0546875 C-633.83875557 1370.77170303 -636.60234125 1367.57510296 -639.375 1364.375 C-644.74717832 1358.14239412 -649.89313723 1351.76591427 -654.91308594 1345.24707031 C-656.04894812 1343.77289594 -657.18798412 1342.30116487 -658.32910156 1340.83105469 C-667.20467689 1329.39053981 -675.73908654 1317.79979734 -683.78125 1305.75830078 C-685.64743666 1302.9669733 -687.52661253 1300.18462939 -689.40625 1297.40234375 C-703.03222952 1277.17334429 -715.74220966 1256.55769395 -727.5 1235.1875 C-728.39356201 1233.56497314 -728.39356201 1233.56497314 -729.30517578 1231.90966797 C-770.29720239 1157.16584898 -800.30024432 1075.57593669 -829.3999939 882.36169434 C-829.47248713 880.78564678 -829.54792079 879.20973359 -829.62515259 877.63391113 C-830.39108731 861.93939068 -830.70301814 846.275048 -830.6875 830.5625 C-830.68689575 829.4161911 -830.6862915 828.2698822 -830.68566895 827.08883667 C-830.61926058 780.26972529 -826.23284554 734.34556284 -818.5 688.1875 C-818.28730469 686.91277832 -818.07460938 685.63805664 -817.85546875 684.32470703 C-815.0796524 667.95410624 -811.42570621 651.85928431 -807.38525391 635.7578125 C-806.53628028 632.33382181 -805.72175064 628.90359475 -804.91796875 625.46875 C-789.12976628 558.82960159 -762.49995948 492.54227538 -729.01806641 432.89550781 C-727.46294244 430.12139474 -725.92423475 427.3385922 -724.38671875 424.5546875 C-709.11729459 397.05518394 -691.89895299 370.6900287 -673.5 345.1875 C-672.94844238 344.42195801 -672.39688477 343.65641602 -671.82861328 342.86767578 C-664.16160179 332.25930022 -656.2135532 321.95291332 -647.87646484 311.86376953 C-646.03388938 309.61986688 -644.23538319 307.34229002 -642.4375 305.0625 C-635.19892507 295.99137446 -627.54420817 287.24201995 -619.73046875 278.6640625 C-617.84465912 276.5701863 -615.98721091 274.45698244 -614.13671875 272.33203125 C-604.07751088 260.82126858 -593.35583896 249.94224863 -582.5625 239.125 C-582.02465881 238.58457062 -581.48681763 238.04414124 -580.93267822 237.48733521 C-575.52722579 232.06136774 -570.10730253 226.70399135 -564.28149414 221.72387695 C-561.33082217 219.17919027 -558.52119531 216.48576657 -555.6875 213.8125 C-550.64089056 209.08553624 -545.46665852 204.61240857 -540.06640625 200.2890625 C-537.52440637 198.20748573 -535.10470665 196.0371162 -532.6875 193.8125 C-527.19219212 188.81754983 -521.37558039 184.27759163 -515.50390625 179.74121094 C-513.35986404 178.07884682 -511.22619344 176.40377563 -509.09375 174.7265625 C-500.73147372 168.16073971 -492.31056031 161.73265836 -483.58984375 155.6484375 C-481.11666781 153.91952572 -478.65256594 152.17795443 -476.1875 150.4375 C-465.04599061 142.59763135 -453.8137561 134.98387613 -442.20605469 127.85107422 C-440.25871269 126.65392622 -438.31441091 125.45182772 -436.37207031 124.24658203 C-420.73742726 114.55038032 -404.93166495 105.37275989 -388.62646484 96.83300781 C-385.60000768 95.24013562 -382.5898598 93.61990646 -379.58203125 91.9921875 C-362.30544008 82.72171733 -344.4717338 74.82110205 -326.48504639 67.046875 C-324.69819188 66.2733021 -322.9136453 65.49440341 -321.12939453 64.71484375 C-239.20076467 28.98356173 -149.85101875 8.50871782 -49.74749756 1.32138062 C-48.23924415 1.23153585 -46.73114453 1.13907425 -45.22320557 1.0440979 C-30.15184259 0.1051383 -15.09734811 -0.01348535 0 0 Z " fill="#6A2786" transform="translate(1022.5,191.8125)"/>
<path d="M0 0 C1.00142029 0.24753021 1.00142029 0.24753021 2.02307129 0.50006104 C86.41159258 21.43182224 171.90498192 53.75054226 246.19482422 99.29589844 C249.35104391 101.21325383 252.53371957 103.08316193 255.72265625 104.9453125 C268.48666112 112.40896497 281.08124365 120.07447411 293.39257812 128.26806641 C296.29116672 130.19340231 299.20010401 132.10256631 302.109375 134.01171875 C311.54322988 140.22375998 320.88920355 146.42585148 329.7421875 153.44921875 C333.88491923 156.73141495 338.17117945 159.81898401 342.4375 162.9375 C363.99150643 178.75465832 384.75728757 195.76436559 404.5234375 213.76953125 C406.55167003 215.59622017 408.59975525 217.39160185 410.66113281 219.18041992 C414.82059336 222.81855678 418.8775773 226.55347354 422.8984375 230.34375 C423.62727142 231.03053833 424.35610535 231.71732666 425.10702515 232.42492676 C432.67281475 239.58762972 440.06836633 246.91663554 447.42431641 254.29394531 C449.65541572 256.53048995 451.89192947 258.761523 454.12890625 260.9921875 C455.57844632 262.44238723 457.02767679 263.89289651 458.4765625 265.34375 C459.13081207 265.99597534 459.78506165 266.64820068 460.45913696 267.32019043 C464.26181212 271.14203482 467.88441605 275.07087062 471.39831543 279.16020203 C474.13018931 282.29820818 477.01334064 285.29335496 479.875 288.3125 C484.79493773 293.5394866 489.45374682 298.85862862 493.93359375 304.46875 C496.00112782 307.00138153 498.16113341 309.4073116 500.375 311.8125 C504.88771505 316.77101186 508.99548182 321.98763687 513.1015625 327.28125 C515.57826174 330.47306444 518.10174315 333.62441334 520.63916016 336.76806641 C525.96801078 343.37409347 531.0715929 350.08788701 536 357 C537.55749818 359.15759152 539.11813521 361.31289531 540.67871094 363.46826172 C542.93076941 366.58056244 545.17727972 369.69684539 547.42333984 372.81347656 C548.41486867 374.18853574 549.40725647 375.56297635 550.40087891 376.93652344 C603.93155183 450.93892661 644.26965075 534.23746399 725 880 C725.04236786 880.66852997 725.08473572 881.33705994 725.12838745 882.02584839 C726.27779964 900.50478093 726.18744873 919.00942381 726.18530273 937.51586914 C726.18522206 941.18681834 726.19208455 944.85764117 726.20581055 948.52856445 C726.3217585 980.07942838 725.55968131 1011.54190734 722.1875 1042.9375 C722.10318726 1043.74587311 722.01887451 1044.55424622 721.93200684 1045.38711548 C721.31904649 1051.26169527 720.6711243 1057.13179568 720 1063 C719.9101886 1063.78721436 719.8203772 1064.57442871 719.72784424 1065.38549805 C709.97355502 1150.21191561 689.22936335 1233.54277532 603.40527344 1426.55224609 C601.676669 1429.56318912 600.01692758 1432.60835243 598.36010742 1435.65917969 C591.41630613 1448.41044503 583.69960744 1460.69576155 576 1473 C575.35353516 1474.03431152 574.70707031 1475.06862305 574.04101562 1476.13427734 C567.65626921 1486.3265768 561.21919847 1496.37440203 554 1506 C552.50364272 1508.06209892 551.01612132 1510.1304124 549.52905273 1512.19921875 C528.46669989 1541.49687383 506.4937293 1569.8500101 482.1953125 1596.55859375 C480.38213397 1598.57502895 478.59904727 1600.61106366 476.82177734 1602.65893555 C473.18283294 1606.81905364 469.44723086 1610.87683004 465.65625 1614.8984375 C464.96946167 1615.62727142 464.28267334 1616.35610535 463.57507324 1617.10702515 C456.41237028 1624.67281475 449.08336446 1632.06836633 441.70605469 1639.42431641 C439.46951005 1641.65541572 437.238477 1643.89192947 435.0078125 1646.12890625 C433.55761277 1647.57844632 432.10710349 1649.02767679 430.65625 1650.4765625 C430.00402466 1651.13081207 429.35179932 1651.78506165 428.67980957 1652.45913696 C424.85909737 1656.2606856 420.93153667 1659.88223664 416.8432312 1663.3948822 C413.68220886 1666.14755545 410.66614758 1669.05397901 407.625 1671.9375 C402.68601877 1676.58750154 397.67401939 1680.99782487 392.30859375 1685.15625 C389.85656785 1687.11455156 387.55851105 1689.18732289 385.25 1691.3125 C380.26146128 1695.85744011 375.01604605 1699.99268724 369.6875 1704.125 C366.63925817 1706.49012633 363.63449264 1708.90408792 360.63818359 1711.33447266 C352.09234288 1718.25296954 343.28839486 1724.79096455 334.39648438 1731.25634766 C332.06768643 1732.95075219 329.74444929 1734.65254768 327.421875 1736.35546875 C317.13930233 1743.86965647 306.67306283 1751.05265116 296 1758 C295.05205566 1758.6177832 294.10411133 1759.23556641 293.12744141 1759.87207031 C278.63170682 1769.29418159 263.96257023 1778.34007129 249 1787 C248.13455566 1787.5048291 247.26911133 1788.0096582 246.37744141 1788.52978516 C232.7996202 1796.44869792 219.00419855 1803.86453725 205 1811 C203.77651479 1811.62545862 202.55304531 1812.25094804 201.32958984 1812.87646484 C122.49073315 1853.1241272 37.6012291 1882.42205116 -559.55487061 1869.12013245 C-574.84894566 1864.13628808 -589.97832756 1858.75084628 -605 1853 C-605.69657715 1852.73378845 -606.3931543 1852.4675769 -607.11083984 1852.19329834 C-652.34141884 1834.87114079 -697.21847576 1814.58153858 -738.64697266 1789.40917969 C-742.15379165 1787.30901791 -745.73119214 1785.34434009 -749.3125 1783.375 C-757.646207 1778.74719472 -765.66771826 1773.64008292 -773.68457031 1768.48779297 C-775.8567177 1767.09206689 -778.03329417 1765.70353522 -780.2109375 1764.31640625 C-798.61608149 1752.54911127 -816.5452532 1740.13402185 -834 1727 C-834.85480957 1726.3591748 -835.70961914 1725.71834961 -836.59033203 1725.05810547 C-848.02362373 1716.47527696 -859.2242298 1707.67165993 -870.19287109 1698.50292969 C-872.75436414 1696.37262015 -875.34661314 1694.2819512 -877.9375 1692.1875 C-882.30401763 1688.6215106 -886.50768425 1684.90450257 -890.67578125 1681.109375 C-892.72042335 1679.25373343 -894.78784149 1677.43243624 -896.875 1675.625 C-901.20830627 1671.84746848 -905.44149299 1667.96293403 -909.66699219 1664.06591797 C-911.72068431 1662.17367839 -913.78150316 1660.29068092 -915.84936523 1658.41381836 C-924.52065904 1650.52449026 -932.84574496 1642.3081244 -941.12255859 1634.0078125 C-943.38915993 1631.73580631 -945.66111959 1629.46925556 -947.93359375 1627.203125 C-949.40136271 1625.73469583 -950.86882176 1624.2659568 -952.3359375 1622.796875 C-953.00273529 1622.13210144 -953.66953308 1621.46732788 -954.35653687 1620.78240967 C-958.19534593 1616.92464067 -961.85680277 1612.96343702 -965.40325928 1608.83485413 C-968.13297671 1605.69806853 -971.01495186 1602.70494515 -973.875 1599.6875 C-978.79493773 1594.4605134 -983.45374682 1589.14137138 -987.93359375 1583.53125 C-990.00112782 1580.99861847 -992.16113341 1578.5926884 -994.375 1576.1875 C-998.88771505 1571.22898814 -1002.99548182 1566.01236313 -1007.1015625 1560.71875 C-1009.57826174 1557.52693556 -1012.10174315 1554.37558666 -1014.63916016 1551.23193359 C-1019.96801078 1544.62590653 -1025.0715929 1537.91211299 -1030 1531 C-1031.55749818 1528.84240848 -1033.11813521 1526.68710469 -1034.67871094 1524.53173828 C-1036.93076941 1521.41943756 -1039.17727972 1518.30315461 -1041.42333984 1515.18652344 C-1042.41486867 1513.81146426 -1043.40725647 1512.43702365 -1044.40087891 1511.06347656 C-1097.41961386 1437.76879176 -1138.19348562 1355.08975184 -1215.6875 1048.6875 C-1215.79041351 1047.73591003 -1215.89332703 1046.78432007 -1215.99935913 1045.80389404 C-1219.43439155 1013.72254387 -1220.34389898 981.57505898 -1220.26074219 949.33203125 C-1220.24934882 944.88943166 -1220.25615312 940.44707185 -1220.26761246 936.00448036 C-1220.33815779 903.78117868 -1219.1904203 871.67957257 -1215.75 839.625 C-1215.64328979 838.60826202 -1215.53657959 837.59152405 -1215.42663574 836.54397583 C-1210.18778202 786.85196382 -1201.47589293 737.39242587 -1189 689 C-1188.71733276 687.90186981 -1188.71733276 687.90186981 -1188.42895508 686.78155518 C-1175.2509246 635.80745842 -1157.7253419 585.95768019 -1136 538 C-1135.47341797 536.83404297 -1134.94683594 535.66808594 -1134.40429688 534.46679688 C-1123.17170394 509.69503967 -1111.22165904 485.35758182 -1097.60888672 461.80322266 C-1095.96937535 458.94664155 -1094.35776631 456.07595304 -1092.75390625 453.19921875 C-1085.51993829 440.23410656 -1077.92449894 427.55359385 -1070 415 C-1068.78384782 413.0612019 -1067.56770213 411.12239973 -1066.3515625 409.18359375 C-1060.50692643 399.89815135 -1054.5854311 390.78057479 -1048 382 C-1046.50364272 379.93790108 -1045.01612132 377.8695876 -1043.52905273 375.80078125 C-1022.46669989 346.50312617 -1000.4937293 318.1499899 -976.1953125 291.44140625 C-974.38213397 289.42497105 -972.59904727 287.38893634 -970.82177734 285.34106445 C-967.18283294 281.18094636 -963.44723086 277.12316996 -959.65625 273.1015625 C-958.96946167 272.37272858 -958.28267334 271.64389465 -957.57507324 270.89297485 C-950.41237028 263.32718525 -943.08336446 255.93163367 -935.70605469 248.57568359 C-933.46951005 246.34458428 -931.238477 244.10807053 -929.0078125 241.87109375 C-927.55761277 240.42155368 -926.10710349 238.97232321 -924.65625 237.5234375 C-924.00402466 236.86918793 -923.35179932 236.21493835 -922.67980957 235.54086304 C-918.85796518 231.73818788 -914.92912938 228.11558395 -910.83979797 224.60168457 C-907.70178089 221.86980117 -904.7068113 218.98649918 -901.6875 216.125 C-896.55110138 211.29471063 -891.32342878 206.6811663 -885.8125 202.27734375 C-882.46137225 199.56386114 -879.2002728 196.7560045 -875.9375 193.9375 C-870.38869933 189.16124199 -864.76594004 184.51350225 -859 180 C-858.37673828 179.50806152 -857.75347656 179.01612305 -857.11132812 178.50927734 C-846.63475907 170.2417705 -835.97755813 162.2874903 -825.12109375 154.52734375 C-822.452793 152.60597065 -819.81155041 150.6496156 -817.17114258 148.69018555 C-809.28991028 142.84836315 -801.2147168 137.36020591 -793 132 C-792.02256836 131.35877197 -792.02256836 131.35877197 -791.02539062 130.70458984 C-770.76884077 117.42168701 -750.08768872 104.91948419 -729 93 C-728.34323273 92.62748108 -727.68646545 92.25496216 -727.00979614 91.87115479 C-715.11833808 85.13916597 -703.04502045 78.83807923 -690.8125 72.75 C-689.89937042 72.29501129 -688.98624084 71.84002258 -688.04544067 71.37124634 C-609.10262982 32.09812082 -524.66056998 3.79836106 -356 -24 C-355.30445007 -24.07047546 -354.60890015 -24.14095093 -353.89227295 -24.21356201 C-260.28501614 -33.59999282 -164.54330177 -30.83931742 0 0 Z M-328.54296875 2.74353027 C-331.1606132 3.01676512 -333.77933909 3.27722247 -336.3984375 3.53613281 C-401.2638919 10.00581282 -464.93099978 23.05231719 -527 43 C-528.43894902 43.45984769 -529.87791382 43.919646 -531.31689453 44.37939453 C-550.50933259 50.52945228 -569.35393078 57.32909701 -588 65 C-589.10424316 65.45375 -590.20848633 65.9075 -591.34619141 66.375 C-607.07381078 72.86993711 -622.59311145 79.77966797 -638 87 C-638.99821777 87.46486816 -639.99643555 87.92973633 -641.02490234 88.40869141 C-666.50786415 100.30346061 -691.02971013 113.70087479 -715.08056641 128.23828125 C-717.59250296 129.75409779 -720.11196901 131.25568022 -722.63671875 132.75 C-764.35115147 157.61108924 -803.38330255 187.11009378 -840.30859375 218.56298828 C-841.99292607 219.99399002 -843.6834628 221.41737035 -845.375 222.83984375 C-853.20029321 229.44844018 -860.72037395 236.33217843 -868.15625 243.375 C-870.44802633 245.54496932 -872.75150369 247.69712048 -875.09375 249.8125 C-882.57264163 256.57143908 -889.73989144 263.63189151 -896.875 270.75 C-897.37363556 271.24604736 -897.87227112 271.74209473 -898.38601685 272.25317383 C-903.56051154 277.4064559 -908.64169201 282.5968875 -913.39501953 288.14550781 C-916.16909046 291.35083833 -919.09307866 294.41557211 -922 297.5 C-926.76678456 302.58627247 -931.4693222 307.70124592 -936 313 C-936.89799555 314.03293646 -937.79648068 315.0654474 -938.6953125 316.09765625 C-944.23173626 322.4779316 -949.61177505 328.94497053 -954.79077148 335.61889648 C-957.70033601 339.36434657 -960.66981733 343.0511297 -963.68603516 346.71118164 C-971.4995119 356.20534169 -978.80944852 366.02833768 -986 376 C-986.49290527 376.68078613 -986.98581055 377.36157227 -987.49365234 378.06298828 C-1011.96987656 411.95379034 -1033.88975844 447.61370378 -1053.63134766 484.45068359 C-1054.91582773 486.84321677 -1056.2126477 489.22864984 -1057.51171875 491.61328125 C-1064.98169184 505.43707621 -1071.50253983 519.70092995 -1078 534 C-1078.51884766 535.13566406 -1079.03769531 536.27132812 -1079.57226562 537.44140625 C-1087.30815539 554.40728393 -1094.38600273 571.56718987 -1101 589 C-1101.45761719 590.19995605 -1101.91523437 591.39991211 -1102.38671875 592.63623047 C-1129.94978337 665.2208975 -1147.07544725 741.4755303 -1155.1875 818.625 C-1155.26631409 819.35785217 -1155.34512817 820.09070435 -1155.42633057 820.84576416 C-1158.53724389 850.09659025 -1159.37937902 879.31938043 -1159.31785583 908.71135712 C-1159.3124112 911.41916544 -1159.3100471 914.12696501 -1159.3079834 916.83477783 C-1159.27743061 942.56784192 -1158.8888858 968.16087885 -1156.22784424 993.77844238 C-1155.995377 996.0450758 -1155.77688601 998.31268981 -1155.56201172 1000.58105469 C-1149.27216478 1066.57936377 -1135.64945191 1132.00129537 -1115 1195 C-1114.7741925 1195.69013184 -1114.54838501 1196.38026367 -1114.31573486 1197.09130859 C-1107.89497541 1216.66477538 -1100.79893187 1235.92913086 -1093 1255 C-1092.55688477 1256.08442383 -1092.11376953 1257.16884766 -1091.65722656 1258.28613281 C-1077.38565458 1293.01119217 -1061.21816285 1327.08791195 -1042.39013672 1359.58251953 C-1040.79678512 1362.35339546 -1039.25334337 1365.1491394 -1037.71484375 1367.95068359 C-1025.46949974 1390.14245961 -1011.40847152 1411.17773659 -997 1432 C-996.42266113 1432.83885742 -995.84532227 1433.67771484 -995.25048828 1434.54199219 C-986.89862261 1446.66305248 -978.00030637 1458.35520024 -969 1470 C-968.20432617 1471.03181396 -968.20432617 1471.03181396 -967.39257812 1472.08447266 C-961.6490504 1479.51940446 -955.724969 1486.76857851 -949.62109375 1493.91015625 C-947.17696666 1496.77577694 -944.80304266 1499.69405522 -942.4375 1502.625 C-938.56070231 1507.38950808 -934.48528468 1511.9364389 -930.328125 1516.45703125 C-928.39305738 1518.57067054 -926.49791703 1520.70659848 -924.625 1522.875 C-916.66594069 1532.00287222 -908.37215437 1540.77021019 -899.72045898 1549.24267578 C-896.56740959 1552.34787574 -893.75194045 1555.5257498 -891 1559 C-889.92667838 1559.99275753 -888.82149857 1560.95215979 -887.6875 1561.875 C-883.39578992 1565.53060296 -879.46157173 1569.49559521 -875.5 1573.5 C-871.1450206 1577.89316701 -866.80513568 1582.21499939 -862.07421875 1586.20703125 C-859.78897358 1588.18241267 -857.58612242 1590.23223685 -855.37939453 1592.29443359 C-850.00541508 1597.31480055 -844.53768896 1602.12267746 -838.80078125 1606.73046875 C-836.27291578 1608.77885068 -833.79029809 1610.86750953 -831.31762695 1612.98144531 C-824.66892354 1618.66525527 -817.8658744 1624.11703824 -810.95556641 1629.47851562 C-808.83329506 1631.12970102 -806.71908887 1632.79088193 -804.60546875 1634.453125 C-796.1870048 1641.06050974 -787.7028674 1647.51732025 -778.93017578 1653.64697266 C-776.77878288 1655.15507023 -774.63743094 1656.67687939 -772.49609375 1658.19921875 C-734.23047865 1685.31655344 -693.86800353 1708.91356452 -652 1730 C-651.38960876 1730.30808594 -650.77921753 1730.61617187 -650.15032959 1730.93359375 C-577.37948498 1767.61886614 -498.70804039 1793.44773087 -338.9375 1820.25 C-338.21065002 1820.32713226 -337.48380005 1820.40426453 -336.73492432 1820.48373413 C-308.94547055 1823.39198806 -281.22608504 1824.35438543 -253.30513763 1824.25794983 C-250.83023584 1824.24985356 -248.3553432 1824.24491824 -245.88043213 1824.24060059 C-222.94552333 1824.19457149 -200.04032878 1824.09116402 -177.17077637 1822.18035889 C-174.86337543 1821.98864855 -172.55531044 1821.80679932 -170.24707031 1821.62548828 C-102.71061073 1816.23292084 -35.38106713 1803.15809718 29 1782 C30.43275671 1781.53458328 31.86570821 1781.06976589 33.29882812 1780.60546875 C112.56364315 1754.89997283 187.88200168 1718.8418826 257.25 1672.625 C257.93551941 1672.16868195 258.62103882 1671.71236389 259.32733154 1671.24221802 C280.15045736 1657.3577337 300.48511583 1642.67456238 320 1627 C320.63502441 1626.49114258 321.27004883 1625.98228516 321.92431641 1625.45800781 C334.16602885 1615.63238353 346.16047291 1605.55076608 357.78515625 1595 C359.77412502 1593.20396471 361.78563194 1591.44046697 363.8125 1589.6875 C372.67656327 1581.94479413 381.19559002 1573.89058551 389.4621582 1565.51635742 C392.34016749 1562.61370087 395.25432806 1559.83315637 398.375 1557.1875 C401.53152102 1554.50054409 404.14690554 1551.5936347 406.8203125 1548.43359375 C409.7537056 1545.15849715 412.87395218 1542.0901865 416 1539 C420.23817633 1534.80147912 424.38130391 1530.59944828 428.23828125 1526.04296875 C430.09075011 1523.89476206 432.00849683 1521.81389516 433.93847656 1519.73535156 C438.7040931 1514.60040784 443.24396235 1509.35231147 447.63671875 1503.890625 C449.79314579 1501.25301176 452.00188904 1498.67756696 454.23999023 1496.10986328 C460.3470459 1489.0934142 466.04949489 1481.83328742 471.65234375 1474.41015625 C474.44891847 1470.70738297 477.30707687 1467.05761408 480.18261719 1463.41601562 C505.15589872 1431.70258854 527.10003769 1397.07879876 547 1362 C547.40250977 1361.29407715 547.80501953 1360.5881543 548.21972656 1359.86083984 C593.9876636 1279.42079024 626.62369967 1191.97864671 665.31805801 914.20882797 C665.3123973 911.57725717 665.30958969 908.94569286 665.30697632 906.31411743 C665.26870226 879.77474749 664.72447312 853.41870103 662 827 C661.8212131 825.21452583 661.64250434 823.42904384 661.46386719 821.64355469 C653.04914676 738.7062711 633.84157975 656.99009196 571 507 C570.39913574 505.77555176 570.39913574 505.77555176 569.78613281 504.52636719 C567.56345259 499.99701606 565.29761838 495.49175035 563 491 C562.42016357 489.85917969 562.42016357 489.85917969 561.82861328 488.6953125 C554.41324713 474.14570433 546.35941791 460.02557669 538 446 C537.43941895 445.05398926 536.87883789 444.10797852 536.30126953 443.13330078 C523.22506822 421.10801454 509.03753393 399.73586496 494 379 C493.4436084 378.23252441 492.8872168 377.46504883 492.31396484 376.67431641 C484.75598825 366.27819145 477.05201922 356.01869241 469 346 C468.4858252 345.3596582 467.97165039 344.71931641 467.44189453 344.05957031 C460.53646291 335.47600887 453.53112798 326.98438397 446.37255859 318.61083984 C444.96681432 316.96105316 443.57072891 315.30345255 442.17578125 313.64453125 C435.00735438 305.15366778 427.49714058 297.03125219 419.85400391 288.96728516 C418.10194835 287.10817749 416.36593748 285.23580904 414.63671875 283.35546875 C407.78620075 275.91491055 400.76604429 268.66266595 393.625 261.5 C392.79266846 260.66307617 391.96033691 259.82615234 391.1027832 258.96386719 C386.7834516 254.6553458 382.40043869 250.49335207 377.75341797 246.5390625 C375.92053488 244.9302495 374.20707767 243.24104047 372.5 241.5 C369.51127663 238.46405075 366.38293521 235.65491341 363.15625 232.875 C360.80037042 230.82640906 358.4949254 228.72796998 356.1875 226.625 C351.87090287 222.7295343 347.4259887 219.03141782 342.90625 215.375 C340.34642926 213.28310348 337.82290359 211.15819981 335.30981445 209.01098633 C328.58017156 203.26167366 321.69848118 197.73844703 314.70117188 192.31884766 C313.08364394 191.06484566 311.47136083 189.80408702 309.859375 188.54296875 C300.74539909 181.45559301 291.40399609 174.69623807 282 168 C281.1961084 167.42701172 280.3922168 166.85402344 279.56396484 166.26367188 C247.14465524 143.21280228 213.08098943 122.72727831 178 104 C176.91992676 103.42233887 175.83985352 102.84467773 174.72705078 102.24951172 C101.78530739 63.41338521 22.41070532 35.40672204 -177.48046875 1.796875 C-178.27620804 1.730448 -179.07194733 1.664021 -179.89179993 1.59558105 C-194.65353141 0.41540657 -209.37713488 -0.16494837 -224.18359375 -0.203125 C-225.87930832 -0.21014782 -227.57502263 -0.21723463 -229.27073669 -0.22438049 C-234.65966168 -0.24377773 -240.04854362 -0.24881475 -245.4375 -0.25 C-246.35609047 -0.25044186 -247.27468094 -0.25088371 -248.22110748 -0.25133896 C-275.08187444 -0.25811445 -301.80222095 -0.06728697 -328.54296875 2.74353027 Z " fill="#000000" transform="translate(1271,112)"/>
<path d="M0 0 C2.70531605 0.00544493 5.41062335 0.00780891 8.11594391 0.00987244 C34.18705175 0.0408467 60.1233305 0.45762428 86.08274078 3.0900116 C88.38003272 3.32102177 90.67821776 3.53985061 92.97696686 3.75584412 C176.11310461 11.63706047 258.60736132 31.17055269 440.95938873 110.9828949 C443.20078734 112.23529298 445.45286792 113.46467852 447.71183014 114.68504333 C483.8775362 134.2990053 518.6613163 157.35831139 551.34854889 182.31785583 C552.35917389 183.08355896 553.36979889 183.84926208 554.41104889 184.63816833 C562.59269611 190.86091855 570.57521923 197.31823982 578.52823639 203.82957458 C580.12116753 205.13194962 581.71884409 206.42851616 583.31729889 207.72410583 C594.05858567 216.44350334 604.51279143 225.45565609 614.66495514 234.85301208 C616.96548539 236.96601731 619.29514071 239.02890618 621.66104889 241.06785583 C624.75154366 243.74416059 627.62743144 246.57256324 630.48868561 249.49046326 C632.21736874 251.18896592 633.99569762 252.75650311 635.84464264 254.32176208 C640.91711648 258.73377579 645.65333243 263.47231964 650.39420319 268.23313904 C651.90847469 269.75277252 653.42802319 271.26698101 654.94815826 272.78074646 C659.76006679 277.58970934 664.47872201 282.43642472 668.87760162 287.6325531 C670.46024896 289.44583353 672.13042387 291.1330949 673.84854889 292.81785583 C676.88449813 295.8065792 679.69363548 298.93492062 682.47354889 302.16160583 C684.52213983 304.51748541 686.6205789 306.82293044 688.72354889 309.13035583 C692.61901459 313.44695297 696.31713107 317.89186714 699.97354889 322.41160583 C702.06493477 324.97080171 704.18922253 327.49377114 706.33609772 330.00608826 C712.55303731 337.28416306 718.4985197 344.74293226 724.34854889 352.31785583 C724.9536026 353.09693298 725.55865631 353.87601013 726.18204498 354.67869568 C734.61730097 365.55225143 742.72293992 376.56504687 750.40714264 387.98191833 C752.57510192 391.19988439 754.80263581 394.36162476 757.09146881 397.49436951 C764.35154204 407.43709395 770.85029292 417.86753946 777.34854889 428.31785583 C778.01837799 429.39406189 778.68820709 430.47026794 779.37833405 431.5790863 C792.96962849 453.49652176 805.95660913 475.81352479 817.21964264 499.02928162 C818.59932173 501.82623485 820.02065311 504.60059289 821.44229889 507.37644958 C860.2235545 583.39077413 887.425344 666.71005508 904.34854889 765.31785583 C904.57217975 766.69350719 904.79581256 768.06915824 905.01944733 769.44480896 C907.7014753 786.05672777 909.83590014 802.70214241 911.53604889 819.44285583 C911.65427002 820.587211 911.65427002 820.587211 911.77487946 821.75468445 C912.37195837 827.60352715 912.88181612 833.45723069 913.34854889 839.31785583 C913.43715179 840.42369019 913.5257547 841.52952454 913.61704254 842.66886902 C915.25402562 863.80540886 915.66597994 884.85059517 915.60929108 906.04393005 C915.5979158 910.32773693 915.60467798 914.61129461 915.61616898 918.89509296 C915.68113964 947.48017254 914.65392516 975.94200683 911.59854889 1004.38035583 C911.47449677 1005.55989334 911.47449677 1005.55989334 911.34793854 1006.76325989 C904.45328748 1071.87949797 890.99296334 1136.15304306 870.34854889 1198.31785583 C870.09458344 1199.08386108 869.84061798 1199.84986633 869.5789566 1200.63908386 C851.25000349 1255.74706917 827.9089546 1309.66435409 798.72696686 1359.92381287 C797.48371884 1362.08309202 796.2689769 1364.25420961 795.07120514 1366.43894958 C765.48037307 1420.40835898 727.66038046 1471.58622623 686.34854889 1517.10301208 C684.5525136 1519.09198085 682.78901586 1521.10348778 681.03604889 1523.13035583 C673.49616345 1531.76474077 665.66833952 1540.09125402 657.50699615 1548.13792419 C654.74438347 1550.8749275 652.11353348 1553.66484113 649.59854889 1556.63035583 C646.90661169 1559.78376798 644.00929528 1562.39870899 640.84854889 1565.07176208 C637.38000773 1568.18802953 634.12719052 1571.50387363 630.84854889 1574.81785583 C626.45050522 1579.25453532 622.0663375 1583.62408079 617.28995514 1587.65769958 C614.81409892 1589.77488045 612.43193621 1591.98567413 610.03604889 1594.19285583 C605.49330204 1598.34030842 600.80734927 1602.25018279 596.02042389 1606.11082458 C593.44995839 1608.23408921 590.98935526 1610.43597432 588.53604889 1612.69285583 C583.03526516 1617.69278327 577.21245898 1622.23651965 571.33487701 1626.77732849 C569.24312319 1628.39962036 567.162291 1630.03519132 565.08292389 1631.67332458 C554.69881828 1639.83650591 544.12292204 1647.67850096 533.34854889 1655.31785583 C532.55190826 1655.88504333 531.75526764 1656.45223083 530.93448639 1657.03660583 C499.09483933 1679.67813263 465.77772189 1699.87814912 431.34854889 1718.31785583 C430.45216705 1718.79835388 429.55578522 1719.27885193 428.6322403 1719.77391052 C359.6349281 1756.6107188 285.71046797 1784.16742912 138.72769928 1814.83226013 C136.16053968 1815.20116992 133.60438091 1815.5959993 131.04557037 1816.01634216 C119.73632821 1817.87373181 108.4454758 1819.30167427 97.03604889 1820.38035583 C96.14907318 1820.46434631 95.26209747 1820.54833679 94.34824371 1820.63487244 C88.0176633 1821.22790433 81.68433679 1821.78355289 75.34854889 1822.31785583 C74.23078064 1822.41353851 74.23078064 1822.41353851 73.09043121 1822.51115417 C23.38226664 1826.71178371 -28.57079195 1826.68239574 -78.19246674 1821.5710907 C-80.75632128 1821.30705594 -83.32099813 1821.05222821 -85.88582611 1820.7978363 C-153.84596228 1813.96738637 -220.85809888 1799.98899939 -285.65145111 1778.31785583 C-286.34653778 1778.08580444 -287.04162445 1777.85375305 -287.75777435 1777.6146698 C-341.88745165 1759.494631 -394.90650044 1736.41189928 -444.27645111 1707.68894958 C-447.1133724 1706.05118746 -449.97707444 1704.46619182 -452.84603119 1702.88548279 C-469.27759695 1693.79793542 -484.96869579 1683.53063779 -500.58895111 1673.13035583 C-501.28269836 1672.66908295 -501.97644562 1672.20781006 -502.69121552 1671.7325592 C-512.14377939 1665.43957214 -521.45574321 1658.98040916 -530.65145111 1652.31785583 C-531.52535492 1651.68484558 -532.39925873 1651.05183533 -533.29964447 1650.39964294 C-556.89356219 1633.23054167 -579.80924535 1614.97844302 -601.40926361 1595.34519958 C-603.36353536 1593.57818384 -605.34204849 1591.84872054 -607.33895111 1590.13035583 C-617.29430149 1581.44205005 -626.8283949 1572.2854063 -636.06551361 1562.84129333 C-638.53356492 1560.33230401 -638.53356492 1560.33230401 -641.04988861 1558.48191833 C-643.98065708 1556.04401183 -646.29590104 1553.34869357 -648.76863861 1550.45848083 C-651.89182538 1546.90763778 -655.27690453 1543.62775593 -658.65145111 1540.31785583 C-663.30662938 1535.75185722 -667.78310216 1531.12174743 -672.03914642 1526.17967224 C-674.30644869 1523.5614943 -676.66577259 1521.03971791 -679.02645111 1518.50535583 C-683.29664371 1513.88351752 -687.33370484 1509.12361636 -691.28035736 1504.22019958 C-693.96977208 1500.92821418 -696.74341926 1497.71804563 -699.52645111 1494.50535583 C-705.46608468 1487.61425933 -711.10188772 1480.52492536 -716.65145111 1473.31785583 C-717.54888031 1472.15939148 -717.54888031 1472.15939148 -718.46443939 1470.9775238 C-728.24317582 1458.34511838 -737.66946077 1445.52877015 -746.65145111 1432.31785583 C-747.04781769 1431.73544128 -747.44418427 1431.15302673 -747.85256195 1430.55296326 C-772.60127477 1394.16037202 -794.84575941 1356.64288879 -814.65145111 1317.31785583 C-814.95953705 1316.7074646 -815.26762299 1316.09707336 -815.58504486 1315.46818542 C-852.27666631 1242.68474647 -878.13243379 1163.98602281 -904.90145111 1004.81785583 C-904.97858337 1004.06531525 -905.05571564 1003.31277466 -905.13518524 1002.53742981 C-905.71416446 996.80308269 -906.20147488 991.06367845 -906.65145111 985.31785583 C-906.73865417 984.22042053 -906.82585724 983.12298523 -906.91570282 981.99229431 C-908.61897694 959.90011907 -909.01640507 937.88736793 -908.96950912 915.73648453 C-908.96385929 913.02377005 -908.9610447 910.31106184 -908.95842743 907.5983429 C-908.92077298 880.73639674 -908.42487328 854.05676081 -905.65145111 827.31785583 C-905.4725204 825.5353258 -905.2938161 823.75277302 -905.1153183 821.97019958 C-897.1680877 743.64841351 -879.82520797 665.98577925 -821.98690033 522.17234802 C-820.80422955 519.64441626 -819.63299374 517.11171435 -818.46785736 514.57566833 C-813.56923289 503.95370659 -808.2160763 493.60504439 -802.65145111 483.31785583 C-802.06299408 482.22859802 -801.47453705 481.13934021 -800.86824799 480.01707458 C-791.92252866 463.49115357 -782.62291771 447.25225946 -772.65145111 431.31785583 C-772.08748627 430.4101947 -771.52352142 429.50253357 -770.94246674 428.56736755 C-761.97592703 414.15393614 -752.48028337 400.15584999 -742.65145111 386.31785583 C-742.05380951 385.47642029 -741.45616791 384.63498474 -740.84041595 383.76805115 C-733.97361741 374.12793711 -726.94752946 364.63741074 -719.65145111 355.31785583 C-718.73604454 354.14340939 -717.82068129 352.96892919 -716.90535736 351.79441833 C-705.6238628 337.3486977 -694.0235805 323.15046639 -681.69832611 309.57957458 C-679.82635421 307.51111708 -677.98281721 305.4222467 -676.15145111 303.31785583 C-663.65362624 289.00216553 -650.63253578 275.20802571 -637.21395111 261.75535583 C-636.29074066 260.8275531 -635.36753021 259.89975037 -634.41634369 258.9438324 C-629.91858181 254.45624369 -625.37023622 250.10640283 -620.54817963 245.96946716 C-617.21372867 243.06593251 -614.04128165 239.9903241 -610.83895111 236.94285583 C-605.43713626 231.83689346 -599.96273134 226.98051735 -594.14754486 222.34910583 C-591.6242178 220.29569414 -589.23212838 218.14597527 -586.83895111 215.94285583 C-582.46444285 211.96101997 -577.90616036 208.300435 -573.2349472 204.67893982 C-569.41821443 201.71733039 -565.6591386 198.69813626 -561.93148041 195.62522888 C-552.4417316 187.8122889 -542.62001395 180.50617228 -532.65145111 173.31785583 C-531.97066498 172.82495056 -531.28987885 172.33204529 -530.58846283 171.82420349 C-496.88945488 147.48649461 -461.54966017 125.48972279 -424.83553314 106.00828552 C-422.67256354 104.85996459 -420.51216312 103.70679392 -418.35408783 102.54930115 C-398.22809647 91.77258703 -377.6318445 82.30687492 -356.65145111 73.31785583 C-355.9824881 73.03105957 -355.31352509 72.74426331 -354.62429047 72.44877625 C-336.84417443 64.84026522 -318.89193077 57.74717342 -300.65145111 51.31785583 C-300.00299225 51.08924866 -299.35453339 50.86064148 -298.68642426 50.62510681 C-234.55031522 28.07654675 -168.17427289 13.07686453 -100.65145111 5.31785583 C-99.64299133 5.20117554 -99.64299133 5.20117554 -98.61415863 5.08213806 C-65.76603558 1.30049145 -33.0363848 -0.0692247 0 0 Z M-78.25539398 19.06785583 C-80.76616952 19.32982533 -83.27810266 19.57700093 -85.79061127 19.82176208 C-125.78007526 23.75594654 -165.47317711 30.38770761 -204.53774261 39.80863953 C-206.64422768 40.31611563 -208.75199304 40.81798629 -210.8599472 41.31932068 C-257.54559589 52.48143148 -303.57977296 67.56563906 -347.51424408 86.9360199 C-350.76335036 88.36714375 -354.02164494 89.77594713 -357.28035736 91.18504333 C-386.48241169 103.93169366 -415.20463992 118.12318563 -442.65145111 134.31785583 C-444.877772 135.61514556 -447.10434838 136.91199689 -449.33113861 138.20848083 C-463.01946374 146.20357298 -476.48664155 154.48367761 -489.65145111 163.31785583 C-490.98683929 164.21286804 -490.98683929 164.21286804 -492.34920502 165.1259613 C-514.44180733 179.97420024 -535.98111064 195.53660165 -556.65145111 212.31785583 C-557.8739492 213.30242725 -559.09662029 214.28678387 -560.31941986 215.27098083 C-572.23758949 224.8839484 -583.91364634 234.7237254 -595.19441986 245.07957458 C-597.3805018 247.0710292 -599.59727717 249.01458097 -601.83895111 250.94285583 C-605.19281887 253.85272888 -608.31790338 256.9366814 -611.40145111 260.13035583 C-613.25968207 261.93696927 -615.14754486 263.60934671 -617.11629486 265.29051208 C-622.50463286 269.97271456 -627.51660844 275.03329676 -632.5515976 280.08763123 C-634.21072431 281.75211861 -635.87513163 283.4111903 -637.54012299 285.06980896 C-642.60838714 290.13528201 -647.60373114 295.20434406 -652.22786713 300.6860199 C-653.74800196 302.42853083 -655.35921819 304.0289447 -657.02645111 305.63035583 C-660.74639581 309.28416818 -663.93343804 313.30192462 -667.19832611 317.36082458 C-669.75641488 320.44438063 -672.42214873 323.38710269 -675.15145111 326.31785583 C-680.23566656 331.79525295 -684.96935224 337.49543934 -689.65145111 343.31785583 C-690.62404581 344.49996868 -691.59809006 345.68088989 -692.57332611 346.86082458 C-701.27978644 357.42466312 -709.53414699 368.29651619 -717.65145111 379.31785583 C-718.20832611 380.07324646 -718.76520111 380.82863708 -719.33895111 381.60691833 C-748.73736046 421.60571567 -774.49538211 463.93420214 -797.0318222 508.14598083 C-798.49474806 511.01096918 -799.97156345 513.86826367 -801.45223236 516.72410583 C-814.52159496 542.14423239 -825.53274299 568.60537732 -835.65145111 595.31785583 C-836.08876556 596.45448669 -836.52608002 597.59111755 -836.97664642 598.76219177 C-866.66168156 676.03855238 -883.67268872 757.9457609 -890.65145111 840.31785583 C-890.74233002 841.36075775 -890.74233002 841.36075775 -890.83504486 842.42472839 C-895.07573367 891.42971599 -894.51201684 942.23309978 -889.85390472 991.16807556 C-889.65935245 993.23395441 -889.47525451 995.30044733 -889.29549408 997.36766052 C-882.83952928 1070.83597613 -866.01252522 1142.80096999 -841.65145111 1212.31785583 C-841.4161972 1212.98990051 -841.1809433 1213.66194519 -840.93856049 1214.35435486 C-834.52453101 1232.63367257 -827.43489539 1250.57640192 -819.65145111 1268.31785583 C-819.27842865 1269.17427673 -818.90540619 1270.03069763 -818.52108002 1270.91307068 C-804.38086392 1303.29539288 -788.53029387 1335.12729985 -770.37508392 1365.43992615 C-768.69486567 1368.24536705 -767.02843275 1371.05866939 -765.36238861 1373.87254333 C-749.62309035 1400.2624248 -732.27624971 1425.88041584 -713.65145111 1450.31785583 C-712.66679789 1451.62363567 -711.68244218 1452.92963988 -710.69832611 1454.23582458 C-702.94704501 1464.48847726 -694.90104096 1474.46288748 -686.65145111 1484.31785583 C-686.14307709 1484.92677673 -685.63470306 1485.53569763 -685.11092377 1486.16307068 C-679.75495321 1492.57139257 -674.30737696 1498.88143039 -668.69051361 1505.06394958 C-666.86058865 1507.08668274 -665.06263383 1509.13155018 -663.27645111 1511.19285583 C-656.34166089 1519.13896962 -649.20475888 1526.83963915 -641.69441986 1534.24363708 C-639.78007344 1536.18726605 -637.98781537 1538.1837801 -636.21395111 1540.25535583 C-630.25737174 1547.17712168 -623.71683952 1553.48016029 -616.78035736 1559.40769958 C-614.13666028 1561.77975073 -611.64503915 1564.29066837 -609.15145111 1566.81785583 C-605.46998391 1570.54384427 -601.71849965 1574.11641829 -597.73348236 1577.51707458 C-595.21991533 1579.69109785 -592.78368882 1581.94176071 -590.33895111 1584.19285583 C-585.85347559 1588.28346143 -581.24564567 1592.16603427 -576.52254486 1595.97801208 C-573.97392084 1598.05505397 -571.46439547 1600.16734054 -568.96541595 1602.3032074 C-561.6874082 1608.52152324 -554.22885464 1614.46957221 -546.65145111 1620.31785583 C-545.87769135 1620.91759216 -545.10393158 1621.51732849 -544.30672455 1622.13523865 C-531.67656789 1631.91167857 -518.85543092 1641.33114297 -505.65145111 1650.31785583 C-504.09998383 1651.37408142 -504.09998383 1651.37408142 -502.51717377 1652.4516449 C-481.10725495 1666.99365648 -459.15217254 1680.52536647 -436.65145111 1693.31785583 C-435.95906342 1693.71359802 -435.26667572 1694.10934021 -434.55330658 1694.51707458 C-375.77068946 1728.03555482 -312.62638043 1754.46907448 -247.65145111 1773.31785583 C-246.77859467 1773.57196228 -245.90573822 1773.82606873 -245.00643158 1774.08787537 C-182.07870368 1792.22409301 -117.03820257 1803.53261576 -51.65145111 1807.31785583 C-50.93178162 1807.36022369 -50.21211212 1807.40259155 -49.47063446 1807.44624329 C-32.76359481 1808.40047576 -16.06977066 1808.51993637 0.66104889 1808.50535583 C1.69333681 1808.50495552 1.69333681 1808.50495552 2.74647903 1808.50454712 C82.86312071 1808.46565872 163.08004467 1799.07913038 240.34854889 1777.31785583 C241.26104401 1777.06358826 242.17353912 1776.80932068 243.11368561 1776.54734802 C291.25455784 1763.06559923 338.16606301 1745.7225035 383.34854889 1724.31785583 C384.35111725 1723.84670349 385.35368561 1723.37555115 386.38663483 1722.89012146 C409.74462133 1711.90416737 432.49888668 1700.08965003 454.68741608 1686.89451599 C457.0690864 1685.48343095 459.45913208 1684.08900422 461.85636139 1682.70457458 C479.1789882 1672.68325371 495.97575621 1661.82064642 512.34854889 1650.31785583 C513.79513329 1649.30739596 515.2417488 1648.29698061 516.68839264 1647.28660583 C525.02602198 1641.4475915 533.25204181 1635.48854367 541.34854889 1629.31785583 C542.65432872 1628.33320262 543.96033293 1627.34884691 545.26651764 1626.36473083 C555.51917031 1618.61344973 565.49358053 1610.56744569 575.34854889 1602.31785583 C575.95746979 1601.80948181 576.56639069 1601.30110779 577.19376373 1600.77732849 C583.60208563 1595.42135793 589.91212344 1589.97378168 596.09464264 1584.35691833 C598.11737579 1582.52699337 600.16224324 1580.72903856 602.22354889 1578.94285583 C609.8890073 1572.25497613 617.36591354 1565.38644823 624.50089264 1558.13426208 C626.32694581 1556.33909354 628.21469406 1554.6686045 630.16104889 1553.00535583 C637.47752154 1546.69705855 644.21027973 1539.75890234 650.47354889 1532.41160583 C652.83201358 1529.77798693 655.3332051 1527.29980823 657.84854889 1524.81785583 C661.57453309 1521.13638533 665.14711132 1517.38490439 668.54776764 1513.39988708 C670.72179091 1510.88632005 672.97245377 1508.45009355 675.22354889 1506.00535583 C679.31415449 1501.51988031 683.19672732 1496.9120504 687.00870514 1492.18894958 C689.08625668 1489.6397002 691.19915931 1487.12961807 693.3353653 1484.62986755 C699.08611036 1477.90010011 704.60948622 1471.01713187 710.02970123 1464.01902771 C711.28370323 1462.40149978 712.54446187 1460.78921667 713.80558014 1459.17723083 C720.8928914 1450.06333784 727.65389311 1440.72288326 734.34854889 1431.31785583 C734.93217194 1430.49801208 735.51579498 1429.67816833 736.11710358 1428.83348083 C744.15635323 1417.51084164 751.94246485 1406.06454914 759.34854889 1394.31785583 C759.84145416 1393.53926208 760.33435944 1392.76066833 760.84220123 1391.95848083 C806.00203478 1320.45422501 841.81509362 1242.91285857 864.7541275 1161.42863464 C865.16592145 1159.96636232 865.57923248 1158.50451669 865.99375153 1157.04301453 C873.28149948 1131.34369743 879.45045275 1105.57740061 884.34854889 1079.31785583 C884.50281342 1078.49819336 884.65707794 1077.67853088 884.81601715 1076.83403015 C891.6835047 1040.29699674 896.30777271 1003.44783802 898.34854889 966.31785583 C898.43520008 964.97538565 898.52222017 963.63293925 898.60953522 962.29051208 C899.63045396 945.64841438 899.5488313 928.98407707 899.53604889 912.31785583 C899.53578201 911.53931622 899.53551514 910.7607766 899.53524017 909.95864487 C899.5252263 886.69345769 899.39854596 863.50844773 897.34854889 840.31785583 C897.28538483 839.57962585 897.22222076 838.84139587 897.15714264 838.08079529 C890.0707641 755.29348325 872.10768523 673.37027684 806.34854889 513.31785583 C805.85451569 512.30110779 805.36048248 511.28435974 804.85147858 510.23680115 C797.55891044 495.27139235 789.71363145 480.70969089 781.34854889 466.31785583 C780.81616608 465.39762634 780.28378326 464.47739685 779.73526764 463.52928162 C771.63700327 449.55682001 763.13528464 435.86708922 754.34854889 422.31785583 C753.6331192 421.21441833 752.91768951 420.11098083 752.18058014 418.97410583 C738.20453378 397.75673908 723.20606915 377.16500699 707.34854889 357.31785583 C706.64214264 356.42840271 705.93573639 355.53894958 705.20792389 354.62254333 C703.26348205 352.18050811 701.30913939 349.74694085 699.34854889 347.31785583 C698.66534576 346.47094177 697.98214264 345.62402771 697.27823639 344.75144958 C688.51155415 333.95806123 679.48280231 323.41734711 670.01651764 313.23191833 C667.96499393 310.99116184 665.95506269 308.73069495 663.96183014 306.43894958 C653.90644175 294.90982131 643.1488358 284.0194055 632.34854889 273.19285583 C631.86031647 272.70203522 631.37208405 272.2112146 630.8690567 271.70552063 C625.73876642 266.55374618 620.58460262 261.49777814 615.03531647 256.79637146 C613.27691199 255.25506338 611.6552656 253.62888924 610.03604889 251.94285583 C606.38223654 248.22291114 602.3644801 245.0358689 598.30558014 241.77098083 C595.22203903 239.21290446 592.27913993 236.54731858 589.34854889 233.81785583 C583.87585417 228.73292048 578.17181071 223.9984718 572.34854889 219.31785583 C570.66055324 217.92262193 568.97306541 216.52677347 567.28604889 215.13035583 C554.33516006 204.55257021 541.02769949 194.48909046 527.40909576 184.78904724 C525.51325064 183.43544976 523.62470865 182.07248065 521.73917389 180.70457458 C486.19046781 154.97292113 448.07876579 131.58079221 408.57462311 112.41551208 C405.94451286 111.11862947 403.33643946 109.78172795 400.72745514 108.44285583 C373.03033591 94.28626122 344.42201894 82.33555278 315.34854889 71.31785583 C314.17969147 70.87490173 313.01083405 70.43194763 311.8065567 69.97557068 C242.27163585 43.88744745 168.63073501 27.52634624 94.78604889 20.06785583 C94.02887573 19.99063293 93.27170258 19.91341003 92.49158478 19.83384705 C86.78239149 19.26067093 81.06816585 18.77429308 75.34854889 18.31785583 C74.28456879 18.23065277 73.22058868 18.14344971 72.12436676 18.05360413 C50.33211134 16.31266671 28.62838234 15.95370073 6.77593613 15.99979782 C4.05615174 16.00544385 1.33637361 16.00826081 -1.38341522 16.01087952 C-27.09004799 16.04685048 -52.66707173 16.3686403 -78.25539398 19.06785583 Z " fill="#A3A3A3" transform="translate(1020.6514511108398,111.68214416503906)"/>
</svg>
